<svg width="471" height="566" viewBox="0 0 471 566" fill="none" xmlns="http://www.w3.org/2000/svg">
<g id="Group 1">
<path id="XMLID_1193_" opacity="0.64" d="M235.2 565.1C365.042 565.1 470.3 543.923 470.3 517.8C470.3 491.677 365.042 470.5 235.2 470.5C105.358 470.5 0.100006 491.677 0.100006 517.8C0.100006 543.923 105.358 565.1 235.2 565.1Z" fill="#68CCE9"/>
<g id="XMLID_43_">
<path id="XMLID_1211_" d="M122.5 510.2C125.8 499.5 135.9 493.8 152.3 489C162.7 486 175.9 484.6 196.6 480.4C206.7 478.4 213.8 474.4 213.8 474.4V485.9C213.8 485.9 145.3 499.4 134.6 517.1C129.4 525.8 131 547.1 155.5 549.3C148 550.4 135.7 548.5 129.1 541.8C120.9 533.5 118.7 522.4 122.5 510.2Z" fill="#282323" stroke="black" stroke-width="4" stroke-miterlimit="10" stroke-linecap="round" stroke-linejoin="round"/>
<path id="XMLID_1210_" d="M213.8 485.9C213.8 485.9 172.8 493.5 150.9 502.9C131.7 511.2 132.3 519.8 131.8 528.6C131.5 533.7 135.1 546.3 149.7 548.5C167.1 551.1 187.6 548.3 213.8 531.6C213.8 490.7 213.8 485.9 213.8 485.9Z" fill="#442C2A"/>
<path id="XMLID_53_" opacity="0.37" d="M131.8 528.6C132.2 521.5 131.9 514.5 141.9 507.7C141.5 510.2 141.4 512.6 141.3 515.1C141 520.2 153.3 513.6 167.9 515.7C183.1 518 192.1 535.4 213.8 523.7C213.8 526.2 213.8 528.8 213.8 531.5C187.6 548.2 167.1 550.9 149.7 548.4C135.1 546.3 131.5 533.6 131.8 528.6Z" fill="#442C2A"/>
<path id="XMLID_47_" d="M213.8 485.9C213.8 485.9 172.8 493.5 150.9 502.9C131.7 511.2 132.3 519.8 131.8 528.6C131.5 533.7 135.1 546.3 149.7 548.5C167.1 551.1 187.6 548.3 213.8 531.6C213.8 490.7 213.8 485.9 213.8 485.9Z" stroke="black" stroke-width="4" stroke-miterlimit="10" stroke-linecap="round" stroke-linejoin="round"/>
<path id="XMLID_46_" d="M175.8 509.4C172.5 511.2 173.3 528.7 181.3 531.1" stroke="black" stroke-width="4" stroke-miterlimit="10" stroke-linecap="round" stroke-linejoin="round"/>
<path id="XMLID_45_" d="M188.3 508.1C184.9 512.9 187.3 524.2 193.4 527" stroke="black" stroke-width="4" stroke-miterlimit="10" stroke-linecap="round" stroke-linejoin="round"/>
<path id="XMLID_44_" d="M199.8 504.1C196.4 508.9 198.8 520.2 204.9 523" stroke="black" stroke-width="4" stroke-miterlimit="10" stroke-linecap="round" stroke-linejoin="round"/>
</g>
<path id="XMLID_77_" d="M317.8 452.3C296.2 467.3 265.5 475.9 233.4 475.9C201.4 475.9 170.6 467.3 149 452.3C139.1 445.4 122.5 431 122.5 411.8C122.5 392.6 139.1 378.2 149 371.3C170.6 356.3 201.3 347.7 233.4 347.7C265.4 347.7 296.2 356.3 317.8 371.3C327.7 378.2 344.3 392.6 344.3 411.8C344.3 431 327.7 445.4 317.8 452.3Z" fill="#151E28"/>
<path id="XMLID_76_" d="M416.7 427.8C416.3 429.8 415.9 431.7 415.3 433.7C399.7 490.6 324.5 533.8 234 533.8C143.3 533.8 67.9 490.4 52.6 433.3C52.2 431.7 51.8 430.1 51.5 428.5C51.1 425.5 51.2 422.5 51.8 419.5C55.5 402.7 75.9 393 97.4 397.8C111.5 400.9 122.5 409.6 127.4 419.9C127.9 422.1 128.7 424.3 129.6 426.4C134.8 438.4 145.2 447.4 152.2 452.4C173.1 467.4 203 476 234 476C265.1 476 294.9 467.4 315.8 452.4C322.9 447.3 333.4 438.2 338.5 426.2C339.3 424.3 340 422.2 340.5 420.2C345.3 409.8 356.4 401.1 370.6 397.9C392.1 393.1 412.5 402.9 416.2 419.6C416.9 422.2 417 425 416.7 427.8Z" fill="#2A3749"/>
<path id="XMLID_1209_" opacity="0.67" d="M416.2 419.4C416.1 418.9 416 418.5 415.8 418C415.5 419.6 415.1 421.3 414.6 422.9C399.2 479.8 323.9 523 233.5 523C142.8 523 67.4 479.6 52.1 422.5C51.9 421.9 51.8 421.3 51.6 420.6C51.2 423.2 51.1 425.8 51.5 428.3C51.8 429.9 52.2 431.5 52.6 433.1C67.9 490.2 143.3 533.6 234 533.6C324.5 533.6 399.7 490.4 415.3 433.5C415.8 431.6 416.3 429.6 416.7 427.6C417 425 416.9 422.2 416.2 419.4Z" fill="#151E28"/>
<path id="XMLID_56_" d="M416.7 427.8C416.3 429.8 415.9 431.7 415.3 433.7C399.7 490.6 324.5 533.8 234 533.8C143.3 533.8 67.9 490.4 52.6 433.3C52.2 431.7 51.8 430.1 51.5 428.5C51.1 425.5 51.2 422.5 51.8 419.5C55.5 402.7 75.9 393 97.4 397.8C111.5 400.9 122.5 409.6 127.4 419.9C127.9 422.1 128.7 424.3 129.6 426.4C134.8 438.4 145.2 447.4 152.2 452.4C173.1 467.4 203 476 234 476C265.1 476 294.9 467.4 315.8 452.4C322.9 447.3 333.4 438.2 338.5 426.2C339.3 424.3 340 422.2 340.5 420.2C345.3 409.8 356.4 401.1 370.6 397.9C392.1 393.1 412.5 402.9 416.2 419.6C416.9 422.2 417 425 416.7 427.8Z" stroke="black" stroke-width="4" stroke-miterlimit="10" stroke-linecap="round" stroke-linejoin="round"/>
<path id="XMLID_75_" d="M235.2 445.4C284.961 445.4 325.3 431.7 325.3 414.8C325.3 397.9 284.961 384.2 235.2 384.2C185.439 384.2 145.1 397.9 145.1 414.8C145.1 431.7 185.439 445.4 235.2 445.4Z" fill="#9B2121"/>
<path id="XMLID_31_" d="M235.2 445.4C284.961 445.4 325.3 431.7 325.3 414.8C325.3 397.9 284.961 384.2 235.2 384.2C185.439 384.2 145.1 397.9 145.1 414.8C145.1 431.7 185.439 445.4 235.2 445.4Z" stroke="black" stroke-width="4" stroke-miterlimit="10" stroke-linecap="round" stroke-linejoin="round"/>
<g id="XMLID_89_">
<path id="XMLID_69_" d="M337.8 348H130.2C114.3 348 102 334.1 104 318.3L113.2 244.8C115.8 223.8 133.6 208.1 154.8 208.1H313.4C334.5 208.1 352.3 223.8 355 244.8L364.2 318.3C366 334.1 353.7 348 337.8 348Z" fill="#F1534D"/>
<path id="XMLID_24_" d="M337.8 348H130.2C114.3 348 102 334.1 104 318.3L113.2 244.8C115.8 223.8 133.6 208.1 154.8 208.1H313.4C334.5 208.1 352.3 223.8 355 244.8L364.2 318.3C366 334.1 353.7 348 337.8 348Z" stroke="black" stroke-width="4" stroke-miterlimit="10" stroke-linecap="round" stroke-linejoin="round"/>
<g id="XMLID_1191_">
<path id="XMLID_1189_" d="M152.7 270.2L150.7 295.3" stroke="black" stroke-width="4" stroke-miterlimit="10" stroke-linecap="round" stroke-linejoin="round"/>
<path id="XMLID_1192_" d="M316.8 270.2L318.8 295.3" stroke="black" stroke-width="4" stroke-miterlimit="10" stroke-linecap="round" stroke-linejoin="round"/>
</g>
</g>
<g id="XMLID_1194_">
<path id="XMLID_1202_" d="M337.8 348H130.2C114.3 348 102 334.1 104 318.3L113.2 244.8C115.8 223.8 133.6 208.1 154.8 208.1H313.4C334.5 208.1 352.3 223.8 355 244.8L364.2 318.3C366 334.1 353.7 348 337.8 348Z" fill="#F1534D"/>
<g id="XMLID_4_" opacity="0.24">
<path id="XMLID_1208_" opacity="0.24" d="M113.1 252.6C115.7 231.6 133.5 215.9 154.7 215.9H313.3C334.4 215.9 352.2 231.6 354.9 252.6L364 325.5C364.3 323.2 364.4 320.8 364.1 318.3L354.9 244.8C352.3 223.8 334.5 208.1 313.3 208.1H154.7C133.6 208.1 115.8 223.8 113.1 244.8L103.9 318.3C103.6 320.7 103.6 323.1 104 325.5L113.1 252.6Z" fill="#9B2121"/>
<path id="XMLID_8_" opacity="0.24" d="M163.9 215.9C163.9 215.9 176.2 218.1 177.2 224.9C178 230.4 177.9 234 180 236.2C182.1 238.4 187 242.9 196.9 242.9C191.4 237.4 191.3 218.1 189.8 218.1C188.4 218.1 184.8 208.5 184.8 208.5L180 206.3C180.1 206.3 162.4 208.5 163.9 215.9Z" fill="#9B2121"/>
<path id="XMLID_10_" opacity="0.24" d="M295.3 215.9C295.3 215.9 283 218.1 282 224.9C281.2 230.4 281.3 234 279.2 236.2C277.1 238.3 272.2 242.9 262.3 242.9C267.8 237.4 267.9 218.1 269.4 218.1C270.8 218.1 274.4 208.5 274.4 208.5L279.2 206.3C279.1 206.3 296.8 208.5 295.3 215.9Z" fill="#9B2121"/>
</g>
<path id="XMLID_1201_" d="M337.8 348H130.2C114.3 348 102 334.1 104 318.3L113.2 244.8C115.8 223.8 133.6 208.1 154.8 208.1H313.4C334.5 208.1 352.3 223.8 355 244.8L364.2 318.3C366 334.1 353.7 348 337.8 348Z" stroke="black" stroke-width="4" stroke-miterlimit="10" stroke-linecap="round" stroke-linejoin="round"/>
<g id="XMLID_1195_">
<path id="XMLID_1199_" d="M152.7 270.2L150.7 295.3" stroke="black" stroke-width="4" stroke-miterlimit="10" stroke-linecap="round" stroke-linejoin="round"/>
<path id="XMLID_1196_" d="M316.8 270.2L318.8 295.3" stroke="black" stroke-width="4" stroke-miterlimit="10" stroke-linecap="round" stroke-linejoin="round"/>
</g>
</g>
<g id="XMLID_78_">
<path id="XMLID_80_" d="M207.3 166.3L174.4 164.6L159 166.3C159 166.3 148.7 174 148.7 176.1C148.7 178.2 149.7 195.3 149.7 195.3C149.7 195.3 174 198.6 176.6 201.1C179.2 203.6 194.6 218 194.6 218L209.5 212.2L217.3 191.4L207.3 166.3Z" fill="#9B2121"/>
<path id="XMLID_72_" d="M201.5 153.6H163.5C148.2 153.6 135.7 166 135.7 181.4C135.7 196.7 148.1 209.2 163.5 209.2H168.5C176.6 209.2 183.1 215.7 183.1 223.8V225.3C183.1 235 191 242.9 200.7 242.9V224.9C200.9 224.9 201.1 225.1 201.1 225.3V223.8C201.1 205.8 186.5 191.2 168.5 191.2H163.5C158.1 191.2 153.7 186.8 153.7 181.4C153.7 176 158.1 171.6 163.5 171.6H201.5V153.6Z" fill="#F1534D"/>
<path id="XMLID_81_" d="M199.2 212.5C194.6 200.1 182.6 191.1 168.6 191.1H163.6C158.2 191.1 153.8 186.7 153.8 181.3C153.8 175.9 158.2 171.5 163.6 171.5H201.6V153.5H163.6C148.3 153.5 135.8 165.9 135.8 181.3C135.8 196.6 148.2 209.1 163.6 209.1H168.6C176.7 209.1 183.2 215.6 183.2 223.7V225.2C183.2 234.9 191.1 242.8 200.8 242.8" stroke="black" stroke-width="4" stroke-miterlimit="10" stroke-linecap="round" stroke-linejoin="round"/>
</g>
<g id="XMLID_28_">
<path id="XMLID_82_" d="M250.8 166.3L283.7 164.6L299.1 166.3C299.1 166.3 309.4 174 309.4 176.1C309.4 178.2 308.4 195.3 308.4 195.3C308.4 195.3 284.1 198.6 281.5 201.1C278.9 203.7 263.5 218 263.5 218L248.6 212.2L240.8 191.4L250.8 166.3Z" fill="#9B2121"/>
<path id="XMLID_79_" d="M256.6 153.6H294.6C309.9 153.6 322.4 166 322.4 181.4C322.4 196.7 310 209.2 294.6 209.2H289.6C281.5 209.2 275 215.7 275 223.8V225.3C275 235 267.1 242.9 257.4 242.9V224.9C257.2 224.9 257 225.1 257 225.3V223.8C257 205.8 271.6 191.2 289.6 191.2H294.6C300 191.2 304.4 186.8 304.4 181.4C304.4 176 300 171.6 294.6 171.6H256.6V153.6Z" fill="#F1534D"/>
<path id="XMLID_71_" d="M259 212.5C263.6 200.1 275.6 191.1 289.6 191.1H294.6C300 191.1 304.4 186.7 304.4 181.3C304.4 175.9 300 171.5 294.6 171.5H256.6V153.5H294.6C309.9 153.5 322.4 165.9 322.4 181.3C322.4 196.6 310 209.1 294.6 209.1H289.6C281.5 209.1 275 215.6 275 223.7V225.2C275 234.9 267.1 242.8 257.4 242.8" stroke="black" stroke-width="4" stroke-miterlimit="10" stroke-linecap="round" stroke-linejoin="round"/>
</g>
<path id="XMLID_74_" d="M230.9 228.7C252.439 228.7 269.9 211.239 269.9 189.7C269.9 168.161 252.439 150.7 230.9 150.7C209.361 150.7 191.9 168.161 191.9 189.7C191.9 211.239 209.361 228.7 230.9 228.7Z" fill="#F46262"/>
<path id="XMLID_2426_" d="M193.6 178.2C204.4 185.1 217.2 189.2 230.9 189.2C244.6 189.2 257.4 185.2 268.2 178.2C263.3 162.2 248.5 150.6 230.9 150.6C213.4 150.7 198.5 162.3 193.6 178.2Z" fill="#F1534D"/>
<path id="XMLID_23_" d="M230.9 228.7C252.439 228.7 269.9 211.239 269.9 189.7C269.9 168.161 252.439 150.7 230.9 150.7C209.361 150.7 191.9 168.161 191.9 189.7C191.9 211.239 209.361 228.7 230.9 228.7Z" stroke="black" stroke-width="4" stroke-miterlimit="10" stroke-linecap="round" stroke-linejoin="round"/>
<path id="XMLID_70_" d="M230.9 212.3C218.2 212.3 207.9 202 207.9 189.3V172.1C207.9 168.9 210.5 166.3 213.7 166.3H248.2C251.4 166.3 254 168.9 254 172.1V189.3C253.9 202 243.6 212.3 230.9 212.3Z" fill="#FFC897"/>
<path id="XMLID_2425_" d="M248.2 166.3H213.7C210.5 166.3 207.9 169.1 207.9 172.5V186.6C215.1 189.3 222.8 190.8 230.9 190.8C239 190.8 246.7 189.3 253.9 186.6V172.5C253.9 169.1 251.3 166.3 248.2 166.3Z" fill="#E5A973"/>
<path id="XMLID_15_" d="M230.9 212.3C218.2 212.3 207.9 202 207.9 189.3V172.1C207.9 168.9 210.5 166.3 213.7 166.3H248.2C251.4 166.3 254 168.9 254 172.1V189.3C253.9 202 243.6 212.3 230.9 212.3Z" stroke="black" stroke-width="4" stroke-miterlimit="10" stroke-linecap="round" stroke-linejoin="round"/>
<path id="XMLID_30_" d="M255.8 471.4H234.4V539.7H255.8V471.4Z" fill="#607691"/>
<path id="XMLID_33_" d="M255.8 471.4H234.4V539.7H255.8V471.4Z" stroke="black" stroke-width="4" stroke-miterlimit="10" stroke-linecap="round" stroke-linejoin="round"/>
<path id="XMLID_54_" d="M129.5 426.2C128.6 424.1 127.9 422 127.3 419.7C128.4 421.9 129.1 424 129.5 426.2Z" stroke="black" stroke-width="4" stroke-miterlimit="10" stroke-linecap="round" stroke-linejoin="round"/>
<path id="XMLID_51_" d="M338.6 426C339 423.9 339.7 421.9 340.6 420C340.1 422.1 339.4 424.1 338.6 426Z" stroke="black" stroke-width="4" stroke-miterlimit="10" stroke-linecap="round" stroke-linejoin="round"/>
<g id="XMLID_88_">
<path id="XMLID_73_" d="M338.3 421.2H129.8C122.4 421.2 116.1 415.7 115.1 408.3L102.1 306.5C101 297.7 107.9 289.8 116.8 289.8H351.3C360.2 289.8 367.1 297.6 366 306.5L353 408.3C352 415.6 345.7 421.2 338.3 421.2Z" fill="#B5B5B5"/>
<path id="XMLID_1188_" opacity="0.21" d="M352.9 401.9C352 409.3 345.7 414.8 338.2 414.8H129.8C122.4 414.8 116.1 409.3 115.1 401.9L102.3 301.6C102 303.2 101.9 304.8 102.1 306.5L115.1 408.3C116 415.7 122.3 421.2 129.8 421.2H338.3C345.7 421.2 352 415.7 353 408.3L366 306.5C366.2 304.8 366.1 303.2 365.8 301.6L352.9 401.9Z" fill="#7E7E7E"/>
<path id="XMLID_91_" opacity="0.21" d="M102.2 307.4C103.4 300.6 109.4 295.2 116.7 295.2H351.2C358.6 295.2 364.5 300.5 365.7 307.4L365.8 306.4C366.9 297.6 360 289.7 351.1 289.7H116.8C107.9 289.7 101 297.5 102.1 306.4L102.2 307.4Z" fill="#7E7E7E"/>
<path id="XMLID_29_" d="M338.3 421.2H129.8C122.4 421.2 116.1 415.7 115.1 408.3L102.1 306.5C101 297.7 107.9 289.8 116.8 289.8H351.3C360.2 289.8 367.1 297.6 366 306.5L353 408.3C352 415.6 345.7 421.2 338.3 421.2Z" stroke="black" stroke-width="4" stroke-miterlimit="10" stroke-linecap="round" stroke-linejoin="round"/>
<path id="XMLID_1190_" opacity="0.66" d="M243.9 349.3C239.4 349.3 235.8 345.7 235.8 341.2C235.8 340.9 235.8 340.6 235.9 340.3C235.1 340.2 234.3 340.1 233.5 340.1C226.2 340.1 220.2 346.1 220.2 353.4C220.2 360.7 226.2 366.7 233.5 366.7C240.8 366.7 246.8 360.7 246.8 353.4C246.8 351.9 246.5 350.4 246.1 349C245.4 349.1 244.7 349.3 243.9 349.3Z" fill="#B5B5B5"/>
</g>
<g id="XMLID_39_">
<path id="XMLID_36_" d="M347.1 510.2C343.8 499.5 333.7 493.8 317.3 489C306.9 486 293.7 484.6 273 480.4C262.9 478.4 255.8 474.4 255.8 474.4V485.9C255.8 485.9 324.3 499.4 335 517.1C340.2 525.8 338.6 547.1 314.1 549.3C321.6 550.4 333.9 548.5 340.5 541.8C348.7 533.5 350.9 522.4 347.1 510.2Z" fill="#282323" stroke="black" stroke-width="4" stroke-miterlimit="10" stroke-linecap="round" stroke-linejoin="round"/>
<path id="XMLID_52_" d="M255.8 485.9C255.8 485.9 296.8 493.5 318.7 502.9C337.9 511.2 337.3 519.8 337.8 528.6C338.1 533.7 334.5 546.3 319.9 548.5C302.5 551.1 282 548.3 255.8 531.6C255.8 490.7 255.8 485.9 255.8 485.9Z" fill="#442C2A"/>
<path id="XMLID_1212_" opacity="0.37" d="M337.8 528.6C337.4 521.5 337.7 514.5 327.7 507.7C328.1 510.2 328.2 512.6 328.3 515.1C328.6 520.2 325 532.8 310.4 535C295.2 537.3 277.5 535.4 255.8 523.7C255.8 526.2 255.8 528.8 255.8 531.5C282 548.2 302.5 550.9 319.9 548.4C334.6 546.3 338.1 533.6 337.8 528.6Z" fill="#442C2A"/>
<path id="XMLID_34_" d="M255.8 485.9C255.8 485.9 296.8 493.5 318.7 502.9C337.9 511.2 337.3 519.8 337.8 528.6C338.1 533.7 334.5 546.3 319.9 548.5C302.5 551.1 282 548.3 255.8 531.6C255.8 490.7 255.8 485.9 255.8 485.9Z" stroke="black" stroke-width="4" stroke-miterlimit="10" stroke-linecap="round" stroke-linejoin="round"/>
<path id="XMLID_37_" d="M293.8 509.4C297.1 511.2 296.3 528.7 288.3 531.1" stroke="black" stroke-width="4" stroke-miterlimit="10" stroke-linecap="round" stroke-linejoin="round"/>
<path id="XMLID_38_" d="M281.3 508.1C284.7 512.9 282.3 524.2 276.2 527" stroke="black" stroke-width="4" stroke-miterlimit="10" stroke-linecap="round" stroke-linejoin="round"/>
<path id="XMLID_40_" d="M269.8 504.1C273.2 508.9 270.8 520.2 264.7 523" stroke="black" stroke-width="4" stroke-miterlimit="10" stroke-linecap="round" stroke-linejoin="round"/>
</g>
<path id="XMLID_83_" d="M195.8 232.7V285.9" stroke="black" stroke-width="6" stroke-miterlimit="10" stroke-linecap="round" stroke-linejoin="round"/>
<path id="XMLID_84_" d="M263.3 232.7V270.2" stroke="black" stroke-width="6" stroke-miterlimit="10" stroke-linecap="round" stroke-linejoin="round"/>
<path id="XMLID_27_" d="M263.3 281.5C267.884 281.5 271.6 277.784 271.6 273.2C271.6 268.616 267.884 264.9 263.3 264.9C258.716 264.9 255 268.616 255 273.2C255 277.784 258.716 281.5 263.3 281.5Z" fill="black"/>
<path id="XMLID_86_" d="M263.3 275.6C265.178 275.6 266.7 274.078 266.7 272.2C266.7 270.322 265.178 268.8 263.3 268.8C261.422 268.8 259.9 270.322 259.9 272.2C259.9 274.078 261.422 275.6 263.3 275.6Z" fill="#7E7E7E"/>
<path id="XMLID_5_" d="M230.9 183.2C196.1 183.2 167.8 155 167.8 120.1V46.9H294V120.1C294 154.9 265.8 183.2 230.9 183.2Z" fill="#FFC897"/>
<path id="XMLID_1198_" d="M230.9 174.5C196.1 174.5 167.8 146.3 167.8 111.4V120.1C167.8 154.9 196 183.2 230.9 183.2C265.7 183.2 294 155 294 120.1V111.4C294 146.2 265.8 174.5 230.9 174.5Z" fill="#E5A973"/>
<path id="XMLID_2424_" d="M230.9 183.2C196.1 183.2 167.8 155 167.8 120.1V46.9H294V120.1C294 154.9 265.8 183.2 230.9 183.2Z" stroke="black" stroke-width="4" stroke-miterlimit="10" stroke-linecap="round" stroke-linejoin="round"/>
<path id="XMLID_1197_" d="M294.5 54.2C294.3 50.8 294.1 47.3 294 43.9C252 45.9 209.8 45.6 167.9 41.9C167.6 45.8 167.4 49.7 167.1 53.6C169 55.3 171 57.1 172.9 58.8C174.5 59.6 176.6 60.7 178.5 61.7C186.9 66.1 198.6 71.7 209.8 73.9C213.9 74.7 218.2 75.1 222.6 75C241.5 74.8 257.4 67.3 264.1 64.2C265.1 63.7 265.9 63.3 266.4 63.2C266.8 63 267.2 62.9 267.8 62.9C269 62.9 270.4 63.2 272.1 63.5C274.3 64 276.9 64.5 279.8 64.3C283.1 64.1 286.1 63.1 289 61.2C290.7 58.8 292.6 56.5 294.5 54.2Z" fill="#E5A973"/>
<path id="XMLID_68_" d="M264.1 16.2C264.1 16.2 213.6 -17.1 171.8 20.1C164 27 160.9 36.9 160.9 46V94.2H167.9V59.2C167.9 56.6 169.7 54.6 171.9 54.6C175.5 54.6 195 65 211.5 67.9C236.4 72.2 259.1 60.7 264 59C272.4 56 279.2 66.4 289.8 54.7H290.2C292.4 54.7 294.2 56.8 294.2 59.3V94.3H301.2V46.3C301 34.5 287.4 4.89999 264.1 16.2Z" fill="#231A17"/>
<g id="XMLID_2783_" opacity="0.34">
<path id="XMLID_2784_" opacity="0.34" d="M167.8 87.6H160.8V94.2H167.8V87.6Z" fill="#231A17"/>
<path id="XMLID_2785_" opacity="0.34" d="M301 87.6H294V94.2H301V87.6Z" fill="#231A17"/>
</g>
<path id="XMLID_3_" d="M264.1 16.2C264.1 16.2 213.6 -17.1 171.8 20.1C164 27 160.9 36.9 160.9 46V94.2H167.9V59.2C167.9 56.6 169.7 54.6 171.9 54.6C175.5 54.6 195 65 211.5 67.9C236.4 72.2 259.1 60.7 264 59C272.4 56 279.2 66.4 289.8 54.7H290.2C292.4 54.7 294.2 56.8 294.2 59.3V94.3H301.2V46.3C301 34.5 287.4 4.89999 264.1 16.2Z" stroke="black" stroke-width="4" stroke-miterlimit="10" stroke-linecap="round" stroke-linejoin="round"/>
<path id="XMLID_6_" d="M221.4 48.7C221.4 48.7 167.2 52.2 155.7 23.4" stroke="black" stroke-width="4" stroke-miterlimit="10" stroke-linecap="round" stroke-linejoin="round"/>
<path id="XMLID_9_" d="M229.1 41.8C229.1 41.8 176.9 38.5 163.3 9.7" stroke="black" stroke-width="4" stroke-miterlimit="10" stroke-linecap="round" stroke-linejoin="round"/>
<path id="XMLID_85_" d="M294 86.4V119.2C301 119.2 306.6 111.9 306.6 102.8C306.6 93.7 301 86.4 294 86.4Z" fill="#FFC897"/>
<path id="XMLID_1205_" d="M294 88.2V117.3C298.1 114.6 300.9 109.1 300.9 102.7C300.9 96.4 298.1 90.9 294 88.2Z" fill="#E5A973"/>
<path id="XMLID_12_" d="M294 86.4V119.2C301 119.2 306.6 111.9 306.6 102.8C306.6 93.7 301 86.4 294 86.4Z" stroke="black" stroke-width="4" stroke-miterlimit="10" stroke-linecap="round" stroke-linejoin="round"/>
<path id="XMLID_87_" d="M167.9 86.4V119.2C160.9 119.2 155.3 111.9 155.3 102.8C155.2 93.7 160.9 86.4 167.9 86.4Z" fill="#FFC897"/>
<path id="XMLID_1203_" d="M167.9 88.8C164.3 91.7 161.8 96.9 161.8 102.8C161.8 108.7 164.2 113.9 167.9 116.8V88.8Z" fill="#E5A973"/>
<path id="XMLID_11_" d="M167.9 86.4V119.2C160.9 119.2 155.3 111.9 155.3 102.8C155.2 93.7 160.9 86.4 167.9 86.4Z" stroke="black" stroke-width="4" stroke-miterlimit="10" stroke-linecap="round" stroke-linejoin="round"/>
<path id="XMLID_7_" d="M228.3 113.1L224.1 126.8C224.1 128.3 229 127.1 234 128.3" stroke="black" stroke-width="4" stroke-miterlimit="10" stroke-linecap="round" stroke-linejoin="round"/>
<path id="XMLID_16_" d="M251.9 138.7C253.4 149.1 240 158.3 229.5 156.4" stroke="black" stroke-width="3" stroke-miterlimit="10" stroke-linecap="round" stroke-linejoin="round"/>
<path id="XMLID_14_" d="M208.2 101.5C210.52 101.5 212.4 99.4853 212.4 97C212.4 94.5147 210.52 92.5 208.2 92.5C205.88 92.5 204 94.5147 204 97C204 99.4853 205.88 101.5 208.2 101.5Z" stroke="black" stroke-width="2" stroke-miterlimit="10" stroke-linecap="round" stroke-linejoin="round"/>
<path id="Eye_left" d="M208.2 101.5C210.52 101.5 212.4 99.4853 212.4 97C212.4 94.5147 210.52 92.5 208.2 92.5C205.88 92.5 204 94.5147 204 97C204 99.4853 205.88 101.5 208.2 101.5Z" fill="black"/>
<path id="XMLID_17_" d="M193.7 87.5C195.8 85 200.7 83.3 206.5 83.3C211.1 83.3 215.1 84.4 217.6 86.1" stroke="black" stroke-width="3" stroke-miterlimit="10" stroke-linecap="round" stroke-linejoin="round"/>
<path id="XMLID_22_" d="M254.2 101.5C256.52 101.5 258.4 99.4853 258.4 97C258.4 94.5147 256.52 92.5 254.2 92.5C251.88 92.5 250 94.5147 250 97C250 99.4853 251.88 101.5 254.2 101.5Z" stroke="black" stroke-width="2" stroke-miterlimit="10" stroke-linecap="round" stroke-linejoin="round"/>
<path id="Eye_right" d="M254.2 101.5C256.52 101.5 258.4 99.4853 258.4 97C258.4 94.5147 256.52 92.5 254.2 92.5C251.88 92.5 250 94.5147 250 97C250 99.4853 251.88 101.5 254.2 101.5Z" fill="black"/>
<path id="XMLID_18_" d="M268.7 87.5C266.6 85 261.7 83.3 255.9 83.3C251.3 83.3 247.3 84.4 244.8 86.1" stroke="black" stroke-width="3" stroke-miterlimit="10" stroke-linecap="round" stroke-linejoin="round"/>
</g>
</svg>
