<svg width="808" height="100%" viewBox="0 0 808 873" fill="none" xmlns="http://www.w3.org/2000/svg">
<g id="Group 1">
<g id="Group" opacity="0.39">
<path id="Vector" opacity="0.39" d="M48.133 351.112C59.393 351.112 68.521 341.984 68.521 330.724C68.521 319.464 59.393 310.336 48.133 310.336C36.873 310.336 27.745 319.464 27.745 330.724C27.745 341.984 36.873 351.112 48.133 351.112Z" fill="white" class="svg-elem-1"></path>
<path id="Vector_2" opacity="0.39" d="M48.133 339.462C52.9589 339.462 56.871 335.55 56.871 330.724C56.871 325.898 52.9589 321.986 48.133 321.986C43.3071 321.986 39.395 325.898 39.395 330.724C39.395 335.55 43.3071 339.462 48.133 339.462Z" fill="white" class="svg-elem-2"></path>
<path id="Vector_3" opacity="0.39" d="M79.878 301.476L67.266 308.758L67.285 308.79C66.3639 307.986 65.393 307.24 64.378 306.558L64.412 306.568L68.181 292.5C68.4807 291.381 68.3236 290.188 67.7443 289.185C67.1651 288.182 66.2111 287.449 65.092 287.149L55.245 284.511C54.1259 284.211 52.9337 284.368 51.9304 284.948C50.9271 285.527 50.195 286.481 49.895 287.6L46.126 301.667H46.147C44.9383 301.75 43.7359 301.908 42.547 302.141L42.563 302.131L35.282 289.52C34.9953 289.023 34.6135 288.587 34.1583 288.238C33.7032 287.888 33.1837 287.632 32.6295 287.484C32.0753 287.335 31.4972 287.297 30.9283 287.372C30.3594 287.447 29.8109 287.633 29.314 287.92L20.486 293.02C19.989 293.307 19.5534 293.688 19.204 294.143C18.8546 294.598 18.5982 295.118 18.4496 295.672C18.3011 296.226 18.2631 296.804 18.338 297.373C18.4129 297.942 18.5991 298.49 18.886 298.987L26.167 311.599L26.183 311.59C25.3863 312.504 24.6475 313.468 23.971 314.474L23.977 314.454L9.91 310.684C8.79079 310.384 7.5984 310.542 6.59511 311.121C5.59181 311.701 4.85977 312.655 4.56 313.774L1.92101 323.62C1.62138 324.739 1.77857 325.932 2.35803 326.935C2.93749 327.939 3.89176 328.671 5.011 328.971L19.077 332.74L19.086 332.706C19.1688 333.926 19.3288 335.139 19.565 336.339L19.547 336.307L6.935 343.588C5.93161 344.167 5.19941 345.122 4.89937 346.241C4.59933 347.36 4.75603 348.552 5.33501 349.556L10.435 358.384C10.7217 358.881 11.1035 359.317 11.5587 359.666C12.0138 360.016 12.5333 360.272 13.0875 360.42C13.6417 360.569 14.2198 360.607 14.7887 360.532C15.3576 360.457 15.9061 360.271 16.403 359.984L29.014 352.703L28.986 352.655C29.9183 353.469 30.9017 354.222 31.93 354.91L31.869 354.894L28.1 368.96C27.8001 370.079 27.957 371.272 28.5363 372.275C29.1156 373.279 30.0698 374.011 31.189 374.311L41.036 376.949C42.1551 377.249 43.3473 377.092 44.3506 376.512C45.3539 375.933 46.086 374.979 46.386 373.86L50.155 359.793L50.081 359.773C51.3256 359.691 52.5636 359.529 53.787 359.286L53.722 359.324L61.004 371.935C61.2907 372.432 61.6725 372.868 62.1277 373.217C62.5828 373.567 63.1023 373.823 63.6565 373.971C64.2107 374.12 64.7888 374.158 65.3577 374.083C65.9266 374.008 66.4751 373.822 66.972 373.535L75.8 368.435C76.8033 367.856 77.5355 366.902 77.8356 365.783C78.1356 364.664 77.9789 363.471 77.4 362.468L70.119 349.856L70.054 349.893C70.8756 348.955 71.6355 347.964 72.329 346.927L72.309 347.001L86.375 350.771C86.9292 350.919 87.5073 350.957 88.0762 350.882C88.6451 350.808 89.1936 350.621 89.6905 350.334C90.1874 350.047 90.6229 349.665 90.9722 349.21C91.3214 348.755 91.5776 348.235 91.726 347.681L94.364 337.835C94.5127 337.281 94.5507 336.703 94.4759 336.134C94.4011 335.565 94.2149 335.016 93.9281 334.52C93.6412 334.023 93.2593 333.587 92.804 333.238C92.3488 332.889 91.8292 332.632 91.275 332.484L77.2 328.72L77.183 328.781C77.1014 327.546 76.9408 326.318 76.702 325.104L76.73 325.153L89.342 317.872C90.3454 317.293 91.0776 316.338 91.3776 315.219C91.6777 314.1 91.521 312.908 90.942 311.904L85.842 303.076C85.2628 302.073 84.3093 301.342 83.1911 301.042C82.0728 300.742 80.8812 300.898 79.878 301.476Z" fill="white" class="svg-elem-3"></path>
</g>
<path id="Vector_4" opacity="0.39" d="M172.744 144.406C201.213 144.406 224.292 121.327 224.292 92.858C224.292 64.3888 201.213 41.31 172.744 41.31C144.275 41.31 121.196 64.3888 121.196 92.858C121.196 121.327 144.275 144.406 172.744 144.406Z" fill="white" class="svg-elem-4"></path>
<path id="Vector_5" d="M172.036 93.418L199.883 77.236L199.797 107.509L171.95 123.692L172.036 93.418Z" stroke="#1E223B" stroke-width="2" stroke-linecap="round" stroke-linejoin="round" class="svg-elem-5"></path>
<path id="Vector_6" d="M145.69 78.208L173.537 62.025L199.883 77.236L172.036 93.418L145.69 78.208Z" stroke="#1E223B" stroke-width="2" stroke-linecap="round" stroke-linejoin="round" class="svg-elem-6"></path>
<path id="Vector_7" d="M145.69 78.208L173.537 62.025L199.883 77.236L172.036 93.418L145.69 78.208Z" fill="#028B9E" stroke="#1E223B" stroke-width="2" stroke-linecap="round" stroke-linejoin="round" class="svg-elem-7"></path>
<path id="Vector_8" opacity="0.4" d="M172.036 93.418L171.95 123.692L145.604 108.481L145.69 78.208L172.036 93.418Z" fill="#028B9E" stroke="#1E223B" stroke-width="2" stroke-linecap="round" stroke-linejoin="round" class="svg-elem-8"></path>
<path id="Vector_9" d="M172.036 93.418L171.95 123.692L145.604 108.481L145.69 78.208L172.036 93.418Z" stroke="#1E223B" stroke-width="2" stroke-linecap="round" stroke-linejoin="round" class="svg-elem-9"></path>
<path id="Vector_10" d="M172.744 144.406C201.213 144.406 224.292 121.327 224.292 92.858C224.292 64.3888 201.213 41.31 172.744 41.31C144.275 41.31 121.196 64.3888 121.196 92.858C121.196 121.327 144.275 144.406 172.744 144.406Z" stroke="#1E223B" stroke-width="2" stroke-linecap="round" stroke-linejoin="round" class="svg-elem-10"></path>
<g id="Vector_11" style="mix-blend-mode:multiply" opacity="0.11">
<path d="M531.5 493.737H249.5C239.559 493.737 231.5 501.796 231.5 511.737V713.737C231.5 723.678 239.559 731.737 249.5 731.737H531.5C541.441 731.737 549.5 723.678 549.5 713.737V511.737C549.5 501.796 541.441 493.737 531.5 493.737Z" fill="#161616" class="svg-elem-11"></path>
<path d="M531.5 493.737H249.5C239.559 493.737 231.5 501.796 231.5 511.737V713.737C231.5 723.678 239.559 731.737 249.5 731.737H531.5C541.441 731.737 549.5 723.678 549.5 713.737V511.737C549.5 501.796 541.441 493.737 531.5 493.737Z" stroke="#1E223B" stroke-miterlimit="10" class="svg-elem-12"></path>
</g>
<g id="Vector_12" style="mix-blend-mode:multiply" opacity="0.11">
<path d="M542.5 479.737H238.5C234.634 479.737 231.5 482.871 231.5 486.737C231.5 490.603 234.634 493.737 238.5 493.737H542.5C546.366 493.737 549.5 490.603 549.5 486.737C549.5 482.871 546.366 479.737 542.5 479.737Z" fill="#161616" class="svg-elem-13"></path>
<path d="M542.5 479.737H238.5C234.634 479.737 231.5 482.871 231.5 486.737C231.5 490.603 234.634 493.737 238.5 493.737H542.5C546.366 493.737 549.5 490.603 549.5 486.737C549.5 482.871 546.366 479.737 542.5 479.737Z" stroke="#1E223B" stroke-miterlimit="10" class="svg-elem-14"></path>
</g>
<path id="Vector_13" d="M521.5 485.737H239.5C229.559 485.737 221.5 493.796 221.5 503.737V705.737C221.5 715.678 229.559 723.737 239.5 723.737H521.5C531.441 723.737 539.5 715.678 539.5 705.737V503.737C539.5 493.796 531.441 485.737 521.5 485.737Z" fill="#2F4584" class="svg-elem-15"></path>
<path id="Vector_14" d="M521.5 485.737H239.5C229.559 485.737 221.5 493.796 221.5 503.737V699.737C221.5 709.678 229.559 717.737 239.5 717.737H521.5C531.441 717.737 539.5 709.678 539.5 699.737V503.737C539.5 493.796 531.441 485.737 521.5 485.737Z" fill="white" class="svg-elem-16"></path>
<g id="Vector_15" style="mix-blend-mode:multiply" opacity="0.11">
<path d="M428 703.566H426.5C424.909 703.566 423.383 704.198 422.257 705.323C421.132 706.449 420.5 707.975 420.5 709.566V716.738C420.5 717.534 420.184 718.297 419.621 718.859C419.059 719.422 418.296 719.738 417.5 719.738C416.704 719.738 415.941 719.422 415.379 718.859C414.816 718.297 414.5 717.534 414.5 716.738V709.566C414.5 707.975 413.868 706.449 412.743 705.323C411.617 704.198 410.091 703.566 408.5 703.566H407C405.409 703.566 403.883 704.198 402.757 705.323C401.632 706.449 401 707.975 401 709.566V716.738C401 717.534 400.684 718.297 400.121 718.859C399.559 719.422 398.796 719.738 398 719.738C397.204 719.738 396.441 719.422 395.879 718.859C395.316 718.297 395 717.534 395 716.738V709.566C395 707.975 394.368 706.449 393.243 705.323C392.117 704.198 390.591 703.566 389 703.566H387.5C385.909 703.566 384.383 704.198 383.257 705.323C382.132 706.449 381.5 707.975 381.5 709.566V716.738C381.5 717.534 381.184 718.297 380.621 718.859C380.059 719.422 379.296 719.738 378.5 719.738C377.704 719.738 376.941 719.422 376.379 718.859C375.816 718.297 375.5 717.534 375.5 716.738V671.738C375.5 670.147 374.868 668.621 373.743 667.495C372.617 666.37 371.091 665.738 369.5 665.738H368C366.409 665.738 364.883 666.37 363.757 667.495C362.632 668.621 362 670.147 362 671.738V750.171L350.492 730.238C350.098 729.555 349.574 728.956 348.949 728.476C348.323 727.995 347.61 727.643 346.848 727.438C346.086 727.234 345.292 727.182 344.51 727.285C343.729 727.388 342.975 727.644 342.292 728.038L340.992 728.788C340.309 729.182 339.71 729.706 339.23 730.331C338.749 730.957 338.397 731.67 338.192 732.432C337.988 733.194 337.936 733.988 338.039 734.77C338.142 735.551 338.398 736.305 338.792 736.988L362.836 778.633C363.719 780.873 365.255 782.795 367.244 784.15C369.234 785.506 371.585 786.231 373.992 786.233H375.992V810.886H372.043V835.752H370.11C368.39 835.752 366.74 836.435 365.524 837.652C364.307 838.868 363.624 840.518 363.624 842.238V872.5H432.381V842.238C432.381 840.518 431.698 838.868 430.481 837.652C429.265 836.435 427.615 835.752 425.895 835.752H423.952V810.886H420V786.233H422C425.183 786.233 428.235 784.969 430.485 782.718C432.736 780.468 434 777.416 434 774.233V709.566C434 707.975 433.368 706.449 432.243 705.323C431.117 704.198 429.591 703.566 428 703.566Z" fill="#161616" class="svg-elem-17"></path>
<path d="M428 703.566H426.5C424.909 703.566 423.383 704.198 422.257 705.323C421.132 706.449 420.5 707.975 420.5 709.566V716.738C420.5 717.534 420.184 718.297 419.621 718.859C419.059 719.422 418.296 719.738 417.5 719.738C416.704 719.738 415.941 719.422 415.379 718.859C414.816 718.297 414.5 717.534 414.5 716.738V709.566C414.5 707.975 413.868 706.449 412.743 705.323C411.617 704.198 410.091 703.566 408.5 703.566H407C405.409 703.566 403.883 704.198 402.757 705.323C401.632 706.449 401 707.975 401 709.566V716.738C401 717.534 400.684 718.297 400.121 718.859C399.559 719.422 398.796 719.738 398 719.738C397.204 719.738 396.441 719.422 395.879 718.859C395.316 718.297 395 717.534 395 716.738V709.566C395 707.975 394.368 706.449 393.243 705.323C392.117 704.198 390.591 703.566 389 703.566H387.5C385.909 703.566 384.383 704.198 383.257 705.323C382.132 706.449 381.5 707.975 381.5 709.566V716.738C381.5 717.534 381.184 718.297 380.621 718.859C380.059 719.422 379.296 719.738 378.5 719.738C377.704 719.738 376.941 719.422 376.379 718.859C375.816 718.297 375.5 717.534 375.5 716.738V671.738C375.5 670.147 374.868 668.621 373.743 667.495C372.617 666.37 371.091 665.738 369.5 665.738H368C366.409 665.738 364.883 666.37 363.757 667.495C362.632 668.621 362 670.147 362 671.738V750.171L350.492 730.238C350.098 729.555 349.574 728.956 348.949 728.476C348.323 727.995 347.61 727.643 346.848 727.438C346.086 727.234 345.292 727.182 344.51 727.285C343.729 727.388 342.975 727.644 342.292 728.038L340.992 728.788C340.309 729.182 339.71 729.706 339.23 730.331C338.749 730.957 338.397 731.67 338.192 732.432C337.988 733.194 337.936 733.988 338.039 734.77C338.142 735.551 338.398 736.305 338.792 736.988L362.836 778.633C363.719 780.873 365.255 782.795 367.244 784.15C369.234 785.506 371.585 786.231 373.992 786.233H375.992V810.886H372.043V835.752H370.11C368.39 835.752 366.74 836.435 365.524 837.652C364.307 838.868 363.624 840.518 363.624 842.238V872.5H432.381V842.238C432.381 840.518 431.698 838.868 430.481 837.652C429.265 836.435 427.615 835.752 425.895 835.752H423.952V810.886H420V786.233H422C425.183 786.233 428.235 784.969 430.485 782.718C432.736 780.468 434 777.416 434 774.233V709.566C434 707.975 433.368 706.449 432.243 705.323C431.117 704.198 429.591 703.566 428 703.566Z" stroke="#1E223B" stroke-miterlimit="10" class="svg-elem-18"></path>
</g>
<g id="Vector_16" style="mix-blend-mode:multiply" opacity="0.11">
<path d="M313.064 699.737C316.06 699.736 318.948 698.613 321.159 696.591C323.37 694.568 324.744 691.792 325.011 688.807L347.132 650.492C347.526 649.809 347.782 649.055 347.885 648.274C347.988 647.492 347.936 646.698 347.732 645.936C347.527 645.174 347.175 644.461 346.694 643.835C346.214 643.21 345.615 642.686 344.932 642.292L343.632 641.542C342.949 641.148 342.195 640.892 341.414 640.789C340.632 640.686 339.838 640.738 339.076 640.942C338.314 641.147 337.601 641.499 336.975 641.979C336.35 642.46 335.826 643.059 335.432 643.742L325.057 661.713V585.241C325.057 583.65 324.425 582.124 323.3 580.998C322.174 579.873 320.648 579.241 319.057 579.241H317.557C315.966 579.241 314.44 579.873 313.314 580.998C312.189 582.124 311.557 583.65 311.557 585.241V630.241C311.557 631.037 311.241 631.8 310.678 632.362C310.116 632.925 309.353 633.241 308.557 633.241C307.761 633.241 306.998 632.925 306.436 632.362C305.873 631.8 305.557 631.037 305.557 630.241V576.547C305.557 574.956 304.925 573.43 303.8 572.304C302.674 571.179 301.148 570.547 299.557 570.547H298.057C296.466 570.547 294.94 571.179 293.814 572.304C292.689 573.43 292.057 574.956 292.057 576.547V630.242C292.057 631.038 291.741 631.801 291.178 632.363C290.616 632.926 289.853 633.242 289.057 633.242C288.261 633.242 287.498 632.926 286.936 632.363C286.373 631.801 286.057 631.038 286.057 630.242V585.242C286.057 583.651 285.425 582.125 284.3 580.999C283.174 579.874 281.648 579.242 280.057 579.242H278.557C276.966 579.242 275.44 579.874 274.314 580.999C273.189 582.125 272.557 583.651 272.557 585.242V630.242C272.557 631.038 272.241 631.801 271.678 632.363C271.116 632.926 270.353 633.242 269.557 633.242C268.761 633.242 267.998 632.926 267.436 632.363C266.873 631.801 266.557 631.038 266.557 630.242V599.492C266.557 597.901 265.925 596.375 264.8 595.249C263.674 594.124 262.148 593.492 260.557 593.492H259.057C257.466 593.492 255.94 594.124 254.814 595.249C253.689 596.375 253.057 597.901 253.057 599.492V687.737C253.057 690.92 254.321 693.972 256.572 696.222C258.822 698.473 261.874 699.737 265.057 699.737H267.637V724.39H263.108V749.255H261.165C259.445 749.255 257.795 749.938 256.578 751.155C255.361 752.372 254.678 754.022 254.678 755.742V872.5H323.436V755.742C323.436 754.022 322.753 752.372 321.536 751.155C320.319 749.938 318.669 749.255 316.949 749.255H315.006V724.39H311.637V699.737H313.064Z" fill="#161616" class="svg-elem-19"></path>
<path d="M313.064 699.737C316.06 699.736 318.948 698.613 321.159 696.591C323.37 694.568 324.744 691.792 325.011 688.807L347.132 650.492C347.526 649.809 347.782 649.055 347.885 648.274C347.988 647.492 347.936 646.698 347.732 645.936C347.527 645.174 347.175 644.461 346.694 643.835C346.214 643.21 345.615 642.686 344.932 642.292L343.632 641.542C342.949 641.148 342.195 640.892 341.414 640.789C340.632 640.686 339.838 640.738 339.076 640.942C338.314 641.147 337.601 641.499 336.975 641.979C336.35 642.46 335.826 643.059 335.432 643.742L325.057 661.713V585.241C325.057 583.65 324.425 582.124 323.3 580.998C322.174 579.873 320.648 579.241 319.057 579.241H317.557C315.966 579.241 314.44 579.873 313.314 580.998C312.189 582.124 311.557 583.65 311.557 585.241V630.241C311.557 631.037 311.241 631.8 310.678 632.362C310.116 632.925 309.353 633.241 308.557 633.241C307.761 633.241 306.998 632.925 306.436 632.362C305.873 631.8 305.557 631.037 305.557 630.241V576.547C305.557 574.956 304.925 573.43 303.8 572.304C302.674 571.179 301.148 570.547 299.557 570.547H298.057C296.466 570.547 294.94 571.179 293.814 572.304C292.689 573.43 292.057 574.956 292.057 576.547V630.242C292.057 631.038 291.741 631.801 291.178 632.363C290.616 632.926 289.853 633.242 289.057 633.242C288.261 633.242 287.498 632.926 286.936 632.363C286.373 631.801 286.057 631.038 286.057 630.242V585.242C286.057 583.651 285.425 582.125 284.3 580.999C283.174 579.874 281.648 579.242 280.057 579.242H278.557C276.966 579.242 275.44 579.874 274.314 580.999C273.189 582.125 272.557 583.651 272.557 585.242V630.242C272.557 631.038 272.241 631.801 271.678 632.363C271.116 632.926 270.353 633.242 269.557 633.242C268.761 633.242 267.998 632.926 267.436 632.363C266.873 631.801 266.557 631.038 266.557 630.242V599.492C266.557 597.901 265.925 596.375 264.8 595.249C263.674 594.124 262.148 593.492 260.557 593.492H259.057C257.466 593.492 255.94 594.124 254.814 595.249C253.689 596.375 253.057 597.901 253.057 599.492V687.737C253.057 690.92 254.321 693.972 256.572 696.222C258.822 698.473 261.874 699.737 265.057 699.737H267.637V724.39H263.108V749.255H261.165C259.445 749.255 257.795 749.938 256.578 751.155C255.361 752.372 254.678 754.022 254.678 755.742V872.5H323.436V755.742C323.436 754.022 322.753 752.372 321.536 751.155C320.319 749.938 318.669 749.255 316.949 749.255H315.006V724.39H311.637V699.737H313.064Z" stroke="#1E223B" stroke-miterlimit="10" class="svg-elem-20"></path>
</g>
<path id="Vector_17" opacity="0.15" d="M521 503.237H240C237.791 503.237 236 505.028 236 507.237V620.237C236 622.446 237.791 624.237 240 624.237H521C523.209 624.237 525 622.446 525 620.237V507.237C525 505.028 523.209 503.237 521 503.237Z" fill="#1E223B" stroke="#1E223B" stroke-width="2" stroke-miterlimit="11" class="svg-elem-21"></path>
<path id="Vector_18" d="M521.5 485.737H239.5C229.559 485.737 221.5 493.796 221.5 503.737V699.737C221.5 709.678 229.559 717.737 239.5 717.737H521.5C531.441 717.737 539.5 709.678 539.5 699.737V503.737C539.5 493.796 531.441 485.737 521.5 485.737Z" stroke="#1E223B" stroke-width="2" stroke-linecap="round" stroke-linejoin="round" class="svg-elem-22"></path>
<path id="Vector_19" d="M521.5 485.737H239.5C229.559 485.737 221.5 493.796 221.5 503.737V705.737C221.5 715.678 229.559 723.737 239.5 723.737H521.5C531.441 723.737 539.5 715.678 539.5 705.737V503.737C539.5 493.796 531.441 485.737 521.5 485.737Z" stroke="#1E223B" stroke-width="2" stroke-linecap="round" stroke-linejoin="round" class="svg-elem-23"></path>
<path id="Vector_20" d="M521.5 253.737H239.5C229.559 253.737 221.5 261.796 221.5 271.737V467.737C221.5 477.678 229.559 485.737 239.5 485.737H521.5C531.441 485.737 539.5 477.678 539.5 467.737V271.737C539.5 261.796 531.441 253.737 521.5 253.737Z" fill="#2F4584" class="svg-elem-24"></path>
<path id="Vector_21" d="M521.5 253.737H239.5C229.559 253.737 221.5 261.796 221.5 271.737V467.737C221.5 477.678 229.559 485.737 239.5 485.737H521.5C531.441 485.737 539.5 477.678 539.5 467.737V271.737C539.5 261.796 531.441 253.737 521.5 253.737Z" stroke="#1E223B" stroke-width="2" stroke-linecap="round" stroke-linejoin="round" class="svg-elem-25"></path>
<path id="Vector_22" d="M533.501 467.737V271.737C533.501 265.11 528.128 259.737 521.501 259.737H239.501C232.874 259.737 227.501 265.11 227.501 271.737V467.737C227.501 474.364 232.874 479.737 239.501 479.737H521.501C528.128 479.737 533.501 474.364 533.501 467.737Z" fill="white" class="svg-elem-26"></path>
<path id="Vector_23" d="M509.501 455.737V283.737H251.501V455.737H509.501Z" fill="#FF5855" stroke="#1E223B" stroke-miterlimit="10" class="svg-elem-27"></path>
<path id="Vector_24" d="M533.501 467.737V271.737C533.501 265.11 528.128 259.737 521.501 259.737H239.501C232.874 259.737 227.501 265.11 227.501 271.737V467.737C227.501 474.364 232.874 479.737 239.501 479.737H521.501C528.128 479.737 533.501 474.364 533.501 467.737Z" stroke="#1E223B" stroke-width="2" stroke-linecap="round" stroke-linejoin="round" class="svg-elem-28"></path>
<path id="Vector_25" d="M509.501 455.737V283.737H251.501V455.737H509.501Z" stroke="#1E223B" stroke-width="2" stroke-linecap="round" stroke-linejoin="round" class="svg-elem-29"></path>
<g id="Group_2" opacity="0.1">
<path id="Vector_26" opacity="0.1" d="M419.25 633.737H341.75C339.403 633.737 337.5 635.64 337.5 637.987V689.487C337.5 691.834 339.403 693.737 341.75 693.737H419.25C421.597 693.737 423.5 691.834 423.5 689.487V637.987C423.5 635.64 421.597 633.737 419.25 633.737Z" fill="#1E223B" class="svg-elem-30"></path>
</g>
<path id="Vector_27" d="M419.25 633.737H341.75C339.403 633.737 337.5 635.64 337.5 637.987V689.487C337.5 691.834 339.403 693.737 341.75 693.737H419.25C421.597 693.737 423.5 691.834 423.5 689.487V637.987C423.5 635.64 421.597 633.737 419.25 633.737Z" stroke="#1E223B" stroke-width="2" stroke-linecap="round" stroke-linejoin="round" class="svg-elem-31"></path>
<path id="Vector_28" d="M419 715.737H343V723.737H419V715.737Z" fill="#263C72" class="svg-elem-32"></path>
<path id="Vector_29" d="M419 715.737H343V723.737H419V715.737Z" stroke="#1E223B" stroke-width="2" stroke-linecap="round" stroke-linejoin="round" class="svg-elem-33"></path>
<g id="Vector_30" style="mix-blend-mode:multiply" opacity="0.11">
<path d="M481.5 229.737H293.5C290.186 229.737 287.5 232.423 287.5 235.737V447.737C287.5 451.051 290.186 453.737 293.5 453.737H481.5C484.814 453.737 487.5 451.051 487.5 447.737V235.737C487.5 232.423 484.814 229.737 481.5 229.737Z" fill="#161616" class="svg-elem-34"></path>
<path d="M481.5 229.737H293.5C290.186 229.737 287.5 232.423 287.5 235.737V447.737C287.5 451.051 290.186 453.737 293.5 453.737H481.5C484.814 453.737 487.5 451.051 487.5 447.737V235.737C487.5 232.423 484.814 229.737 481.5 229.737Z" stroke="#1E223B" stroke-miterlimit="10" class="svg-elem-35"></path>
</g>
<path id="Vector_31" d="M476 225.737H288C284.686 225.737 282 228.423 282 231.737V443.737C282 447.051 284.686 449.737 288 449.737H476C479.314 449.737 482 447.051 482 443.737V231.737C482 228.423 479.314 225.737 476 225.737Z" fill="white" class="svg-elem-36"></path>
<path id="Vector_32" d="M282 415.737H482V443.737C482 445.328 481.368 446.854 480.243 447.98C479.117 449.105 477.591 449.737 476 449.737H288C286.409 449.737 284.883 449.105 283.757 447.98C282.632 446.854 282 445.328 282 443.737V415.737Z" fill="#EFEFEF" class="svg-elem-37"></path>
<path id="Vector_33" d="M476 225.737H288C284.686 225.737 282 228.423 282 231.737V443.737C282 447.051 284.686 449.737 288 449.737H476C479.314 449.737 482 447.051 482 443.737V231.737C482 228.423 479.314 225.737 476 225.737Z" stroke="#1E223B" stroke-width="2" stroke-linecap="round" stroke-linejoin="round" class="svg-elem-38"></path>
<path id="Vector_34" d="M287.427 225.737H476.573C477.286 225.737 477.992 225.877 478.65 226.15C479.309 226.423 479.907 226.823 480.411 227.327C480.915 227.831 481.314 228.429 481.587 229.088C481.86 229.746 482 230.452 482 231.165V243.738H282V231.165C282 230.452 282.14 229.746 282.413 229.088C282.685 228.429 283.085 227.831 283.589 227.327C284.093 226.823 284.691 226.423 285.35 226.15C286.008 225.877 286.714 225.737 287.427 225.737V225.737Z" fill="#363D56" class="svg-elem-39"></path>
<path id="Vector_35" d="M287.427 225.737H476.573C477.286 225.737 477.992 225.877 478.65 226.15C479.309 226.423 479.907 226.823 480.411 227.327C480.915 227.831 481.314 228.429 481.587 229.088C481.86 229.746 482 230.452 482 231.165V243.738H282V231.165C282 230.452 282.14 229.746 282.413 229.088C282.685 228.429 283.085 227.831 283.589 227.327C284.093 226.823 284.691 226.423 285.35 226.15C286.008 225.877 286.714 225.737 287.427 225.737V225.737Z" stroke="#1E223B" stroke-width="2" stroke-linecap="round" stroke-linejoin="round" class="svg-elem-40"></path>
<path id="Vector_36" d="M482 243.737H282V251.737H482V243.737Z" fill="#424960" class="svg-elem-41"></path>
<path id="Vector_37" d="M482 243.737H282V251.737H482V243.737Z" stroke="#1E223B" stroke-width="2" stroke-linecap="round" stroke-linejoin="round" class="svg-elem-42"></path>
<path id="Vector_38" d="M293.167 237.737C294.824 237.737 296.167 236.394 296.167 234.737C296.167 233.08 294.824 231.737 293.167 231.737C291.51 231.737 290.167 233.08 290.167 234.737C290.167 236.394 291.51 237.737 293.167 237.737Z" fill="#F73E39" class="svg-elem-43"></path>
<path id="Vector_39" d="M293.167 237.737C294.824 237.737 296.167 236.394 296.167 234.737C296.167 233.08 294.824 231.737 293.167 231.737C291.51 231.737 290.167 233.08 290.167 234.737C290.167 236.394 291.51 237.737 293.167 237.737Z" stroke="#1E223B" stroke-width="2" stroke-linecap="round" stroke-linejoin="round" class="svg-elem-44"></path>
<path id="Vector_40" d="M305.435 237.737C307.092 237.737 308.435 236.394 308.435 234.737C308.435 233.08 307.092 231.737 305.435 231.737C303.778 231.737 302.435 233.08 302.435 234.737C302.435 236.394 303.778 237.737 305.435 237.737Z" fill="#383838" class="svg-elem-45"></path>
<path id="Vector_41" d="M305.435 237.737C307.092 237.737 308.435 236.394 308.435 234.737C308.435 233.08 307.092 231.737 305.435 231.737C303.778 231.737 302.435 233.08 302.435 234.737C302.435 236.394 303.778 237.737 305.435 237.737Z" stroke="#1E223B" stroke-width="2" stroke-linecap="round" stroke-linejoin="round" class="svg-elem-46"></path>
<path id="Vector_42" d="M316.662 237.737C318.319 237.737 319.662 236.394 319.662 234.737C319.662 233.08 318.319 231.737 316.662 231.737C315.005 231.737 313.662 233.08 313.662 234.737C313.662 236.394 315.005 237.737 316.662 237.737Z" fill="#C6C6C6" class="svg-elem-47"></path>
<path id="Vector_43" d="M316.662 237.737C318.319 237.737 319.662 236.394 319.662 234.737C319.662 233.08 318.319 231.737 316.662 231.737C315.005 231.737 313.662 233.08 313.662 234.737C313.662 236.394 315.005 237.737 316.662 237.737Z" stroke="#1E223B" stroke-width="2" stroke-linecap="round" stroke-linejoin="round" class="svg-elem-48"></path>
<path id="Vector_44" opacity="0.28" d="M395.5 231.737H333.5C331.843 231.737 330.5 233.08 330.5 234.737C330.5 236.394 331.843 237.737 333.5 237.737H395.5C397.157 237.737 398.5 236.394 398.5 234.737C398.5 233.08 397.157 231.737 395.5 231.737Z" fill="#8289A3" class="svg-elem-49"></path>
<path id="Vector_45" d="M48.133 351.112C59.393 351.112 68.521 341.984 68.521 330.724C68.521 319.464 59.393 310.336 48.133 310.336C36.873 310.336 27.745 319.464 27.745 330.724C27.745 341.984 36.873 351.112 48.133 351.112Z" stroke="#1E223B" stroke-width="2" stroke-linecap="round" stroke-linejoin="round" class="svg-elem-50"></path>
<path id="Vector_46" d="M48.133 339.462C52.9589 339.462 56.871 335.55 56.871 330.724C56.871 325.898 52.9589 321.986 48.133 321.986C43.3071 321.986 39.395 325.898 39.395 330.724C39.395 335.55 43.3071 339.462 48.133 339.462Z" stroke="#1E223B" stroke-width="2" stroke-linecap="round" stroke-linejoin="round" class="svg-elem-51"></path>
<path id="Wheel_001" d="M79.878 301.476L67.266 308.758L67.285 308.79C66.3639 307.986 65.393 307.24 64.378 306.558L64.412 306.568L68.181 292.5C68.4807 291.381 68.3236 290.188 67.7443 289.185C67.1651 288.182 66.2111 287.449 65.092 287.149L55.245 284.511C54.1259 284.211 52.9337 284.368 51.9304 284.948C50.9271 285.527 50.195 286.481 49.895 287.6L46.126 301.667H46.147C44.9383 301.75 43.7359 301.908 42.547 302.141L42.563 302.131L35.282 289.52C34.9953 289.023 34.6135 288.587 34.1583 288.238C33.7032 287.888 33.1837 287.632 32.6295 287.484C32.0753 287.335 31.4972 287.297 30.9283 287.372C30.3594 287.447 29.8109 287.633 29.314 287.92L20.486 293.02C19.989 293.307 19.5534 293.688 19.204 294.143C18.8546 294.598 18.5982 295.118 18.4496 295.672C18.3011 296.226 18.2631 296.804 18.338 297.373C18.4129 297.942 18.5991 298.49 18.886 298.987L26.167 311.599L26.183 311.59C25.3863 312.504 24.6475 313.468 23.971 314.474L23.977 314.454L9.91 310.684C8.79079 310.384 7.5984 310.542 6.59511 311.121C5.59181 311.701 4.85977 312.655 4.56 313.774L1.92101 323.62C1.62138 324.739 1.77857 325.932 2.35803 326.935C2.93749 327.939 3.89176 328.671 5.011 328.971L19.077 332.74L19.086 332.706C19.1688 333.926 19.3288 335.139 19.565 336.339L19.547 336.307L6.935 343.588C5.93161 344.167 5.19941 345.122 4.89937 346.241C4.59933 347.36 4.75603 348.552 5.33501 349.556L10.435 358.384C10.7217 358.881 11.1035 359.317 11.5587 359.666C12.0138 360.016 12.5333 360.272 13.0875 360.42C13.6417 360.569 14.2198 360.607 14.7887 360.532C15.3576 360.457 15.9061 360.271 16.403 359.984L29.014 352.703L28.986 352.655C29.9183 353.469 30.9017 354.222 31.93 354.91L31.869 354.894L28.1 368.96C27.8001 370.079 27.957 371.272 28.5363 372.275C29.1156 373.279 30.0698 374.011 31.189 374.311L41.036 376.949C42.1551 377.249 43.3473 377.092 44.3506 376.512C45.3539 375.933 46.086 374.979 46.386 373.86L50.155 359.793L50.081 359.773C51.3256 359.691 52.5636 359.529 53.787 359.286L53.722 359.324L61.004 371.935C61.2907 372.432 61.6725 372.868 62.1277 373.217C62.5828 373.567 63.1023 373.823 63.6565 373.971C64.2107 374.12 64.7888 374.158 65.3577 374.083C65.9266 374.008 66.4751 373.822 66.972 373.535L75.8 368.435C76.8033 367.856 77.5355 366.902 77.8356 365.783C78.1356 364.664 77.9789 363.471 77.4 362.468L70.119 349.856L70.054 349.893C70.8756 348.955 71.6355 347.964 72.329 346.927L72.309 347.001L86.375 350.771C86.9292 350.919 87.5073 350.957 88.0762 350.882C88.6451 350.808 89.1936 350.621 89.6905 350.334C90.1874 350.047 90.6229 349.665 90.9722 349.21C91.3214 348.755 91.5776 348.235 91.726 347.681L94.364 337.835C94.5127 337.281 94.5507 336.703 94.4759 336.134C94.4011 335.565 94.2149 335.016 93.9281 334.52C93.6412 334.023 93.2593 333.587 92.804 333.238C92.3488 332.889 91.8292 332.632 91.275 332.484L77.2 328.72L77.183 328.781C77.1014 327.546 76.9408 326.318 76.702 325.104L76.73 325.153L89.342 317.872C90.3454 317.293 91.0776 316.338 91.3776 315.219C91.6777 314.1 91.521 312.908 90.942 311.904L85.842 303.076C85.2628 302.073 84.3093 301.342 83.1911 301.042C82.0728 300.742 80.8812 300.898 79.878 301.476Z" stroke="#1E223B" stroke-width="2" stroke-linecap="round" stroke-linejoin="round" class="svg-elem-52"></path>
<g id="Group_3" opacity="0.32">
<path id="Vector_47" opacity="0.32" d="M321.942 293.013C326.206 293.013 329.662 289.557 329.662 285.293C329.662 281.029 326.206 277.573 321.942 277.573C317.678 277.573 314.222 281.029 314.222 285.293C314.222 289.557 317.678 293.013 321.942 293.013Z" stroke="#1E223B" stroke-linecap="round" stroke-linejoin="round" class="svg-elem-53"></path>
<path id="Vector_48" opacity="0.32" d="M321.942 288.602C323.769 288.602 325.251 287.121 325.251 285.293C325.251 283.465 323.769 281.984 321.942 281.984C320.114 281.984 318.633 283.465 318.633 285.293C318.633 287.121 320.114 288.602 321.942 288.602Z" stroke="#1E223B" stroke-linecap="round" stroke-linejoin="round" class="svg-elem-54"></path>
<path id="Vector_49" opacity="0.32" d="M338.274 285.961L332.947 284.534V284.548C332.916 284.086 332.856 283.626 332.767 283.172L332.773 283.183L337.549 280.426C337.928 280.206 338.204 279.844 338.317 279.42C338.429 278.996 338.369 278.545 338.149 278.166L336.219 274.824C336.111 274.636 335.966 274.471 335.794 274.338C335.622 274.206 335.425 274.109 335.215 274.053C335.005 273.997 334.786 273.982 334.571 274.01C334.356 274.039 334.148 274.109 333.96 274.218L329.184 276.975V276.982C328.838 276.68 328.473 276.4 328.092 276.144H328.099L329.526 270.817C329.64 270.393 329.58 269.942 329.361 269.562C329.142 269.182 328.781 268.905 328.357 268.791L324.628 267.791C324.204 267.678 323.753 267.737 323.373 267.957C322.993 268.176 322.716 268.537 322.602 268.961L321.175 274.287H321.182C320.724 274.319 320.268 274.379 319.817 274.467H319.824L317.067 269.692C316.848 269.312 316.486 269.035 316.062 268.921C315.639 268.807 315.187 268.867 314.807 269.086L311.464 271.016C311.084 271.236 310.807 271.597 310.694 272.021C310.58 272.445 310.64 272.896 310.859 273.276L313.616 278.052L313.627 278.045C313.323 278.394 313.041 278.761 312.783 279.145V279.131L307.457 277.704C307.247 277.648 307.028 277.633 306.813 277.662C306.597 277.69 306.39 277.761 306.202 277.869C306.013 277.978 305.849 278.123 305.716 278.295C305.584 278.467 305.487 278.664 305.431 278.874L304.431 282.602C304.317 283.026 304.377 283.478 304.596 283.858C304.816 284.238 305.177 284.515 305.601 284.629L310.927 286.056L310.933 286.035C310.964 286.502 311.026 286.967 311.117 287.427L311.105 287.407L306.329 290.164C306.141 290.273 305.976 290.417 305.844 290.59C305.711 290.762 305.614 290.959 305.558 291.169C305.502 291.379 305.488 291.597 305.516 291.813C305.545 292.028 305.615 292.236 305.724 292.424L307.654 295.766C307.763 295.954 307.907 296.119 308.079 296.252C308.252 296.384 308.449 296.481 308.658 296.537C308.868 296.594 309.087 296.608 309.303 296.58C309.518 296.551 309.726 296.481 309.914 296.372L314.689 293.615L314.675 293.59C315.03 293.901 315.405 294.189 315.797 294.451L315.77 294.444L314.343 299.771C314.287 299.981 314.272 300.2 314.301 300.415C314.329 300.631 314.4 300.838 314.508 301.026C314.617 301.215 314.762 301.379 314.934 301.512C315.106 301.644 315.303 301.741 315.513 301.797L319.241 302.797C319.665 302.91 320.116 302.851 320.496 302.631C320.876 302.412 321.153 302.051 321.267 301.627L322.7 296.3L322.673 296.293C323.143 296.262 323.611 296.2 324.073 296.108L324.048 296.123L326.805 300.898C327.024 301.278 327.386 301.555 327.81 301.669C328.233 301.782 328.685 301.723 329.065 301.504L332.408 299.574C332.788 299.354 333.065 298.993 333.178 298.569C333.292 298.145 333.232 297.694 333.013 297.314L330.256 292.538L330.236 292.55C330.544 292.198 330.83 291.826 331.091 291.437V291.457L336.417 292.885C336.841 292.998 337.292 292.939 337.672 292.719C338.052 292.5 338.329 292.139 338.443 291.715L339.443 287.986C339.556 287.562 339.497 287.111 339.278 286.732C339.058 286.352 338.697 286.075 338.274 285.961V285.961Z" stroke="#1E223B" stroke-linecap="round" stroke-linejoin="round" class="svg-elem-55"></path>
</g>
<g id="Group_4" opacity="0.49">
<path id="Vector_50" opacity="0.49" d="M702.171 140.726C712.717 140.726 721.267 132.176 721.267 121.63C721.267 111.084 712.717 102.534 702.171 102.534C691.625 102.534 683.075 111.084 683.075 121.63C683.075 132.176 691.625 140.726 702.171 140.726Z" fill="white" class="svg-elem-56"></path>
<path id="Vector_51" opacity="0.49" d="M702.171 129.814C706.691 129.814 710.355 126.15 710.355 121.63C710.355 117.11 706.691 113.446 702.171 113.446C697.651 113.446 693.987 117.11 693.987 121.63C693.987 126.15 697.651 129.814 702.171 129.814Z" fill="white" class="svg-elem-57"></path>
<path id="Vector_52" opacity="0.49" d="M731.905 94.236L720.092 101.056L720.11 101.086C719.247 100.333 718.338 99.6345 717.387 98.996L717.419 99.005L720.949 85.829C721.23 84.7809 721.083 83.6642 720.54 82.7245C719.998 81.7848 719.104 81.099 718.056 80.818L708.833 78.347C708.314 78.2079 707.773 78.1723 707.24 78.2424C706.707 78.3125 706.193 78.4868 705.728 78.7555C705.262 79.0241 704.854 79.3818 704.527 79.8081C704.2 80.2344 703.96 80.721 703.821 81.24L700.291 94.415L700.311 94.421C699.177 94.4978 698.05 94.6457 696.935 94.864L696.95 94.855L690.13 83.043C689.588 82.1029 688.694 81.4168 687.646 81.1355C686.597 80.8542 685.48 81.0008 684.54 81.543L676.271 86.317C675.805 86.5855 675.397 86.9431 675.07 87.3694C674.742 87.7956 674.502 88.2822 674.363 88.8013C674.224 89.3204 674.188 89.8618 674.258 90.3947C674.328 90.9276 674.502 91.4415 674.771 91.907L681.591 103.719L681.606 103.71C680.859 104.566 680.167 105.467 679.534 106.41V106.391L666.359 102.86C665.311 102.579 664.194 102.726 663.254 103.269C662.314 103.812 661.628 104.706 661.347 105.754L658.876 114.977C658.595 116.025 658.743 117.142 659.285 118.082C659.828 119.022 660.722 119.707 661.77 119.988L674.945 123.518L674.953 123.487C675.031 124.629 675.181 125.764 675.402 126.887L675.385 126.857L663.572 133.677C663.106 133.945 662.698 134.303 662.371 134.729C662.044 135.155 661.803 135.642 661.664 136.161C661.525 136.68 661.489 137.221 661.559 137.754C661.629 138.287 661.803 138.801 662.072 139.266L666.846 147.535C667.388 148.475 668.282 149.161 669.33 149.443C670.379 149.724 671.496 149.577 672.436 149.035L684.248 142.215L684.222 142.169C685.095 142.932 686.016 143.637 686.979 144.282L686.922 144.266L683.392 157.442C683.253 157.961 683.217 158.502 683.287 159.035C683.357 159.568 683.532 160.081 683.801 160.547C684.069 161.012 684.427 161.42 684.853 161.747C685.279 162.074 685.766 162.314 686.285 162.453L695.508 164.924C696.027 165.063 696.568 165.099 697.101 165.029C697.634 164.959 698.148 164.784 698.613 164.516C699.079 164.247 699.486 163.889 699.814 163.463C700.141 163.037 700.381 162.55 700.52 162.031L704.05 148.856L703.981 148.837C705.146 148.76 706.305 148.608 707.451 148.381L707.391 148.416L714.211 160.228C714.479 160.694 714.837 161.102 715.263 161.429C715.69 161.756 716.176 161.997 716.695 162.136C717.214 162.275 717.756 162.311 718.289 162.241C718.822 162.171 719.335 161.997 719.801 161.728L728.069 156.954C728.535 156.686 728.943 156.328 729.27 155.902C729.598 155.476 729.838 154.989 729.977 154.47C730.117 153.951 730.152 153.409 730.082 152.876C730.012 152.343 729.838 151.83 729.569 151.364L722.749 139.552L722.689 139.587C723.458 138.708 724.17 137.78 724.819 136.809L724.801 136.878L737.976 140.409C739.024 140.69 740.141 140.543 741.081 140C742.021 139.457 742.707 138.563 742.988 137.515L745.459 128.293C745.74 127.245 745.592 126.128 745.05 125.188C744.507 124.248 743.613 123.562 742.565 123.281L729.39 119.751L729.375 119.808C729.299 118.652 729.148 117.501 728.924 116.364L728.95 116.409L740.763 109.589C741.229 109.321 741.637 108.963 741.964 108.537C742.291 108.111 742.532 107.624 742.671 107.105C742.81 106.586 742.846 106.045 742.776 105.512C742.706 104.979 742.532 104.465 742.263 104L737.5 95.734C737.231 95.268 736.873 94.8596 736.447 94.5321C736.02 94.2045 735.533 93.9643 735.013 93.8252C734.493 93.6861 733.951 93.6507 733.418 93.7212C732.885 93.7917 732.371 93.9666 731.905 94.236V94.236Z" fill="white" class="svg-elem-58"></path>
</g>
<path id="Vector_53" d="M702.178 140.725C712.724 140.725 721.274 132.175 721.274 121.629C721.274 111.083 712.724 102.533 702.178 102.533C691.632 102.533 683.082 111.083 683.082 121.629C683.082 132.175 691.632 140.725 702.178 140.725Z" stroke="#1E223B" stroke-width="2" stroke-linecap="round" stroke-linejoin="round" class="svg-elem-59"></path>
<path id="Vector_54" d="M702.178 129.813C706.698 129.813 710.362 126.149 710.362 121.629C710.362 117.109 706.698 113.445 702.178 113.445C697.658 113.445 693.994 117.109 693.994 121.629C693.994 126.149 697.658 129.813 702.178 129.813Z" stroke="#1E223B" stroke-width="2" stroke-linecap="round" stroke-linejoin="round" class="svg-elem-60"></path>
<path id="Wheel_002" d="M742.573 123.284L729.398 119.754L729.389 119.787C729.312 118.645 729.162 117.51 728.942 116.387L728.958 116.415L740.771 109.595C741.237 109.327 741.645 108.969 741.972 108.543C742.299 108.117 742.54 107.63 742.679 107.111C742.818 106.592 742.854 106.051 742.784 105.518C742.714 104.985 742.54 104.471 742.271 104.006L737.5 95.734C736.958 94.7939 736.064 94.1077 735.016 93.8264C733.967 93.5451 732.85 93.6917 731.91 94.234L720.097 101.054L720.107 101.072C719.252 100.324 718.35 99.6316 717.407 98.998H717.424L720.954 85.822C721.235 84.7737 721.087 83.6569 720.545 82.7172C720.002 81.7774 719.108 81.0918 718.06 80.811L708.838 78.34C708.319 78.2008 707.778 78.1653 707.245 78.2354C706.712 78.3055 706.198 78.4798 705.733 78.7485C705.267 79.0171 704.859 79.3748 704.532 79.8011C704.205 80.2274 703.965 80.7139 703.826 81.233L700.296 94.408H700.313C699.179 94.4854 698.052 94.634 696.937 94.853L696.955 94.843L690.135 83.031C689.593 82.0909 688.699 81.4047 687.651 81.1234C686.602 80.8421 685.485 80.9888 684.545 81.531L676.276 86.305C675.81 86.5735 675.402 86.9311 675.075 87.3573C674.747 87.7836 674.507 88.2702 674.368 88.7893C674.229 89.3084 674.193 89.8498 674.263 90.3827C674.333 90.9156 674.507 91.4295 674.776 91.895L681.596 103.707L681.624 103.691C680.871 104.554 680.173 105.463 679.535 106.414L679.544 106.381L666.369 102.85C665.321 102.569 664.204 102.716 663.264 103.259C662.324 103.802 661.638 104.696 661.357 105.744L658.886 114.966C658.605 116.014 658.752 117.131 659.295 118.071C659.837 119.011 660.731 119.697 661.779 119.978L674.955 123.508L674.968 123.458C675.047 124.614 675.199 125.764 675.424 126.901L675.395 126.85L663.582 133.67C663.116 133.938 662.708 134.296 662.381 134.722C662.054 135.148 661.813 135.635 661.674 136.154C661.535 136.673 661.499 137.214 661.569 137.747C661.639 138.28 661.813 138.794 662.082 139.259L666.856 147.528C667.398 148.468 668.292 149.154 669.34 149.436C670.389 149.717 671.506 149.57 672.446 149.028L684.258 142.208L684.223 142.146C685.102 142.916 686.029 143.628 687 144.277L686.932 144.259L683.402 157.434C683.263 157.953 683.227 158.494 683.297 159.027C683.367 159.56 683.542 160.074 683.81 160.539C684.079 161.005 684.437 161.413 684.863 161.74C685.289 162.067 685.776 162.307 686.295 162.446L695.518 164.917C696.037 165.056 696.578 165.092 697.111 165.022C697.644 164.952 698.158 164.777 698.623 164.509C699.088 164.24 699.496 163.882 699.823 163.456C700.15 163.03 700.39 162.543 700.529 162.024L704.06 148.849L703.992 148.831C705.158 148.753 706.317 148.6 707.463 148.373L707.401 148.409L714.221 160.221C714.489 160.687 714.847 161.095 715.273 161.422C715.699 161.75 716.186 161.99 716.705 162.129C717.224 162.269 717.766 162.304 718.299 162.234C718.832 162.164 719.345 161.99 719.811 161.721L728.079 156.947C728.545 156.679 728.953 156.321 729.28 155.895C729.608 155.469 729.848 154.982 729.987 154.463C730.127 153.944 730.162 153.402 730.092 152.869C730.022 152.336 729.848 151.822 729.579 151.357L722.759 139.545L722.708 139.575C723.472 138.703 724.178 137.783 724.824 136.82L724.811 136.871L737.986 140.402C739.034 140.683 740.151 140.535 741.091 139.993C742.031 139.45 742.717 138.556 742.998 137.508L745.469 128.286C745.747 127.239 745.598 126.124 745.055 125.186C744.512 124.249 743.619 123.565 742.573 123.284V123.284Z" stroke="#1E223B" stroke-width="2" stroke-linecap="round" stroke-linejoin="round" class="svg-elem-61"></path>
<path id="Vector_55" d="M457.47 123.288H431.27L403.93 141.515V123.288H384.564C382.147 123.288 379.829 122.328 378.12 120.619C376.411 118.91 375.451 116.592 375.451 114.175V64.052C375.451 61.6351 376.411 59.3172 378.12 57.6081C379.829 55.8991 382.147 54.939 384.564 54.939H457.47C458.667 54.9389 459.852 55.1745 460.958 55.6324C462.063 56.0903 463.068 56.7616 463.914 57.6078C464.761 58.454 465.432 59.4587 465.89 60.5644C466.348 61.6701 466.584 62.8552 466.584 64.052V114.175C466.584 115.372 466.348 116.557 465.89 117.663C465.432 118.768 464.761 119.773 463.914 120.619C463.068 121.465 462.063 122.137 460.958 122.595C459.852 123.053 458.667 123.288 457.47 123.288V123.288Z" fill="white" class="svg-elem-62"></path>
<path id="Vector_56" d="M457.47 123.288H431.27L403.93 141.515V123.288H384.564C382.147 123.288 379.829 122.328 378.12 120.619C376.411 118.91 375.451 116.592 375.451 114.175V64.052C375.451 61.6351 376.411 59.3172 378.12 57.6081C379.829 55.8991 382.147 54.939 384.564 54.939H457.47C458.667 54.9389 459.852 55.1745 460.958 55.6324C462.063 56.0903 463.068 56.7616 463.914 57.6078C464.761 58.454 465.432 59.4587 465.89 60.5644C466.348 61.6701 466.584 62.8552 466.584 64.052V114.175C466.584 115.372 466.348 116.557 465.89 117.663C465.432 118.768 464.761 119.773 463.914 120.619C463.068 121.465 462.063 122.137 460.958 122.595C459.852 123.053 458.667 123.288 457.47 123.288V123.288Z" stroke="#1E223B" stroke-width="2" stroke-linecap="round" stroke-linejoin="round" class="svg-elem-63"></path>
<path id="Vector_57" opacity="0.5" d="M458.4 45.657H475.366L493.066 57.457V45.657H505.6C507.165 45.657 508.665 45.0354 509.772 43.929C510.878 42.8225 511.5 41.3218 511.5 39.757V7.30003C511.5 5.73526 510.878 4.23456 509.772 3.1281C508.665 2.02163 507.165 1.40002 505.6 1.40002H458.4C456.835 1.40002 455.335 2.02163 454.228 3.1281C453.122 4.23456 452.5 5.73526 452.5 7.30003V39.755C452.5 40.53 452.652 41.2974 452.949 42.0135C453.245 42.7295 453.679 43.3802 454.227 43.9283C454.775 44.4763 455.426 44.9111 456.142 45.2077C456.858 45.5044 457.625 45.657 458.4 45.657V45.657Z" fill="white" class="svg-elem-64"></path>
<path id="Vector_58" d="M458.4 45.657H475.366L493.066 57.457V45.657H505.6C507.165 45.657 508.665 45.0354 509.772 43.929C510.878 42.8225 511.5 41.3218 511.5 39.757V7.30003C511.5 5.73526 510.878 4.23456 509.772 3.1281C508.665 2.02163 507.165 1.40002 505.6 1.40002H458.4C456.835 1.40002 455.335 2.02163 454.228 3.1281C453.122 4.23456 452.5 5.73526 452.5 7.30003V39.755C452.5 40.53 452.652 41.2974 452.949 42.0135C453.245 42.7295 453.679 43.3802 454.227 43.9283C454.775 44.4763 455.426 44.9111 456.142 45.2077C456.858 45.5044 457.625 45.657 458.4 45.657V45.657Z" stroke="#1E223B" stroke-width="2" stroke-linecap="round" stroke-linejoin="round" class="svg-elem-65"></path>
<path id="Vector_59" d="M519.964 681.97C519.964 684.587 519.188 687.145 517.734 689.321C516.279 691.497 514.213 693.193 511.795 694.194C509.377 695.195 506.717 695.457 504.15 694.947C501.583 694.436 499.226 693.176 497.375 691.325C495.525 689.475 494.265 687.117 493.754 684.55C493.244 681.983 493.506 679.323 494.507 676.905C495.509 674.487 497.205 672.421 499.381 670.967C501.557 669.513 504.115 668.737 506.732 668.737C508.47 668.737 510.19 669.079 511.796 669.744C513.401 670.409 514.86 671.384 516.089 672.613C517.318 673.842 518.292 675.301 518.957 676.906C519.622 678.512 519.964 680.232 519.964 681.97V681.97Z" fill="#DD4814" class="svg-elem-66"></path>
<path id="Vector_60" d="M497.734 680.2C497.385 680.2 497.043 680.303 496.752 680.497C496.462 680.691 496.235 680.967 496.101 681.289C495.967 681.612 495.932 681.967 496 682.31C496.067 682.653 496.235 682.968 496.482 683.215C496.729 683.462 497.043 683.631 497.386 683.7C497.729 683.768 498.084 683.734 498.407 683.6C498.73 683.467 499.006 683.241 499.201 682.951C499.395 682.661 499.499 682.319 499.5 681.97C499.5 681.738 499.455 681.508 499.366 681.293C499.278 681.078 499.148 680.883 498.984 680.719C498.82 680.555 498.625 680.424 498.411 680.335C498.196 680.246 497.966 680.2 497.734 680.2V680.2ZM510.348 688.229C510.045 688.404 509.801 688.664 509.647 688.977C509.492 689.29 509.434 689.642 509.479 689.989C509.525 690.335 509.672 690.66 509.902 690.923C510.133 691.185 510.436 691.374 510.773 691.464C511.11 691.555 511.467 691.543 511.798 691.431C512.128 691.319 512.419 691.111 512.631 690.834C512.844 690.557 512.97 690.223 512.993 689.875C513.016 689.526 512.935 689.179 512.76 688.876C512.525 688.471 512.139 688.176 511.687 688.055C511.235 687.934 510.753 687.998 510.348 688.232V688.229ZM501.572 681.966C501.571 681.138 501.77 680.322 502.152 679.587C502.534 678.852 503.088 678.22 503.766 677.745L502.474 675.581C500.904 676.628 499.775 678.217 499.301 680.043C499.587 680.276 499.817 680.569 499.975 680.902C500.133 681.234 500.215 681.598 500.215 681.967C500.215 682.335 500.133 682.699 499.975 683.031C499.817 683.364 499.587 683.657 499.301 683.89C499.775 685.717 500.904 687.305 502.474 688.352L503.766 686.188C503.088 685.713 502.535 685.081 502.153 684.347C501.771 683.613 501.572 682.797 501.572 681.969V681.966ZM506.732 676.806C508.021 676.806 509.263 677.289 510.214 678.158C511.165 679.028 511.756 680.222 511.871 681.506L514.389 681.469C514.269 679.585 513.457 677.812 512.109 676.491C511.765 676.621 511.396 676.673 511.03 676.643C510.663 676.613 510.308 676.502 509.99 676.318C509.671 676.134 509.398 675.882 509.189 675.579C508.98 675.276 508.841 674.931 508.782 674.568C506.963 674.064 505.023 674.247 503.331 675.084L504.558 677.284C505.239 676.969 505.981 676.807 506.732 676.809V676.806ZM506.732 687.127C505.981 687.128 505.239 686.964 504.558 686.647L503.331 688.847C505.023 689.683 506.963 689.866 508.782 689.362C508.841 688.999 508.98 688.654 509.189 688.351C509.398 688.048 509.671 687.796 509.99 687.612C510.308 687.428 510.663 687.317 511.03 687.287C511.396 687.257 511.765 687.309 512.109 687.439C513.457 686.118 514.269 684.345 514.389 682.461L511.871 682.424C511.758 683.709 511.167 684.905 510.216 685.776C509.265 686.647 508.022 687.13 506.732 687.13V687.127ZM510.348 675.704C510.651 675.878 510.998 675.959 511.346 675.936C511.695 675.913 512.029 675.788 512.306 675.575C512.583 675.362 512.791 675.072 512.903 674.741C513.015 674.411 513.026 674.054 512.936 673.717C512.846 673.38 512.657 673.077 512.395 672.846C512.132 672.616 511.807 672.469 511.461 672.423C511.114 672.378 510.762 672.436 510.449 672.59C510.136 672.745 509.876 672.989 509.701 673.291C509.584 673.492 509.509 673.714 509.478 673.944C509.447 674.175 509.463 674.409 509.523 674.633C509.583 674.858 509.687 675.068 509.828 675.253C509.97 675.437 510.147 675.591 510.348 675.707V675.704Z" fill="white" class="svg-elem-67"></path>
<path id="Vector_61" d="M63.132 562.759L91.189 546.453L91.103 576.956L63.045 593.261L63.132 562.759Z" fill="#777BB4" class="svg-elem-68"></path>
<path id="Vector_62" d="M63.132 562.759L91.189 546.453L91.103 576.956L63.045 593.261L63.132 562.759Z" stroke="#1E223B" stroke-width="2" stroke-linecap="round" stroke-linejoin="round" class="svg-elem-69"></path>
<path id="Vector_63" opacity="0.88" d="M36.587 547.433L64.644 531.127L91.189 546.453L63.132 562.759L36.587 547.433Z" fill="#FF5855" stroke="#1E223B" stroke-miterlimit="10" class="svg-elem-70"></path>
<path id="Vector_64" d="M63.132 562.759L63.045 593.261L36.5 577.935L36.587 547.433L63.132 562.759Z" fill="#0270BB" class="svg-elem-71"></path>
<path id="Vector_65" d="M36.587 547.433L64.644 531.127L91.189 546.453L63.132 562.759L36.587 547.433Z" stroke="#1E223B" stroke-width="2" stroke-linecap="round" stroke-linejoin="round" class="svg-elem-72"></path>
<path id="Vector_66" d="M63.132 562.759L63.045 593.261L36.5 577.935L36.587 547.433L63.132 562.759Z" stroke="#1E223B" stroke-width="2" stroke-linecap="round" stroke-linejoin="round" class="svg-elem-73"></path>
<path id="Vector_67" opacity="0.59" d="M42.545 519.737C45.8587 519.737 48.545 517.051 48.545 513.737C48.545 510.423 45.8587 507.737 42.545 507.737C39.2313 507.737 36.545 510.423 36.545 513.737C36.545 517.051 39.2313 519.737 42.545 519.737Z" fill="white" class="svg-elem-74"></path>
<path id="Circle_003" d="M42.545 519.737C45.8587 519.737 48.545 517.051 48.545 513.737C48.545 510.423 45.8587 507.737 42.545 507.737C39.2313 507.737 36.545 510.423 36.545 513.737C36.545 517.051 39.2313 519.737 42.545 519.737Z" stroke="#1E223B" stroke-width="2" stroke-linecap="round" stroke-linejoin="round" class="svg-elem-75"></path>
<path id="Vector_68" opacity="0.59" d="M63.045 519.737C66.3587 519.737 69.045 517.051 69.045 513.737C69.045 510.423 66.3587 507.737 63.045 507.737C59.7313 507.737 57.045 510.423 57.045 513.737C57.045 517.051 59.7313 519.737 63.045 519.737Z" fill="white" class="svg-elem-76"></path>
<path id="Circle_002" d="M63.045 519.737C66.3587 519.737 69.045 517.051 69.045 513.737C69.045 510.423 66.3587 507.737 63.045 507.737C59.7313 507.737 57.045 510.423 57.045 513.737C57.045 517.051 59.7313 519.737 63.045 519.737Z" stroke="#1E223B" stroke-width="2" stroke-linecap="round" stroke-linejoin="round" class="svg-elem-77"></path>
<path id="Vector_69" opacity="0.59" d="M83.545 519.737C86.8587 519.737 89.545 517.051 89.545 513.737C89.545 510.423 86.8587 507.737 83.545 507.737C80.2313 507.737 77.545 510.423 77.545 513.737C77.545 517.051 80.2313 519.737 83.545 519.737Z" fill="white" class="svg-elem-78"></path>
<path id="Vector_70" opacity="0.32" d="M767.25 430.49C789.065 430.49 806.75 412.805 806.75 390.99C806.75 369.175 789.065 351.49 767.25 351.49C745.435 351.49 727.75 369.175 727.75 390.99C727.75 412.805 745.435 430.49 767.25 430.49Z" fill="white" class="svg-elem-79"></path>
<path id="Circle_001" d="M83.545 519.737C86.8587 519.737 89.545 517.051 89.545 513.737C89.545 510.423 86.8587 507.737 83.545 507.737C80.2313 507.737 77.545 510.423 77.545 513.737C77.545 517.051 80.2313 519.737 83.545 519.737Z" stroke="#1E223B" stroke-width="2" stroke-linecap="round" stroke-linejoin="round" class="svg-elem-80"></path>
<path id="Vector_71" opacity="0.12" d="M767.792 391.419L746.454 379.019L746.519 402.217L767.858 414.617L767.792 391.419Z" fill="#0270BB" class="svg-elem-81"></path>
<path id="Vector_72" d="M767.792 391.419L746.454 379.019L746.519 402.217L767.858 414.617L767.792 391.419Z" stroke="#1E223B" stroke-width="2" stroke-linecap="round" stroke-linejoin="round" class="svg-elem-82"></path>
<path id="Vector_73" opacity="0.47" d="M787.98 379.764L766.642 367.363L746.454 379.019L767.792 391.419L787.98 379.764Z" fill="#0270BB" class="svg-elem-83"></path>
<path id="Vector_74" d="M787.98 379.764L766.642 367.363L746.454 379.019L767.792 391.419L787.98 379.764Z" stroke="#1E223B" stroke-width="2" stroke-linecap="round" stroke-linejoin="round" class="svg-elem-84"></path>
<path id="Vector_75" d="M767.792 391.419L767.858 414.617L788.046 402.962L787.98 379.764L767.792 391.419Z" fill="white" stroke="#1E223B" stroke-width="2" stroke-linecap="round" stroke-linejoin="round" class="svg-elem-85"></path>
<path id="Vector_76" d="M767.792 391.419L767.858 414.617L788.046 402.962L787.98 379.764L767.792 391.419Z" stroke="#1E223B" stroke-width="2" stroke-linecap="round" stroke-linejoin="round" class="svg-elem-86"></path>
<path id="Vector_77" d="M767.25 430.49C789.065 430.49 806.75 412.805 806.75 390.99C806.75 369.175 789.065 351.49 767.25 351.49C745.435 351.49 727.75 369.175 727.75 390.99C727.75 412.805 745.435 430.49 767.25 430.49Z" stroke="#1E223B" stroke-width="2" stroke-linecap="round" stroke-linejoin="round" class="svg-elem-87"></path>
<path id="Vector_78" d="M669.976 144.479H580.398C573.832 144.479 568.509 149.802 568.509 156.368V192.033C568.509 198.599 573.832 203.922 580.398 203.922H669.976C676.542 203.922 681.865 198.599 681.865 192.033V156.368C681.865 149.802 676.542 144.479 669.976 144.479Z" fill="#777BB4" class="svg-elem-88"></path>
<path id="Vector_79" d="M669.976 144.479H580.398C573.832 144.479 568.509 149.802 568.509 156.368V192.033C568.509 198.599 573.832 203.922 580.398 203.922H669.976C676.542 203.922 681.865 198.599 681.865 192.033V156.368C681.865 149.802 676.542 144.479 669.976 144.479Z" stroke="#1E223B" stroke-width="2" stroke-linecap="round" stroke-linejoin="round" class="svg-elem-89"></path>
<path id="Vector_80" d="M745.638 415.49H675.644C670.65 415.49 666.602 419.538 666.602 424.532V451.657C666.602 456.651 670.65 460.699 675.644 460.699H745.638C750.632 460.699 754.68 456.651 754.68 451.657V424.532C754.68 419.538 750.632 415.49 745.638 415.49Z" fill="#0270BB" class="svg-elem-90"></path>
<path id="Vector_81" d="M745.638 415.49H675.644C670.65 415.49 666.602 419.538 666.602 424.532V451.657C666.602 456.651 670.65 460.699 675.644 460.699H745.638C750.632 460.699 754.68 456.651 754.68 451.657V424.532C754.68 419.538 750.632 415.49 745.638 415.49Z" stroke="#1E223B" stroke-width="2" stroke-linecap="round" stroke-linejoin="round" class="svg-elem-91"></path>
<path id="Vector_82" d="M449.063 424.987C449.344 425.394 449.516 425.362 449.734 425.269C449.952 425.176 461.203 421.378 461.547 421.253C461.891 421.128 461.781 421.019 461.672 420.847C461.563 420.675 457.813 415.581 457.625 415.284C457.437 414.987 457.344 415.05 457.047 415.144L445.121 418.244C445.121 418.244 448.781 424.578 449.063 424.984V424.987Z" fill="#F35045" class="svg-elem-92"></path>
<path id="Vector_83" d="M462.5 419.8V413.837L458.791 414.825C459.802 416.177 461.382 418.293 462.5 419.8V419.8Z" fill="#F35045" class="svg-elem-93"></path>
<path id="Vector_84" d="M458.78 407.483C458.596 407.524 454.526 408.26 454.28 408.293C454.034 408.326 454.113 408.469 454.213 408.611L457.794 413.525C457.794 413.525 462.173 412.438 462.441 412.38L462.504 412.365V411.714C461.704 410.705 459.54 407.957 459.352 407.7C459.127 407.391 458.968 407.441 458.784 407.483H458.78Z" fill="#F35045" class="svg-elem-94"></path>
<path id="Vector_85" d="M433.174 399.764C434.055 399.724 434.135 399.925 434.522 400.499L444.25 416.761L456.48 413.831C455.803 412.87 452.726 408.509 452.429 408.093C452.095 407.625 452.437 407.407 452.98 407.316C453.523 407.225 458.203 406.438 458.604 406.38C459.005 406.322 459.323 406.18 459.975 406.965C460.308 407.365 461.439 408.774 462.5 410.094V402.487C462.497 400.698 461.785 398.983 460.519 397.718C459.254 396.452 457.539 395.74 455.75 395.737H433.25C432.362 395.724 431.481 395.893 430.66 396.234C429.84 396.574 429.098 397.079 428.481 397.718C427.753 398.428 427.199 399.297 426.861 400.256C429.066 400.075 432.561 399.792 433.174 399.764V399.764Z" fill="#F35045" class="svg-elem-95"></path>
<path id="Vector_86" d="M450.166 427.176C449.134 427.489 448.672 427.644 448 426.706C447.5 426.006 444.776 421.106 443.442 418.687C440.917 419.349 436.296 420.555 434.964 420.875C434.563 421.015 434.124 420.995 433.738 420.818C433.352 420.641 433.05 420.322 432.894 419.927C432.744 419.59 428.931 411.369 426.5 406.095V424.987C426.503 426.776 427.215 428.491 428.481 429.756C429.746 431.022 431.461 431.734 433.25 431.737H455.75C457.539 431.734 459.255 431.022 460.52 429.757C461.785 428.492 462.497 426.776 462.5 424.987V422.768C459.738 423.778 450.861 426.968 450.166 427.176Z" fill="#F35045" class="svg-elem-96"></path>
<path id="Vector_87" d="M435 418.981C435.365 418.897 442.215 417.258 442.362 417.227C442.509 417.196 442.602 417.112 442.445 416.84L433.314 401.078C433.231 400.936 433.255 400.888 433.03 400.9C432.83 400.911 427.751 401.364 426.575 401.462C426.54 401.711 426.518 401.961 426.51 402.212C427.704 404.655 434.554 418.782 434.592 418.897C434.63 419.012 434.634 419.065 435 418.981V418.981Z" fill="#F35045" class="svg-elem-97"></path>
<path id="Vector_88" opacity="0.32" d="M344.5 281.737H438.5" stroke="#1E223B" stroke-width="2" stroke-linecap="round" stroke-linejoin="round" class="svg-elem-98"></path>
<path id="Vector_89" opacity="0.32" d="M344.5 289.737H404.5" stroke="#1E223B" stroke-width="2" stroke-linecap="round" stroke-linejoin="round" class="svg-elem-99"></path>
<path id="Vector_90" opacity="0.15" d="M316.5 328.737H410.5" stroke="#1E223B" stroke-width="2" stroke-linecap="round" stroke-linejoin="round" class="svg-elem-100"></path>
<path id="Vector_91" opacity="0.32" d="M316.5 337.404H376.5" stroke="#1E223B" stroke-width="2" stroke-linecap="round" stroke-linejoin="round" class="svg-elem-101"></path>
<path id="Vector_92" opacity="0.32" d="M364.5 346.071H399.5" stroke="#1E223B" stroke-width="2" stroke-linecap="round" stroke-linejoin="round" class="svg-elem-102"></path>
<path id="Vector_93" opacity="0.26" d="M316.5 346.071H358.5" stroke="#1E223B" stroke-width="2" stroke-linecap="round" stroke-linejoin="round" class="svg-elem-103"></path>
<path id="Vector_94" opacity="0.15" d="M316.5 354.737H352.5" stroke="#1E223B" stroke-width="2" stroke-linecap="round" stroke-linejoin="round" class="svg-elem-104"></path>
<path id="Vector_95" d="M320.5 371.071C319.439 371.071 318.422 371.492 317.672 372.243C316.921 372.993 316.5 374.01 316.5 375.071C316.5 376.132 316.921 377.149 317.672 377.899C318.422 378.65 319.439 379.071 320.5 379.071H401.167V371.071H320.5Z" fill="#4AD3A5" stroke="#1E223B" stroke-miterlimit="10" class="svg-elem-105"></path>
<path id="Vector_96" d="M446.5 371.071H320.5C318.291 371.071 316.5 372.862 316.5 375.071C316.5 377.28 318.291 379.071 320.5 379.071H446.5C448.709 379.071 450.5 377.28 450.5 375.071C450.5 372.862 448.709 371.071 446.5 371.071Z" stroke="#1E223B" stroke-linecap="round" stroke-linejoin="round" class="svg-elem-106"></path>
<path id="Vector_97" d="M517.25 475.737H243.75C242.507 475.737 241.5 476.744 241.5 477.987V486.487C241.5 487.73 242.507 488.737 243.75 488.737H517.25C518.493 488.737 519.5 487.73 519.5 486.487V477.987C519.5 476.744 518.493 475.737 517.25 475.737Z" fill="#263C72" class="svg-elem-107"></path>
<path id="Vector_98" d="M519.5 475.737H241.5V488.737H519.5V475.737Z" stroke="#1E223B" stroke-width="2" stroke-linecap="round" stroke-linejoin="round" class="svg-elem-108"></path>
<path id="Vector_99" d="M516.5 507.737H500.5C498.843 507.737 497.5 509.08 497.5 510.737V516.737C497.5 518.394 498.843 519.737 500.5 519.737H516.5C518.157 519.737 519.5 518.394 519.5 516.737V510.737C519.5 509.08 518.157 507.737 516.5 507.737Z" fill="#363D56" class="svg-elem-109"></path>
<path id="Vector_100" d="M484.5 507.737H468.5C466.843 507.737 465.5 509.08 465.5 510.737V516.737C465.5 518.394 466.843 519.737 468.5 519.737H484.5C486.157 519.737 487.5 518.394 487.5 516.737V510.737C487.5 509.08 486.157 507.737 484.5 507.737Z" fill="#363D56" class="svg-elem-110"></path>
<path id="Vector_101" d="M452.5 507.737H436.5C434.843 507.737 433.5 509.08 433.5 510.737V516.737C433.5 518.394 434.843 519.737 436.5 519.737H452.5C454.157 519.737 455.5 518.394 455.5 516.737V510.737C455.5 509.08 454.157 507.737 452.5 507.737Z" fill="#363D56" class="svg-elem-111"></path>
<path id="Vector_102" d="M420.5 507.737H404.5C402.843 507.737 401.5 509.08 401.5 510.737V516.737C401.5 518.394 402.843 519.737 404.5 519.737H420.5C422.157 519.737 423.5 518.394 423.5 516.737V510.737C423.5 509.08 422.157 507.737 420.5 507.737Z" fill="#363D56" class="svg-elem-112"></path>
<path id="Vector_103" d="M388.5 507.737H372.5C370.843 507.737 369.5 509.08 369.5 510.737V516.737C369.5 518.394 370.843 519.737 372.5 519.737H388.5C390.157 519.737 391.5 518.394 391.5 516.737V510.737C391.5 509.08 390.157 507.737 388.5 507.737Z" fill="#363D56" class="svg-elem-113"></path>
<path id="Vector_104" d="M356.5 507.737H340.5C338.843 507.737 337.5 509.08 337.5 510.737V516.737C337.5 518.394 338.843 519.737 340.5 519.737H356.5C358.157 519.737 359.5 518.394 359.5 516.737V510.737C359.5 509.08 358.157 507.737 356.5 507.737Z" fill="#363D56" class="svg-elem-114"></path>
<path id="Vector_105" d="M324.5 507.737H308.5C306.843 507.737 305.5 509.08 305.5 510.737V516.737C305.5 518.394 306.843 519.737 308.5 519.737H324.5C326.157 519.737 327.5 518.394 327.5 516.737V510.737C327.5 509.08 326.157 507.737 324.5 507.737Z" fill="#363D56" class="svg-elem-115"></path>
<path id="Vector_106" d="M292.5 507.737H276.5C274.843 507.737 273.5 509.08 273.5 510.737V516.737C273.5 518.394 274.843 519.737 276.5 519.737H292.5C294.157 519.737 295.5 518.394 295.5 516.737V510.737C295.5 509.08 294.157 507.737 292.5 507.737Z" fill="#363D56" class="svg-elem-116"></path>
<path id="Vector_107" d="M260.5 507.737H244.5C242.843 507.737 241.5 509.08 241.5 510.737V516.737C241.5 518.394 242.843 519.737 244.5 519.737H260.5C262.157 519.737 263.5 518.394 263.5 516.737V510.737C263.5 509.08 262.157 507.737 260.5 507.737Z" fill="#363D56" class="svg-elem-117"></path>
<path id="Vector_108" d="M452.5 533.214H436.5C434.843 533.214 433.5 534.557 433.5 536.214V552.214C433.5 553.871 434.843 555.214 436.5 555.214H452.5C454.157 555.214 455.5 553.871 455.5 552.214V536.214C455.5 534.557 454.157 533.214 452.5 533.214Z" fill="#363D56" class="svg-elem-118"></path>
<path id="Vector_109" d="M420.5 533.214H404.5C402.843 533.214 401.5 534.557 401.5 536.214V552.214C401.5 553.871 402.843 555.214 404.5 555.214H420.5C422.157 555.214 423.5 553.871 423.5 552.214V536.214C423.5 534.557 422.157 533.214 420.5 533.214Z" fill="#363D56" class="svg-elem-119"></path>
<path id="Vector_110" d="M388.5 533.214H372.5C370.843 533.214 369.5 534.557 369.5 536.214V552.214C369.5 553.871 370.843 555.214 372.5 555.214H388.5C390.157 555.214 391.5 553.871 391.5 552.214V536.214C391.5 534.557 390.157 533.214 388.5 533.214Z" fill="#363D56" class="svg-elem-120"></path>
<path id="Vector_111" d="M356.5 533.214H340.5C338.843 533.214 337.5 534.557 337.5 536.214V552.214C337.5 553.871 338.843 555.214 340.5 555.214H356.5C358.157 555.214 359.5 553.871 359.5 552.214V536.214C359.5 534.557 358.157 533.214 356.5 533.214Z" fill="#363D56" class="svg-elem-121"></path>
<path id="Vector_112" d="M324.5 533.214H308.5C306.843 533.214 305.5 534.557 305.5 536.214V552.214C305.5 553.871 306.843 555.214 308.5 555.214H324.5C326.157 555.214 327.5 553.871 327.5 552.214V536.214C327.5 534.557 326.157 533.214 324.5 533.214Z" fill="#363D56" class="svg-elem-122"></path>
<path id="Vector_113" d="M292.5 533.214H276.5C274.843 533.214 273.5 534.557 273.5 536.214V552.214C273.5 553.871 274.843 555.214 276.5 555.214H292.5C294.157 555.214 295.5 553.871 295.5 552.214V536.214C295.5 534.557 294.157 533.214 292.5 533.214Z" fill="#363D56" class="svg-elem-123"></path>
<path id="Vector_114" d="M260.5 533.214H244.5C242.843 533.214 241.5 534.557 241.5 536.214V552.214C241.5 553.871 242.843 555.214 244.5 555.214H260.5C262.157 555.214 263.5 553.871 263.5 552.214V536.214C263.5 534.557 262.157 533.214 260.5 533.214Z" fill="#363D56" class="svg-elem-124"></path>
<path id="Vector_115" d="M516.5 533.214H500.5C498.843 533.214 497.5 534.557 497.5 536.214V583.726C497.5 585.383 498.843 586.726 500.5 586.726H516.5C518.157 586.726 519.5 585.383 519.5 583.726V536.214C519.5 534.557 518.157 533.214 516.5 533.214Z" fill="#363D56" class="svg-elem-125"></path>
<path id="Vector_116" d="M484.5 533.214H468.5C467.704 533.214 466.941 533.53 466.379 534.093C465.816 534.655 465.5 535.418 465.5 536.214V561.726C465.5 562.522 465.184 563.285 464.621 563.847C464.059 564.41 463.296 564.726 462.5 564.726H436.5C435.704 564.726 434.941 565.042 434.379 565.605C433.816 566.167 433.5 566.93 433.5 567.726V583.726C433.5 584.522 433.816 585.285 434.379 585.847C434.941 586.41 435.704 586.726 436.5 586.726H484.5C485.296 586.726 486.059 586.41 486.621 585.847C487.184 585.285 487.5 584.522 487.5 583.726V536.214C487.5 535.418 487.184 534.655 486.621 534.093C486.059 533.53 485.296 533.214 484.5 533.214Z" fill="#363D56" class="svg-elem-126"></path>
<path id="Vector_117" d="M420.5 564.726H404.5C402.843 564.726 401.5 566.069 401.5 567.726V583.726C401.5 585.383 402.843 586.726 404.5 586.726H420.5C422.157 586.726 423.5 585.383 423.5 583.726V567.726C423.5 566.069 422.157 564.726 420.5 564.726Z" fill="#363D56" class="svg-elem-127"></path>
<path id="Vector_118" d="M388.5 564.726H372.5C370.843 564.726 369.5 566.069 369.5 567.726V583.726C369.5 585.383 370.843 586.726 372.5 586.726H388.5C390.157 586.726 391.5 585.383 391.5 583.726V567.726C391.5 566.069 390.157 564.726 388.5 564.726Z" fill="#363D56" class="svg-elem-128"></path>
<path id="Vector_119" d="M356.5 564.726H340.5C338.843 564.726 337.5 566.069 337.5 567.726V583.726C337.5 585.383 338.843 586.726 340.5 586.726H356.5C358.157 586.726 359.5 585.383 359.5 583.726V567.726C359.5 566.069 358.157 564.726 356.5 564.726Z" fill="#363D56" class="svg-elem-129"></path>
<path id="Vector_120" d="M324.5 564.726H308.5C306.843 564.726 305.5 566.069 305.5 567.726V583.726C305.5 585.383 306.843 586.726 308.5 586.726H324.5C326.157 586.726 327.5 585.383 327.5 583.726V567.726C327.5 566.069 326.157 564.726 324.5 564.726Z" fill="#363D56" class="svg-elem-130"></path>
<path id="Vector_121" d="M292.5 564.726H244.5C242.843 564.726 241.5 566.069 241.5 567.726V583.726C241.5 585.383 242.843 586.726 244.5 586.726H292.5C294.157 586.726 295.5 585.383 295.5 583.726V567.726C295.5 566.069 294.157 564.726 292.5 564.726Z" fill="#363D56" class="svg-elem-131"></path>
<path id="Vector_122" d="M516.5 596.237H500.5C498.843 596.237 497.5 597.58 497.5 599.237V615.237C497.5 616.894 498.843 618.237 500.5 618.237H516.5C518.157 618.237 519.5 616.894 519.5 615.237V599.237C519.5 597.58 518.157 596.237 516.5 596.237Z" fill="#363D56" class="svg-elem-132"></path>
<path id="Vector_123" d="M484.5 596.237H468.5C466.843 596.237 465.5 597.58 465.5 599.237V615.237C465.5 616.894 466.843 618.237 468.5 618.237H484.5C486.157 618.237 487.5 616.894 487.5 615.237V599.237C487.5 597.58 486.157 596.237 484.5 596.237Z" fill="#363D56" class="svg-elem-133"></path>
<path id="Vector_124" d="M452.5 596.237H436.5C434.843 596.237 433.5 597.58 433.5 599.237V615.237C433.5 616.894 434.843 618.237 436.5 618.237H452.5C454.157 618.237 455.5 616.894 455.5 615.237V599.237C455.5 597.58 454.157 596.237 452.5 596.237Z" fill="#363D56" class="svg-elem-134"></path>
<path id="Vector_125" d="M420.5 596.237H340.5C338.843 596.237 337.5 597.58 337.5 599.237V615.237C337.5 616.894 338.843 618.237 340.5 618.237H420.5C422.157 618.237 423.5 616.894 423.5 615.237V599.237C423.5 597.58 422.157 596.237 420.5 596.237Z" fill="#363D56" class="svg-elem-135"></path>
<path id="Vector_126" d="M324.5 596.237H308.5C306.843 596.237 305.5 597.58 305.5 599.237V615.237C305.5 616.894 306.843 618.237 308.5 618.237H324.5C326.157 618.237 327.5 616.894 327.5 615.237V599.237C327.5 597.58 326.157 596.237 324.5 596.237Z" fill="#363D56" class="svg-elem-136"></path>
<path id="Vector_127" d="M292.5 596.237H276.5C274.843 596.237 273.5 597.58 273.5 599.237V615.237C273.5 616.894 274.843 618.237 276.5 618.237H292.5C294.157 618.237 295.5 616.894 295.5 615.237V599.237C295.5 597.58 294.157 596.237 292.5 596.237Z" fill="#363D56" class="svg-elem-137"></path>
<path id="Vector_128" d="M260.5 596.237H244.5C242.843 596.237 241.5 597.58 241.5 599.237V615.237C241.5 616.894 242.843 618.237 244.5 618.237H260.5C262.157 618.237 263.5 616.894 263.5 615.237V599.237C263.5 597.58 262.157 596.237 260.5 596.237Z" fill="#363D56" class="svg-elem-138"></path>
<path id="Vector_129" d="M516.5 507.737H500.5C498.843 507.737 497.5 509.08 497.5 510.737V516.737C497.5 518.394 498.843 519.737 500.5 519.737H516.5C518.157 519.737 519.5 518.394 519.5 516.737V510.737C519.5 509.08 518.157 507.737 516.5 507.737Z" stroke="#1E223B" stroke-width="2" stroke-linecap="round" stroke-linejoin="round" class="svg-elem-139"></path>
<path id="Vector_130" d="M484.5 507.737H468.5C466.843 507.737 465.5 509.08 465.5 510.737V516.737C465.5 518.394 466.843 519.737 468.5 519.737H484.5C486.157 519.737 487.5 518.394 487.5 516.737V510.737C487.5 509.08 486.157 507.737 484.5 507.737Z" stroke="#1E223B" stroke-width="2" stroke-linecap="round" stroke-linejoin="round" class="svg-elem-140"></path>
<path id="Vector_131" d="M452.5 507.737H436.5C434.843 507.737 433.5 509.08 433.5 510.737V516.737C433.5 518.394 434.843 519.737 436.5 519.737H452.5C454.157 519.737 455.5 518.394 455.5 516.737V510.737C455.5 509.08 454.157 507.737 452.5 507.737Z" stroke="#1E223B" stroke-width="2" stroke-linecap="round" stroke-linejoin="round" class="svg-elem-141"></path>
<path id="Vector_132" d="M420.5 507.737H404.5C402.843 507.737 401.5 509.08 401.5 510.737V516.737C401.5 518.394 402.843 519.737 404.5 519.737H420.5C422.157 519.737 423.5 518.394 423.5 516.737V510.737C423.5 509.08 422.157 507.737 420.5 507.737Z" stroke="#1E223B" stroke-width="2" stroke-linecap="round" stroke-linejoin="round" class="svg-elem-142"></path>
<path id="Vector_133" d="M388.5 507.737H372.5C370.843 507.737 369.5 509.08 369.5 510.737V516.737C369.5 518.394 370.843 519.737 372.5 519.737H388.5C390.157 519.737 391.5 518.394 391.5 516.737V510.737C391.5 509.08 390.157 507.737 388.5 507.737Z" stroke="#1E223B" stroke-width="2" stroke-linecap="round" stroke-linejoin="round" class="svg-elem-143"></path>
<path id="Vector_134" d="M356.5 507.737H340.5C338.843 507.737 337.5 509.08 337.5 510.737V516.737C337.5 518.394 338.843 519.737 340.5 519.737H356.5C358.157 519.737 359.5 518.394 359.5 516.737V510.737C359.5 509.08 358.157 507.737 356.5 507.737Z" stroke="#1E223B" stroke-width="2" stroke-linecap="round" stroke-linejoin="round" class="svg-elem-144"></path>
<path id="Vector_135" d="M324.5 507.737H308.5C306.843 507.737 305.5 509.08 305.5 510.737V516.737C305.5 518.394 306.843 519.737 308.5 519.737H324.5C326.157 519.737 327.5 518.394 327.5 516.737V510.737C327.5 509.08 326.157 507.737 324.5 507.737Z" stroke="#1E223B" stroke-width="2" stroke-linecap="round" stroke-linejoin="round" class="svg-elem-145"></path>
<path id="Vector_136" d="M292.5 507.737H276.5C274.843 507.737 273.5 509.08 273.5 510.737V516.737C273.5 518.394 274.843 519.737 276.5 519.737H292.5C294.157 519.737 295.5 518.394 295.5 516.737V510.737C295.5 509.08 294.157 507.737 292.5 507.737Z" stroke="#1E223B" stroke-width="2" stroke-linecap="round" stroke-linejoin="round" class="svg-elem-146"></path>
<path id="Vector_137" d="M260.5 507.737H244.5C242.843 507.737 241.5 509.08 241.5 510.737V516.737C241.5 518.394 242.843 519.737 244.5 519.737H260.5C262.157 519.737 263.5 518.394 263.5 516.737V510.737C263.5 509.08 262.157 507.737 260.5 507.737Z" stroke="#1E223B" stroke-width="2" stroke-linecap="round" stroke-linejoin="round" class="svg-elem-147"></path>
<path id="Vector_138" d="M452.5 533.214H436.5C434.843 533.214 433.5 534.557 433.5 536.214V552.214C433.5 553.871 434.843 555.214 436.5 555.214H452.5C454.157 555.214 455.5 553.871 455.5 552.214V536.214C455.5 534.557 454.157 533.214 452.5 533.214Z" stroke="#1E223B" stroke-width="2" stroke-linecap="round" stroke-linejoin="round" class="svg-elem-148"></path>
<path id="Vector_139" d="M420.5 533.214H404.5C402.843 533.214 401.5 534.557 401.5 536.214V552.214C401.5 553.871 402.843 555.214 404.5 555.214H420.5C422.157 555.214 423.5 553.871 423.5 552.214V536.214C423.5 534.557 422.157 533.214 420.5 533.214Z" stroke="#1E223B" stroke-width="2" stroke-linecap="round" stroke-linejoin="round" class="svg-elem-149"></path>
<path id="Vector_140" d="M388.5 533.214H372.5C370.843 533.214 369.5 534.557 369.5 536.214V552.214C369.5 553.871 370.843 555.214 372.5 555.214H388.5C390.157 555.214 391.5 553.871 391.5 552.214V536.214C391.5 534.557 390.157 533.214 388.5 533.214Z" stroke="#1E223B" stroke-width="2" stroke-linecap="round" stroke-linejoin="round" class="svg-elem-150"></path>
<path id="Vector_141" d="M356.5 533.214H340.5C338.843 533.214 337.5 534.557 337.5 536.214V552.214C337.5 553.871 338.843 555.214 340.5 555.214H356.5C358.157 555.214 359.5 553.871 359.5 552.214V536.214C359.5 534.557 358.157 533.214 356.5 533.214Z" stroke="#1E223B" stroke-width="2" stroke-linecap="round" stroke-linejoin="round" class="svg-elem-151"></path>
<path id="Vector_142" d="M324.5 533.214H308.5C306.843 533.214 305.5 534.557 305.5 536.214V552.214C305.5 553.871 306.843 555.214 308.5 555.214H324.5C326.157 555.214 327.5 553.871 327.5 552.214V536.214C327.5 534.557 326.157 533.214 324.5 533.214Z" stroke="#1E223B" stroke-width="2" stroke-linecap="round" stroke-linejoin="round" class="svg-elem-152"></path>
<path id="Vector_143" d="M292.5 533.214H276.5C274.843 533.214 273.5 534.557 273.5 536.214V552.214C273.5 553.871 274.843 555.214 276.5 555.214H292.5C294.157 555.214 295.5 553.871 295.5 552.214V536.214C295.5 534.557 294.157 533.214 292.5 533.214Z" stroke="#1E223B" stroke-width="2" stroke-linecap="round" stroke-linejoin="round" class="svg-elem-153"></path>
<path id="Vector_144" d="M260.5 533.214H244.5C242.843 533.214 241.5 534.557 241.5 536.214V552.214C241.5 553.871 242.843 555.214 244.5 555.214H260.5C262.157 555.214 263.5 553.871 263.5 552.214V536.214C263.5 534.557 262.157 533.214 260.5 533.214Z" stroke="#1E223B" stroke-width="2" stroke-linecap="round" stroke-linejoin="round" class="svg-elem-154"></path>
<path id="Vector_145" d="M516.5 533.214H500.5C498.843 533.214 497.5 534.557 497.5 536.214V583.726C497.5 585.383 498.843 586.726 500.5 586.726H516.5C518.157 586.726 519.5 585.383 519.5 583.726V536.214C519.5 534.557 518.157 533.214 516.5 533.214Z" stroke="#1E223B" stroke-width="2" stroke-linecap="round" stroke-linejoin="round" class="svg-elem-155"></path>
<path id="Vector_146" d="M484.5 533.214H468.5C467.704 533.214 466.941 533.53 466.379 534.093C465.816 534.655 465.5 535.418 465.5 536.214V561.726C465.5 562.522 465.184 563.285 464.621 563.847C464.059 564.41 463.296 564.726 462.5 564.726H436.5C435.704 564.726 434.941 565.042 434.379 565.605C433.816 566.167 433.5 566.93 433.5 567.726V583.726C433.5 584.522 433.816 585.285 434.379 585.847C434.941 586.41 435.704 586.726 436.5 586.726H484.5C485.296 586.726 486.059 586.41 486.621 585.847C487.184 585.285 487.5 584.522 487.5 583.726V536.214C487.5 535.418 487.184 534.655 486.621 534.093C486.059 533.53 485.296 533.214 484.5 533.214Z" stroke="#1E223B" stroke-width="2" stroke-linecap="round" stroke-linejoin="round" class="svg-elem-156"></path>
<path id="Vector_147" d="M420.5 564.726H404.5C402.843 564.726 401.5 566.069 401.5 567.726V583.726C401.5 585.383 402.843 586.726 404.5 586.726H420.5C422.157 586.726 423.5 585.383 423.5 583.726V567.726C423.5 566.069 422.157 564.726 420.5 564.726Z" stroke="#1E223B" stroke-width="2" stroke-linecap="round" stroke-linejoin="round" class="svg-elem-157"></path>
<path id="Vector_148" d="M388.5 564.726H372.5C370.843 564.726 369.5 566.069 369.5 567.726V583.726C369.5 585.383 370.843 586.726 372.5 586.726H388.5C390.157 586.726 391.5 585.383 391.5 583.726V567.726C391.5 566.069 390.157 564.726 388.5 564.726Z" stroke="#1E223B" stroke-width="2" stroke-linecap="round" stroke-linejoin="round" class="svg-elem-158"></path>
<path id="Vector_149" d="M356.5 564.726H340.5C338.843 564.726 337.5 566.069 337.5 567.726V583.726C337.5 585.383 338.843 586.726 340.5 586.726H356.5C358.157 586.726 359.5 585.383 359.5 583.726V567.726C359.5 566.069 358.157 564.726 356.5 564.726Z" stroke="#1E223B" stroke-width="2" stroke-linecap="round" stroke-linejoin="round" class="svg-elem-159"></path>
<path id="Vector_150" d="M324.5 564.726H308.5C306.843 564.726 305.5 566.069 305.5 567.726V583.726C305.5 585.383 306.843 586.726 308.5 586.726H324.5C326.157 586.726 327.5 585.383 327.5 583.726V567.726C327.5 566.069 326.157 564.726 324.5 564.726Z" stroke="#1E223B" stroke-width="2" stroke-linecap="round" stroke-linejoin="round" class="svg-elem-160"></path>
<path id="Vector_151" d="M292.5 564.726H244.5C242.843 564.726 241.5 566.069 241.5 567.726V583.726C241.5 585.383 242.843 586.726 244.5 586.726H292.5C294.157 586.726 295.5 585.383 295.5 583.726V567.726C295.5 566.069 294.157 564.726 292.5 564.726Z" stroke="#1E223B" stroke-width="2" stroke-linecap="round" stroke-linejoin="round" class="svg-elem-161"></path>
<path id="Vector_152" d="M516.5 596.237H500.5C498.843 596.237 497.5 597.58 497.5 599.237V615.237C497.5 616.894 498.843 618.237 500.5 618.237H516.5C518.157 618.237 519.5 616.894 519.5 615.237V599.237C519.5 597.58 518.157 596.237 516.5 596.237Z" stroke="#1E223B" stroke-width="2" stroke-linecap="round" stroke-linejoin="round" class="svg-elem-162"></path>
<path id="Vector_153" d="M484.5 596.237H468.5C466.843 596.237 465.5 597.58 465.5 599.237V615.237C465.5 616.894 466.843 618.237 468.5 618.237H484.5C486.157 618.237 487.5 616.894 487.5 615.237V599.237C487.5 597.58 486.157 596.237 484.5 596.237Z" stroke="#1E223B" stroke-width="2" stroke-linecap="round" stroke-linejoin="round" class="svg-elem-163"></path>
<path id="Vector_154" d="M452.5 596.237H436.5C434.843 596.237 433.5 597.58 433.5 599.237V615.237C433.5 616.894 434.843 618.237 436.5 618.237H452.5C454.157 618.237 455.5 616.894 455.5 615.237V599.237C455.5 597.58 454.157 596.237 452.5 596.237Z" stroke="#1E223B" stroke-width="2" stroke-linecap="round" stroke-linejoin="round" class="svg-elem-164"></path>
<path id="Vector_155" d="M420.5 596.237H340.5C338.843 596.237 337.5 597.58 337.5 599.237V615.237C337.5 616.894 338.843 618.237 340.5 618.237H420.5C422.157 618.237 423.5 616.894 423.5 615.237V599.237C423.5 597.58 422.157 596.237 420.5 596.237Z" stroke="#1E223B" stroke-width="2" stroke-linecap="round" stroke-linejoin="round" class="svg-elem-165"></path>
<path id="Vector_156" d="M324.5 596.237H308.5C306.843 596.237 305.5 597.58 305.5 599.237V615.237C305.5 616.894 306.843 618.237 308.5 618.237H324.5C326.157 618.237 327.5 616.894 327.5 615.237V599.237C327.5 597.58 326.157 596.237 324.5 596.237Z" stroke="#1E223B" stroke-width="2" stroke-linecap="round" stroke-linejoin="round" class="svg-elem-166"></path>
<path id="Vector_157" d="M292.5 596.237H276.5C274.843 596.237 273.5 597.58 273.5 599.237V615.237C273.5 616.894 274.843 618.237 276.5 618.237H292.5C294.157 618.237 295.5 616.894 295.5 615.237V599.237C295.5 597.58 294.157 596.237 292.5 596.237Z" stroke="#1E223B" stroke-width="2" stroke-linecap="round" stroke-linejoin="round" class="svg-elem-167"></path>
<path id="Vector_158" d="M260.5 596.237H244.5C242.843 596.237 241.5 597.58 241.5 599.237V615.237C241.5 616.894 242.843 618.237 244.5 618.237H260.5C262.157 618.237 263.5 616.894 263.5 615.237V599.237C263.5 597.58 262.157 596.237 260.5 596.237Z" stroke="#1E223B" stroke-width="2" stroke-linecap="round" stroke-linejoin="round" class="svg-elem-168"></path>
<path id="Vector_159" d="M306.644 689.604H262.644V729.604H306.644V689.604Z" fill="#F2A197" class="svg-elem-169"></path>
<path id="Vector_160" d="M306.644 689.604H262.644V729.604H306.644V689.604Z" stroke="#1E223B" stroke-width="2" stroke-linecap="round" stroke-linejoin="round" class="svg-elem-170"></path>
<path id="Vector_161" d="M310.013 720.604H258.115V746.118H310.013V720.604Z" fill="white" class="svg-elem-171"></path>
<path id="Vector_162" d="M310.013 720.604H258.115V746.118H310.013V720.604Z" stroke="#1E223B" stroke-width="2" stroke-linecap="round" stroke-linejoin="round" class="svg-elem-172"></path>
<path id="Vector_163" d="M256.172 745.47H311.956C313.676 745.47 315.326 746.153 316.543 747.37C317.76 748.587 318.443 750.237 318.443 751.957V868.714H249.685V751.956C249.685 750.236 250.369 748.586 251.585 747.37C252.802 746.153 254.452 745.47 256.172 745.47V745.47Z" fill="#1E223B" class="svg-elem-173"></path>
<path id="Vector_164" d="M256.172 745.47H311.956C313.676 745.47 315.326 746.153 316.543 747.37C317.76 748.587 318.443 750.237 318.443 751.957V868.714H249.685V751.956C249.685 750.236 250.369 748.586 251.585 747.37C252.802 746.153 254.452 745.47 256.172 745.47V745.47Z" stroke="#1E223B" stroke-width="2" stroke-linecap="round" stroke-linejoin="round" class="svg-elem-174"></path>
<path id="Vector_165" opacity="0.2" d="M300.744 738.334C303.491 738.334 305.717 736.108 305.717 733.361C305.717 730.615 303.491 728.388 300.744 728.388C297.997 728.388 295.771 730.615 295.771 733.361C295.771 736.108 297.997 738.334 300.744 738.334Z" fill="#1E223B" class="svg-elem-175"></path>
<path id="Vector_166" d="M300.744 738.334C303.491 738.334 305.717 736.108 305.717 733.361C305.717 730.615 303.491 728.388 300.744 728.388C297.997 728.388 295.771 730.615 295.771 733.361C295.771 736.108 297.997 738.334 300.744 738.334Z" stroke="#1E223B" stroke-width="2" stroke-linecap="round" stroke-linejoin="round" class="svg-elem-176"></path>
<path id="Vector_167" d="M338.637 637.759L339.936 638.509C341.314 639.305 342.32 640.615 342.732 642.152C343.144 643.689 342.928 645.327 342.132 646.705L316.632 690.872L304.941 684.122L330.441 639.955C331.237 638.577 332.547 637.572 334.084 637.16C335.621 636.748 337.259 636.963 338.637 637.759V637.759Z" fill="#F2A197" class="svg-elem-177"></path>
<path id="Vector_168" d="M338.637 637.759L339.936 638.509C341.314 639.305 342.32 640.615 342.732 642.152C343.144 643.689 342.928 645.327 342.132 646.705L316.632 690.872L304.941 684.122L330.441 639.955C331.237 638.577 332.547 637.572 334.084 637.16C335.621 636.748 337.259 636.963 338.637 637.759V637.759Z" stroke="#1E223B" stroke-width="2" stroke-linecap="round" stroke-linejoin="round" class="svg-elem-178"></path>
<path id="Vector_169" d="M314.065 575.455H312.565C310.974 575.455 309.448 576.087 308.322 577.212C307.197 578.338 306.565 579.864 306.565 581.455V626.455C306.565 627.251 306.249 628.014 305.686 628.576C305.124 629.139 304.361 629.455 303.565 629.455V629.455C302.769 629.455 302.006 629.139 301.444 628.576C300.881 628.014 300.565 627.251 300.565 626.455V572.755C300.565 571.164 299.933 569.638 298.808 568.512C297.682 567.387 296.156 566.755 294.565 566.755H293.065C291.474 566.755 289.948 567.387 288.822 568.512C287.697 569.638 287.065 571.164 287.065 572.755V626.455C287.065 627.251 286.749 628.014 286.186 628.576C285.624 629.139 284.861 629.455 284.065 629.455V629.455C283.269 629.455 282.506 629.139 281.944 628.576C281.381 628.014 281.065 627.251 281.065 626.455V581.455C281.065 579.864 280.433 578.338 279.308 577.212C278.182 576.087 276.656 575.455 275.065 575.455H273.565C271.974 575.455 270.448 576.087 269.322 577.212C268.197 578.338 267.565 579.864 267.565 581.455V626.455C267.565 627.251 267.249 628.014 266.686 628.576C266.124 629.139 265.361 629.455 264.565 629.455V629.455C263.769 629.455 263.006 629.139 262.444 628.576C261.881 628.014 261.565 627.251 261.565 626.455V595.705C261.565 594.114 260.933 592.588 259.808 591.462C258.682 590.337 257.156 589.705 255.565 589.705H254.065C252.474 589.705 250.948 590.337 249.822 591.462C248.697 592.588 248.065 594.114 248.065 595.705V683.95C248.065 687.133 249.329 690.185 251.58 692.435C253.83 694.686 256.882 695.95 260.065 695.95H308.065C311.248 695.95 314.3 694.686 316.55 692.435C318.801 690.185 320.065 687.133 320.065 683.95V581.456C320.065 580.668 319.91 579.888 319.609 579.16C319.307 578.432 318.865 577.77 318.308 577.213C317.751 576.655 317.089 576.213 316.361 575.912C315.633 575.61 314.853 575.455 314.065 575.455V575.455Z" fill="#FDB3A6" class="svg-elem-179"></path>
<path id="Vector_170" d="M314.065 575.455H312.565C310.974 575.455 309.448 576.087 308.322 577.212C307.197 578.338 306.565 579.864 306.565 581.455V626.455C306.565 627.251 306.249 628.014 305.686 628.576C305.124 629.139 304.361 629.455 303.565 629.455V629.455C302.769 629.455 302.006 629.139 301.444 628.576C300.881 628.014 300.565 627.251 300.565 626.455V572.755C300.565 571.164 299.933 569.638 298.808 568.512C297.682 567.387 296.156 566.755 294.565 566.755H293.065C291.474 566.755 289.948 567.387 288.822 568.512C287.697 569.638 287.065 571.164 287.065 572.755V626.455C287.065 627.251 286.749 628.014 286.186 628.576C285.624 629.139 284.861 629.455 284.065 629.455V629.455C283.269 629.455 282.506 629.139 281.944 628.576C281.381 628.014 281.065 627.251 281.065 626.455V581.455C281.065 579.864 280.433 578.338 279.308 577.212C278.182 576.087 276.656 575.455 275.065 575.455H273.565C271.974 575.455 270.448 576.087 269.322 577.212C268.197 578.338 267.565 579.864 267.565 581.455V626.455C267.565 627.251 267.249 628.014 266.686 628.576C266.124 629.139 265.361 629.455 264.565 629.455V629.455C263.769 629.455 263.006 629.139 262.444 628.576C261.881 628.014 261.565 627.251 261.565 626.455V595.705C261.565 594.114 260.933 592.588 259.808 591.462C258.682 590.337 257.156 589.705 255.565 589.705H254.065C252.474 589.705 250.948 590.337 249.822 591.462C248.697 592.588 248.065 594.114 248.065 595.705V683.95C248.065 687.133 249.329 690.185 251.58 692.435C253.83 694.686 256.882 695.95 260.065 695.95H308.065C311.248 695.95 314.3 694.686 316.55 692.435C318.801 690.185 320.065 687.133 320.065 683.95V581.456C320.065 580.668 319.91 579.888 319.609 579.16C319.307 578.432 318.865 577.77 318.308 577.213C317.751 576.655 317.089 576.213 316.361 575.912C315.633 575.61 314.853 575.455 314.065 575.455V575.455Z" stroke="#1E223B" stroke-width="2" stroke-linecap="round" stroke-linejoin="round" class="svg-elem-180"></path>
<path id="Vector_171" d="M415.002 777.886H371.002V817.886H415.002V777.886Z" fill="#F2A197" class="svg-elem-181"></path>
<path id="Vector_172" d="M415.002 777.886H371.002V817.886H415.002V777.886Z" stroke="#1E223B" stroke-width="2" stroke-linecap="round" stroke-linejoin="round" class="svg-elem-182"></path>
<path id="Vector_173" d="M370.993 772.405L359.301 779.155L333.801 734.987C333.006 733.609 332.79 731.972 333.202 730.435C333.614 728.897 334.62 727.587 335.998 726.791L337.297 726.041C338.675 725.246 340.312 725.03 341.85 725.442C343.387 725.854 344.697 726.859 345.493 728.237L370.993 772.405Z" fill="#F2A197" class="svg-elem-183"></path>
<path id="Vector_174" d="M370.993 772.405L359.301 779.155L333.801 734.987C333.006 733.609 332.79 731.972 333.202 730.435C333.614 728.897 334.62 727.587 335.998 726.791L337.297 726.041C338.675 725.246 340.312 725.03 341.85 725.442C343.387 725.854 344.697 726.859 345.493 728.237L370.993 772.405Z" stroke="#1E223B" stroke-width="2" stroke-linecap="round" stroke-linejoin="round" class="svg-elem-184"></path>
<path id="Vector_175" d="M363 663.737H364.5C366.091 663.737 367.617 664.369 368.743 665.494C369.868 666.62 370.5 668.146 370.5 669.737V714.737C370.5 715.533 370.816 716.296 371.379 716.858C371.941 717.421 372.704 717.737 373.5 717.737C374.296 717.737 375.059 717.421 375.621 716.858C376.184 716.296 376.5 715.533 376.5 714.737V707.565C376.5 705.974 377.132 704.448 378.257 703.322C379.383 702.197 380.909 701.565 382.5 701.565H384C385.591 701.565 387.117 702.197 388.243 703.322C389.368 704.448 390 705.974 390 707.565V714.737C390 715.533 390.316 716.296 390.879 716.858C391.441 717.421 392.204 717.737 393 717.737C393.796 717.737 394.559 717.421 395.121 716.858C395.684 716.296 396 715.533 396 714.737V707.565C396 705.974 396.632 704.448 397.757 703.322C398.883 702.197 400.409 701.565 402 701.565H403.5C405.091 701.565 406.617 702.197 407.743 703.322C408.868 704.448 409.5 705.974 409.5 707.565V714.737C409.5 715.533 409.816 716.296 410.379 716.858C410.941 717.421 411.704 717.737 412.5 717.737C413.296 717.737 414.059 717.421 414.621 716.858C415.184 716.296 415.5 715.533 415.5 714.737V707.565C415.5 705.974 416.132 704.448 417.257 703.322C418.383 702.197 419.909 701.565 421.5 701.565H423C424.591 701.565 426.117 702.197 427.243 703.322C428.368 704.448 429 705.974 429 707.565V772.232C429 775.415 427.736 778.467 425.485 780.717C423.235 782.968 420.183 784.232 417 784.232H369C365.817 784.232 362.765 782.968 360.515 780.717C358.264 778.467 357 775.415 357 772.232V669.738C357 668.95 357.155 668.17 357.456 667.442C357.758 666.714 358.2 666.052 358.757 665.495C359.314 664.937 359.976 664.495 360.704 664.194C361.432 663.892 362.212 663.737 363 663.737Z" fill="#FDB3A6" class="svg-elem-185"></path>
<path id="Vector_176" d="M363 663.737H364.5C366.091 663.737 367.617 664.369 368.743 665.494C369.868 666.62 370.5 668.146 370.5 669.737V714.737C370.5 715.533 370.816 716.296 371.379 716.858C371.941 717.421 372.704 717.737 373.5 717.737C374.296 717.737 375.059 717.421 375.621 716.858C376.184 716.296 376.5 715.533 376.5 714.737V707.565C376.5 705.974 377.132 704.448 378.257 703.322C379.383 702.197 380.909 701.565 382.5 701.565H384C385.591 701.565 387.117 702.197 388.243 703.322C389.368 704.448 390 705.974 390 707.565V714.737C390 715.533 390.316 716.296 390.879 716.858C391.441 717.421 392.204 717.737 393 717.737C393.796 717.737 394.559 717.421 395.121 716.858C395.684 716.296 396 715.533 396 714.737V707.565C396 705.974 396.632 704.448 397.757 703.322C398.883 702.197 400.409 701.565 402 701.565H403.5C405.091 701.565 406.617 702.197 407.743 703.322C408.868 704.448 409.5 705.974 409.5 707.565V714.737C409.5 715.533 409.816 716.296 410.379 716.858C410.941 717.421 411.704 717.737 412.5 717.737C413.296 717.737 414.059 717.421 414.621 716.858C415.184 716.296 415.5 715.533 415.5 714.737V707.565C415.5 705.974 416.132 704.448 417.257 703.322C418.383 702.197 419.909 701.565 421.5 701.565H423C424.591 701.565 426.117 702.197 427.243 703.322C428.368 704.448 429 705.974 429 707.565V772.232C429 775.415 427.736 778.467 425.485 780.717C423.235 782.968 420.183 784.232 417 784.232H369C365.817 784.232 362.765 782.968 360.515 780.717C358.264 778.467 357 775.415 357 772.232V669.738C357 668.95 357.155 668.17 357.456 667.442C357.758 666.714 358.2 666.052 358.757 665.495C359.314 664.937 359.976 664.495 360.704 664.194C361.432 663.892 362.212 663.737 363 663.737Z" stroke="#1E223B" stroke-width="2" stroke-linecap="round" stroke-linejoin="round" class="svg-elem-186"></path>
<path id="Vector_177" d="M418.951 808.886H367.053V834.4H418.951V808.886Z" fill="white" class="svg-elem-187"></path>
<path id="Vector_178" d="M418.951 808.886H367.053V834.4H418.951V808.886Z" stroke="#1E223B" stroke-width="2" stroke-linecap="round" stroke-linejoin="round" class="svg-elem-188"></path>
<path id="Vector_179" d="M365.11 833.752H420.894C422.614 833.752 424.264 834.435 425.481 835.652C426.698 836.869 427.381 838.519 427.381 840.239V870.5H358.624V840.238C358.624 838.518 359.308 836.868 360.524 835.652C361.74 834.436 363.39 833.752 365.11 833.752V833.752Z" fill="#1E223B" class="svg-elem-189"></path>
<path id="Vector_180" d="M365.11 833.752H420.894C422.614 833.752 424.264 834.435 425.481 835.652C426.698 836.869 427.381 838.519 427.381 840.239V870.5H358.624V840.238C358.624 838.518 359.308 836.868 360.524 835.652C361.74 834.436 363.39 833.752 365.11 833.752V833.752Z" stroke="#1E223B" stroke-width="2" stroke-linecap="round" stroke-linejoin="round" class="svg-elem-190"></path>
<path id="Vector_181" d="M378.029 826.616C380.776 826.616 383.002 824.39 383.002 821.643C383.002 818.896 380.776 816.67 378.029 816.67C375.282 816.67 373.056 818.896 373.056 821.643C373.056 824.39 375.282 826.616 378.029 826.616Z" stroke="#1E223B" stroke-width="2" stroke-linecap="round" stroke-linejoin="round" class="svg-elem-191"></path>
<path id="Vector_182" opacity="0.2" d="M378.029 826.616C380.776 826.616 383.002 824.39 383.002 821.643C383.002 818.896 380.776 816.67 378.029 816.67C375.282 816.67 373.056 818.896 373.056 821.643C373.056 824.39 375.282 826.616 378.029 826.616Z" fill="#1E223B" class="svg-elem-192"></path>
<g id="TextLine_001">
<path id="Vector_183" d="M395 75H449" stroke="#1E223B" stroke-width="3" stroke-linecap="round" stroke-linejoin="round" class="svg-elem-193"></path>
<path id="Vector_184" d="M395 88.5H437" stroke="#1E223B" stroke-width="3" stroke-linecap="round" stroke-linejoin="round" class="svg-elem-194"></path>
<path id="Vector_185" d="M395 102H419" stroke="#1E223B" stroke-width="3" stroke-linecap="round" stroke-linejoin="round" class="svg-elem-195"></path>
</g>
<path id="Vector_186" d="M467.213 18.5H494.213" stroke="#1E223B" stroke-width="3" stroke-linecap="round" stroke-linejoin="round" class="svg-elem-196"></path>
<path id="Vector_187" d="M467.213 25.5H484.213" stroke="#1E223B" stroke-width="3" stroke-linecap="round" stroke-linejoin="round" class="svg-elem-197"></path>
<path id="Vector_188" d="M466.584 89.629H469.584" stroke="#1E223B" stroke-width="2" stroke-linecap="round" stroke-linejoin="round" class="svg-elem-198"></path>
<path id="Vector_189" d="M477.522 89.629H499.736C510.282 89.629 520.396 93.8184 527.853 101.276C535.311 108.733 539.5 118.847 539.5 129.393V129.393C539.5 134.615 538.471 139.786 536.473 144.61C534.475 149.434 531.546 153.818 527.853 157.51C524.161 161.203 519.777 164.132 514.953 166.13C510.129 168.128 504.958 169.157 499.736 169.157H434.172C428.306 169.157 422.497 170.312 417.077 172.557C411.657 174.802 406.732 178.092 402.584 182.24C398.436 186.389 395.145 191.313 392.9 196.733C390.655 202.153 389.5 207.962 389.5 213.828V218.768" stroke="#1E223B" stroke-width="2" stroke-linecap="round" stroke-linejoin="round" stroke-dasharray="5.95 7.94" class="svg-elem-199"></path>
<path id="Vector_190" d="M389.5 222.737V225.737" stroke="#1E223B" stroke-width="2" stroke-linecap="round" stroke-linejoin="round" class="svg-elem-200"></path>
<path id="Vector_191" d="M94.357 337.84H219.899" stroke="#1E223B" stroke-width="2" stroke-linecap="round" stroke-linejoin="round" stroke-dasharray="6 8" class="svg-elem-201"></path>
<path id="Vector_192" d="M91.137 564.726H117.387C129.352 564.726 140.826 559.973 149.287 551.513C157.747 543.052 162.5 531.578 162.5 519.613V500.619C162.5 488.716 167.229 477.3 175.645 468.883C184.062 460.466 195.478 455.737 207.381 455.737H221.5" stroke="#1E223B" stroke-width="2" stroke-linecap="round" stroke-linejoin="round" class="svg-elem-202"></path>
<path id="Vector_193" d="M224.292 92.858H237.848C247.304 92.8583 256.372 96.6147 263.058 103.301C269.744 109.987 273.5 119.055 273.5 128.511V128.511C273.5 133.193 274.422 137.829 276.214 142.155C278.006 146.48 280.632 150.411 283.943 153.721C287.253 157.032 291.184 159.658 295.509 161.449C299.835 163.241 304.471 164.163 309.153 164.163H328.848C338.304 164.163 347.372 167.92 354.058 174.606C360.744 181.292 364.5 190.36 364.5 199.816V225.737" stroke="#1E223B" stroke-width="2" stroke-linecap="round" stroke-linejoin="round" stroke-dasharray="6 8" class="svg-elem-203"></path>
<path id="Vector_194" d="M539.5 330.732H592.032C596.598 330.733 601.119 329.834 605.337 328.087C609.555 326.34 613.388 323.779 616.616 320.551C619.845 317.323 622.406 313.491 624.153 309.273C625.901 305.054 626.8 300.534 626.8 295.968V203.922" stroke="#1E223B" stroke-width="2" stroke-linecap="round" stroke-linejoin="round" class="svg-elem-204"></path>
<path id="Vector_195" d="M757.156 635.247C774.006 635.247 787.666 621.587 787.666 604.737C787.666 587.887 774.006 574.227 757.156 574.227C740.306 574.227 726.646 587.887 726.646 604.737C726.646 621.587 740.306 635.247 757.156 635.247Z" stroke="#1E223B" stroke-width="2" stroke-linecap="round" stroke-linejoin="round" class="svg-elem-205"></path>
<path id="Vector_196" d="M539.5 391.419H727.75" stroke="#1E223B" stroke-width="2" stroke-linecap="round" stroke-linejoin="round" stroke-dasharray="6 8" class="svg-elem-206"></path>
<path id="Vector_197" d="M729.373 657.5C748.917 657.5 764.76 641.657 764.76 622.113C764.76 602.569 748.917 586.726 729.373 586.726C709.829 586.726 693.986 602.569 693.986 622.113C693.986 641.657 709.829 657.5 729.373 657.5Z" fill="white" class="svg-elem-207"></path>
<path id="Vector_198" d="M729.373 657.5C748.917 657.5 764.76 641.657 764.76 622.113C764.76 602.569 748.917 586.726 729.373 586.726C709.829 586.726 693.986 602.569 693.986 622.113C693.986 641.657 709.829 657.5 729.373 657.5Z" stroke="#1E223B" stroke-width="2" stroke-linecap="round" stroke-linejoin="round" class="svg-elem-208"></path>
<path id="Vector_199" d="M693.986 622.113H539.5" stroke="#1E223B" stroke-width="2" stroke-linecap="round" stroke-linejoin="round" stroke-dasharray="6 8" class="svg-elem-209"></path>
<path id="Vector_200" opacity="0.39" d="M547 20.5C551.142 20.5 554.5 17.1421 554.5 13C554.5 8.85786 551.142 5.5 547 5.5C542.858 5.5 539.5 8.85786 539.5 13C539.5 17.1421 542.858 20.5 547 20.5Z" fill="white" class="svg-elem-210"></path>
<path id="Vector_201" d="M547 20.5C551.142 20.5 554.5 17.1421 554.5 13C554.5 8.85786 551.142 5.5 547 5.5C542.858 5.5 539.5 8.85786 539.5 13C539.5 17.1421 542.858 20.5 547 20.5Z" stroke="#1E223B" stroke-width="2" stroke-linecap="round" stroke-linejoin="round" class="svg-elem-211"></path>
<path id="Vector_202" d="M714.256 654.114L729.373 622.113L764.355 627.482" stroke="#1E223B" stroke-width="2" stroke-linecap="round" stroke-linejoin="round" class="svg-elem-212"></path>
<path id="Vector_203" d="M718.069 553.121H648.075C643.081 553.121 639.033 557.169 639.033 562.163V589.288C639.033 594.282 643.081 598.33 648.075 598.33H718.069C723.063 598.33 727.111 594.282 727.111 589.288V562.163C727.111 557.169 723.063 553.121 718.069 553.121Z" fill="#F73E59" class="svg-elem-213"></path>
<path id="Vector_204" d="M718.069 553.121H648.075C643.081 553.121 639.033 557.169 639.033 562.163V589.288C639.033 594.282 643.081 598.33 648.075 598.33H718.069C723.063 598.33 727.111 594.282 727.111 589.288V562.163C727.111 557.169 723.063 553.121 718.069 553.121Z" stroke="#1E223B" stroke-width="2" stroke-linecap="round" stroke-linejoin="round" class="svg-elem-214"></path>
<path id="Vector_205" d="M140.383 112.869H33.708C27.7488 112.869 22.918 117.7 22.918 123.659V154.28C22.918 160.239 27.7488 165.07 33.708 165.07H140.383C146.342 165.07 151.173 160.239 151.173 154.28V123.659C151.173 117.7 146.342 112.869 140.383 112.869Z" fill="#E44D26" stroke="#1E223B" stroke-width="2" stroke-miterlimit="10" class="svg-elem-215"></path>
<path id="Vector_206" d="M140.383 112.869H33.708C27.7488 112.869 22.918 117.7 22.918 123.659V154.28C22.918 160.239 27.7488 165.07 33.708 165.07H140.383C146.342 165.07 151.173 160.239 151.173 154.28V123.659C151.173 117.7 146.342 112.869 140.383 112.869Z" stroke="#1E223B" stroke-width="2" stroke-linecap="round" stroke-linejoin="round" class="svg-elem-216"></path>
</g>
</svg>
