<svg width="694" height="315" viewBox="0 0 694 315" fill="none" xmlns="http://www.w3.org/2000/svg">
<g id="Group 1">
<path id="XMLID_1313_" opacity="0.28" d="M684.8 314.3H9.20001C4.20001 314.3 0.200012 310.3 0.200012 305.3C0.200012 300.3 4.20001 296.3 9.20001 296.3H684.9C689.9 296.3 693.9 300.3 693.9 305.3C693.8 310.3 689.8 314.3 684.8 314.3Z" fill="#848484"/>
<g id="XMLID_45_">
<path id="XMLID_41_" d="M655.5 221.9C655.5 184.7 627.3 154.1 590.8 150.6V142.2H568.9V302.9H590.8V293.2C627.2 289.7 655.5 259.1 655.5 221.9ZM590.7 270.1V173.8C614.1 177.2 632.5 197.5 632.5 222C632.5 246.4 614.1 266.7 590.7 270.1Z" fill="#F09F54"/>
<path id="XMLID_222_" opacity="0.29" d="M590.7 150.6V142.2H568.8V302.9H590.7V293.2C627.2 289.7 655.4 259.2 655.4 221.9C655.5 184.7 627.2 154.1 590.7 150.6ZM590.7 285.8V294.1H570.2V149.5H590.7V158C622.8 161.1 648.7 188.5 648.7 221.9C648.8 255.3 622.9 282.7 590.7 285.8Z" fill="#F09F54"/>
<path id="XMLID_48_" d="M655.5 221.9C655.5 184.7 627.3 154.1 590.8 150.6V142.2H568.9V302.9H590.8V293.2C627.2 289.7 655.5 259.1 655.5 221.9ZM590.7 270.1V173.8C614.1 177.2 632.5 197.5 632.5 222C632.5 246.4 614.1 266.7 590.7 270.1Z" stroke="#444E59" stroke-width="4" stroke-miterlimit="10" stroke-linecap="round" stroke-linejoin="round"/>
<g id="XMLID_49_">
<g id="XMLID_67_">
<path id="XMLID_68_" d="M577.6 286.8H568.8" stroke="#444E59" stroke-width="3" stroke-miterlimit="10" stroke-linecap="round" stroke-linejoin="round"/>
</g>
<g id="XMLID_65_">
<path id="XMLID_66_" d="M577.6 270.8H568.8" stroke="#444E59" stroke-width="3" stroke-miterlimit="10" stroke-linecap="round" stroke-linejoin="round"/>
</g>
<g id="XMLID_63_">
<path id="XMLID_64_" d="M577.6 254.7H568.8" stroke="#444E59" stroke-width="3" stroke-miterlimit="10" stroke-linecap="round" stroke-linejoin="round"/>
</g>
<g id="XMLID_61_">
<path id="XMLID_62_" d="M577.6 238.6H568.8" stroke="#444E59" stroke-width="3" stroke-miterlimit="10" stroke-linecap="round" stroke-linejoin="round"/>
</g>
<g id="XMLID_59_">
<path id="XMLID_60_" d="M577.6 222.6H568.8" stroke="#444E59" stroke-width="3" stroke-miterlimit="10" stroke-linecap="round" stroke-linejoin="round"/>
</g>
<g id="XMLID_56_">
<path id="XMLID_57_" d="M577.6 206.5H568.8" stroke="#444E59" stroke-width="3" stroke-miterlimit="10" stroke-linecap="round" stroke-linejoin="round"/>
</g>
<g id="XMLID_54_">
<path id="XMLID_55_" d="M577.6 190.4H568.8" stroke="#444E59" stroke-width="3" stroke-miterlimit="10" stroke-linecap="round" stroke-linejoin="round"/>
</g>
<g id="XMLID_52_">
<path id="XMLID_53_" d="M577.6 174.3H568.8" stroke="#444E59" stroke-width="3" stroke-miterlimit="10" stroke-linecap="round" stroke-linejoin="round"/>
</g>
<g id="XMLID_50_">
<path id="XMLID_51_" d="M577.6 158.3H568.8" stroke="#444E59" stroke-width="3" stroke-miterlimit="10" stroke-linecap="round" stroke-linejoin="round"/>
</g>
</g>
</g>
<g id="XMLID_212_">
<path id="XMLID_207_" d="M553.4 60.9H520.3V302.5H553.4V60.9Z" fill="#F09F54"/>
<path id="XMLID_208_" d="M553.4 60.9H520.3V302.5H553.4V60.9Z" fill="#F09F54"/>
<path id="XMLID_209_" opacity="0.29" d="M553.4 60.9H539V302.5H553.4V60.9Z" fill="#F09F54"/>
<path id="XMLID_121_" d="M553.4 60.9H520.3V302.5H553.4V60.9Z" stroke="#444E59" stroke-width="4" stroke-miterlimit="10" stroke-linecap="round" stroke-linejoin="round"/>
<g id="XMLID_203_">
<g id="XMLID_266_">
<path id="XMLID_269_" d="M531.8 278.1H520.3" stroke="#444E59" stroke-width="3" stroke-miterlimit="10" stroke-linecap="round" stroke-linejoin="round"/>
<path id="XMLID_268_" d="M527.4 289.6H520.3" stroke="#444E59" stroke-width="3" stroke-miterlimit="10" stroke-linecap="round" stroke-linejoin="round"/>
</g>
<g id="XMLID_262_">
<path id="XMLID_265_" d="M531.8 255.1H520.3" stroke="#444E59" stroke-width="3" stroke-miterlimit="10" stroke-linecap="round" stroke-linejoin="round"/>
<path id="XMLID_264_" d="M527.4 266.6H520.3" stroke="#444E59" stroke-width="3" stroke-miterlimit="10" stroke-linecap="round" stroke-linejoin="round"/>
</g>
<g id="XMLID_258_">
<path id="XMLID_261_" d="M531.8 232.1H520.3" stroke="#444E59" stroke-width="3" stroke-miterlimit="10" stroke-linecap="round" stroke-linejoin="round"/>
<path id="XMLID_260_" d="M527.4 243.6H520.3" stroke="#444E59" stroke-width="3" stroke-miterlimit="10" stroke-linecap="round" stroke-linejoin="round"/>
</g>
<g id="XMLID_254_">
<path id="XMLID_257_" d="M531.8 209H520.3" stroke="#444E59" stroke-width="3" stroke-miterlimit="10" stroke-linecap="round" stroke-linejoin="round"/>
<path id="XMLID_256_" d="M527.4 220.5H520.3" stroke="#444E59" stroke-width="3" stroke-miterlimit="10" stroke-linecap="round" stroke-linejoin="round"/>
</g>
<g id="XMLID_249_">
<path id="XMLID_253_" d="M531.8 186H520.3" stroke="#444E59" stroke-width="3" stroke-miterlimit="10" stroke-linecap="round" stroke-linejoin="round"/>
<path id="XMLID_251_" d="M527.4 197.5H520.3" stroke="#444E59" stroke-width="3" stroke-miterlimit="10" stroke-linecap="round" stroke-linejoin="round"/>
</g>
<g id="XMLID_245_">
<path id="XMLID_248_" d="M531.8 163H520.3" stroke="#444E59" stroke-width="3" stroke-miterlimit="10" stroke-linecap="round" stroke-linejoin="round"/>
<path id="XMLID_247_" d="M527.4 174.5H520.3" stroke="#444E59" stroke-width="3" stroke-miterlimit="10" stroke-linecap="round" stroke-linejoin="round"/>
</g>
<g id="XMLID_223_">
<path id="XMLID_244_" d="M531.8 140H520.3" stroke="#444E59" stroke-width="3" stroke-miterlimit="10" stroke-linecap="round" stroke-linejoin="round"/>
<path id="XMLID_243_" d="M527.4 151.5H520.3" stroke="#444E59" stroke-width="3" stroke-miterlimit="10" stroke-linecap="round" stroke-linejoin="round"/>
</g>
<g id="XMLID_215_">
<path id="XMLID_219_" d="M531.8 117H520.3" stroke="#444E59" stroke-width="3" stroke-miterlimit="10" stroke-linecap="round" stroke-linejoin="round"/>
<path id="XMLID_218_" d="M527.4 128.5H520.3" stroke="#444E59" stroke-width="3" stroke-miterlimit="10" stroke-linecap="round" stroke-linejoin="round"/>
</g>
<g id="XMLID_118_">
<path id="XMLID_210_" d="M531.8 94H520.3" stroke="#444E59" stroke-width="3" stroke-miterlimit="10" stroke-linecap="round" stroke-linejoin="round"/>
<path id="XMLID_141_" d="M527.4 105.5H520.3" stroke="#444E59" stroke-width="3" stroke-miterlimit="10" stroke-linecap="round" stroke-linejoin="round"/>
</g>
<g id="XMLID_36_">
<path id="XMLID_113_" d="M531.8 71H520.3" stroke="#444E59" stroke-width="3" stroke-miterlimit="10" stroke-linecap="round" stroke-linejoin="round"/>
<path id="XMLID_112_" d="M527.4 82.5H520.3" stroke="#444E59" stroke-width="3" stroke-miterlimit="10" stroke-linecap="round" stroke-linejoin="round"/>
</g>
</g>
</g>
<g id="XMLID_1_">
<path id="XMLID_93_" d="M472 119.3H459.1V153.4H472V119.3Z" fill="#848484"/>
<path id="XMLID_237_" opacity="0.25" d="M463.9 119.3H459.1V153.4H463.9V119.3Z" fill="#848484"/>
<path id="XMLID_40_" d="M472 119.3H459.1V153.4H472V119.3Z" stroke="#444E59" stroke-width="4" stroke-miterlimit="10" stroke-linecap="round" stroke-linejoin="round"/>
<path id="XMLID_95_" d="M468.5 153.5H462.6V170H468.5V153.5Z" fill="white"/>
<path id="XMLID_42_" d="M468.5 153.5H462.6V170H468.5V153.5Z" stroke="#444E59" stroke-width="4" stroke-miterlimit="10" stroke-linecap="round" stroke-linejoin="round"/>
<g id="XMLID_16_">
<path id="XMLID_98_" d="M455.6 184.7L425.6 302.4L471.2 186.3L455.6 184.7Z" fill="white"/>
<path id="XMLID_37_" d="M455.6 184.7L425.6 302.4L471.2 186.3L455.6 184.7Z" stroke="#444E59" stroke-width="4" stroke-miterlimit="10" stroke-linecap="round" stroke-linejoin="round"/>
<path id="XMLID_97_" d="M475.6 184.7L505.6 302.4L460.1 186.3L475.6 184.7Z" fill="white"/>
<path id="XMLID_38_" d="M475.6 184.7L505.6 302.4L460.1 186.3L475.6 184.7Z" stroke="#444E59" stroke-width="4" stroke-miterlimit="10" stroke-linecap="round" stroke-linejoin="round"/>
</g>
<path id="XMLID_91_" d="M465.6 207.8C476.646 207.8 485.6 198.846 485.6 187.8C485.6 176.754 476.646 167.8 465.6 167.8C454.554 167.8 445.6 176.754 445.6 187.8C445.6 198.846 454.554 207.8 465.6 207.8Z" fill="#71A850"/>
<path id="XMLID_241_" opacity="0.4" d="M451.2 187.8C451.2 177.7 458.7 169.4 468.4 168C467.5 167.9 466.6 167.8 465.6 167.8C454.6 167.8 445.6 176.8 445.6 187.8C445.6 198.8 454.6 207.8 465.6 207.8C466.5 207.8 467.5 207.7 468.4 207.6C458.7 206.2 451.2 197.9 451.2 187.8Z" fill="#71A850"/>
<path id="XMLID_39_" d="M465.6 207.8C476.646 207.8 485.6 198.846 485.6 187.8C485.6 176.754 476.646 167.8 465.6 167.8C454.554 167.8 445.6 176.754 445.6 187.8C445.6 198.846 454.554 207.8 465.6 207.8Z" stroke="#444E59" stroke-width="4" stroke-miterlimit="10" stroke-linecap="round" stroke-linejoin="round"/>
<path id="XMLID_94_" d="M465.6 194.6C469.356 194.6 472.4 191.556 472.4 187.8C472.4 184.044 469.356 181 465.6 181C461.844 181 458.8 184.044 458.8 187.8C458.8 191.556 461.844 194.6 465.6 194.6Z" fill="#444E59"/>
<path id="XMLID_92_" d="M465.6 194.6C469.356 194.6 472.4 191.556 472.4 187.8C472.4 184.044 469.356 181 465.6 181C461.844 181 458.8 184.044 458.8 187.8C458.8 191.556 461.844 194.6 465.6 194.6Z" stroke="#444E59" stroke-width="4" stroke-miterlimit="10" stroke-linecap="round" stroke-linejoin="round"/>
</g>
<path id="XMLID_75_" d="M393.4 302.2H261.4C253.7 302.2 247.4 295.9 247.4 288.2V16.2C247.4 8.50001 253.7 2.20001 261.4 2.20001H393.4C401.1 2.20001 407.4 8.50001 407.4 16.2V288.2C407.4 295.9 401.1 302.2 393.4 302.2Z" fill="#848484"/>
<path id="XMLID_116_" opacity="0.28" d="M393.4 2.20001H385C392.7 2.20001 399 8.50001 399 16.2V288.2C399 295.9 392.7 302.2 385 302.2H393.5C401.2 302.2 407.5 295.9 407.5 288.2V16.2C407.4 8.40001 401.1 2.20001 393.4 2.20001Z" fill="#848484"/>
<path id="XMLID_81_" opacity="0.48" d="M255.7 288.2V16.2C255.7 8.50001 262 2.20001 269.7 2.20001H261.4C253.7 2.20001 247.4 8.50001 247.4 16.2V288.2C247.4 295.9 253.7 302.2 261.4 302.2H269.7C262 302.2 255.7 295.9 255.7 288.2Z" fill="#848484"/>
<path id="XMLID_3_" d="M393.4 302.2H261.4C253.7 302.2 247.4 295.9 247.4 288.2V16.2C247.4 8.50001 253.7 2.20001 261.4 2.20001H393.4C401.1 2.20001 407.4 8.50001 407.4 16.2V288.2C407.4 295.9 401.1 302.2 393.4 302.2Z" stroke="#444E59" stroke-width="4" stroke-miterlimit="10" stroke-linecap="round" stroke-linejoin="round"/>
<path id="XMLID_77_" d="M407.419 263.688L407.419 39.688L247.419 39.688L247.419 263.688H407.419Z" fill="#E9FBFF"/>
<path id="XMLID_5_" d="M406.6 111.9H394.1C387.3 111.9 381.8 106.4 381.8 99.6V69.1C381.8 62.3 387.3 56.8 394.1 56.8H406.6V111.9Z" fill="#C9C9C9"/>
<path id="XMLID_2_" d="M256.6 235.5H247.4V138.2H256.6C263.5 138.2 269.1 143.8 269.1 150.7V223C269 229.9 263.5 235.5 256.6 235.5Z" fill="#C9C9C9"/>
<path id="XMLID_6_" d="M407.419 263.688L407.419 39.688L247.419 39.688L247.419 263.688H407.419Z" stroke="#444E59" stroke-width="4" stroke-miterlimit="10" stroke-linecap="round" stroke-linejoin="round"/>
<g id="XMLID_4_">
<path id="XMLID_9_" d="M349.4 22.2H356.4" stroke="#444E59" stroke-width="5" stroke-miterlimit="10" stroke-linecap="round" stroke-linejoin="round"/>
<path id="XMLID_7_" d="M298.4 22.2H338.4" stroke="#444E59" stroke-width="5" stroke-miterlimit="10" stroke-linecap="round" stroke-linejoin="round"/>
</g>
<g id="XMLID_228_">
<path id="XMLID_8_" opacity="0.29" d="M327.4 291.6C333.475 291.6 338.4 286.675 338.4 280.6C338.4 274.525 333.475 269.6 327.4 269.6C321.325 269.6 316.4 274.525 316.4 280.6C316.4 286.675 321.325 291.6 327.4 291.6Z" fill="#848484"/>
<path id="XMLID_78_" d="M327.4 289C332.039 289 335.8 285.239 335.8 280.6C335.8 275.961 332.039 272.2 327.4 272.2C322.761 272.2 319 275.961 319 280.6C319 285.239 322.761 289 327.4 289Z" fill="#444E59"/>
</g>
<g id="XMLID_14_" opacity="0.3">
<g id="XMLID_32_" opacity="0.3">
<g id="XMLID_58_" opacity="0.3">
<path id="Vector" opacity="0.3" d="M290.9 236.9H274.9C270.5 236.9 266.9 233.3 266.9 228.9V212.9C266.9 208.5 270.5 204.9 274.9 204.9H290.9C295.3 204.9 298.9 208.5 298.9 212.9V228.9C298.9 233.3 295.3 236.9 290.9 236.9Z" stroke="#444E59" stroke-width="2" stroke-linecap="round" stroke-linejoin="round" stroke-dasharray="4.08 4.08"/>
</g>
<g id="XMLID_35_" opacity="0.3">
<path id="Vector_2" opacity="0.3" d="M379.4 236.9H363.4C359 236.9 355.4 233.3 355.4 228.9V212.9C355.4 208.5 359 204.9 363.4 204.9H379.4C383.8 204.9 387.4 208.5 387.4 212.9V228.9C387.4 233.3 383.8 236.9 379.4 236.9Z" stroke="#444E59" stroke-width="2" stroke-linecap="round" stroke-linejoin="round" stroke-dasharray="4.08 4.08"/>
</g>
<g id="XMLID_34_" opacity="0.3">
<path id="Vector_3" opacity="0.3" d="M335.4 236.9H319.4C315 236.9 311.4 233.3 311.4 228.9V212.9C311.4 208.5 315 204.9 319.4 204.9H335.4C339.8 204.9 343.4 208.5 343.4 212.9V228.9C343.4 233.3 339.8 236.9 335.4 236.9Z" stroke="#444E59" stroke-width="2" stroke-linecap="round" stroke-linejoin="round" stroke-dasharray="4.08 4.08"/>
</g>
</g>
<g id="XMLID_27_" opacity="0.3">
<g id="XMLID_31_" opacity="0.3">
<path id="Vector_4" opacity="0.3" d="M290.9 188.9H274.9C270.5 188.9 266.9 185.3 266.9 180.9V164.9C266.9 160.5 270.5 156.9 274.9 156.9H290.9C295.3 156.9 298.9 160.5 298.9 164.9V180.9C298.9 185.3 295.3 188.9 290.9 188.9Z" stroke="#444E59" stroke-width="2" stroke-linecap="round" stroke-linejoin="round" stroke-dasharray="4.08 4.08"/>
</g>
<g id="XMLID_30_" opacity="0.3">
<path id="Vector_5" opacity="0.3" d="M379.4 188.9H363.4C359 188.9 355.4 185.3 355.4 180.9V164.9C355.4 160.5 359 156.9 363.4 156.9H379.4C383.8 156.9 387.4 160.5 387.4 164.9V180.9C387.4 185.3 383.8 188.9 379.4 188.9Z" stroke="#444E59" stroke-width="2" stroke-linecap="round" stroke-linejoin="round" stroke-dasharray="4.08 4.08"/>
</g>
<g id="XMLID_29_" opacity="0.3">
<path id="Vector_6" opacity="0.3" d="M335.4 188.9H319.4C315 188.9 311.4 185.3 311.4 180.9V164.9C311.4 160.5 315 156.9 319.4 156.9H335.4C339.8 156.9 343.4 160.5 343.4 164.9V180.9C343.4 185.3 339.8 188.9 335.4 188.9Z" stroke="#444E59" stroke-width="2" stroke-linecap="round" stroke-linejoin="round" stroke-dasharray="4.08 4.08"/>
</g>
</g>
<g id="XMLID_22_" opacity="0.3">
<g id="XMLID_26_" opacity="0.3">
<path id="Vector_7" opacity="0.3" d="M290.9 140.9H274.9C270.5 140.9 266.9 137.3 266.9 132.9V116.9C266.9 112.5 270.5 108.9 274.9 108.9H290.9C295.3 108.9 298.9 112.5 298.9 116.9V132.9C298.9 137.3 295.3 140.9 290.9 140.9Z" stroke="#444E59" stroke-width="2" stroke-linecap="round" stroke-linejoin="round" stroke-dasharray="4.08 4.08"/>
</g>
<g id="XMLID_25_" opacity="0.3">
<path id="Vector_8" opacity="0.3" d="M379.4 140.9H363.4C359 140.9 355.4 137.3 355.4 132.9V116.9C355.4 112.5 359 108.9 363.4 108.9H379.4C383.8 108.9 387.4 112.5 387.4 116.9V132.9C387.4 137.3 383.8 140.9 379.4 140.9Z" stroke="#444E59" stroke-width="2" stroke-linecap="round" stroke-linejoin="round" stroke-dasharray="4.08 4.08"/>
</g>
<g id="XMLID_24_" opacity="0.3">
<path id="Vector_9" opacity="0.3" d="M335.4 140.9H319.4C315 140.9 311.4 137.3 311.4 132.9V116.9C311.4 112.5 315 108.9 319.4 108.9H335.4C339.8 108.9 343.4 112.5 343.4 116.9V132.9C343.4 137.3 339.8 140.9 335.4 140.9Z" stroke="#444E59" stroke-width="2" stroke-linecap="round" stroke-linejoin="round" stroke-dasharray="4.08 4.08"/>
</g>
</g>
<g id="XMLID_17_" opacity="0.3">
<g id="XMLID_21_" opacity="0.3">
<path id="Vector_10" opacity="0.3" d="M290.9 92.9H274.9C270.5 92.9 266.9 89.3 266.9 84.9V68.9C266.9 64.5 270.5 60.9 274.9 60.9H290.9C295.3 60.9 298.9 64.5 298.9 68.9V84.9C298.9 89.3 295.3 92.9 290.9 92.9Z" stroke="#444E59" stroke-width="2" stroke-linecap="round" stroke-linejoin="round" stroke-dasharray="4.08 4.08"/>
</g>
<g id="XMLID_20_" opacity="0.3">
<path id="Vector_11" opacity="0.3" d="M379.4 92.9H363.4C359 92.9 355.4 89.3 355.4 84.9V68.9C355.4 64.5 359 60.9 363.4 60.9H379.4C383.8 60.9 387.4 64.5 387.4 68.9V84.9C387.4 89.3 383.8 92.9 379.4 92.9Z" stroke="#444E59" stroke-width="2" stroke-linecap="round" stroke-linejoin="round" stroke-dasharray="4.08 4.08"/>
</g>
<g id="XMLID_19_" opacity="0.3">
<path id="Vector_12" opacity="0.3" d="M335.4 92.9H319.4C315 92.9 311.4 89.3 311.4 84.9V68.9C311.4 64.5 315 60.9 319.4 60.9H335.4C339.8 60.9 343.4 64.5 343.4 68.9V84.9C343.4 89.3 339.8 92.9 335.4 92.9Z" stroke="#444E59" stroke-width="2" stroke-linecap="round" stroke-linejoin="round" stroke-dasharray="4.08 4.08"/>
</g>
</g>
</g>
<path id="XMLID_73_" d="M290.9 236.9H274.9C270.5 236.9 266.9 233.3 266.9 228.9V212.9C266.9 208.5 270.5 204.9 274.9 204.9H290.9C295.3 204.9 298.9 208.5 298.9 212.9V228.9C298.9 233.3 295.3 236.9 290.9 236.9Z" fill="#71A850"/>
<path id="XMLID_80_" opacity="0.52" d="M290.9 204.9H274.9C271.7 204.9 268.9 206.8 267.7 209.5L298.9 215.1V212.9C298.9 208.5 295.3 204.9 290.9 204.9Z" fill="#5F8C42"/>
<path id="XMLID_76_" d="M290.9 236.9H274.9C270.5 236.9 266.9 233.3 266.9 228.9V212.9C266.9 208.5 270.5 204.9 274.9 204.9H290.9C295.3 204.9 298.9 208.5 298.9 212.9V228.9C298.9 233.3 295.3 236.9 290.9 236.9Z" stroke="#444E59" stroke-width="4" stroke-miterlimit="10" stroke-linecap="round" stroke-linejoin="round"/>
<path id="XMLID_72_" d="M335.4 236.9H319.4C315 236.9 311.4 233.3 311.4 228.9V212.9C311.4 208.5 315 204.9 319.4 204.9H335.4C339.8 204.9 343.4 208.5 343.4 212.9V228.9C343.4 233.3 339.8 236.9 335.4 236.9Z" fill="#F09F54"/>
<path id="XMLID_79_" opacity="0.52" d="M335.4 204.9H319.4C316.2 204.9 313.4 206.8 312.2 209.5L343.4 215.1V212.9C343.4 208.5 339.8 204.9 335.4 204.9Z" fill="#D38444"/>
<path id="XMLID_74_" d="M335.4 236.9H319.4C315 236.9 311.4 233.3 311.4 228.9V212.9C311.4 208.5 315 204.9 319.4 204.9H335.4C339.8 204.9 343.4 208.5 343.4 212.9V228.9C343.4 233.3 339.8 236.9 335.4 236.9Z" stroke="#444E59" stroke-width="4" stroke-miterlimit="10" stroke-linecap="round" stroke-linejoin="round"/>
<g id="XMLID_33_">
<path id="XMLID_70_" d="M379.4 188.9H363.4C359 188.9 355.4 185.3 355.4 180.9V164.9C355.4 160.5 359 156.9 363.4 156.9H379.4C383.8 156.9 387.4 160.5 387.4 164.9V180.9C387.4 185.3 383.8 188.9 379.4 188.9Z" fill="#2FA9ED"/>
</g>
<path id="XMLID_119_" opacity="0.52" d="M379.4 156.9H363.4C360.2 156.9 357.4 158.8 356.2 161.5L387.4 167.1V164.9C387.4 160.5 383.8 156.9 379.4 156.9Z" fill="#288FBC"/>
<g id="XMLID_69_">
<path id="XMLID_71_" d="M379.4 188.9H363.4C359 188.9 355.4 185.3 355.4 180.9V164.9C355.4 160.5 359 156.9 363.4 156.9H379.4C383.8 156.9 387.4 160.5 387.4 164.9V180.9C387.4 185.3 383.8 188.9 379.4 188.9Z" stroke="#444E59" stroke-width="4" stroke-miterlimit="10" stroke-linecap="round" stroke-linejoin="round"/>
</g>
<g id="XMLID_13_">
<g id="Group">
<path id="XMLID_90_" d="M335.4 140.9H319.4C315 140.9 311.4 137.3 311.4 132.9V116.9C311.4 112.5 315 108.9 319.4 108.9H335.4C339.8 108.9 343.4 112.5 343.4 116.9V132.9C343.4 137.3 339.8 140.9 335.4 140.9Z" fill="#E7534E"/>
</g>
</g>
<path id="XMLID_124_" opacity="0.52" d="M335.4 108.9H319.4C316.2 108.9 313.4 110.8 312.2 113.5L343.4 119.1V116.9C343.4 112.5 339.8 108.9 335.4 108.9Z" fill="#BF4040"/>
<g id="XMLID_18_">
<path id="XMLID_23_" d="M335.4 140.9H319.4C315 140.9 311.4 137.3 311.4 132.9V116.9C311.4 112.5 315 108.9 319.4 108.9H335.4C339.8 108.9 343.4 112.5 343.4 116.9V132.9C343.4 137.3 339.8 140.9 335.4 140.9Z" stroke="#444E59" stroke-width="4" stroke-miterlimit="10" stroke-linecap="round" stroke-linejoin="round"/>
</g>
<path id="XMLID_10_" d="M368.8 165.9L378 171.2C379.3 172 379.3 173.9 378 174.6L368.8 179.9C367.5 180.7 365.8 179.7 365.8 178.2V167.6C365.8 166.1 367.5 165.1 368.8 165.9Z" fill="white"/>
<path id="XMLID_15_" d="M331.6 214.7H323.2C321.4 214.7 320 216.2 320 217.9V224.1C320 225.9 321.5 227.3 323.2 227.3H323.5L322.8 230.1C322.7 230.3 323 230.5 323.2 230.3L327.5 227.3H331.8C333.6 227.3 335 225.8 335 224.1V217.9C334.9 216.1 333.4 214.7 331.6 214.7Z" fill="white"/>
<path id="XMLID_11_" d="M276.7 220.9L280.4 224.6C280.9 225.1 281.7 225.1 282.2 224.6L290.5 216.3" stroke="white" stroke-width="4" stroke-miterlimit="10" stroke-linecap="round" stroke-linejoin="round"/>
<path id="XMLID_12_" d="M327.4 132.4C331.542 132.4 334.9 129.042 334.9 124.9C334.9 120.758 331.542 117.4 327.4 117.4C323.258 117.4 319.9 120.758 319.9 124.9C319.9 129.042 323.258 132.4 327.4 132.4Z" stroke="white" stroke-width="4" stroke-miterlimit="10" stroke-linecap="round" stroke-linejoin="round"/>
<g id="Circle_001">
<path id="XMLID_115_" d="M267 85.9L266.8 70.9L256.8 71C256.2 69.1 255.5 67.4 254.5 65.7L261.5 58.5L250.8 48L243.8 55.2C242.1 54.3 240.3 53.6 238.4 53.1L238.3 43.1L223.3 43.3L223.4 53.3C221.5 53.9 219.8 54.6 218.1 55.6L210.9 48.6L200.4 59.3L207.6 66.3C206.7 68 206 69.8 205.5 71.7L195.5 71.8L195.7 86.8L205.7 86.7C206.3 88.6 207 90.3 208 92L201 99.2L211.7 109.7L218.7 102.5C220.4 103.4 222.2 104.1 224.1 104.6L224.2 114.6L239.2 114.4L239.1 104.4C241 103.8 242.7 103.1 244.4 102.1L251.6 109.1L262.1 98.4L254.9 91.4C255.8 89.7 256.5 87.9 257 86L267 85.9ZM231.5 90.5C225 90.6 219.8 85.4 219.7 78.9C219.6 72.4 224.8 67.2 231.3 67.1C237.8 67 243 72.2 243.1 78.7C243.1 85.2 237.9 90.4 231.5 90.5Z" fill="white"/>
<path id="XMLID_191_" d="M267 85.9L266.8 70.9L256.8 71C256.2 69.1 255.5 67.4 254.5 65.7L261.5 58.5L250.8 48L243.8 55.2C242.1 54.3 240.3 53.6 238.4 53.1L238.3 43.1L223.3 43.3L223.4 53.3C221.5 53.9 219.8 54.6 218.1 55.6L210.9 48.6L200.4 59.3L207.6 66.3C206.7 68 206 69.8 205.5 71.7L195.5 71.8L195.7 86.8L205.7 86.7C206.3 88.6 207 90.3 208 92L201 99.2L211.7 109.7L218.7 102.5C220.4 103.4 222.2 104.1 224.1 104.6L224.2 114.6L239.2 114.4L239.1 104.4C241 103.8 242.7 103.1 244.4 102.1L251.6 109.1L262.1 98.4L254.9 91.4C255.8 89.7 256.5 87.9 257 86L267 85.9ZM231.5 90.5C225 90.6 219.8 85.4 219.7 78.9C219.6 72.4 224.8 67.2 231.3 67.1C237.8 67 243 72.2 243.1 78.7C243.1 85.2 237.9 90.4 231.5 90.5Z" fill="#F09F54"/>
<path id="XMLID_234_" d="M267 85.9L266.8 70.9L256.8 71C256.2 69.1 255.5 67.4 254.5 65.7L261.5 58.5L250.8 48L243.8 55.2C242.1 54.3 240.3 53.6 238.4 53.1L238.3 43.1L223.3 43.3L223.4 53.3C221.5 53.9 219.8 54.6 218.1 55.6L210.9 48.6L200.4 59.3L207.6 66.3C206.7 68 206 69.8 205.5 71.7L195.5 71.8L195.7 86.8L205.7 86.7C206.3 88.6 207 90.3 208 92L201 99.2L211.7 109.7L218.7 102.5C220.4 103.4 222.2 104.1 224.1 104.6L224.2 114.6L239.2 114.4L239.1 104.4C241 103.8 242.7 103.1 244.4 102.1L251.6 109.1L262.1 98.4L254.9 91.4C255.8 89.7 256.5 87.9 257 86L267 85.9ZM231.5 90.5C225 90.6 219.8 85.4 219.7 78.9C219.6 72.4 224.8 67.2 231.3 67.1C237.8 67 243 72.2 243.1 78.7C243.1 85.2 237.9 90.4 231.5 90.5Z" fill="#F09F54"/>
<g id="XMLID_246_" opacity="0.29">
<path id="XMLID_250_" opacity="0.29" d="M263.2 71C263.2 71 263.2 71.1 263.2 71H266.9V70.9L263.2 71Z" fill="#F09F54"/>
<path id="XMLID_252_" opacity="0.29" d="M250.2 55.3L254.1 51.3L250.9 48.1L245.7 53.4C247.3 53.9 248.8 54.5 250.2 55.3Z" fill="#F09F54"/>
<path id="XMLID_255_" opacity="0.29" d="M237.5 67.1C236.4 67.1 235.4 67.3 234.5 67.5C239.4 68.9 243 73.3 243 78.6C243.1 84 239.4 88.6 234.5 90C235.5 90.3 236.7 90.5 237.8 90.4C244.3 90.3 249.4 85 249.4 78.6C249.4 72.2 244 67.1 237.5 67.1Z" fill="#F09F54"/>
<path id="XMLID_259_" opacity="0.29" d="M222.6 53.6L224.6 55.5C226.3 54.6 228 53.8 229.9 53.2L229.8 43.2L238.4 43.1V43L223.4 43.2L223.5 53.2C223.3 53.4 222.9 53.5 222.6 53.6Z" fill="#F09F54"/>
<path id="XMLID_263_" opacity="0.29" d="M230.4 104.5C228.5 104 226.7 103.3 225 102.4L223.2 104.3C223.5 104.4 223.8 104.5 224.1 104.6L224.2 114.6L230.5 114.5L230.4 104.5Z" fill="#F09F54"/>
<path id="XMLID_267_" opacity="0.29" d="M202 71.7L212 71.6C212.5 69.7 213.2 67.9 214.1 66.2L206.9 59.2L214.3 51.7L211.1 48.5L200.6 59.2L207.8 66.2C206.9 67.9 206.2 69.7 205.7 71.6L195.7 71.7L195.9 86.7L202.2 86.6L202 71.7Z" fill="#F09F54"/>
<path id="XMLID_270_" opacity="0.29" d="M250.7 102.1C249.3 102.9 247.9 103.5 246.4 104L251.6 109.1L254.7 105.9L250.7 102.1Z" fill="#F09F54"/>
<path id="XMLID_271_" opacity="0.29" d="M207.4 99L214.4 91.8C213.5 90.1 212.7 88.4 212.1 86.5L205.8 86.6C206.4 88.4 207.1 90.2 208 91.8L201 99L211.7 109.5L214.8 106.3L207.4 99Z" fill="#F09F54"/>
</g>
<path id="XMLID_130_" d="M267 85.9L266.8 70.9L256.8 71C256.2 69.1 255.5 67.4 254.5 65.7L261.5 58.5L250.8 48L243.8 55.2C242.1 54.3 240.3 53.6 238.4 53.1L238.3 43.1L223.3 43.3L223.4 53.3C221.5 53.9 219.8 54.6 218.1 55.6L210.9 48.6L200.4 59.3L207.6 66.3C206.7 68 206 69.8 205.5 71.7L195.5 71.8L195.7 86.8L205.7 86.7C206.3 88.6 207 90.3 208 92L201 99.2L211.7 109.7L218.7 102.5C220.4 103.4 222.2 104.1 224.1 104.6L224.2 114.6L239.2 114.4L239.1 104.4C241 103.8 242.7 103.1 244.4 102.1L251.6 109.1L262.1 98.4L254.9 91.4C255.8 89.7 256.5 87.9 257 86L267 85.9ZM231.5 90.5C225 90.6 219.8 85.4 219.7 78.9C219.6 72.4 224.8 67.2 231.3 67.1C237.8 67 243 72.2 243.1 78.7C243.1 85.2 237.9 90.4 231.5 90.5Z" stroke="#444E59" stroke-width="4" stroke-miterlimit="10" stroke-linecap="round" stroke-linejoin="round"/>
</g>
<g id="XMLID_190_">
<path id="XMLID_183_" d="M204.5 302.2H80.8C76.7 302.2 73.4 298.9 73.4 294.8V210.2C73.4 206.1 76.7 202.8 80.8 202.8H204.6C208.7 202.8 212 206.1 212 210.2V294.8C211.9 298.9 208.6 302.2 204.5 302.2Z" fill="#444E59"/>
<path id="XMLID_134_" d="M211.9 218.9H73.4V210.2C73.4 206.1 76.7 202.8 80.8 202.8H204.6C208.7 202.8 212 206.1 212 210.2V218.9H211.9Z" fill="#BCBCBC"/>
<path id="XMLID_132_" d="M204.5 302.2H80.8C76.7 302.2 73.4 298.9 73.4 294.8V210.2C73.4 206.1 76.7 202.8 80.8 202.8H204.6C208.7 202.8 212 206.1 212 210.2V294.8C211.9 298.9 208.6 302.2 204.5 302.2Z" stroke="#444E59" stroke-width="4" stroke-miterlimit="10" stroke-linecap="round" stroke-linejoin="round"/>
<path id="XMLID_182_" d="M204.5 302.2H80.8C76.7 302.2 73.4 298.9 73.4 294.8V210.2C73.4 206.1 76.7 202.8 80.8 202.8H204.6C208.7 202.8 212 206.1 212 210.2V294.8C211.9 298.9 208.6 302.2 204.5 302.2Z" stroke="#444E59" stroke-width="4" stroke-miterlimit="10" stroke-linecap="round" stroke-linejoin="round"/>
<path id="XMLID_133_" d="M211.9 218.9H73.4V210.2C73.4 206.1 76.7 202.8 80.8 202.8H204.6C208.7 202.8 212 206.1 212 210.2V218.9H211.9Z" stroke="#444E59" stroke-width="4" stroke-miterlimit="10" stroke-linecap="round" stroke-linejoin="round"/>
<g id="XMLID_135_">
<g id="XMLID_169_">
<path id="XMLID_172_" d="M92.5 289.5H108.1" stroke="white" stroke-width="4" stroke-miterlimit="10" stroke-linecap="round" stroke-linejoin="round"/>
<path id="XMLID_171_" d="M81.5 289.5H82.6" stroke="white" stroke-width="4" stroke-miterlimit="10" stroke-linecap="round" stroke-linejoin="round"/>
</g>
<g id="XMLID_165_">
<path id="XMLID_168_" d="M92.5 280.9H132" stroke="white" stroke-width="4" stroke-miterlimit="10" stroke-linecap="round" stroke-linejoin="round"/>
<path id="XMLID_167_" d="M81.5 280.9H82.6" stroke="white" stroke-width="4" stroke-miterlimit="10" stroke-linecap="round" stroke-linejoin="round"/>
</g>
<g id="XMLID_160_">
<path id="XMLID_163_" d="M150.8 272.2H161.6" stroke="#64BDFF" stroke-width="4" stroke-miterlimit="10" stroke-linecap="round" stroke-linejoin="round"/>
<path id="XMLID_185_" d="M121.4 272.2H141.4" stroke="white" stroke-width="4" stroke-miterlimit="10" stroke-linecap="round" stroke-linejoin="round"/>
<path id="XMLID_164_" d="M92.5 272.2H112.3" stroke="#FF5F5F" stroke-width="4" stroke-miterlimit="10" stroke-linecap="round" stroke-linejoin="round"/>
<path id="XMLID_162_" d="M81.5 272.2H82.6" stroke="white" stroke-width="4" stroke-miterlimit="10" stroke-linecap="round" stroke-linejoin="round"/>
</g>
<g id="XMLID_156_">
<path id="XMLID_173_" d="M125.8 263.6H174" stroke="white" stroke-width="4" stroke-miterlimit="10" stroke-linecap="round" stroke-linejoin="round"/>
<path id="XMLID_159_" d="M92.5 263.6H117.7" stroke="#64BDFF" stroke-width="4" stroke-miterlimit="10" stroke-linecap="round" stroke-linejoin="round"/>
<path id="XMLID_158_" d="M81.5 263.6H82.6" stroke="white" stroke-width="4" stroke-miterlimit="10" stroke-linecap="round" stroke-linejoin="round"/>
</g>
<g id="XMLID_152_">
<path id="XMLID_170_" d="M125.8 255H143.8" stroke="#FF5F5F" stroke-width="4" stroke-miterlimit="10" stroke-linecap="round" stroke-linejoin="round"/>
<path id="XMLID_155_" d="M92.5 255H117.7" stroke="#FFBE78" stroke-width="4" stroke-miterlimit="10" stroke-linecap="round" stroke-linejoin="round"/>
<path id="XMLID_154_" d="M81.5 255H82.6" stroke="white" stroke-width="4" stroke-miterlimit="10" stroke-linecap="round" stroke-linejoin="round"/>
</g>
<g id="XMLID_148_">
<path id="XMLID_157_" d="M129.3 246.4H134.2" stroke="#64BDFF" stroke-width="4" stroke-miterlimit="10" stroke-linecap="round" stroke-linejoin="round"/>
<path id="XMLID_161_" d="M110.3 246.4H121.4" stroke="#FF5F5F" stroke-width="4" stroke-miterlimit="10" stroke-linecap="round" stroke-linejoin="round"/>
<path id="XMLID_151_" d="M92.5 246.4H101.7" stroke="#C383F2" stroke-width="4" stroke-miterlimit="10" stroke-linecap="round" stroke-linejoin="round"/>
<path id="XMLID_150_" d="M81.5 246.4H82.6" stroke="white" stroke-width="4" stroke-miterlimit="10" stroke-linecap="round" stroke-linejoin="round"/>
</g>
<g id="XMLID_144_">
<path id="XMLID_137_" d="M165.3 237.7H174" stroke="#64BDFF" stroke-width="4" stroke-miterlimit="10" stroke-linecap="round" stroke-linejoin="round"/>
<path id="XMLID_149_" d="M120.2 237.7H154.3" stroke="#FF5F5F" stroke-width="4" stroke-miterlimit="10" stroke-linecap="round" stroke-linejoin="round"/>
<path id="XMLID_147_" d="M92.5 237.7H112.8" stroke="#FFBE78" stroke-width="4" stroke-miterlimit="10" stroke-linecap="round" stroke-linejoin="round"/>
<path id="XMLID_146_" d="M81.5 237.7H82.6" stroke="white" stroke-width="4" stroke-miterlimit="10" stroke-linecap="round" stroke-linejoin="round"/>
</g>
<g id="XMLID_139_">
<path id="XMLID_145_" d="M143.8 229.1H161.6" stroke="#FFBE78" stroke-width="4" stroke-miterlimit="10" stroke-linecap="round" stroke-linejoin="round"/>
<path id="XMLID_138_" d="M121.4 229.1H135.2" stroke="#6DBF7B" stroke-width="4" stroke-miterlimit="10" stroke-linecap="round" stroke-linejoin="round"/>
<path id="XMLID_140_" d="M106.4 229.1H114.2" stroke="#FFBE78" stroke-width="4" stroke-miterlimit="10" stroke-linecap="round" stroke-linejoin="round"/>
<path id="XMLID_143_" d="M92.5 229.1H98.9" stroke="#6DBF7B" stroke-width="4" stroke-miterlimit="10" stroke-linecap="round" stroke-linejoin="round"/>
<path id="XMLID_142_" d="M81.5 229.1H82.6" stroke="white" stroke-width="4" stroke-miterlimit="10" stroke-linecap="round" stroke-linejoin="round"/>
</g>
</g>
<g id="XMLID_153_">
<path id="XMLID_136_" d="M87.1 213.4C88.4807 213.4 89.6 212.281 89.6 210.9C89.6 209.519 88.4807 208.4 87.1 208.4C85.7193 208.4 84.6 209.519 84.6 210.9C84.6 212.281 85.7193 213.4 87.1 213.4Z" fill="#E7534E"/>
<path id="XMLID_166_" d="M96.1 213.4C97.4807 213.4 98.6 212.281 98.6 210.9C98.6 209.519 97.4807 208.4 96.1 208.4C94.7193 208.4 93.6 209.519 93.6 210.9C93.6 212.281 94.7193 213.4 96.1 213.4Z" fill="#444E59"/>
<path id="XMLID_174_" d="M105.2 213.4C106.581 213.4 107.7 212.281 107.7 210.9C107.7 209.519 106.581 208.4 105.2 208.4C103.819 208.4 102.7 209.519 102.7 210.9C102.7 212.281 103.819 213.4 105.2 213.4Z" fill="#444E59"/>
</g>
</g>
<path id="XMLID_176_" d="M253.8 227.7H164.2C159.8 227.7 156.2 224.1 156.2 219.7V138.8C156.2 134.4 159.8 130.8 164.2 130.8H253.8C258.2 130.8 261.8 134.4 261.8 138.8V219.7C261.8 224.1 258.2 227.7 253.8 227.7Z" fill="white"/>
<path id="XMLID_184_" d="M253.8 227.7H164.2C159.8 227.7 156.2 224.1 156.2 219.7V138.8C156.2 134.4 159.8 130.8 164.2 130.8H253.8C258.2 130.8 261.8 134.4 261.8 138.8V219.7C261.8 224.1 258.2 227.7 253.8 227.7Z" fill="white"/>
<path id="XMLID_175_" d="M253.8 227.7H164.2C159.8 227.7 156.2 224.1 156.2 219.7V138.8C156.2 134.4 159.8 130.8 164.2 130.8H253.8C258.2 130.8 261.8 134.4 261.8 138.8V219.7C261.8 224.1 258.2 227.7 253.8 227.7Z" stroke="#444E59" stroke-width="4" stroke-miterlimit="10" stroke-linecap="round" stroke-linejoin="round"/>
<path id="XMLID_186_" d="M252.1 139H165.3V196.7H252.1V139Z" fill="#9483C4"/>
<path id="XMLID_177_" d="M252.1 139H165.3V196.7H252.1V139Z" stroke="#444E59" stroke-width="4" stroke-miterlimit="10" stroke-linecap="round" stroke-linejoin="round"/>
<path id="XMLID_179_" d="M165.3 205.9H220.1" stroke="#444E59" stroke-width="4" stroke-miterlimit="10" stroke-linecap="round" stroke-linejoin="round"/>
<path id="XMLID_180_" d="M165.3 215.1H197.7" stroke="#444E59" stroke-width="4" stroke-miterlimit="10" stroke-linecap="round" stroke-linejoin="round"/>
<path id="XMLID_178_" d="M174 186.4L192.7 167.9L210.1 185.3" stroke="#444E59" stroke-width="4" stroke-miterlimit="10" stroke-linecap="round" stroke-linejoin="round"/>
<path id="XMLID_181_" d="M242.7 186.4L220.1 156.9L202 177.1" stroke="#444E59" stroke-width="4" stroke-miterlimit="10" stroke-linecap="round" stroke-linejoin="round"/>
<path id="XMLID_187_" d="M242.5 215C245.206 215 247.4 212.806 247.4 210.1C247.4 207.394 245.206 205.2 242.5 205.2C239.794 205.2 237.6 207.394 237.6 210.1C237.6 212.806 239.794 215 242.5 215Z" stroke="#444E59" stroke-width="4" stroke-miterlimit="10" stroke-linecap="round" stroke-linejoin="round"/>
<path id="XMLID_189_" d="M198.2 163.1C201.624 163.1 204.4 160.324 204.4 156.9C204.4 153.476 201.624 150.7 198.2 150.7C194.776 150.7 192 153.476 192 156.9C192 160.324 194.776 163.1 198.2 163.1Z" fill="#F09F54"/>
<path id="XMLID_188_" d="M198.2 163.1C201.624 163.1 204.4 160.324 204.4 156.9C204.4 153.476 201.624 150.7 198.2 150.7C194.776 150.7 192 153.476 192 156.9C192 160.324 194.776 163.1 198.2 163.1Z" stroke="#444E59" stroke-width="4" stroke-miterlimit="10" stroke-linecap="round" stroke-linejoin="round"/>
<g id="XMLID_194_">
<path id="XMLID_198_" d="M154.5 102.3H181.3" stroke="#444E59" stroke-width="4" stroke-miterlimit="10" stroke-linecap="round" stroke-linejoin="round"/>
<path id="XMLID_195_" d="M140.2 102.3H147.3" stroke="#444E59" stroke-width="4" stroke-miterlimit="10" stroke-linecap="round" stroke-linejoin="round"/>
<path id="XMLID_199_" d="M167.9 89.9H181.3" stroke="#444E59" stroke-width="4" stroke-miterlimit="10" stroke-linecap="round" stroke-linejoin="round"/>
<path id="XMLID_196_" d="M157.1 89.9H161.1" stroke="#444E59" stroke-width="4" stroke-miterlimit="10" stroke-linecap="round" stroke-linejoin="round"/>
</g>
<g id="XMLID_200_">
<path id="XMLID_205_" d="M125.5 180.7H146.4" stroke="#444E59" stroke-width="4" stroke-miterlimit="10" stroke-linecap="round" stroke-linejoin="round"/>
<path id="XMLID_204_" d="M114.4 180.7H119.9" stroke="#444E59" stroke-width="4" stroke-miterlimit="10" stroke-linecap="round" stroke-linejoin="round"/>
<path id="XMLID_202_" d="M137.9 168.3H146.4" stroke="#444E59" stroke-width="4" stroke-miterlimit="10" stroke-linecap="round" stroke-linejoin="round"/>
<path id="XMLID_201_" d="M127.5 168.3H130.7" stroke="#444E59" stroke-width="4" stroke-miterlimit="10" stroke-linecap="round" stroke-linejoin="round"/>
</g>
<g id="XMLID_229_">
<path id="XMLID_233_" d="M458.8 35.6H478.6" stroke="#444E59" stroke-width="4" stroke-miterlimit="10" stroke-linecap="round" stroke-linejoin="round"/>
<path id="XMLID_232_" d="M446.6 35.6H452.2" stroke="#444E59" stroke-width="4" stroke-miterlimit="10" stroke-linecap="round" stroke-linejoin="round"/>
<path id="XMLID_231_" d="M470.1 23.2H478.6" stroke="#444E59" stroke-width="4" stroke-miterlimit="10" stroke-linecap="round" stroke-linejoin="round"/>
<path id="XMLID_230_" d="M459.8 23.2H462.9" stroke="#444E59" stroke-width="4" stroke-miterlimit="10" stroke-linecap="round" stroke-linejoin="round"/>
</g>
<path id="XMLID_211_" d="M474.2 105.5H396C391.2 105.5 387.4 101.6 387.4 96.9V59C387.4 54.2 391.3 50.4 396 50.4H474.2C479 50.4 482.8 54.3 482.8 59V96.8C482.8 101.6 479 105.5 474.2 105.5Z" fill="#2FA9ED"/>
<path id="XMLID_197_" d="M474.2 105.5H396C391.2 105.5 387.4 101.6 387.4 96.9V59C387.4 54.2 391.3 50.4 396 50.4H474.2C479 50.4 482.8 54.3 482.8 59V96.8C482.8 101.6 479 105.5 474.2 105.5Z" stroke="#444E59" stroke-width="3" stroke-miterlimit="10" stroke-linecap="round" stroke-linejoin="round"/>
<path id="XMLID_214_" opacity="0.56" d="M435.1 65.2H468.9" stroke="white" stroke-width="3" stroke-miterlimit="10" stroke-linecap="round" stroke-linejoin="round"/>
<path id="XMLID_216_" opacity="0.56" d="M435.1 76.1H457.5" stroke="white" stroke-width="3" stroke-miterlimit="10" stroke-linecap="round" stroke-linejoin="round"/>
<g id="XMLID_224_" opacity="0.56">
<path id="XMLID_217_" opacity="0.56" d="M452.1 92.4H438.5C436.7 92.4 435.2 90.9 435.2 89.1C435.2 87.3 436.7 85.8 438.5 85.8H452.1C453.9 85.8 455.4 87.3 455.4 89.1C455.4 90.9 454 92.4 452.1 92.4Z" fill="white"/>
<path id="XMLID_213_" opacity="0.56" d="M452.1 92.4H438.5C436.7 92.4 435.2 90.9 435.2 89.1C435.2 87.3 436.7 85.8 438.5 85.8H452.1C453.9 85.8 455.4 87.3 455.4 89.1C455.4 90.9 454 92.4 452.1 92.4Z" stroke="white" stroke-width="3" stroke-miterlimit="10" stroke-linecap="round" stroke-linejoin="round"/>
</g>
<g id="XMLID_226_">
<path id="XMLID_206_" d="M421 92.9H403.1C400.5 92.9 398.5 90.8 398.5 88.3V67.4C398.5 64.8 400.6 62.8 403.1 62.8H421C423.6 62.8 425.6 64.9 425.6 67.4V88.3C425.6 90.8 423.6 92.9 421 92.9Z" stroke="white" stroke-width="3" stroke-miterlimit="10" stroke-linecap="round" stroke-linejoin="round"/>
<path id="XMLID_225_" d="M412.1 79.2C414.751 79.2 416.9 77.051 416.9 74.4C416.9 71.749 414.751 69.6 412.1 69.6C409.449 69.6 407.3 71.749 407.3 74.4C407.3 77.051 409.449 79.2 412.1 79.2Z" stroke="white" stroke-width="3" stroke-miterlimit="10" stroke-linecap="round" stroke-linejoin="round"/>
<path id="XMLID_227_" d="M403 92.4C403 87.4 407.1 83.3 412.1 83.3C417.1 83.3 421.2 87.4 421.2 92.4" stroke="white" stroke-width="3" stroke-miterlimit="10" stroke-linecap="round" stroke-linejoin="round"/>
</g>
</g>
</svg>
