<svg width="311" height="653" viewBox="0 0 311 653" fill="none" xmlns="http://www.w3.org/2000/svg">
<g id="Group 1">
<path id="Vector" d="M35.689 608.007C35.689 608.007 20.325 614.528 13.359 622.122C3.48301 632.888 8.51999 648.255 31.972 650.571C60.425 653.381 74.972 632.856 75.503 625.335C76.16 616.055 75.874 611.563 71.982 607.789C38.327 603.721 35.689 608.007 35.689 608.007Z" fill="#39294E"/>
<path id="Vector_2" d="M35.689 608.007C35.689 608.007 20.325 614.528 13.359 622.122C3.48301 632.888 8.51999 648.255 31.972 650.571C60.425 653.381 74.972 632.856 75.503 625.335C76.16 616.055 75.874 611.563 71.982 607.789C38.327 603.721 35.689 608.007 35.689 608.007Z" stroke="#39294E" stroke-width="2.80384" stroke-linecap="round" stroke-linejoin="round"/>
<path id="Vector_3" d="M41.047 558.236C41.047 558.236 44.707 596.175 41.566 605.02C41.037 606.509 31.8331 608.472 30.7861 614.08C29.8621 619.026 33.241 624.5 40.701 626.931C52.49 630.771 65.759 627.164 70.452 617.161C74.752 607.996 65.9681 586.976 78.1141 557.536C44.1891 557.536 41.047 558.236 41.047 558.236Z" fill="#FFAB91"/>
<path id="Vector_4" d="M38.5 617.657C39.547 612.049 48.751 610.086 49.28 608.597C52.421 599.752 48.761 561.813 48.761 561.813C48.761 561.813 51.327 561.243 76.728 561.131C77.161 559.945 77.614 558.75 78.115 557.531C44.19 557.531 41.049 558.231 41.049 558.231C41.049 558.231 44.708 596.17 41.567 605.015C41.038 606.504 31.834 608.467 30.787 614.075C29.864 619.021 33.242 624.495 40.702 626.926C41.36 627.14 42.024 627.326 42.69 627.491C39.283 624.752 37.86 621.078 38.5 617.657Z" fill="#E88B74"/>
<path id="Vector_5" d="M41.047 558.236C41.047 558.236 44.707 596.175 41.566 605.02C41.037 606.509 31.8331 608.472 30.7861 614.08C29.8621 619.026 33.241 624.5 40.701 626.931C52.49 630.771 65.759 627.164 70.452 617.161C74.752 607.996 65.9681 586.976 78.1141 557.536C44.1891 557.536 41.047 558.236 41.047 558.236Z" stroke="#39294E" stroke-width="2.80384" stroke-linecap="round" stroke-linejoin="round"/>
<path id="Vector_6" d="M32.362 551.66C32.362 551.66 34.404 563.465 34.404 566.748C34.404 570.031 52.774 572.888 61.346 572.888C69.918 572.888 75.634 576.153 78.9 572.888C82.166 569.623 84.352 550.435 84.352 548.394C84.352 546.353 32.362 551.66 32.362 551.66Z" fill="#C65258"/>
<g id="Vector_7" style="mix-blend-mode:multiply" opacity="0.21">
<path d="M48.978 557.275C48.978 557.275 68.622 555.275 83.761 554.199C84.144 551.282 84.352 549.023 84.352 548.399C84.352 546.358 32.362 551.665 32.362 551.665C32.362 551.665 34.404 563.47 34.404 566.753C34.404 568.983 42.884 571.016 51.011 572.091C50.916 568.49 48.978 557.275 48.978 557.275Z" fill="#C65258"/>
</g>
<path id="Vector_8" d="M32.362 551.66C32.362 551.66 34.404 563.465 34.404 566.748C34.404 570.031 52.774 572.888 61.346 572.888C69.918 572.888 75.634 576.153 78.9 572.888C82.166 569.623 84.352 550.435 84.352 548.394C84.352 546.353 32.362 551.66 32.362 551.66Z" stroke="#39294E" stroke-width="2.80384" stroke-linecap="round" stroke-linejoin="round"/>
<path id="Vector_9" opacity="0.6" d="M44.219 641.748C44.6079 641.654 44.9859 641.52 45.347 641.348" stroke="white" stroke-width="2.80384" stroke-linecap="round" stroke-linejoin="round"/>
<path id="Vector_10" opacity="0.6" d="M27.155 640.256C27.155 640.256 30.838 644.008 39.921 642.634" stroke="white" stroke-width="2.80384" stroke-linecap="round" stroke-linejoin="round"/>
<path id="Vector_11" d="M207.353 621.14C217.229 631.906 219.46 647.333 196.007 649.649C167.555 652.459 150.807 635.017 150.271 627.496C149.613 618.217 150.123 611.268 154.016 607.496C187.671 603.426 200.386 613.546 207.353 621.14Z" fill="#39294E"/>
<path id="Vector_12" d="M207.353 621.14C217.229 631.906 219.46 647.333 196.007 649.649C167.555 652.459 150.807 635.017 150.271 627.496C149.613 618.217 150.123 611.268 154.016 607.496C187.671 603.426 200.386 613.546 207.353 621.14Z" stroke="#39294E" stroke-width="2.80384" stroke-linecap="round" stroke-linejoin="round"/>
<path id="Vector_13" d="M182.431 558.236C182.431 558.236 178.771 596.175 181.912 605.02C182.441 606.509 195.273 616.661 185.171 624.494C181.195 627.577 160.477 627.164 155.783 617.161C151.483 607.996 157.51 586.976 145.364 557.536C179.289 557.536 182.431 558.236 182.431 558.236Z" fill="#FFAB91"/>
<path id="Vector_14" d="M163.542 617.816C159.242 608.651 165.269 587.631 153.123 558.19C168.081 558.19 177.049 558.327 182.408 558.479C182.421 558.336 182.431 558.236 182.431 558.236C182.431 558.236 179.289 557.536 145.364 557.536C157.51 586.977 151.484 607.997 155.783 617.162C158.974 623.962 169.566 626.327 177.274 626.178C171.426 625.069 165.735 622.49 163.542 617.816Z" fill="#E88B74"/>
<path id="Vector_15" d="M182.431 558.236C182.431 558.236 178.771 596.175 181.912 605.02C182.441 606.509 197.024 619.708 185.171 624.494C177.735 627.494 160.477 627.164 155.783 617.161C151.483 607.996 157.51 586.976 145.364 557.536C179.289 557.536 182.431 558.236 182.431 558.236Z" stroke="#39294E" stroke-width="2.80384" stroke-linecap="round" stroke-linejoin="round"/>
<path id="Vector_16" d="M191.116 554.464C191.116 554.464 189.075 566.264 189.075 569.552C189.075 572.84 173.475 575.601 165.121 577.522C158.806 578.973 147.844 578.957 144.578 575.692C141.312 572.427 139.126 553.239 139.126 551.198C139.126 549.157 191.116 554.464 191.116 554.464Z" fill="#C65258"/>
<g id="Vector_17" style="mix-blend-mode:multiply" opacity="0.21">
<path d="M155.482 575.691C152.216 572.426 150.03 553.239 150.03 551.198C150.03 551.121 150.13 551.057 150.271 550.998C143.771 550.635 139.126 550.587 139.126 551.198C139.126 553.239 141.312 572.426 144.578 575.691C147.323 578.436 155.495 578.88 161.784 578.091C159.032 577.689 156.711 576.921 155.482 575.691Z" fill="#C65258"/>
</g>
<path id="Vector_18" d="M191.116 554.464C191.116 554.464 189.075 566.264 189.075 569.552C189.075 572.84 173.475 575.601 165.121 577.522C158.806 578.973 147.844 578.957 144.578 575.692C141.312 572.427 139.126 553.239 139.126 551.198C139.126 549.157 191.116 554.464 191.116 554.464Z" stroke="#39294E" stroke-width="2.80384" stroke-linecap="round" stroke-linejoin="round"/>
<path id="Vector_19" opacity="0.6" d="M186.888 642.839C190.003 643.014 194.721 643.312 198.124 641.054" stroke="white" stroke-width="2.80384" stroke-linecap="round" stroke-linejoin="round"/>
<path id="Vector_20" opacity="0.6" d="M180.677 641.748C180.677 641.748 180.834 641.748 182.224 642.035" stroke="white" stroke-width="2.80384" stroke-linecap="round" stroke-linejoin="round"/>
<path id="Vector_21" d="M138.107 266.454H103.432C103.432 266.454 106.252 250.578 106.581 245.571C107.1 237.693 106.033 216.336 106.033 216.336H135.505C135.505 216.336 134.438 237.693 134.957 245.571C135.287 250.578 138.107 266.454 138.107 266.454Z" fill="#FFAB91"/>
<path id="Vector_22" d="M106.033 216.336C106.033 216.336 106.265 220.965 106.459 226.707C110.997 228.726 115.935 229.687 120.899 229.518C125.863 229.348 130.723 228.052 135.113 225.728V225.728C135.3 220.448 135.505 216.336 135.505 216.336H106.033Z" fill="#E88B74"/>
<path id="Vector_23" d="M138.107 266.454H103.432C103.432 266.454 106.252 250.578 106.581 245.571C107.1 237.693 106.033 216.336 106.033 216.336H135.505C135.505 216.336 134.438 237.693 134.957 245.571C135.287 250.578 138.107 266.454 138.107 266.454Z" stroke="#39294E" stroke-width="2.80384" stroke-linejoin="round"/>
<path id="Vector_24" d="M135.441 244.387C133.776 251.05 128.83 257.403 120.318 257.403C111.806 257.403 106.86 251.05 105.2 244.387L82.337 245.787L86.671 394.027H153.416L157.749 245.787L135.441 244.387Z" fill="white"/>
<path id="Vector_25" d="M105.2 250.63C106.748 252.781 111.811 257.403 120.323 257.403C128.835 257.403 133.498 254.992 135.446 250.63L157.567 252.021L157.749 245.789L135.449 244.389C133.784 251.052 128.838 257.405 120.326 257.405C111.814 257.405 106.86 251.05 105.2 244.387L82.337 245.787L82.519 252.019L105.2 250.63Z" fill="#EFEFEF"/>
<path id="Vector_26" d="M135.441 244.387C133.776 251.05 128.83 257.403 120.318 257.403C111.806 257.403 106.86 251.05 105.2 244.387L82.337 245.787L86.671 394.027H153.416L157.749 245.787L135.441 244.387Z" stroke="#39294E" stroke-width="2.80384" stroke-linejoin="round"/>
<path id="Vector_27" d="M173.908 394.029C173.908 394.029 176.654 421.606 203.29 479.084C221.503 518.384 203.79 557.638 176.319 564.489C153.411 570.204 132.119 566.147 125.519 539.814C119.698 516.566 129.693 484.453 126.104 468.397C119.455 469.905 116.533 469.861 111.665 468.397C99.085 496.603 108.68 527.825 96.047 544.736C84.107 560.718 53.055 567.943 29.832 552.771C5.86198 537.11 10.063 506.65 31.844 472.537C50.338 443.572 65.06 408.932 67.827 389.531C74.971 389.531 173.908 394.029 173.908 394.029Z" fill="#5F2E50"/>
<g id="Group" style="mix-blend-mode:overlay" opacity="0.22">
<g id="Vector_28" style="mix-blend-mode:overlay" opacity="0.22">
<path d="M47.216 548.586C23.245 532.925 27.446 502.465 49.228 468.352C66.295 441.622 80.142 410.069 84.352 390.109C75.663 389.757 69.431 389.531 67.829 389.531C65.062 408.931 50.34 443.572 31.846 472.537C10.065 506.65 5.86405 537.11 29.8341 552.771C45.7651 563.179 65.379 563.045 79.982 556.771C68.4578 557.712 56.944 554.836 47.216 548.586V548.586Z" fill="#5F2E50"/>
</g>
<g id="Vector_29" style="mix-blend-mode:overlay" opacity="0.22">
<path d="M142.9 535.629C134.913 513.761 141.01 471.363 132.351 465.264C125.703 466.772 127.246 468.595 126.517 470.806C128.768 487.499 119.974 517.672 125.517 539.814C132.111 566.147 153.407 570.204 176.317 564.489C178.471 563.942 180.57 563.199 182.588 562.269C164.188 564.076 150.684 556.935 142.9 535.629Z" fill="#5F2E50"/>
</g>
</g>
<path id="Vector_30" d="M155.134 335.065C155.134 335.065 156.968 399.83 134.352 435.465C115.441 465.265 77.196 470.734 66.343 471.051C57.48 471.171 48.715 469.188 40.767 465.264L48.978 425.888L155.134 335.065Z" fill="#5A2849"/>
<path id="Vector_31" d="M173.908 394.029C173.908 394.029 176.654 421.606 203.29 479.084C221.503 518.384 203.79 557.638 176.319 564.489C153.411 570.204 132.119 566.147 125.519 539.814C119.698 516.566 129.693 484.453 126.104 468.397C121.338 469.353 116.43 469.353 111.665 468.397C99.085 496.603 108.68 527.825 96.047 544.736C84.107 560.718 53.055 567.943 29.832 552.771C5.86198 537.11 10.063 506.65 31.844 472.537C50.338 443.572 65.06 408.932 67.827 389.531C74.971 389.531 173.908 394.029 173.908 394.029Z" stroke="#39294E" stroke-width="2.80384" stroke-linecap="round" stroke-linejoin="round"/>
<path id="Vector_32" d="M120.769 156.637C159.656 156.637 198.26 149.998 203.53 122.991C207.268 103.831 200.803 73.777 193.53 60.977L188.357 51.777L120.773 51.032L53.184 55.232C53.184 55.232 23.408 85.126 39.042 119.132C50.53 144.137 81.882 156.637 120.769 156.637Z" fill="#39294E" stroke="#39294E" stroke-width="2.80384" stroke-linejoin="round"/>
<path id="Vector_33" d="M49.818 148.693C40.362 158.149 25.3061 144.245 27.1181 125.546C28.0621 115.785 39.658 107.734 50.757 120.07C50.753 120.07 56.1 142.415 49.818 148.693Z" fill="#FFAB91"/>
<path id="Vector_34" d="M50.289 128.282C51.3932 133.156 52.086 138.115 52.36 143.105C54.118 134.159 50.753 120.07 50.753 120.07C39.653 107.734 28.058 115.785 27.114 125.546C26.9276 127.492 26.9226 129.451 27.099 131.398C29.5 122.813 40.1 116.959 50.289 128.282Z" fill="#E88B74"/>
<path id="Vector_35" d="M49.818 148.693C40.362 158.149 25.3061 144.245 27.1181 125.546C28.0621 115.785 39.658 107.734 50.757 120.07C50.753 120.07 56.1 142.415 49.818 148.693Z" stroke="#39294E" stroke-width="2.80384" stroke-linejoin="round"/>
<path id="Vector_36" d="M43.413 134.529C43.0737 133.5 42.6304 132.509 42.09 131.57C41.5691 130.623 40.9125 129.757 40.141 129C39.4024 128.272 38.5003 127.731 37.51 127.423C36.4791 127.187 35.405 127.219 34.39 127.516L34.325 127.531C34.1766 127.566 34.0203 127.544 33.8879 127.468C33.7555 127.392 33.6569 127.269 33.6122 127.123C33.5675 126.977 33.58 126.82 33.6472 126.683C33.7144 126.546 33.8313 126.44 33.974 126.386C35.1904 125.876 36.5188 125.692 37.828 125.852C39.1435 126.092 40.3813 126.647 41.435 127.47C42.4536 128.261 43.3511 129.197 44.099 130.248C44.862 131.282 45.5145 132.393 46.046 133.563C46.1889 133.901 46.194 134.282 46.0599 134.624C45.9258 134.966 45.6634 135.241 45.3286 135.392C44.9938 135.543 44.6133 135.557 44.2685 135.431C43.9236 135.305 43.6417 135.049 43.483 134.718C43.461 134.668 43.442 134.618 43.425 134.567L43.413 134.529Z" fill="#39294E"/>
<path id="Vector_37" d="M191.72 148.693C201.176 158.149 216.233 144.245 214.42 125.546C213.476 115.785 201.88 107.734 190.781 120.07C190.785 120.07 185.442 142.415 191.72 148.693Z" fill="#FFAB91"/>
<path id="Vector_38" d="M190.785 125.978C201.885 113.642 213.485 121.692 214.424 131.454C214.424 131.473 214.424 131.493 214.424 131.512C214.613 129.528 214.613 127.53 214.424 125.546C213.48 115.785 201.884 107.734 190.785 120.07C190.785 120.07 188.149 131.113 188.762 139.854C189.077 135.183 189.753 130.544 190.785 125.978V125.978Z" fill="#E88B74"/>
<path id="Vector_39" d="M191.72 148.693C201.176 158.149 216.233 144.245 214.42 125.546C213.476 115.785 201.88 107.734 190.781 120.07C190.785 120.07 185.442 142.415 191.72 148.693Z" stroke="#39294E" stroke-width="2.80384" stroke-linejoin="round"/>
<path id="Vector_40" d="M195.482 133.6C195.965 132.51 196.571 131.478 197.288 130.525C197.989 129.573 198.811 128.718 199.735 127.981C200.687 127.248 201.774 126.71 202.935 126.4C204.084 126.131 205.279 126.115 206.435 126.353C206.555 126.374 206.663 126.439 206.737 126.535C206.811 126.631 206.846 126.752 206.835 126.873C206.824 126.994 206.768 127.107 206.678 127.189C206.588 127.27 206.471 127.315 206.349 127.314H206.293C205.298 127.253 204.302 127.406 203.372 127.763C202.478 128.148 201.668 128.703 200.988 129.399C200.311 130.121 199.731 130.927 199.263 131.799C198.792 132.655 198.416 133.561 198.143 134.499L198.135 134.526C198.087 134.704 198.004 134.871 197.891 135.017C197.778 135.164 197.637 135.286 197.477 135.378C197.317 135.47 197.14 135.529 196.957 135.553C196.774 135.577 196.588 135.564 196.409 135.516C196.231 135.467 196.064 135.384 195.918 135.271C195.772 135.158 195.649 135.018 195.557 134.858C195.465 134.697 195.406 134.521 195.382 134.337C195.359 134.154 195.372 133.968 195.42 133.79C195.437 133.725 195.457 133.662 195.482 133.6V133.6Z" fill="#39294E"/>
<path id="Vector_41" d="M193.537 113.411C189.653 98.3682 184.136 83.7952 177.084 69.952L120.769 69.263L64.454 69.952C57.4023 83.7956 51.8849 98.3684 48 113.411C41.264 139.23 44.193 179.225 68.544 202.433C84.404 217.549 110.894 221.488 120.768 221.488C130.642 221.488 157.133 217.549 172.993 202.433C197.345 179.225 200.273 139.23 193.537 113.411Z" fill="#FFAB91"/>
<path id="Vector_42" d="M172.994 197.281C157.134 212.397 130.643 216.336 120.769 216.336C110.895 216.336 84.405 212.397 68.545 197.281C52.051 181.561 45.395 158.144 44.903 136.643C44.385 159.474 50.723 185.443 68.545 202.433C84.405 217.549 110.895 221.488 120.769 221.488C130.643 221.488 157.134 217.549 172.994 202.433C190.816 185.447 197.154 159.474 196.635 136.643C196.144 158.144 189.487 181.561 172.994 197.281Z" fill="#E88B74"/>
<path id="Vector_43" d="M48.69 110.841L64.454 69.952L62.954 67.152L79.31 70.423C79.31 70.423 105.01 64.114 105.946 64.114H132.523C134.945 64.114 170.902 67.152 171.603 67.853C172.304 68.554 186.425 90.463 186.425 90.463C186.425 90.463 191.069 100.719 192.363 109.103C144.637 120.651 105.529 83.067 105.529 83.067C105.529 83.067 81.735 82.053 67.801 78.622C63.522 85.443 48.689 110.845 48.689 110.845" fill="#E88B74"/>
<path id="Vector_44" d="M193.537 113.411C189.653 98.3682 184.136 83.7952 177.084 69.952L120.769 69.263L64.454 69.952C57.4023 83.7956 51.8849 98.3684 48 113.411C41.264 139.23 44.193 179.225 68.544 202.433C84.404 217.549 110.894 221.488 120.768 221.488C130.642 221.488 157.133 217.549 172.993 202.433C197.345 179.225 200.273 139.23 193.537 113.411Z" stroke="#39294E" stroke-width="2.80384" stroke-linejoin="round"/>
<path id="Vector_45" d="M129.839 144.067C129.369 143.597 128.795 143.246 128.162 143.044C127.492 142.793 126.802 142.597 126.1 142.457C123.252 141.891 120.319 141.891 117.471 142.457C116.769 142.597 116.079 142.793 115.409 143.044C114.776 143.246 114.2 143.596 113.73 144.065L113.677 144.128C113.62 144.194 113.543 144.239 113.457 144.254C113.371 144.27 113.283 144.255 113.206 144.213C113.13 144.171 113.071 144.104 113.039 144.023C113.006 143.942 113.003 143.852 113.029 143.769C113.363 142.934 113.968 142.236 114.748 141.788C115.445 141.339 116.196 140.98 116.982 140.717C120.098 139.667 123.473 139.667 126.589 140.717C127.375 140.98 128.125 141.339 128.823 141.787C129.603 142.235 130.209 142.933 130.543 143.768C130.57 143.852 130.567 143.942 130.535 144.024C130.502 144.106 130.443 144.173 130.366 144.216C130.289 144.259 130.199 144.273 130.113 144.257C130.027 144.241 129.949 144.195 129.892 144.128L129.839 144.067Z" fill="#39294E"/>
<path id="Vector_46" d="M91.163 156.137C93.0974 157.969 95.2901 159.506 97.671 160.701C100.047 161.933 102.544 162.918 105.121 163.639C115.536 166.506 126.534 166.497 136.944 163.613C139.518 162.889 142.011 161.902 144.382 160.667C146.757 159.471 148.944 157.934 150.873 156.104L150.886 156.091C151.032 155.952 151.226 155.875 151.427 155.875C151.629 155.874 151.823 155.951 151.97 156.089C152.116 156.227 152.205 156.416 152.216 156.618C152.228 156.819 152.163 157.017 152.033 157.171C150.142 159.316 147.919 161.142 145.447 162.58C142.99 163.998 140.392 165.155 137.695 166.033C126.853 169.446 115.223 169.437 104.386 166.007C101.692 165.126 99.0976 163.966 96.645 162.546C94.1796 161.107 91.9619 159.281 90.077 157.137C89.9571 156.993 89.8966 156.808 89.9079 156.621C89.9191 156.433 90.0012 156.257 90.1375 156.128C90.2738 155.999 90.454 155.927 90.6417 155.926C90.8294 155.925 91.0104 155.995 91.148 156.123L91.163 156.137Z" fill="#39294E"/>
<path id="Vector_47" d="M93.426 117.851C97.2975 117.851 100.436 114.713 100.436 110.841C100.436 106.969 97.2975 103.831 93.426 103.831C89.5545 103.831 86.416 106.969 86.416 110.841C86.416 114.713 89.5545 117.851 93.426 117.851Z" fill="#39294E"/>
<path id="Vector_48" d="M76.719 103.426C77.5426 101.344 78.8127 99.4685 80.44 97.931C82.0739 96.3685 83.9737 95.1104 86.05 94.216C88.0942 93.332 90.2539 92.7437 92.464 92.469C94.6654 92.1646 96.902 92.2244 99.084 92.646C99.4225 92.7152 99.7258 92.9016 99.9404 93.1724C100.155 93.4432 100.267 93.781 100.257 94.1264C100.247 94.4717 100.116 94.8026 99.8862 95.0606C99.6564 95.3186 99.3429 95.4873 99.001 95.537L98.864 95.556C97.001 95.823 95.008 96.133 93.137 96.529C91.2693 96.9269 89.4315 97.4541 87.637 98.107C85.864 98.7527 84.1658 99.5879 82.572 100.598C80.9388 101.669 79.41 102.891 78.006 104.248L77.943 104.303C77.812 104.419 77.6454 104.488 77.4704 104.497C77.2955 104.506 77.1226 104.455 76.9802 104.354C76.8377 104.252 76.7341 104.104 76.6862 103.936C76.6384 103.767 76.6493 103.588 76.717 103.426H76.719Z" fill="#39294E"/>
<path id="Vector_49" d="M151.255 117.851C155.127 117.851 158.265 114.713 158.265 110.841C158.265 106.969 155.127 103.831 151.255 103.831C147.383 103.831 144.245 106.969 144.245 110.841C144.245 114.713 147.383 117.851 151.255 117.851Z" fill="#39294E"/>
<path id="Vector_50" d="M166.501 101.729L147.926 95.069" stroke="#39294E" stroke-width="4.20576" stroke-linecap="round" stroke-linejoin="round"/>
<path id="Vector_51" d="M113.935 64.11C113.935 64.11 97.291 71.671 119.359 83.737C135.01 92.295 178.728 114.261 196.673 105.849C214.618 97.437 203.53 81.401 200.258 78.13C196.053 82.335 123.345 73.521 113.935 64.11Z" fill="#C65258"/>
<g id="Vector_52" style="mix-blend-mode:multiply" opacity="0.22">
<path d="M193.394 97.8C200.938 94.264 204.024 89.56 204.733 84.826C203.606 82.3693 202.096 80.1076 200.258 78.126C196.053 82.331 123.345 73.517 113.935 64.106C113.935 64.106 109.974 72.691 113.38 79.39C155.423 101.729 174.22 106.791 193.394 97.8Z" fill="#C65258"/>
</g>
<path id="Vector_53" d="M113.935 64.11C113.935 64.11 97.291 71.671 119.359 83.737C135.01 92.295 178.728 114.261 196.673 105.849C214.618 97.437 203.53 81.401 200.258 78.13C196.053 82.335 123.345 73.521 113.935 64.11Z" stroke="#39294E" stroke-width="2.80384" stroke-linejoin="round"/>
<path id="Vector_54" d="M199.818 87.943C186.329 95.069 161.568 85.373 132.641 80.466C103.714 75.559 45.859 74.858 34.431 56.634C23.003 38.41 38.9481 -1.74003 82.2861 2.65997C123.713 6.86497 159.61 22.52 199.818 46.82C217.648 57.6 212.154 81.426 199.818 87.943Z" fill="#814F5A"/>
<g id="Vector_55" style="mix-blend-mode:multiply" opacity="0.13">
<path d="M200.844 72.2C187.653 79.169 163.439 69.687 135.15 64.888C106.861 60.089 50.285 59.405 39.109 41.582C36.197 36.938 35.12 30.834 35.844 24.428C29.718 35.528 29.234 48.348 34.431 56.635C45.859 74.86 103.714 75.561 132.641 80.468C161.568 85.375 186.329 95.068 199.818 87.945C208.13 83.554 213.318 71.305 210.38 60.484C208.494 65.619 205.086 69.957 200.844 72.2Z" fill="#814F5A"/>
</g>
<path id="Vector_56" d="M199.818 87.943C186.329 95.069 161.568 85.373 132.641 80.466C103.714 75.559 45.859 74.858 34.431 56.634C23.003 38.41 38.9481 -1.74003 82.2861 2.65997C123.713 6.86497 159.61 22.52 199.818 46.82C217.648 57.6 212.154 81.426 199.818 87.943Z" stroke="#39294E" stroke-width="2.80384" stroke-linejoin="round"/>
<path id="Vector_57" d="M84.982 243.661C92.891 247.188 103.759 280.31 110.298 310.536C118.992 350.721 121.729 414.426 105.414 417.945C84.014 422.562 55.039 409.463 55.039 403.945C55.039 398.427 70.839 354.638 67.13 314.736C63.624 276.984 55.039 256.774 55.039 253.548C55.039 250.322 79.029 241.006 84.982 243.661Z" fill="#EE406D"/>
<g id="Vector_58" style="mix-blend-mode:multiply" opacity="0.3">
<path d="M68.8 318.743C65.294 280.991 56.709 260.781 56.709 257.556C56.709 254.331 80.699 245.018 86.653 247.673C89.553 248.965 92.844 254.239 96.177 261.873C92.284 252.089 88.364 245.165 84.983 243.658C79.029 241.002 55.04 250.315 55.04 253.54C55.04 256.765 63.625 276.976 67.131 314.728C70.831 354.628 55.04 398.414 55.04 403.937C55.04 404.754 55.687 405.737 56.84 406.804C58.261 398 72.318 356.635 68.8 318.743Z" fill="#EE406D"/>
</g>
<g id="Vector_59" style="mix-blend-mode:multiply" opacity="0.3">
<path d="M73.988 315.344C70.0119 293.892 63.7772 272.921 55.388 252.781C55.1927 252.991 55.0703 253.258 55.039 253.543C55.039 256.769 63.624 276.979 67.13 314.731C70.83 354.631 55.039 398.417 55.039 403.94C55.039 406.494 61.239 410.666 70.017 413.959C69.705 407.137 82.1 358.18 73.988 315.344Z" fill="#EE406D"/>
</g>
<path id="Vector_60" d="M84.982 243.661C92.891 247.188 103.759 280.31 110.298 310.536C118.992 350.721 121.729 414.426 105.414 417.945C84.014 422.562 55.039 409.463 55.039 403.945C55.039 398.427 70.839 354.638 67.13 314.736C63.624 276.984 55.039 256.774 55.039 253.548C55.039 250.322 79.029 241.006 84.982 243.661Z" stroke="#39294E" stroke-width="2.80384" stroke-linejoin="round"/>
<path id="Vector_61" d="M156.3 244.5C148.392 248.027 137.524 281.149 130.985 311.375C122.291 351.56 119.554 415.265 135.869 418.785C157.269 423.401 186.244 410.303 186.244 404.785C186.244 399.267 170.444 355.478 174.153 315.575C177.659 277.823 186.244 257.613 186.244 254.388C186.244 251.163 162.251 241.843 156.3 244.5Z" fill="#EE406D"/>
<g id="Vector_62" style="mix-blend-mode:multiply" opacity="0.3">
<path d="M174.15 315.568C177.656 277.816 186.241 257.606 186.241 254.381C186.241 251.156 162.251 241.843 156.297 244.498C155.695 244.787 155.141 245.166 154.653 245.621C164.453 246.888 180.553 253.696 180.553 256.421C180.553 259.852 171.422 281.348 167.693 321.503C164.35 357.497 175.923 396.449 179.517 411.04C183.672 408.726 186.241 406.417 186.241 404.777C186.241 399.255 170.445 355.47 174.15 315.568Z" fill="#EE406D"/>
</g>
<path id="Vector_63" d="M156.3 244.5C148.392 248.027 137.524 281.149 130.985 311.375C122.291 351.56 119.554 415.265 135.869 418.785C157.269 423.401 186.244 410.303 186.244 404.785C186.244 399.267 170.444 355.478 174.153 315.575C177.659 277.823 186.244 257.613 186.244 254.388C186.244 251.163 162.251 241.843 156.3 244.5Z" stroke="#39294E" stroke-width="2.80384" stroke-linejoin="round"/>
<path id="Vector_64" d="M179.817 339.065C185.153 347.397 196.393 357.788 210.717 349.555C222.494 342.784 227.537 327.645 231.438 312.848C238.111 287.536 223.491 284.689 223.491 284.689C223.491 284.689 210.68 290.137 208.915 292C207.15 293.863 205.383 293.125 202.188 301C198.993 308.875 199.664 320.834 199.664 320.834C199.664 320.834 197.207 294.06 196.825 287.317C195.643 266.427 185.69 254.17 183.561 256.417C181.432 258.664 159.562 307.443 179.817 339.065Z" fill="white"/>
<path id="Vector_65" d="M196.652 285C196.075 277.14 193.87 269.487 190.177 262.525C190.732 265.451 191.094 268.411 191.26 271.385C191.641 278.128 194.098 304.903 194.098 304.903C194.098 304.903 193.428 292.944 196.623 285.068L196.652 285Z" fill="#EFEFEF"/>
<path id="Vector_66" d="M227.563 286.77C227.348 290.201 226.78 293.601 225.868 296.916C221.968 311.716 216.925 326.852 205.148 333.623C190.827 341.857 179.588 331.465 174.248 323.133C173.634 322.175 173.062 321.199 172.524 320.211C173.724 326.904 176.199 333.305 179.814 339.065C185.15 347.397 196.39 357.788 210.714 349.555C222.49 342.784 227.533 327.645 231.434 312.848C235.68 296.744 231.307 289.74 227.563 286.77Z" fill="#EFEFEF"/>
<path id="Vector_67" d="M179.817 339.065C185.153 347.397 196.393 357.788 210.717 349.555C222.494 342.784 227.537 327.645 231.438 312.848C238.111 287.536 223.491 284.689 223.491 284.689C223.491 284.689 210.68 290.137 208.915 292C207.15 293.863 205.383 293.125 202.188 301C198.993 308.875 199.664 320.834 199.664 320.834C199.664 320.834 197.207 294.06 196.825 287.317C195.643 266.427 185.69 254.17 183.561 256.417C181.432 258.664 159.562 307.443 179.817 339.065Z" stroke="#39294E" stroke-width="2.80384" stroke-linejoin="round"/>
<path id="Vector_68" d="M109.3 467.017C109.3 467.017 119.131 472.277 132.359 465.264" stroke="#39294E" stroke-width="2.80384" stroke-linecap="round" stroke-linejoin="round"/>
<path id="Vector_69" d="M18.863 430.739C14.179 423.961 2.18996 402.194 7.91796 379.539C16.518 345.509 58.787 317.939 92.191 318.159C121.02 318.346 121.02 318.346 163.903 330.498C160.112 374.907 160.112 374.907 150.097 401.941C138.491 433.265 97.765 463.059 62.897 459.078C39.671 456.424 23.547 437.516 18.863 430.739Z" fill="#FBAD62"/>
<g id="Vector_70" style="mix-blend-mode:multiply" opacity="0.4">
<path d="M9.59998 361.2C9.59998 361.2 13.135 380.834 21.834 389.533C26.647 394.345 30.141 396.294 32.302 397.074C32.6225 397.184 32.9628 397.225 33.3002 397.193C33.6377 397.162 33.9646 397.059 34.2592 396.892C34.5539 396.725 34.8096 396.496 35.0094 396.223C35.2092 395.949 35.3485 395.636 35.418 395.304L36.675 389.533C36.675 389.533 53.394 391.087 61.359 389.533C66.325 394.498 75 396.588 84.349 394.305C92.775 392.247 117.249 377.437 117.249 374.068C117.249 370.699 54.884 368.796 54.884 368.796L9.59998 361.2Z" fill="#FBAD62"/>
</g>
<g id="Vector_71" style="mix-blend-mode:multiply" opacity="0.4">
<path d="M151.091 387.209C139.485 418.533 98.76 448.328 63.891 444.346C40.67 441.696 24.546 422.787 19.862 416.01C16.334 410.905 8.66201 397.295 7.54101 381.21C2.78901 403.26 14.299 424.132 18.868 430.743C23.552 437.52 39.676 456.428 62.897 459.079C97.77 463.06 138.497 433.266 150.097 401.942C160.113 374.9 160.113 374.9 163.9 330.5L163.628 330.423C160.952 360.592 159.86 363.54 151.091 387.209Z" fill="#FBAD62"/>
</g>
<path id="Vector_72" d="M18.863 430.739C14.179 423.961 2.18996 402.194 7.91796 379.539C16.518 345.509 58.787 317.939 92.191 318.159C121.02 318.346 121.02 318.346 163.903 330.498C160.112 374.907 160.112 374.907 150.097 401.941C138.491 433.265 97.765 463.059 62.897 459.078C39.671 456.424 23.547 437.516 18.863 430.739Z" stroke="#39294E" stroke-width="2.80384" stroke-linecap="round" stroke-linejoin="round"/>
<path id="Vector_73" d="M126.348 372.987L110.879 350.606L257.327 252.709L269.69 270.597L126.348 372.987Z" fill="#B55957"/>
<g id="Vector_74" style="mix-blend-mode:multiply" opacity="0.3">
<path d="M265.228 264.14L124.728 364.5L113.783 348.664L110.879 350.606L126.348 372.987L269.69 270.597L265.228 264.14Z" fill="#B55957"/>
</g>
<path id="Vector_75" d="M126.348 372.987L110.879 350.606L257.327 252.709L269.69 270.597L126.348 372.987Z" stroke="#39294E" stroke-width="2.80384" stroke-linecap="round" stroke-linejoin="round"/>
<path id="Vector_76" d="M65.417 423.605C55.4651 413.887 47.4908 402.333 41.935 389.581C41.598 388.633 43.481 387.332 44.248 387.981C54.2133 397.686 62.203 409.23 67.775 421.975C68.181 423.1 66.327 424.382 65.417 423.605Z" fill="#39294E"/>
<path id="Vector_77" d="M123.159 389.617C131.111 384.121 131.074 370.285 123.077 358.713C115.079 347.142 102.149 342.217 94.1972 347.713C86.245 353.209 86.2817 367.045 94.2792 378.616C102.277 390.188 115.206 395.113 123.159 389.617Z" fill="#5F2E50"/>
<path id="Vector_78" d="M123.776 379.169C115.824 384.669 104.057 381.423 94.897 368.169C91.9651 364.113 89.9123 359.489 88.87 354.594C86.54 360.864 87.963 369.477 94.279 378.616C103.44 391.87 115.206 395.116 123.158 389.616C128.258 386.092 130.53 379.823 129.103 372.289C128.084 375.079 126.222 377.484 123.776 379.169V379.169Z" fill="#39294E"/>
<path id="Vector_79" d="M123.159 389.617C131.111 384.121 131.074 370.285 123.077 358.713C115.079 347.142 102.149 342.217 94.1972 347.713C86.245 353.209 86.2817 367.045 94.2792 378.616C102.277 390.188 115.206 395.113 123.159 389.617Z" stroke="#39294E" stroke-width="2.80384" stroke-linecap="round" stroke-linejoin="round"/>
<path id="Vector_80" d="M268.105 226.759L271.858 233.195" stroke="#39294E" stroke-width="4.20576" stroke-linecap="round" stroke-linejoin="round"/>
<path id="Vector_81" d="M272.589 223.678L271.792 222.313C271.245 221.375 270.042 221.058 269.104 221.605L263.128 225.089C262.19 225.636 261.873 226.84 262.42 227.778L263.217 229.143C263.764 230.081 264.968 230.398 265.906 229.851L271.881 226.367C272.819 225.82 273.136 224.616 272.589 223.678Z" fill="#39294E"/>
<path id="Vector_82" d="M250.602 233.613L255.806 242.621" stroke="#39294E" stroke-width="4.20576" stroke-linecap="round" stroke-linejoin="round"/>
<path id="Vector_83" d="M255.087 230.533L254.291 229.167C253.744 228.229 252.54 227.912 251.602 228.459L245.627 231.943C244.689 232.49 244.372 233.694 244.919 234.632L245.716 235.998C246.263 236.936 247.466 237.253 248.404 236.706L254.38 233.222C255.317 232.675 255.634 231.471 255.087 230.533Z" fill="#39294E"/>
<path id="Vector_84" d="M297.774 269.687L293.08 263.901" stroke="#39294E" stroke-width="4.20576" stroke-linecap="round" stroke-linejoin="round"/>
<path id="Vector_85" d="M293.82 273.416L294.817 274.644C295.501 275.487 296.739 275.616 297.582 274.932L302.953 270.574C303.797 269.89 303.926 268.652 303.242 267.809L302.246 266.581C301.561 265.738 300.323 265.609 299.48 266.293L294.109 270.651C293.265 271.335 293.136 272.573 293.82 273.416Z" fill="#39294E"/>
<path id="Vector_86" d="M285.176 283.637L278.589 275.585" stroke="#39294E" stroke-width="4.20576" stroke-linecap="round" stroke-linejoin="round"/>
<path id="Vector_87" d="M281.222 287.367L282.218 288.595C282.903 289.438 284.141 289.567 284.984 288.883L290.355 284.525C291.199 283.841 291.328 282.603 290.644 281.76L289.647 280.532C288.963 279.689 287.725 279.56 286.882 280.244L281.511 284.602C280.667 285.286 280.538 286.524 281.222 287.367Z" fill="#39294E"/>
<path id="Vector_88" d="M306.054 240.821L298.034 229.221C296.51 226.969 294.195 225.371 291.549 224.743C288.903 224.115 286.118 224.503 283.744 225.83L240.644 251.378C239.754 251.884 238.976 252.566 238.357 253.383C237.738 254.199 237.291 255.132 237.044 256.126L233.608 271.5L243.727 286.141L259.327 288.364C260.344 288.484 261.376 288.396 262.358 288.105C263.34 287.814 264.254 287.327 265.042 286.673L304.175 255.386C306.255 253.635 307.603 251.166 307.951 248.469C308.299 245.772 307.622 243.043 306.054 240.821V240.821Z" fill="#FBAD62"/>
<g id="Vector_89" style="mix-blend-mode:multiply" opacity="0.4">
<path d="M308.027 244.387L306.054 240.821C306.431 243.943 301.348 247.709 298.486 249.736L259.352 277.453C257.697 278.64 255.662 279.174 253.638 278.953L238.038 276.983L234.014 271.825L233.608 273.434L243.727 286.4L259.327 288.369C261.352 288.591 263.387 288.057 265.042 286.869L302.08 257.057C306.4 254 311.239 248.5 308.027 244.387Z" fill="#FBAD62"/>
</g>
<path id="Vector_90" d="M306.054 240.821L298.034 229.221C296.51 226.969 294.195 225.371 291.549 224.743C288.903 224.115 286.118 224.503 283.744 225.83L240.644 251.378C239.754 251.884 238.976 252.566 238.357 253.383C237.738 254.199 237.291 255.132 237.044 256.126L233.608 271.5L243.727 286.141L259.327 288.364C260.344 288.484 261.376 288.396 262.358 288.105C263.34 287.814 264.254 287.327 265.042 286.673L304.175 255.386C306.255 253.635 307.603 251.166 307.951 248.469C308.299 245.772 307.622 243.043 306.054 240.821V240.821Z" stroke="#39294E" stroke-width="4.20576" stroke-linecap="round" stroke-linejoin="round"/>
<path id="Vector_91" d="M6.56104 419.032C9.21265 430.195 15.9574 439.956 25.461 446.384C27.0509 443.352 27.7812 439.942 27.5729 436.525C27.3646 433.107 26.2256 429.812 24.2792 426.995C22.3328 424.178 19.6531 421.947 16.5301 420.544C13.4071 419.14 9.95972 418.617 6.56104 419.032V419.032Z" fill="#B55957"/>
<path id="Vector_92" d="M6.56104 419.032C9.21265 430.195 15.9574 439.956 25.461 446.384C27.0509 443.352 27.7812 439.942 27.5729 436.525C27.3646 433.107 26.2256 429.812 24.2792 426.995C22.3328 424.178 19.6531 421.947 16.5301 420.544C13.4071 419.14 9.95972 418.617 6.56104 419.032V419.032Z" stroke="#39294E" stroke-width="2.80384" stroke-linecap="round" stroke-linejoin="round"/>
<path id="Vector_93" d="M110.332 368.794C113.064 367.82 114.752 363.952 113.632 360.53C112.572 357.288 108.232 357.807 108.232 357.807C108.232 357.807 112.526 350.454 106.286 347.766C101.515 345.71 82.186 362.308 78.741 356.4C81.1848 351.401 82.0688 345.783 81.278 340.276C74.971 333.969 64.309 350.104 64.309 362.748C52.15 362.663 41.689 358.578 37.666 350.295L25.7 376.129C35.717 382.051 46.256 385.351 63.389 383.163C67.217 390.304 82.331 388.963 91.879 386.527C103.426 383.584 109.502 380.701 112.696 376.818C116.107 372.672 113.837 368.794 110.332 368.794Z" fill="#FFAB91"/>
<path id="Vector_94" d="M113.973 363.116C113.487 363.624 112.892 364.016 112.234 364.264C112.753 364.265 113.268 364.358 113.754 364.54C113.873 364.073 113.946 363.597 113.973 363.116Z" fill="#E88B74"/>
<path id="Vector_95" d="M93.782 382C84.234 384.434 69.12 385.777 65.292 378.636C48.247 380.813 37.729 377.556 27.758 371.691L25.701 376.133C35.718 382.055 46.257 385.355 63.39 383.167C67.218 390.308 82.332 388.967 91.88 386.531C103.427 383.588 109.503 380.705 112.697 376.822C113.767 375.655 114.364 374.132 114.37 372.549C111.12 376.3 105.069 379.119 93.782 382Z" fill="#E88B74"/>
<path id="Vector_96" d="M67.957 348.532C66.4257 351.576 65.339 354.824 64.73 358.176C65.221 358.193 65.71 358.213 66.208 358.217C66.2625 354.915 66.8532 351.644 67.957 348.532V348.532Z" fill="#E88B74"/>
<path id="Vector_97" d="M110.332 368.794C113.064 367.82 114.752 363.952 113.632 360.53C112.572 357.288 108.232 357.807 108.232 357.807C108.232 357.807 112.526 350.454 106.286 347.766C101.515 345.71 82.186 362.308 78.741 356.4C81.1848 351.401 82.0688 345.783 81.278 340.276C74.971 333.969 64.309 350.104 64.309 362.748C52.15 362.663 41.689 358.578 37.666 350.295L25.7 376.129C35.717 382.051 46.256 385.351 63.389 383.163C67.217 390.304 82.331 388.963 91.879 386.527C103.426 383.584 109.502 380.701 112.696 376.818C116.107 372.672 113.837 368.794 110.332 368.794Z" stroke="#39294E" stroke-width="2.80384" stroke-linejoin="round"/>
<g id="Vector_98">
<path d="M93.2 364.589C100.714 363.079 108.227 357.807 108.227 357.807Z" fill="#FFAB91"/>
<path d="M93.2 364.589C100.714 363.079 108.227 357.807 108.227 357.807" stroke="#39294E" stroke-width="2.80384" stroke-linecap="round" stroke-linejoin="round"/>
</g>
<g id="Vector_99">
<path d="M95.222 374.066C102.039 373.413 110.332 368.794 110.332 368.794Z" fill="#FFAB91"/>
<path d="M95.222 374.066C102.039 373.413 110.332 368.794 110.332 368.794" stroke="#39294E" stroke-width="2.80384" stroke-linecap="round" stroke-linejoin="round"/>
</g>
<path id="Vector_100" d="M44.875 354.282C43.19 352.76 41.775 352.436 39.238 349.061C20.484 324.128 53.538 295.697 64.91 296.623C73.086 267.953 55.623 256.329 55.623 256.329C17.705 274.719 -4.677 307.585 3.73 350.291C7.289 368.374 17.185 380.463 33.544 385.346C34.494 376.231 41.341 363.591 44.875 354.282Z" fill="white"/>
<path id="Vector_101" d="M6.67802 339.98C4.37224 328.913 4.32801 317.493 6.54801 306.408C1.77401 319.47 0.558018 334.179 3.73002 350.291C7.28902 368.374 17.185 380.463 33.544 385.346C34.0323 381.787 34.942 378.299 36.254 374.955C20.041 370.025 10.22 357.973 6.67802 339.98Z" fill="#EFEFEF"/>
<path id="Vector_102" d="M36.678 320.068C43.116 306.334 58.004 296.061 64.91 296.623C65.8875 293.255 66.5487 289.802 66.885 286.311C57.829 286.771 38.427 302.194 36.678 320.068Z" fill="#EFEFEF"/>
<path id="Vector_103" d="M36.658 373.854C39.203 367.141 42.678 360.068 44.875 354.282C44.519 353.961 44.175 353.697 43.831 353.442C40.792 360.367 37.583 367.782 36.658 373.854Z" fill="#EFEFEF"/>
<path id="Vector_104" d="M44.875 354.282C43.19 352.76 41.775 352.436 39.238 349.061C20.484 324.128 53.538 295.697 64.91 296.623C73.086 267.953 55.623 256.329 55.623 256.329C17.705 274.719 -4.677 307.585 3.73 350.291C7.289 368.374 17.185 380.463 33.544 385.346C34.494 376.231 41.341 363.591 44.875 354.282Z" stroke="#39294E" stroke-width="2.80384" stroke-linejoin="round"/>
<path id="Vector_105" d="M207.856 300.41C211.985 310.192 213.849 311.474 209.688 315.635C207.971 317.351 213.404 319.942 217.128 317.947C220.852 315.952 222.856 313.97 222.856 310.228C222.856 308.797 221.919 297.707 218.694 294.881C214.191 290.933 204.7 292.923 207.856 300.41Z" fill="#FFAB91"/>
<path id="Vector_106" d="M221.84 302.383C221.034 303.263 221.34 304.752 218.862 307.233C216.834 309.261 213.224 309.658 211.686 309.416C212.446 311.898 211.998 313.325 209.686 315.635C207.969 317.351 213.402 319.942 217.126 317.947C218.604 317.222 219.945 316.245 221.089 315.062C221.294 311.614 221.69 308.181 222.276 304.777C222.155 304 222.01 303.2 221.84 302.383Z" fill="#E88B74"/>
<path id="Vector_107" d="M222.191 298.174C222.191 310.246 222.645 313.988 225.291 313.449C227.937 312.91 230.357 312.171 231.305 310.74C232.253 309.309 233.918 306.815 233.605 300.192C233.535 296.416 233.03 292.66 232.1 289C231.294 285.035 222.191 285.483 222.191 298.174Z" fill="#FFAB91"/>
<path id="Vector_108" d="M222.288 305.254C222.521 311.732 223.259 313.863 225.294 313.449C227.944 312.911 230.36 312.171 231.308 310.74C232.256 309.309 233.921 306.815 233.608 300.192C233.592 299.852 233.576 299.538 233.559 299.228C227.967 308.26 223.087 305.558 222.288 305.254Z" fill="#E88B74"/>
<path id="Vector_109" d="M240.376 282.35C236.895 282.337 234.342 285.581 234.676 294.199C235.151 306.575 236.176 307.375 239.185 307.217C244.023 306.964 245.913 292.896 245.522 290.084C244.344 281.652 243.005 282.36 240.376 282.35Z" fill="#FFAB91"/>
<path id="Vector_110" d="M244.737 297.8C241.47 299.3 237.298 301.133 234.911 298.746C235.477 306.76 236.597 307.354 239.181 307.218C241.972 307.071 243.781 302.328 244.737 297.8Z" fill="#E88B74"/>
<path id="Vector_111" d="M207.856 300.41C211.985 310.192 213.849 311.474 209.688 315.635C207.971 317.351 213.404 319.942 217.128 317.947C220.852 315.952 222.856 313.97 222.856 310.228C222.856 308.797 221.919 297.707 218.694 294.881C214.191 290.933 204.7 292.923 207.856 300.41Z" stroke="#39294E" stroke-width="2.80384" stroke-linejoin="round"/>
<path id="Vector_112" d="M222.191 298.174C222.191 310.246 222.645 313.988 225.291 313.449C227.937 312.91 230.357 312.171 231.305 310.74C232.253 309.309 233.918 306.815 233.605 300.192C233.535 296.416 233.03 292.66 232.1 289C231.294 285.035 222.191 285.483 222.191 298.174Z" stroke="#39294E" stroke-width="2.80384" stroke-linejoin="round"/>
<path id="Vector_113" d="M240.376 282.35C236.895 282.337 234.342 285.581 234.676 294.199C235.151 306.575 236.176 307.375 239.185 307.217C244.023 306.964 245.913 292.896 245.522 290.084C244.344 281.652 243.005 282.36 240.376 282.35Z" stroke="#39294E" stroke-width="2.80384" stroke-linejoin="round"/>
<path id="Vector_114" d="M214.308 268.155C213.534 272.755 207.79 281.155 208.625 285.265C213.259 282.339 220.325 279.689 224.575 272.565C226.383 269.538 226.147 263.02 223.296 260.946C219.61 258.268 214.991 264.094 214.308 268.155Z" fill="#FFAB91" stroke="#39294E" stroke-width="2.80384" stroke-linejoin="round"/>
<path id="Vector_115" opacity="0.6" d="M57.028 18.828C53.044 21.651 48.076 26.8 46.979 33.64" stroke="white" stroke-width="2.80384" stroke-linecap="round" stroke-linejoin="round"/>
<path id="Vector_116" opacity="0.6" d="M63.523 15.663C62.6595 15.9687 61.8147 16.325 60.993 16.73" stroke="white" stroke-width="2.80384" stroke-linecap="round" stroke-linejoin="round"/>
<path id="Vector_117" d="M107.757 182.819C109.836 181.841 112.032 181.135 114.292 180.719C116.541 180.274 118.827 180.045 121.12 180.034C122.267 180.017 123.42 180.103 124.559 180.167C125.699 180.332 126.846 180.4 127.967 180.676C130.223 181.101 132.413 181.819 134.483 182.813C134.593 182.864 134.681 182.953 134.732 183.063C134.783 183.174 134.793 183.299 134.76 183.416C134.727 183.532 134.654 183.634 134.553 183.702C134.452 183.77 134.331 183.8 134.21 183.786H134.182C131.955 183.544 129.811 183.197 127.635 183.066C125.47 182.896 123.305 182.8 121.135 182.84C116.766 182.884 112.403 183.2 108.073 183.785H108.043C107.922 183.8 107.8 183.771 107.699 183.705C107.597 183.638 107.522 183.537 107.488 183.421C107.453 183.304 107.461 183.179 107.51 183.068C107.559 182.957 107.646 182.866 107.755 182.813L107.757 182.819Z" fill="#E88B74"/>
<path id="Vector_118" d="M151.559 150.416C152.357 150.629 153.109 150.984 153.78 151.465C154.459 151.931 155.071 152.488 155.598 153.12C156.132 153.75 156.572 154.454 156.905 155.21C157.247 155.956 157.457 156.756 157.526 157.574C157.531 157.632 157.516 157.689 157.485 157.738C157.453 157.786 157.406 157.823 157.351 157.841C157.297 157.86 157.237 157.86 157.183 157.841C157.128 157.822 157.081 157.785 157.05 157.736L157.04 157.721C156.619 157.054 156.271 156.397 155.846 155.786C155.444 155.17 155.002 154.581 154.525 154.021C153.558 152.884 152.494 151.833 151.346 150.879L151.328 150.863C151.284 150.825 151.255 150.773 151.244 150.716C151.233 150.659 151.241 150.6 151.268 150.549C151.295 150.497 151.338 150.456 151.391 150.432C151.443 150.408 151.503 150.402 151.559 150.416V150.416Z" fill="#39294E"/>
<path id="Vector_119" d="M82.685 158.048C82.8979 157.251 83.2533 156.499 83.734 155.828C84.2 155.149 84.7569 154.538 85.389 154.01C86.0195 153.476 86.7233 153.036 87.479 152.703C88.2254 152.361 89.0251 152.151 89.843 152.082C89.9006 152.077 89.9583 152.092 90.0067 152.123C90.0552 152.155 90.0916 152.202 90.1103 152.257C90.1289 152.311 90.1287 152.371 90.1096 152.425C90.0905 152.48 90.0537 152.527 90.005 152.558L89.99 152.568C89.323 152.989 88.666 153.337 88.055 153.762C87.4393 154.164 86.8498 154.606 86.29 155.083C85.1532 156.05 84.102 157.114 83.148 158.262L83.132 158.28C83.0939 158.324 83.0421 158.354 82.985 158.365C82.9278 158.376 82.8687 158.367 82.8171 158.34C82.7655 158.313 82.7244 158.27 82.7005 158.217C82.6765 158.164 82.671 158.104 82.685 158.048V158.048Z" fill="#39294E"/>
</g>
</svg>
