<svg width="766" height="620" viewBox="0 0 766 620" fill="none" xmlns="http://www.w3.org/2000/svg">
<g id="noOfProject">
<path id="XMLID_1_" opacity="0.34" d="M686.5 619.9H67.3C59.4 619.9 53 613.5 53 605.6C53 597.7 59.4 591.3 67.3 591.3H686.5C694.4 591.3 700.8 597.7 700.8 605.6C700.8 613.5 694.4 619.9 686.5 619.9Z" fill="black"/>
<path id="XMLID_28_" d="M732 431.5H606.1C593.3 431.5 582.9 421.1 582.9 408.3C582.9 395.5 593.3 385.1 606.1 385.1H676.4C691.6 385.1 703.9 372.8 703.9 357.6C703.9 342.4 691.6 330.1 676.4 330.1H613.9C596.8 330.1 582.9 316.2 582.9 299.1C582.9 282 596.8 268.1 613.9 268.1H683.4C698.6 268.1 711 255.7 711 240.5C711 225.3 698.6 212.9 683.4 212.9H583H559C543.8 212.9 531.4 200.5 531.4 185.3C531.4 170.1 543.8 157.7 559 157.7H586.2C601.4 157.7 613.8 145.3 613.8 130.1C613.8 114.9 601.4 102.5 586.2 102.5H570.7H568.1H403.8H398.2H226.6H187.3C172.1 102.5 159.7 114.9 159.7 130.1C159.7 145.3 172.1 157.7 187.3 157.7H199C214.2 157.7 226.6 170.1 226.6 185.3C226.6 200.5 214.2 212.9 199 212.9H93.7C82 212.9 72.5 222.4 72.5 234.1C72.5 245.8 82 255.3 93.7 255.3H204.6C216.8 255.3 226.7 265.2 226.7 277.4C226.7 289.6 216.8 299.5 204.6 299.5H27.6C12.4 299.5 0 311.9 0 327.1C0 342.3 12.4 354.7 27.6 354.7H199C214.2 354.7 226.6 367.1 226.6 382.3C226.6 397.5 214.2 409.9 199 409.9H95.5C71.1 409.9 51.3 429.7 51.3 454.1C51.3 478.5 71.1 498.3 95.5 498.3H226.6H284.8H317.5H583H732C750.4 498.3 765.3 483.4 765.3 465C765.3 446.4 750.4 431.5 732 431.5Z" fill="#65706C"/>
<path id="XMLID_114_" d="M498.408 605.624H516.408V334.824H498.408L498.408 605.624Z" fill="#2F262D"/>
<path id="XMLID_85_" d="M429.9 389.4C427 382.9 429.9 375.2 436.5 372.2C438.2 371.5 440 371.1 441.8 371.1C446.9 371.1 451.6 374.1 453.7 378.8L517.7 523L493.9 533.6L429.9 389.4Z" fill="#FC9F6F"/>
<path id="XMLID_7_" d="M322.905 605.624H340.905L340.905 334.824H322.905L322.905 605.624Z" fill="#2F262D"/>
<path id="XMLID_80_" d="M406.2 352.5C344.3 352.5 294.2 305.3 294.2 247.2C294.2 232.2 297.6 217.9 303.6 204.9C264.2 221.2 236.7 258.3 236.7 301.3C236.7 359.5 286.8 406.6 348.7 406.6C394.6 406.6 434 380.7 451.3 343.6C437.4 349.3 422.2 352.5 406.2 352.5Z" fill="#F2F2F2"/>
<path id="XMLID_15_" d="M344.2 381C378.055 381 405.5 355.794 405.5 324.7C405.5 293.606 378.055 268.4 344.2 268.4C310.345 268.4 282.9 293.606 282.9 324.7C282.9 355.794 310.345 381 344.2 381Z" fill="#3B323A"/>
<path id="XMLID_4_" d="M233.8 334.8H96.7C91.5 334.8 87.2 330.5 87.2 325.3V316.3C87.2 311.1 91.5 306.8 96.7 306.8H233.8C239 306.8 243.3 311.1 243.3 316.3V325.3C243.3 330.5 239 334.8 233.8 334.8Z" fill="#AFAFAF"/>
<path id="XMLID_19_" d="M397.3 281.8C378.1 281.8 362.5 266.2 362.5 247V212.2C362.5 198.9 351.8 188.2 338.5 188.2V247C338.5 279.5 364.8 305.8 397.3 305.8H446V281.8H397.3Z" fill="#EF9067"/>
<path id="XMLID_8_" d="M405.2 98.1C401.6 143.6 361.6 194 324.2 187.6C288.4 181.5 263.8 125 275.9 85.4C283.4 61 304 45.7 320.6 33.4C337.8 20.6 349.4 12 362.6 14.1C388.8 18.1 408.1 61.9 405.2 98.1Z" fill="#603936"/>
<path id="XMLID_30_" d="M354.7 227.6C354 226.8 348.4 220.3 347.4 219.4C344.8 208.7 339.5 196.9 340.6 183.1C333.1 177.6 320.7 170.6 306.6 171.6C302.4 171.9 298 172.9 295.8 173.4C283.6 176.2 275.9 180.7 273.4 182.2C270 184.3 268.3 185.3 266.3 187.3C260.9 192.9 259.6 199.7 258.9 203.7C252.9 238.5 257.6 271.9 258.2 274.8C259.3 280.1 260.8 284.8 260.8 284.8C263.3 292.7 266.3 297.6 267.1 299.8C271.1 310.6 280.2 333.3 289.8 350.6C296.8 351.7 312.7 358.7 323.2 355.1C339.2 349.6 372.2 337.3 384 334.8C369.3 318.3 355.8 299.9 352.3 277.5C351.4 271.7 350.6 266 350 260.4C351.4 259.7 359.9 255.4 361.6 246.8C363.4 237.5 356.1 229.2 354.7 227.6Z" fill="#F05364"/>
<path id="XMLID_48_" d="M318.588 206.492C327.312 204.059 332.087 193.85 329.254 183.69C326.42 173.529 317.051 167.265 308.327 169.698C299.603 172.131 294.828 182.339 297.661 192.5C300.494 202.66 309.863 208.925 318.588 206.492Z" fill="#EF9067"/>
<path id="XMLID_20_" d="M310.9 165.4C316.4 178.4 325.5 182.9 331.3 186.3C342.6 192.9 363.8 192.3 363.8 192.3C364.5 187.7 365.2 183.7 368.8 176.1C374 164.8 378.8 162.1 385.5 151.9C395.5 136.5 400.5 117.9 397.3 116.1C395 114.7 388.7 121.9 384.6 126.1C372.9 138.1 346.7 155.9 310.9 165.4Z" fill="#603936"/>
<path id="XMLID_10_" d="M310.5 194H306.3C297.1 194 289.7 186.6 289.7 177.4V114.3H322.9V181.5C322.9 188.4 317.3 194 310.5 194Z" fill="#EF9067"/>
<path id="XMLID_5_" d="M123.583 605.624H141.583L141.583 334.824H123.583L123.583 605.624Z" fill="#2F262D"/>
<path id="XMLID_96_" d="M234.294 605.624H252.294L252.294 334.824H234.294L234.294 605.624Z" fill="#494149"/>
<path id="XMLID_102_" d="M606.75 605.624H624.75V334.824H606.75V605.624Z" fill="#494149"/>
<path id="XMLID_27_" opacity="0.71" d="M289.7 121C291.9 140.1 305.1 155.9 322.9 161.9V110.5H289.7V121Z" fill="#D36B46"/>
<path id="XMLID_6_" d="M338.5 159.4C314.1 159.4 294.4 139.7 294.4 115.3V61.5C294.4 59.2 296.2 57.4 298.5 57.4H361.2C373 57.4 382.6 67 382.6 78.8V115.3C382.6 139.7 362.9 159.4 338.5 159.4Z" fill="#FC9F6F"/>
<path id="XMLID_29_" d="M382.6 109C382.1 110.2 380.9 111 379.6 111H360.2C358.4 111 356.9 109.5 356.9 107.7V96.8C356.9 95 358.4 93.5 360.2 93.5H379.6C380.9 93.5 382.1 94.3 382.6 95.5V91.3C381.7 90.8 380.7 90.5 379.6 90.5H360.2C356.7 90.5 353.9 93.3 353.9 96.8V107.7C353.9 111.2 356.7 114 360.2 114H379.6C380.7 114 381.7 113.7 382.6 113.2V109Z" fill="#DD9883"/>
<path id="XMLID_13_" d="M343.6 112.4H324.2C321.5 112.4 319.4 110.2 319.4 107.6V96.7C319.4 94 321.6 91.9 324.2 91.9H343.6C346.3 91.9 348.4 94.1 348.4 96.7V107.6C348.4 110.3 346.2 112.4 343.6 112.4Z" stroke="#DD9883" stroke-width="3" stroke-miterlimit="10" stroke-linecap="round" stroke-linejoin="round"/>
<path id="XMLID_36_" opacity="0.6" d="M321.8 123.7V69.9C321.8 67.6 323.6 65.8 325.9 65.8L362.1 53.1C358.2 48 368.1 57.5 361.2 57.5H298.5C296.2 57.5 294.4 59.3 294.4 61.6V115.4C294.4 139.8 314.1 159.5 338.5 159.5C339 159.5 339.5 159.5 340.1 159.5C329 151.4 321.8 138.4 321.8 123.7Z" fill="#EF9067"/>
<path id="XMLID_14_" d="M379.6 110.4H360.2C357.5 110.4 355.4 108.2 355.4 105.6V94.7C355.4 92 357.6 89.9 360.2 89.9H379.6C382.3 89.9 384.4 92.1 384.4 94.7V105.6C384.4 108.3 382.2 110.4 379.6 110.4Z" stroke="#F6CDF7" stroke-width="3" stroke-miterlimit="10" stroke-linecap="round" stroke-linejoin="round"/>
<path id="XMLID_17_" d="M350 137.2C344.4 137.2 339.9 132.7 339.9 127.2V122.5H359.9V127.2C359.9 132.7 355.5 137.2 350 137.2Z" fill="#FCFAFA"/>
<path id="XMLID_11_" d="M331.9 98.9H340.9" stroke="#161515" stroke-width="3" stroke-miterlimit="10" stroke-linecap="round" stroke-linejoin="round"/>
<path id="XMLID_22_" d="M365.9 98.9H374.9" stroke="#161515" stroke-width="3" stroke-miterlimit="10" stroke-linecap="round" stroke-linejoin="round"/>
<path id="XMLID_9_" d="M343.6 110.4H324.2C321.5 110.4 319.4 108.2 319.4 105.6V94.7C319.4 92 321.6 89.9 324.2 89.9H343.6C346.3 89.9 348.4 92.1 348.4 94.7V105.6C348.4 108.3 346.2 110.4 343.6 110.4Z" stroke="#F6CDF7" stroke-width="3" stroke-miterlimit="10" stroke-linecap="round" stroke-linejoin="round"/>
<path id="XMLID_23_" d="M357 16.9C344.9 1.30001 324.3 1.60002 320.5 1.20002C317.1 0.500018 298.4 1.40002 284.7 5.00002C253.1 13.4 231.1 42 231.1 74.8V116.8C231.1 145 251.9 179.2 278.6 188.1C293.4 193.1 309.8 196.9 313.7 196.3C293.9 159.6 296.6 137.9 302.2 125.2C315.6 94.2 354.9 95.3 364.6 60.8C364.8 59.8 370.9 34.9 357 16.9Z" fill="#754743"/>
<path id="XMLID_32_" d="M480.4 305.5C481.4 302.9 481.9 300.1 481.9 297.2C481.9 283.9 471.2 273.2 457.9 273.2C444.6 273.2 433.9 283.9 433.9 297.2C433.9 300.1 434.4 302.9 435.4 305.5H480.4Z" fill="#EF9067"/>
<path id="XMLID_42_" d="M403.4 306.8C401.4 297.6 390.3 290.6 376.8 290.6C363.4 290.6 352.2 297.6 350.2 306.8H403.4Z" fill="#F4EFF0"/>
<path id="XMLID_16_" d="M271.7 236.8C279.763 236.8 286.3 226.547 286.3 213.9C286.3 201.253 279.763 191 271.7 191C263.637 191 257.1 201.253 257.1 213.9C257.1 226.547 263.637 236.8 271.7 236.8Z" fill="#EF9067"/>
<path id="XMLID_24_" d="M315.9 282.6C296.7 282.6 281.1 267 281.1 247.8V205.3C281.1 198.7 275.7 193.3 269.1 193.3C262.5 193.3 257.1 198.7 257.1 205.3V247.8C257.1 280.3 283.4 306.6 315.9 306.6H364.6V282.6H340.2H315.9Z" fill="#FC9F6F"/>
<path id="XMLID_33_" d="M518.1 306.8H406.1C404.7 306.8 403.5 305.6 403.5 304.2C403.5 302.8 404.7 301.6 406.1 301.6H518.2C519.6 301.6 520.8 302.8 520.8 304.2C520.8 305.6 519.6 306.8 518.1 306.8Z" fill="white"/>
<path id="XMLID_76_" d="M518.1 304.2H406.1C405.1 304.2 404.3 303.7 403.8 302.9C403.6 303.3 403.4 303.7 403.4 304.2C403.4 305.6 404.6 306.8 406 306.8H518.1C519.5 306.8 520.7 305.6 520.7 304.2C520.7 303.7 520.6 303.3 520.3 302.9C519.9 303.6 519.1 304.2 518.1 304.2Z" fill="#F4EFF0"/>
<path id="XMLID_70_" d="M427.8 306.8H406.1C404.7 306.8 403.5 305.6 403.5 304.2C403.5 302.8 404.7 301.6 406.1 301.6H427.8C429.2 301.6 430.4 302.8 430.4 304.2C430.4 305.6 429.3 306.8 427.8 306.8Z" fill="#F4EFF0"/>
<g id="XMLID_37_">
<g id="XMLID_148_">
<path id="XMLID_150_" d="M510.2 301.6H502V299.7C502 298.7 502.8 297.8 503.9 297.8H508.3C509.3 297.8 510.2 298.6 510.2 299.7V301.6V301.6Z" fill="#F4EFF0"/>
</g>
<g id="XMLID_145_">
<path id="XMLID_147_" d="M500.2 301.6H492V299.7C492 298.7 492.8 297.8 493.9 297.8H498.3C499.3 297.8 500.2 298.6 500.2 299.7V301.6V301.6Z" fill="#F4EFF0"/>
</g>
<g id="XMLID_142_">
<path id="XMLID_144_" d="M490.2 301.6H482V299.7C482 298.7 482.8 297.8 483.9 297.8H488.3C489.3 297.8 490.2 298.6 490.2 299.7V301.6V301.6Z" fill="#F4EFF0"/>
</g>
<g id="XMLID_139_">
<path id="XMLID_141_" d="M480.2 301.6H472V299.7C472 298.7 472.8 297.8 473.9 297.8H478.3C479.3 297.8 480.2 298.6 480.2 299.7V301.6V301.6Z" fill="#F4EFF0"/>
</g>
<g id="XMLID_136_">
<path id="XMLID_138_" d="M470.2 301.6H462V299.7C462 298.7 462.8 297.8 463.9 297.8H468.3C469.3 297.8 470.2 298.6 470.2 299.7V301.6V301.6Z" fill="#F4EFF0"/>
</g>
<g id="XMLID_133_">
<path id="XMLID_135_" d="M460.2 301.6H452V299.7C452 298.7 452.8 297.8 453.9 297.8H458.3C459.3 297.8 460.2 298.6 460.2 299.7V301.6V301.6Z" fill="#F4EFF0"/>
</g>
<g id="XMLID_130_">
<path id="XMLID_132_" d="M450.2 301.6H442V299.7C442 298.7 442.8 297.8 443.9 297.8H448.3C449.3 297.8 450.2 298.6 450.2 299.7V301.6V301.6Z" fill="#F4EFF0"/>
</g>
<g id="XMLID_127_">
<path id="XMLID_129_" d="M440.2 301.6H432V299.7C432 298.7 432.8 297.8 433.9 297.8H438.3C439.3 297.8 440.2 298.6 440.2 299.7V301.6V301.6Z" fill="#F4EFF0"/>
</g>
<g id="XMLID_124_">
<path id="XMLID_126_" d="M430.2 301.6H422V299.7C422 298.7 422.8 297.8 423.9 297.8H428.3C429.3 297.8 430.2 298.6 430.2 299.7V301.6V301.6Z" fill="#F4EFF0"/>
</g>
<g id="XMLID_121_">
<path id="XMLID_123_" d="M420.2 301.6H412V299.7C412 298.7 412.8 297.8 413.9 297.8H418.3C419.3 297.8 420.2 298.6 420.2 299.7V301.6V301.6Z" fill="#F4EFF0"/>
</g>
</g>
<path id="XMLID_74_" d="M406.1 306.8H427.8C429.2 306.8 430.4 305.6 430.4 304.2H403.4C403.4 305.6 404.6 306.8 406.1 306.8Z" fill="#E2E2E2"/>
<path id="XMLID_71_" d="M415.8 388H336.7L336.1 346H434.1C440.7 346 446 351.3 446 357.9C445.9 374.6 432.4 388 415.8 388Z" fill="#352934"/>
<path id="XMLID_100_" d="M352.2 540.3L400.7 376.3C402.3 370.8 407.4 367 413.2 367C414.4 367 415.7 367.2 416.9 367.5C423.8 369.5 427.7 376.8 425.7 383.7L377.2 547.7L352.2 540.3Z" fill="#EF9067"/>
<path id="XMLID_72_" d="M392.5 526.9L352.2 515L403 343.3C406.3 332.2 418 325.8 429.1 329.1C440.2 332.4 446.6 344.1 443.3 355.2L392.5 526.9Z" fill="#352934"/>
<g id="XMLID_31_">
<path id="XMLID_25_" d="M592.7 258.2H424.7C421.4 258.2 418.7 255.5 418.7 252.2L439.5 132.2C439.5 128.9 442.2 126.2 445.5 126.2H613.5C616.8 126.2 619.5 128.9 619.5 132.2L598.7 252.2C598.7 255.5 596.1 258.2 592.7 258.2Z" fill="#CECECE"/>
<path id="XMLID_26_" d="M602.7 258.2H434.7C431.4 258.2 428.7 255.5 428.7 252.2L449.5 132.2C449.5 128.9 452.2 126.2 455.5 126.2H623.5C626.8 126.2 629.5 128.9 629.5 132.2L608.7 252.2C608.7 255.5 606.1 258.2 602.7 258.2Z" fill="#F4EFF0"/>
<path id="XMLID_41_" d="M551.4 300.3L537.6 230.4H513C510 230.4 507.7 233.2 508.3 236.1L520.5 297.8C521 300.1 519.2 302.2 516.9 302.2H501.9C499.2 302.2 497.1 304.4 497.1 307H522.3H545.7C549.4 307.1 552.1 303.8 551.4 300.3Z" fill="#CECECE"/>
<path id="XMLID_34_" d="M552.7 307.1H527.2L512.4 232.1C512.2 231.2 512.9 230.5 513.8 230.5H542.5L556.7 302.4C557.1 304.8 555.2 307.1 552.7 307.1Z" fill="#F4EFF0"/>
<path id="XMLID_38_" d="M522.4 307.1H527.2L525.9 300.3H521L522.4 307.1Z" fill="#F4EFF0"/>
<path id="XMLID_35_" d="M522.4 307.1C524.9 307.1 526.8 304.8 526.3 302.3L525.9 300.3H520.5L522.4 307.1Z" fill="#CECECE"/>
<path id="XMLID_69_" d="M544.4 194.6C539 194.6 534.6 190.2 534.6 184.8C534.6 183 535.1 181.4 535.9 180C534.5 179.6 533 179.3 531.4 179.3C522.9 179.3 516.1 186.2 516.1 194.6C516.1 203 523 209.9 531.4 209.9C539.9 209.9 546.7 203 546.7 194.6C546.7 194.5 546.7 194.4 546.7 194.3C545.9 194.5 545.2 194.6 544.4 194.6Z" fill="#CECECE"/>
</g>
<path id="XMLID_66_" d="M428.1 365.1L345.7 386.8C323.3 392.7 300.6 376.8 289.7 350.5L417.4 324.4C428.6 321.5 440.1 328.2 443 339.4C446 350.7 439.3 362.2 428.1 365.1Z" fill="#3B323A"/>
<path id="XMLID_68_" d="M511 490.1L472.6 507.2L405.3 355.8C400.6 345.2 405.4 332.8 416 328.1C426.6 323.4 439 328.2 443.7 338.8L511 490.1Z" fill="#3B323A"/>
<path id="XMLID_2_" d="M225.5 334.8H653.7C658.9 334.8 663.2 330.5 663.2 325.3V316.3C663.2 311.1 658.9 306.8 653.7 306.8H225.5C220.3 306.8 216 311.1 216 316.3V325.3C216 330.5 220.2 334.8 225.5 334.8Z" fill="#F2F2F2"/>
<path id="XMLID_73_" d="M573.6 538.8L488.5 554.3C485.2 554.9 482.1 552.8 481.4 549.7L480.8 547C479.1 539.2 484.1 531.3 492.3 529.2L554.3 513.5C566.3 510.5 578.4 516 580.6 526.1L581.4 529.7C582.3 533.8 578.8 537.9 573.6 538.8Z" fill="#535452"/>
<path id="XMLID_95_" d="M576.9 531.1L481.8 548.4C481.6 548.4 481.4 548.5 481.2 548.5L481.5 549.7C482.2 552.9 485.3 554.9 488.6 554.3L573.7 538.8C578.9 537.9 582.5 533.8 581.6 529.7L581.5 529.4C580.1 530.2 578.6 530.8 576.9 531.1Z" fill="#FFFDFD"/>
<path id="XMLID_89_" d="M397.9 592.3L326.8 543.1C324.1 541.2 323.3 537.5 325.1 534.8L326.6 532.4C330.9 525.7 340.1 523.6 347.3 528L402.2 560.8C412.9 567.2 417.5 579.7 411.9 588.3L409.9 591.4C407.7 594.9 402.2 595.3 397.9 592.3Z" fill="#424441"/>
<path id="XMLID_87_" d="M405.7 589.2L326.2 534.2C326 534.1 325.9 533.9 325.7 533.8L325.1 534.8C323.4 537.5 324.1 541.2 326.8 543.1L397.9 592.3C402.2 595.3 407.7 594.9 409.9 591.4L410.1 591.1C408.6 590.8 407.1 590.1 405.7 589.2Z" fill="#CECECE"/>
<path id="XMLID_86_" d="M201 306.8H184.8C176.6 306.8 169.9 300.1 169.9 291.9V247.8H215.9V291.9C216 300.1 209.3 306.8 201 306.8Z" fill="#FF6161"/>
<path id="XMLID_112_" d="M175.1 253.8C164.4 253.8 155.8 262.5 155.8 273.1C155.8 283.7 164.5 292.4 175.1 292.4C185.7 292.4 194.4 283.7 194.4 273.1C194.4 262.5 185.7 253.8 175.1 253.8ZM175.1 288.2C166.8 288.2 160 281.4 160 273.1C160 264.8 166.8 258 175.1 258C183.4 258 190.2 264.8 190.2 273.1C190.1 281.5 183.4 288.2 175.1 288.2Z" fill="#F4A36C"/>
<path id="XMLID_97_" d="M201 306.8H184.8C176.6 306.8 169.9 300.1 169.9 291.9V247.8H215.9V291.9C216 300.1 209.3 306.8 201 306.8Z" fill="#F7BC8B"/>
<path id="XMLID_108_" d="M191.7 292.8C187.1 292.8 183.4 289.1 183.4 284.5V247.8H169.9V291.9C169.9 300.1 176.6 306.8 184.8 306.8H201C208.9 306.8 215.4 300.6 215.9 292.8H191.7Z" fill="#EFA573"/>
<path id="XMLID_18_" d="M382.4 306.8C383.4 304.2 383.9 301.4 383.9 298.5C383.9 285.2 373.2 274.5 359.9 274.5C346.6 274.5 335.9 285.2 335.9 298.5C335.9 301.4 336.4 304.2 337.4 306.8H382.4Z" fill="#FC9F6F"/>
<path id="XMLID_12_" opacity="0.77" d="M187.9 239.8C191.49 239.8 194.4 236.89 194.4 233.3C194.4 229.71 191.49 226.8 187.9 226.8C184.31 226.8 181.4 229.71 181.4 233.3C181.4 236.89 184.31 239.8 187.9 239.8Z" fill="#F2F2F2"/>
<path id="XMLID_43_" opacity="0.77" d="M199.9 220.3C205.257 220.3 209.6 215.957 209.6 210.6C209.6 205.243 205.257 200.9 199.9 200.9C194.543 200.9 190.2 205.243 190.2 210.6C190.2 215.957 194.543 220.3 199.9 220.3Z" fill="#F2F2F2"/>
</g>
</svg>
