<svg width="459" height="517" viewBox="0 0 459 517" fill="none" xmlns="http://www.w3.org/2000/svg">
<g id="specialProject">
<g id="XMLID_191_">
<path id="Vector" d="M387 88.8C384.6 88.8 382.2 88.8 379.8 88.8C375 88.8 370.5 84.9 369.9 80C368.2 63.4 368.2 46.6 369.9 29.9C370.5 25 375 21.1 379.8 21.1C382.2 21.1 384.6 21.1 387 21.1C391.8 21.1 396.3 25 396.9 29.9C398.6 46.5 398.6 63.3 396.9 80C396.4 84.8 391.8 88.8 387 88.8Z" fill="#9BA589"/>
</g>
<g id="XMLID_145_">
<path id="Vector_2" d="M387 88.8C384.6 88.8 382.2 88.8 379.8 88.8C375 88.8 370.5 84.9 369.9 80C368.2 63.4 368.2 46.6 369.9 29.9C370.5 25 375 21.1 379.8 21.1C382.2 21.1 384.6 21.1 387 21.1C391.8 21.1 396.3 25 396.9 29.9C398.6 46.5 398.6 63.3 396.9 80C396.4 84.8 391.8 88.8 387 88.8Z" stroke="#3E3442" stroke-width="10" stroke-miterlimit="10" stroke-linecap="round" stroke-linejoin="round"/>
</g>
<g id="XMLID_194_">
<path id="Vector_3" d="M78.4 88.8C76 88.8 73.6 88.8 71.2 88.8C66.4 88.8 61.9 84.9 61.3 80C59.6 63.4 59.6 46.6 61.3 29.9C61.9 25 66.4 21.1 71.2 21.1C73.6 21.1 76 21.1 78.4 21.1C83.2 21.1 87.7 25 88.3 29.9C90 46.5 90 63.3 88.3 80C87.8 84.8 83.2 88.8 78.4 88.8Z" fill="#9BA589"/>
</g>
<g id="XMLID_187_">
<path id="Vector_4" d="M78.4 88.8C76 88.8 73.6 88.8 71.2 88.8C66.4 88.8 61.9 84.9 61.3 80C59.6 63.4 59.6 46.6 61.3 29.9C61.9 25 66.4 21.1 71.2 21.1C73.6 21.1 76 21.1 78.4 21.1C83.2 21.1 87.7 25 88.3 29.9C90 46.5 90 63.3 88.3 80C87.8 84.8 83.2 88.8 78.4 88.8Z" stroke="#3E3442" stroke-width="10" stroke-miterlimit="10" stroke-linecap="round" stroke-linejoin="round"/>
</g>
<g id="XMLID_9_">
<g id="Group">
<path id="XMLID_206_" d="M90.5 450.9L66.7001 442.4C32.4001 430.1 11.1 388 17.1 344.6L25.4 284.9C28.1 265.7 41.6 251.6 57.4 251.6H90.5V450.9Z" stroke="#3E3442" stroke-width="10" stroke-miterlimit="10" stroke-linecap="round" stroke-linejoin="round"/>
<path id="XMLID_200_" d="M76.6 344.1C86.9 339.6 94.7 335.6 100.7 332.2V238.9H57.4C36.5 238.9 18.8 257.3 15.3 282.7L7.00003 342.4C6.40003 346.5 6.10002 350.5 5.90002 354.5C21.4 356.6 47.2 356.9 76.6 344.1Z" stroke="#3E3442" stroke-width="10" stroke-miterlimit="10" stroke-linecap="round" stroke-linejoin="round"/>
</g>
</g>
<path id="XMLID_61_" d="M90.5 450.9L66.7001 442.4C32.4001 430.1 11.1 388 17.1 344.6L25.4 284.9C28.1 265.7 41.6 251.6 57.4 251.6H90.5V450.9Z" stroke="#3E3442" stroke-width="10" stroke-miterlimit="10" stroke-linecap="round" stroke-linejoin="round"/>
<path id="XMLID_22_" d="M90.5 450.9L66.7001 442.4C32.4001 430.1 11.1 388 17.1 344.6L25.4 284.9C28.1 265.7 41.6 251.6 57.4 251.6H90.5V450.9Z" fill="#F26161"/>
<path id="XMLID_220_" opacity="0.3" d="M25.4 288.8L17.1 348.5C16.2 354.9 15.9 361.2 16.2 367.4C18.3 367.5 20.3 367.6 22.4 367.6C41.9 367.6 61.2 363.5 79.8 355.4C83.6 353.8 87.1 352.1 90.5 350.5V255.5H57.4C41.6 255.5 28 269.6 25.4 288.8Z" fill="#994A4A"/>
<path id="XMLID_66_" d="M90.5 450.9L66.7001 442.4C32.4001 430.1 11.1 388 17.1 344.6L25.4 284.9C28.1 265.7 41.6 251.6 57.4 251.6H90.5V450.9Z" stroke="#3E3442" stroke-width="10" stroke-miterlimit="10" stroke-linecap="round" stroke-linejoin="round"/>
<path id="XMLID_23_" d="M76.6 344.1C86.9 339.6 94.7 335.6 100.7 332.2V238.9H57.4C36.5 238.9 18.8 257.3 15.3 282.7L7.00003 342.4C6.40003 346.5 6.10002 350.5 5.90002 354.5C21.4 356.6 47.2 356.9 76.6 344.1Z" fill="#604957"/>
<path id="XMLID_207_" opacity="0.26" d="M13.4 348L21.7 288.3C25.2 262.9 42.9 244.5 63.8 244.5H100.7V238.9H57.4C36.5 238.9 18.8 257.3 15.3 282.7L7.00003 342.4C6.40003 346.5 6.10002 350.5 5.90002 354.5C8.00002 354.8 10.2 355 12.6 355.2C12.8 352.8 13.1 350.4 13.4 348Z" fill="#725865"/>
<path id="XMLID_56_" d="M76.6 344.1C86.9 339.6 94.7 335.6 100.7 332.2V238.9H57.4C36.5 238.9 18.8 257.3 15.3 282.7L7.00003 342.4C6.40003 346.5 6.10002 350.5 5.90002 354.5C21.4 356.6 47.2 356.9 76.6 344.1Z" stroke="#3E3442" stroke-width="10" stroke-miterlimit="10" stroke-linecap="round" stroke-linejoin="round"/>
<path id="XMLID_81_" d="M22.4001 345.6C20.5001 345.6 18.6001 345.6 16.7001 345.5C16.8001 344.9 16.8001 344.4 16.9001 343.8L25.2001 284.1C28.0001 263.7 41.6001 248.9 57.4001 248.9H90.7001V326.3C85.5001 329.1 79.4001 332 72.6001 335C56.3001 342 39.4001 345.6 22.4001 345.6Z" stroke="#3E3442" stroke-width="3" stroke-miterlimit="10" stroke-linecap="round" stroke-linejoin="round" stroke-dasharray="5 5"/>
<g id="XMLID_53_">
<g id="Group_2">
<path id="XMLID_186_" d="M369.4 450.9L393.2 442.4C427.5 430.1 448.8 388 442.8 344.6L434.5 284.9C431.8 265.7 418.3 251.6 402.5 251.6H369.4V450.9Z" stroke="#3E3442" stroke-width="10" stroke-miterlimit="10" stroke-linecap="round" stroke-linejoin="round"/>
<path id="XMLID_185_" d="M383.3 344.1C373 339.6 365.2 335.6 359.2 332.2V238.9H402.5C423.4 238.9 441.1 257.3 444.6 282.7L452.9 342.4C453.5 346.5 453.8 350.5 454 354.5C438.5 356.6 412.7 356.9 383.3 344.1Z" stroke="#3E3442" stroke-width="10" stroke-miterlimit="10" stroke-linecap="round" stroke-linejoin="round"/>
</g>
</g>
<path id="XMLID_49_" d="M369.4 450.9L393.2 442.4C427.5 430.1 448.8 388 442.8 344.6L434.5 284.9C431.8 265.7 418.3 251.6 402.5 251.6H369.4V450.9Z" stroke="#3E3442" stroke-width="10" stroke-miterlimit="10" stroke-linecap="round" stroke-linejoin="round"/>
<path id="XMLID_32_" d="M369.4 450.9L393.2 442.4C427.5 430.1 448.8 388 442.8 344.6L434.5 284.9C431.8 265.7 418.3 251.6 402.5 251.6H369.4V450.9Z" fill="#F26161"/>
<path id="XMLID_221_" opacity="0.3" d="M442.8 348.5L434.5 288.8C431.8 269.6 418.3 255.5 402.5 255.5H369.4V350.5C372.8 352.1 376.3 353.7 380.1 355.4C398.7 363.5 418 367.6 437.5 367.6C439.6 367.6 441.7 367.5 443.7 367.4C444 361.2 443.7 354.9 442.8 348.5Z" fill="#994A4A"/>
<path id="XMLID_31_" d="M369.4 450.9L393.2 442.4C427.5 430.1 448.8 388 442.8 344.6L434.5 284.9C431.8 265.7 418.3 251.6 402.5 251.6H369.4V450.9Z" stroke="#3E3442" stroke-width="10" stroke-miterlimit="10" stroke-linecap="round" stroke-linejoin="round"/>
<path id="XMLID_14_" d="M383.3 344.1C373 339.6 365.2 335.6 359.2 332.2V238.9H402.5C423.4 238.9 441.1 257.3 444.6 282.7L452.9 342.4C453.5 346.5 453.8 350.5 454 354.5C438.5 356.6 412.7 356.9 383.3 344.1Z" fill="#604957"/>
<path id="XMLID_224_" opacity="0.26" d="M395.5 244.3C416.4 244.3 434.1 262.4 437.6 287.4L445.9 346.1C446.3 348.8 446.6 351.6 446.7 354.3C449.3 354.1 451.7 353.9 453.9 353.6C453.7 349.7 453.4 345.7 452.8 341.7L444.5 283C441 258 423.3 239.9 402.4 239.9H359.1V244.3H395.5V244.3Z" fill="#725865"/>
<path id="XMLID_201_" d="M437.5 345.6C420.5 345.6 403.6 342 387.3 334.9C380.5 331.9 374.4 329 369.2 326.2V248.8H402.5C418.3 248.8 431.9 263.6 434.7 284L443 343.7C443.1 344.3 443.2 344.8 443.2 345.4C441.3 345.6 439.4 345.6 437.5 345.6Z" stroke="#3E3442" stroke-width="3" stroke-miterlimit="10" stroke-linecap="round" stroke-linejoin="round" stroke-dasharray="5 5"/>
<path id="XMLID_13_" d="M383.3 344.1C373 339.6 365.2 335.6 359.2 332.2V238.9H402.5C423.4 238.9 441.1 257.3 444.6 282.7L452.9 342.4C453.5 346.5 453.8 350.5 454 354.5C438.5 356.6 412.7 356.9 383.3 344.1Z" stroke="#3E3442" stroke-width="10" stroke-miterlimit="10" stroke-linecap="round" stroke-linejoin="round"/>
<path id="XMLID_17_" d="M360.5 102.7C272.8 102.7 185.2 102.7 97.5001 102.7C70.7001 102.9 69.1001 83.5 69.4001 56.6C69.1001 29.7 70.7001 10.2999 97.5001 10.4999C185.2 10.4999 272.8 10.4999 360.5 10.4999C387.3 10.2999 388.9 29.7 388.6 56.6C388.9 83.5 387.3 102.9 360.5 102.7Z" fill="#9BA589"/>
<path id="XMLID_303_" opacity="0.25" d="M388.7 56.6C388.7 54.5 388.7 52.5 388.7 50.5C388.6 74.1 385.3 90.6 360.6 90.4C272.9 90.4 185.3 90.4 97.6 90.4C72.9 90.6 69.6 74.1 69.5 50.5C69.5 52.5 69.5 54.6 69.5 56.7C69.2 83.6 70.8 103 97.6 102.8C185.3 102.8 272.9 102.8 360.6 102.8C387.3 102.9 388.9 83.5 388.7 56.6Z" fill="#9BA589"/>
<path id="XMLID_302_" opacity="0.31" d="M69.4 56.6C69.4 58.7 69.4 60.7999 69.4 62.7999C69.6 39.1999 72.9 22.6999 97.5 22.8999C185.2 22.8999 272.8 22.8999 360.5 22.8999C385.2 22.6999 388.5 39.1999 388.6 62.7999C388.6 60.7999 388.6 58.7 388.6 56.6C388.9 29.7 387.3 10.2999 360.5 10.4999C272.8 10.4999 185.2 10.4999 97.5 10.4999C70.8 10.2999 69.2 29.7 69.4 56.6Z" fill="#9BA589"/>
<path id="XMLID_4_" d="M360.5 102.7C272.8 102.7 185.2 102.7 97.5001 102.7C70.7001 102.9 69.1001 83.5 69.4001 56.6C69.1001 29.7 70.7001 10.2999 97.5001 10.4999C185.2 10.4999 272.8 10.4999 360.5 10.4999C387.3 10.2999 388.9 29.7 388.6 56.6C388.9 83.5 387.3 102.9 360.5 102.7Z" stroke="#3E3442" stroke-width="10" stroke-miterlimit="10" stroke-linecap="round" stroke-linejoin="round"/>
<path id="XMLID_64_" d="M315.9 7.09998V74.9" stroke="#3E3442" stroke-width="14" stroke-miterlimit="10" stroke-linecap="round" stroke-linejoin="round"/>
<path id="XMLID_65_" d="M145.7 7.09998V74.9" stroke="#3E3442" stroke-width="14" stroke-miterlimit="10" stroke-linecap="round" stroke-linejoin="round"/>
<path id="XMLID_15_" d="M389.3 201.8C387.1 190.2 383.9 178.9 379.9 168.1C356 104.3 296.4 62.9 230.8 62.9H230.7C165.1 62.9 105.6 104.3 81.6 168.1C77.6 178.9 74.4 190.1 72.2 201.8C60.8 273.4 56.7 345.4 61.9 416.7C66.6 468.1 110.5 511.9 149.9 511.9C203.8 511.9 257.6 511.9 311.5 511.9C351 511.9 394.9 468.1 399.5 416.7C404.8 345.4 400.7 273.4 389.3 201.8Z" fill="#F26161"/>
<path id="XMLID_242_" opacity="0.3" d="M399.6 404.5C394.9 454.9 351 497.7 311.6 497.7C257.7 497.7 203.9 497.7 150 497.7C110.5 497.7 66.6001 454.8 62.0001 404.5C60.7001 387.3 60 370.1 59.8 352.9C59.6 375.9 60.3001 398.8 62.0001 421.6C66.7001 472 110.6 514.8 150 514.8C203.9 514.8 257.7 514.8 311.6 514.8C351.1 514.8 395 471.9 399.6 421.6C401.3 398.7 402 375.8 401.8 352.9C401.6 370.1 400.9 387.4 399.6 404.5Z" fill="#994A4A"/>
<path id="XMLID_44_" opacity="0.39" d="M389.3 201.8C387.1 190.2 383.9 178.9 379.9 168.1C356 104.3 296.4 62.9 230.8 62.9H230.7C165.1 62.9 105.6 104.3 81.6 168.1C77.6 178.9 74.4 190.1 72.2 201.8C60.8 273.4 56.7 345.4 61.9 416.7C64.3 443.2 77.2 467.8 94.5 485.2C81.4 468.9 72 447.9 70.1 425.5C65.1 355.5 69 285 79.9 214.8C82 203.4 85 192.4 88.9 181.8C111.7 119.2 168.4 78.6 230.8 78.6H230.9C293.3 78.6 350 119.2 372.8 181.8C376.6 192.4 379.7 203.4 381.8 214.8C392.7 285 396.5 355.5 391.6 425.5C389.6 447.9 380.3 468.9 367.2 485.2C384.5 467.7 397.4 443.2 399.8 416.7C404.8 345.4 400.7 273.4 389.3 201.8Z" fill="#F26161"/>
<path id="XMLID_118_" d="M175.7 206C164.2 206 154.8 215.4 154.8 226.9C154.8 238.4 164.2 247.8 175.7 247.8C187.2 247.8 196.6 238.4 196.6 226.9C196.6 215.3 187.2 206 175.7 206ZM175.7 238.8C169.1 238.8 163.8 233.5 163.8 226.9C163.8 220.3 169.1 215 175.7 215C182.3 215 187.6 220.3 187.6 226.9C187.6 233.5 182.2 238.8 175.7 238.8Z" fill="#EAE6E5"/>
<path id="XMLID_126_" d="M175.7 206C164.2 206 154.8 215.4 154.8 226.9C154.8 238.4 164.2 247.8 175.7 247.8C187.2 247.8 196.6 238.4 196.6 226.9C196.6 215.3 187.2 206 175.7 206ZM175.7 238.8C169.1 238.8 163.8 233.5 163.8 226.9C163.8 220.3 169.1 215 175.7 215C182.3 215 187.6 220.3 187.6 226.9C187.6 233.5 182.2 238.8 175.7 238.8Z" stroke="#3E3442" stroke-width="2" stroke-miterlimit="10" stroke-linecap="round" stroke-linejoin="round"/>
<path id="XMLID_158_" d="M297 206C285.5 206 276.1 215.4 276.1 226.9C276.1 238.4 285.5 247.8 297 247.8C308.5 247.8 317.9 238.4 317.9 226.9C317.9 215.3 308.5 206 297 206ZM297 238.8C290.4 238.8 285.1 233.5 285.1 226.9C285.1 220.3 290.4 215 297 215C303.6 215 308.9 220.3 308.9 226.9C308.9 233.5 303.6 238.8 297 238.8Z" fill="#EAE6E5"/>
<path id="XMLID_275_" opacity="0.3" d="M387.3 199C387.4 198.9 387.5 198.8 387.7 198.7C385.7 189.9 383.1 181.4 380 173.1C356.1 109.3 296.5 67.9 230.9 67.9H230.8C165.2 67.9 105.7 109.3 81.7 173.1C78.6 181.4 76 189.9 74 198.7C74.1 198.8 74.2 198.9 74.4 199C118.8 237 181.3 243.9 230.9 243.9C280.3 243.9 342.9 237 387.3 199Z" fill="#994A4A"/>
<path id="XMLID_116_" opacity="0.3" d="M325.2 468.9H143.5C131.5 468.9 121.7 459.2 121.7 447.1V366.1C121.7 354.1 131.4 344.3 143.5 344.3H325.2C337.2 344.3 347 354 347 366.1V447.1C347 459.2 337.3 468.9 325.2 468.9Z" fill="#994A4A" stroke="#994A4A" stroke-width="10" stroke-miterlimit="10" stroke-linecap="round" stroke-linejoin="round"/>
<path id="XMLID_121_" d="M297 207C285.5 207 276.1 216.4 276.1 227.9C276.1 239.4 285.5 248.8 297 248.8C308.5 248.8 317.9 239.4 317.9 227.9C317.9 216.3 308.5 207 297 207ZM297 239.8C290.4 239.8 285.1 234.5 285.1 227.9C285.1 221.3 290.4 216 297 216C303.6 216 308.9 221.3 308.9 227.9C308.9 234.5 303.6 239.8 297 239.8Z" stroke="#3E3442" stroke-width="2" stroke-miterlimit="10" stroke-linecap="round" stroke-linejoin="round"/>
<path id="XMLID_25_" d="M325.2 458.9H143.5C131.5 458.9 121.7 449.2 121.7 437.1V356.1C121.7 344.1 131.4 334.3 143.5 334.3H325.2C337.2 334.3 347 344 347 356.1V437.1C347 449.2 337.3 458.9 325.2 458.9Z" fill="#725865"/>
<path id="XMLID_99_" opacity="0.4" d="M241.1 404.5L235.1 410.7C232.8 413.1 228.8 413.1 226.5 410.7L220.5 404.5C220 404 219.8 403.4 219.8 402.8V327.6C219.8 326.2 221 325.1 222.6 325.1H239C240.5 325.1 241.8 326.2 241.8 327.6V402.8C241.8 403.5 241.5 404.1 241.1 404.5Z" fill="#3E3442" stroke="#3E3442" stroke-width="6" stroke-miterlimit="10" stroke-linecap="round" stroke-linejoin="round"/>
<path id="XMLID_10_" d="M325.2 458.9H143.5C131.5 458.9 121.7 449.2 121.7 437.1V356.1C121.7 344.1 131.4 334.3 143.5 334.3H325.2C337.2 334.3 347 344 347 356.1V437.1C347 449.2 337.3 458.9 325.2 458.9Z" stroke="#3E3442" stroke-width="10" stroke-miterlimit="10" stroke-linecap="round" stroke-linejoin="round"/>
<g id="XMLID_21_">
<path id="Vector_5" d="M143.5 446.9C138.1 446.9 133.7 442.5 133.7 437.1V356.1C133.7 350.7 138.1 346.3 143.5 346.3H325.2C330.6 346.3 335 350.7 335 356.1V437.1C335 442.5 330.6 446.9 325.2 446.9H143.5Z" stroke="#3E3442" stroke-width="3" stroke-linecap="round" stroke-linejoin="round" stroke-dasharray="4.99 4.99"/>
</g>
<path id="XMLID_18_" d="M389.3 201.8C387.1 190.2 383.9 178.9 379.9 168.1C356 104.3 296.4 62.9 230.8 62.9H230.7C165.1 62.9 105.6 104.3 81.6 168.1C77.6 178.9 74.4 190.1 72.2 201.8C60.8 273.4 56.7 345.4 61.9 416.7C66.6 468.1 110.5 511.9 149.9 511.9C203.8 511.9 257.6 511.9 311.5 511.9C351 511.9 394.9 468.1 399.5 416.7C404.8 345.4 400.7 273.4 389.3 201.8Z" stroke="#3E3442" stroke-width="10" stroke-miterlimit="10" stroke-linecap="round" stroke-linejoin="round"/>
<path id="XMLID_24_" d="M230.8 226.9C289.8 226.9 343 218.8 380.8 186.4C387.8 180.4 390.6 170 387.5 160.8C387.5 160.7 387.5 160.7 387.4 160.6C375.1 124.5 353.8 93.9 325.6 72.1C297.5 50.4 264.8 38.9 230.8 38.9C196.9 38.9 164.1 50.4 136 72.1C107.8 93.9 86.5 124.6 74.2 160.6C74.2 160.7 74.2 160.7 74.1 160.8C71 170 73.7 180.4 80.8 186.4C118.6 218.7 171.8 226.9 230.8 226.9Z" fill="#725865"/>
<path id="XMLID_115_" opacity="0.4" d="M184.1 123.8L178.1 130.5C175.8 133.1 171.8 133.1 169.5 130.5L163.5 123.8C163 123.3 162.8 122.6 162.8 122V39.7C162.8 38.2 164 36.9 165.6 36.9H182.1C183.6 36.9 184.9 38.1 184.9 39.7V122C184.8 122.6 184.6 123.3 184.1 123.8Z" fill="#3E3442" stroke="#3E3442" stroke-width="6" stroke-miterlimit="10" stroke-linecap="round" stroke-linejoin="round"/>
<path id="XMLID_205_" opacity="0.4" d="M296.5 123.8L290.5 130.5C288.2 133.1 284.2 133.1 281.9 130.5L275.9 123.8C275.4 123.3 275.2 122.6 275.2 122V39.7C275.2 38.2 276.4 36.9 278 36.9H294.5C296 36.9 297.3 38.1 297.3 39.7V122C297.2 122.6 296.9 123.3 296.5 123.8Z" fill="#3E3442" stroke="#3E3442" stroke-width="6" stroke-miterlimit="10" stroke-linecap="round" stroke-linejoin="round"/>
<path id="XMLID_249_" opacity="0.32" d="M380.8 177.4C343 209.7 289.8 217.9 230.8 217.9C171.8 217.9 118.6 209.8 80.8001 177.4C76.8001 174 74.2001 169.2 73.3001 164.1C71.8001 172.4 74.6001 181.1 80.8001 186.4C118.6 218.7 171.8 226.9 230.8 226.9C289.8 226.9 343 218.8 380.8 186.4C387 181.1 389.9 172.4 388.3 164.1C387.3 169.3 384.7 174 380.8 177.4Z" fill="#725865"/>
<path id="XMLID_33_" opacity="0.58" d="M387.4 160.8C387.4 160.7 387.4 160.7 387.3 160.6C375 124.5 353.7 93.9 325.5 72.1C297.4 50.4 264.7 38.9 230.7 38.9C196.8 38.9 164 50.4 135.9 72.1C107.7 93.9 86.4 124.6 74.1 160.6C74.1 160.7 74.1 160.7 74 160.8C71 169.6 73.4 179.5 79.8 185.6C76.6 180 75.8 172.9 78 166.4C78 166.4 78 166.3 78.1 166.3C90.1 131.1 110.9 101.3 138.3 80C165.6 58.8 197.6 47.6 230.6 47.6C263.7 47.6 295.7 58.8 323 80C350.4 101.3 371.3 131.1 383.2 166.3V166.4C385.4 172.9 384.6 180 381.4 185.6C388 179.5 390.4 169.6 387.4 160.8Z" fill="#725865"/>
<path id="XMLID_19_" d="M230.8 226.9C289.8 226.9 343 218.8 380.8 186.4C387.8 180.4 390.6 170 387.5 160.8C387.5 160.7 387.5 160.7 387.4 160.6C375.1 124.5 353.8 93.9 325.6 72.1C297.5 50.4 264.8 38.9 230.8 38.9C196.9 38.9 164.1 50.4 136 72.1C107.8 93.9 86.5 124.6 74.2 160.6C74.2 160.7 74.2 160.7 74.1 160.8C71 170 73.7 180.4 80.8 186.4C118.6 218.7 171.8 226.9 230.8 226.9Z" stroke="#3E3442" stroke-width="10" stroke-miterlimit="10" stroke-linecap="round" stroke-linejoin="round"/>
<path id="XMLID_28_" d="M230.8 214.9C162.8 214.9 119 203.3 88.6 177.3C85.2 174.4 83.9 169.2 85.5 164.7V164.6C97 130.7 117 102.1 143.3 81.7C169.2 61.6 199.5 51 230.7 51C262 51 292.2 61.6 318.2 81.7C344.5 102.1 364.5 130.8 376 164.6V164.7C377.5 169.3 376.3 174.5 372.9 177.3C342.6 203.3 298.8 214.9 230.8 214.9Z" stroke="#3E3442" stroke-width="3" stroke-miterlimit="10" stroke-linecap="round" stroke-linejoin="round" stroke-dasharray="5 5"/>
<g id="XMLID_36_">
<path id="XMLID_8_" d="M241.1 395.1L234.4 402.6C232.5 404.8 229.1 404.8 227.1 402.6L220.4 395.1C219.9 394.6 219.7 393.9 219.7 393.3V328C219.7 326.5 220.9 325.2 222.5 325.2H239C240.5 325.2 241.8 326.4 241.8 328V393.3C241.8 393.9 241.5 394.6 241.1 395.1Z" fill="#EDAB7A"/>
<path id="XMLID_5_" d="M241.1 395.1L235.1 401.8C232.8 404.4 228.8 404.4 226.5 401.8L220.5 395.1C220 394.6 219.8 393.9 219.8 393.3V328C219.8 326.5 221 325.2 222.6 325.2H239C240.5 325.2 241.8 326.4 241.8 328V393.3C241.8 393.9 241.5 394.6 241.1 395.1Z" stroke="#3E3442" stroke-width="6" stroke-miterlimit="10" stroke-linecap="round" stroke-linejoin="round"/>
<path id="XMLID_20_" d="M241.8 362.6H219.8V376.1H241.8V362.6Z" stroke="#3E3442" stroke-width="6" stroke-miterlimit="10" stroke-linecap="round" stroke-linejoin="round"/>
<path id="XMLID_35_" d="M230.8 363.8V376.1" stroke="#3E3442" stroke-width="6" stroke-miterlimit="10" stroke-linecap="round" stroke-linejoin="round"/>
<path id="XMLID_34_" d="M230.8 342C232.678 342 234.2 340.478 234.2 338.6C234.2 336.722 232.678 335.2 230.8 335.2C228.922 335.2 227.4 336.722 227.4 338.6C227.4 340.478 228.922 342 230.8 342Z" fill="#3E3442"/>
<path id="XMLID_40_" d="M230.8 356C232.678 356 234.2 354.478 234.2 352.6C234.2 350.722 232.678 349.2 230.8 349.2C228.922 349.2 227.4 350.722 227.4 352.6C227.4 354.478 228.922 356 230.8 356Z" fill="#3E3442"/>
<path id="XMLID_51_" d="M230.8 389.4C232.678 389.4 234.2 387.878 234.2 386C234.2 384.122 232.678 382.6 230.8 382.6C228.922 382.6 227.4 384.122 227.4 386C227.4 387.878 228.922 389.4 230.8 389.4Z" fill="#3E3442"/>
</g>
<g id="XMLID_108_">
<g id="XMLID_45_">
<path id="XMLID_120_" d="M184.1 114.8L177.4 122.3C175.5 124.5 172.1 124.5 170.1 122.3L163.4 114.8C162.9 114.3 162.7 113.6 162.7 113V30.6999C162.7 29.1999 163.9 27.8999 165.5 27.8999H182C183.5 27.8999 184.8 29.0999 184.8 30.6999V113C184.8 113.6 184.6 114.3 184.1 114.8Z" fill="#EDAB7A"/>
<path id="XMLID_117_" d="M184.1 114.8L178.1 121.5C175.8 124.1 171.8 124.1 169.5 121.5L163.5 114.8C163 114.3 162.8 113.6 162.8 113V30.6999C162.8 29.1999 164 27.8999 165.6 27.8999H182.1C183.6 27.8999 184.9 29.0999 184.9 30.6999V113C184.8 113.6 184.6 114.3 184.1 114.8Z" stroke="#3E3442" stroke-width="6" stroke-miterlimit="10" stroke-linecap="round" stroke-linejoin="round"/>
<path id="XMLID_54_" opacity="0.6" d="M184.8 82.2999H162.8V95.7999H184.8V82.2999Z" fill="#EDAB7A"/>
<path id="XMLID_114_" d="M184.8 82.2999H162.8V95.7999H184.8V82.2999Z" stroke="#3E3442" stroke-width="6" stroke-miterlimit="10" stroke-linecap="round" stroke-linejoin="round"/>
<path id="XMLID_113_" d="M173.8 83.4999V95.7999" stroke="#3E3442" stroke-width="6" stroke-miterlimit="10" stroke-linecap="round" stroke-linejoin="round"/>
<path id="XMLID_110_" d="M173.8 61.6999C175.678 61.6999 177.2 60.1777 177.2 58.2999C177.2 56.4221 175.678 54.8999 173.8 54.8999C171.922 54.8999 170.4 56.4221 170.4 58.2999C170.4 60.1777 171.922 61.6999 173.8 61.6999Z" fill="#3E3442"/>
<path id="XMLID_72_" d="M173.8 75.6999C175.678 75.6999 177.2 74.1777 177.2 72.2999C177.2 70.4221 175.678 68.8999 173.8 68.8999C171.922 68.8999 170.4 70.4221 170.4 72.2999C170.4 74.1777 171.922 75.6999 173.8 75.6999Z" fill="#3E3442"/>
<path id="XMLID_52_" d="M173.8 109.1C175.678 109.1 177.2 107.578 177.2 105.7C177.2 103.822 175.678 102.3 173.8 102.3C171.922 102.3 170.4 103.822 170.4 105.7C170.4 107.578 171.922 109.1 173.8 109.1Z" fill="#3E3442"/>
</g>
<g id="XMLID_123_">
<path id="XMLID_140_" d="M296.5 114.8L289.8 122.3C287.9 124.5 284.5 124.5 282.5 122.3L275.8 114.8C275.3 114.3 275.1 113.6 275.1 113V30.6999C275.1 29.1999 276.3 27.8999 277.9 27.8999H294.4C295.9 27.8999 297.2 29.0999 297.2 30.6999V113C297.2 113.6 296.9 114.3 296.5 114.8Z" fill="#EDAB7A"/>
<path id="XMLID_76_" opacity="0.6" d="M297.2 82.2999H275.2V95.7999H297.2V82.2999Z" fill="#EDAB7A"/>
<path id="XMLID_137_" d="M296.5 114.8L290.5 121.5C288.2 124.1 284.2 124.1 281.9 121.5L275.9 114.8C275.4 114.3 275.2 113.6 275.2 113V30.6999C275.2 29.1999 276.4 27.8999 278 27.8999H294.5C296 27.8999 297.3 29.0999 297.3 30.6999V113C297.2 113.6 296.9 114.3 296.5 114.8Z" stroke="#3E3442" stroke-width="6" stroke-miterlimit="10" stroke-linecap="round" stroke-linejoin="round"/>
<path id="XMLID_210_" d="M173.8 47.6999C175.678 47.6999 177.2 46.1777 177.2 44.2999C177.2 42.4221 175.678 40.8999 173.8 40.8999C171.922 40.8999 170.4 42.4221 170.4 44.2999C170.4 46.1777 171.922 47.6999 173.8 47.6999Z" fill="#3E3442"/>
<path id="XMLID_143_" d="M286.2 47.6999C288.078 47.6999 289.6 46.1777 289.6 44.2999C289.6 42.4221 288.078 40.8999 286.2 40.8999C284.322 40.8999 282.8 42.4221 282.8 44.2999C282.8 46.1777 284.322 47.6999 286.2 47.6999Z" fill="#3E3442"/>
<path id="XMLID_232_" d="M173.8 34.5999C175.678 34.5999 177.2 33.0777 177.2 31.2C177.2 29.3222 175.678 27.7999 173.8 27.7999C171.922 27.7999 170.4 29.3222 170.4 31.2C170.4 33.0777 171.922 34.5999 173.8 34.5999Z" fill="#3E3442"/>
<path id="XMLID_218_" d="M286.2 34.5999C288.078 34.5999 289.6 33.0777 289.6 31.2C289.6 29.3222 288.078 27.7999 286.2 27.7999C284.322 27.7999 282.8 29.3222 282.8 31.2C282.8 33.0777 284.322 34.5999 286.2 34.5999Z" fill="#3E3442"/>
<path id="XMLID_74_" opacity="0.6" d="M297.2 82.2999H275.2V95.7999H297.2V82.2999Z" fill="#EDAB7A"/>
<path id="XMLID_134_" d="M297.2 82.2999H275.2V95.7999H297.2V82.2999Z" stroke="#3E3442" stroke-width="6" stroke-miterlimit="10" stroke-linecap="round" stroke-linejoin="round"/>
<path id="XMLID_133_" d="M286.2 83.4999V95.7999" stroke="#3E3442" stroke-width="6" stroke-miterlimit="10" stroke-linecap="round" stroke-linejoin="round"/>
<path id="XMLID_130_" d="M286.2 61.6999C288.078 61.6999 289.6 60.1777 289.6 58.2999C289.6 56.4221 288.078 54.8999 286.2 54.8999C284.322 54.8999 282.8 56.4221 282.8 58.2999C282.8 60.1777 284.322 61.6999 286.2 61.6999Z" fill="#3E3442"/>
<path id="XMLID_127_" d="M286.2 75.7C288.078 75.7 289.6 74.1777 289.6 72.2999C289.6 70.4222 288.078 68.8999 286.2 68.8999C284.322 68.8999 282.8 70.4222 282.8 72.2999C282.8 74.1777 284.322 75.7 286.2 75.7Z" fill="#3E3442"/>
<path id="XMLID_124_" d="M286.2 109.1C288.078 109.1 289.6 107.578 289.6 105.7C289.6 103.822 288.078 102.3 286.2 102.3C284.322 102.3 282.8 103.822 282.8 105.7C282.8 107.578 284.322 109.1 286.2 109.1Z" fill="#3E3442"/>
</g>
</g>
<path id="XMLID_39_" d="M251 200.4H209.5C205.5 200.4 202.3 197.2 202.3 193.2V144.2C202.3 140.2 205.5 137 209.5 137H251C255 137 258.2 140.2 258.2 144.2V193.2C258.3 197.1 255 200.4 251 200.4Z" fill="#826776"/>
<path id="XMLID_202_" opacity="0.32" d="M258.3 136.9H202.3V164.5H258.3V136.9Z" fill="#725865"/>
<path id="XMLID_43_" d="M251 200.4H209.5C205.5 200.4 202.3 197.2 202.3 193.2V144.2C202.3 140.2 205.5 137 209.5 137H251C255 137 258.2 140.2 258.2 144.2V193.2C258.3 197.1 255 200.4 251 200.4Z" stroke="#3E3442" stroke-width="6" stroke-miterlimit="10" stroke-linecap="round" stroke-linejoin="round"/>
<path id="XMLID_196_" d="M209.5 194.4C208.8 194.4 208.3 193.8 208.3 193.2V144.2C208.3 143.5 208.9 143 209.5 143H251C251.7 143 252.2 143.6 252.2 144.2V193.2C252.2 193.9 251.6 194.4 251 194.4H209.5Z" stroke="#3E3442" stroke-width="2" stroke-miterlimit="10" stroke-linecap="round" stroke-linejoin="round" stroke-dasharray="3 3"/>
<path id="XMLID_41_" d="M263.3 115.9H197.3V154.2H263.3V115.9Z" fill="#F26161"/>
<path id="XMLID_37_" d="M263.3 115.9H197.3V154.2H263.3V115.9Z" stroke="#3E3442" stroke-width="6" stroke-miterlimit="10" stroke-linecap="round" stroke-linejoin="round"/>
<path id="XMLID_166_" d="M273.1 295.6H184.9C180.4 295.6 176.7 291.9 176.7 287.4C176.7 282.9 180.4 279.2 184.9 279.2H273.1C277.6 279.2 281.3 282.9 281.3 287.4C281.3 291.9 277.7 295.6 273.1 295.6Z" fill="#725865"/>
<path id="XMLID_119_" d="M273.1 295.6H184.9C180.4 295.6 176.7 291.9 176.7 287.4C176.7 282.9 180.4 279.2 184.9 279.2H273.1C277.6 279.2 281.3 282.9 281.3 287.4C281.3 291.9 277.7 295.6 273.1 295.6Z" stroke="#3E3442" stroke-width="4" stroke-miterlimit="10" stroke-linecap="round" stroke-linejoin="round"/>
<path id="XMLID_175_" d="M238.5 287.4H268.1" stroke="#3E3442" stroke-width="6" stroke-miterlimit="10" stroke-linejoin="round"/>
<path id="XMLID_174_" d="M214.2 287.4H229" stroke="#3E3442" stroke-width="6" stroke-miterlimit="10" stroke-linejoin="round"/>
<path id="XMLID_167_" d="M190 287.4H206.3" stroke="#3E3442" stroke-width="6" stroke-miterlimit="10" stroke-linejoin="round"/>
<path id="XMLID_42_" d="M241 111.1H219.5V175.9H241V111.1Z" fill="#D35050"/>
<path id="XMLID_38_" d="M241 111.1H219.5V175.9H241V111.1Z" stroke="#3E3442" stroke-width="4" stroke-miterlimit="10" stroke-linecap="round" stroke-linejoin="round"/>
<path id="XMLID_60_" d="M230.8 166.8C232.899 166.8 234.6 165.099 234.6 163C234.6 160.901 232.899 159.2 230.8 159.2C228.701 159.2 227 160.901 227 163C227 165.099 228.701 166.8 230.8 166.8Z" stroke="#3E3442" stroke-width="4" stroke-miterlimit="10" stroke-linecap="round" stroke-linejoin="round"/>
<path id="XMLID_78_" d="M304.8 180.6C312.919 180.6 319.5 174.019 319.5 165.9C319.5 157.781 312.919 151.2 304.8 151.2C296.681 151.2 290.1 157.781 290.1 165.9C290.1 174.019 296.681 180.6 304.8 180.6Z" fill="#826776"/>
<path id="XMLID_70_" d="M304.8 180.6C312.919 180.6 319.5 174.019 319.5 165.9C319.5 157.781 312.919 151.2 304.8 151.2C296.681 151.2 290.1 157.781 290.1 165.9C290.1 174.019 296.681 180.6 304.8 180.6Z" stroke="#3E3442" stroke-width="2" stroke-miterlimit="10" stroke-linecap="round" stroke-linejoin="round"/>
<g id="XMLID_216_">
<path id="XMLID_225_" d="M298.8 172L304.8 156.9L310.8 172H298.8Z" fill="#8CA85E"/>
<path id="XMLID_223_" d="M298.8 172L304.8 156.9L310.8 172H298.8Z" stroke="#3E3442" stroke-width="2" stroke-miterlimit="10" stroke-linecap="round" stroke-linejoin="round"/>
</g>
</g>
</svg>
