<svg width="395" height="372" viewBox="0 0 395 372" fill="none" xmlns="http://www.w3.org/2000/svg">
<g id="wordCount">
<path id="XMLID_6_" d="M356.3 57.6H38.3V65.6H356.3V57.6Z" fill="#202B52"/>
<path id="XMLID_9_" d="M356.3 49.6H38.3V57.6H356.3V49.6Z" fill="#3A4775"/>
<path id="XMLID_47_" d="M356.3 136.1H38.3V144.1H356.3V136.1Z" fill="#202B52"/>
<path id="XMLID_15_" d="M356.3 128.1H38.3V136.1H356.3V128.1Z" fill="#3A4775"/>
<path id="XMLID_97_" d="M356.3 217.7H38.3V225.7H356.3V217.7Z" fill="#202B52"/>
<path id="XMLID_55_" d="M356.3 209.7H38.3V217.7H356.3V209.7Z" fill="#3A4775"/>
<path id="XMLID_110_" d="M356.3 311.6H38.3V319.6H356.3V311.6Z" fill="#202B52"/>
<path id="XMLID_18_" d="M356.3 303.6H38.3V311.6H356.3V303.6Z" fill="#3A4775"/>
<path id="XMLID_21_" d="M100 84.6C114.912 84.6 127 72.5117 127 57.6C127 42.6883 114.912 30.6 100 30.6C85.0883 30.6 73 42.6883 73 57.6C73 72.5117 85.0883 84.6 100 84.6Z" fill="#3BCEFF"/>
<path id="XMLID_74_" d="M105 76.6C90.1 76.6 78 64.5 78 49.6C78 46 78.7 42.6 80 39.5C75.7 44.3 73 50.6 73 57.6C73 72.5 85.1 84.6 100 84.6C111.3 84.6 121 77.6 125 67.7C120.1 73.2 113 76.6 105 76.6Z" fill="#2FAFDC"/>
<path id="XMLID_8_" d="M100 84.6C114.912 84.6 127 72.5117 127 57.6C127 42.6883 114.912 30.6 100 30.6C85.0883 30.6 73 42.6883 73 57.6C73 72.5117 85.0883 84.6 100 84.6Z" stroke="#202B52" stroke-width="6" stroke-miterlimit="10" stroke-linecap="round" stroke-linejoin="round"/>
<path id="XMLID_23_" d="M165 84.6C179.912 84.6 192 72.5117 192 57.6C192 42.6883 179.912 30.6 165 30.6C150.088 30.6 138 42.6883 138 57.6C138 72.5117 150.088 84.6 165 84.6Z" fill="#12B0FF"/>
<path id="XMLID_71_" d="M170 76.6C155.1 76.6 143 64.5 143 49.6C143 46 143.7 42.6 145 39.5C140.7 44.3 138 50.6 138 57.6C138 72.5 150.1 84.6 165 84.6C176.3 84.6 186 77.6 190 67.7C185.1 73.2 178 76.6 170 76.6Z" fill="#129BE5"/>
<path id="XMLID_10_" d="M165 84.6C179.912 84.6 192 72.5117 192 57.6C192 42.6883 179.912 30.6 165 30.6C150.088 30.6 138 42.6883 138 57.6C138 72.5117 150.088 84.6 165 84.6Z" stroke="#202B52" stroke-width="6" stroke-miterlimit="10" stroke-linecap="round" stroke-linejoin="round"/>
<path id="XMLID_24_" d="M229 84.6C243.912 84.6 256 72.5117 256 57.6C256 42.6883 243.912 30.6 229 30.6C214.088 30.6 202 42.6883 202 57.6C202 72.5117 214.088 84.6 229 84.6Z" fill="#5392FF"/>
<path id="XMLID_61_" d="M234 76.6C219.1 76.6 207 64.5 207 49.6C207 46 207.7 42.6 209 39.5C204.7 44.3 202 50.6 202 57.6C202 72.5 214.1 84.6 229 84.6C240.3 84.6 250 77.6 254 67.7C249.1 73.2 242 76.6 234 76.6Z" fill="#487FDF"/>
<path id="XMLID_11_" d="M229 84.6C243.912 84.6 256 72.5117 256 57.6C256 42.6883 243.912 30.6 229 30.6C214.088 30.6 202 42.6883 202 57.6C202 72.5117 214.088 84.6 229 84.6Z" stroke="#202B52" stroke-width="6" stroke-miterlimit="10" stroke-linecap="round" stroke-linejoin="round"/>
<path id="XMLID_25_" d="M197.3 163.1C212.212 163.1 224.3 151.012 224.3 136.1C224.3 121.188 212.212 109.1 197.3 109.1C182.388 109.1 170.3 121.188 170.3 136.1C170.3 151.012 182.388 163.1 197.3 163.1Z" fill="#F8D96B"/>
<path id="XMLID_87_" d="M203.3 156.1C188.4 156.1 176.3 144 176.3 129.1C176.3 124.1 177.7 119.3 180.1 115.3C174.1 120.3 170.3 127.7 170.3 136.1C170.3 151 182.4 163.1 197.3 163.1C207.2 163.1 215.8 157.8 220.5 149.9C215.9 153.8 209.9 156.1 203.3 156.1Z" fill="#F2B955"/>
<path id="XMLID_16_" d="M197.3 163.1C212.212 163.1 224.3 151.012 224.3 136.1C224.3 121.188 212.212 109.1 197.3 109.1C182.388 109.1 170.3 121.188 170.3 136.1C170.3 151.012 182.388 163.1 197.3 163.1Z" stroke="#202B52" stroke-width="6" stroke-miterlimit="10" stroke-linecap="round" stroke-linejoin="round"/>
<path id="XMLID_26_" d="M298.1 163.1C313.012 163.1 325.1 151.012 325.1 136.1C325.1 121.188 313.012 109.1 298.1 109.1C283.188 109.1 271.1 121.188 271.1 136.1C271.1 151.012 283.188 163.1 298.1 163.1Z" fill="#FC3A4D"/>
<path id="XMLID_84_" d="M304.1 156.1C289.2 156.1 277.1 144 277.1 129.1C277.1 124.1 278.5 119.3 280.9 115.3C274.9 120.3 271.1 127.7 271.1 136.1C271.1 151 283.2 163.1 298.1 163.1C308 163.1 316.6 157.8 321.3 149.9C316.6 153.8 310.6 156.1 304.1 156.1Z" fill="#E82E4A"/>
<path id="XMLID_12_" d="M298.1 163.1C313.012 163.1 325.1 151.012 325.1 136.1C325.1 121.188 313.012 109.1 298.1 109.1C283.188 109.1 271.1 121.188 271.1 136.1C271.1 151.012 283.188 163.1 298.1 163.1Z" stroke="#202B52" stroke-width="6" stroke-miterlimit="10" stroke-linecap="round" stroke-linejoin="round"/>
<path id="XMLID_28_" d="M100 244.7C114.912 244.7 127 232.612 127 217.7C127 202.788 114.912 190.7 100 190.7C85.0883 190.7 73 202.788 73 217.7C73 232.612 85.0883 244.7 100 244.7Z" fill="#87D14B"/>
<path id="XMLID_101_" d="M106 237.7C91.1 237.7 79 225.6 79 210.7C79 205.7 80.4 200.9 82.8 196.9C76.8 201.9 73 209.3 73 217.7C73 232.6 85.1 244.7 100 244.7C109.9 244.7 118.5 239.4 123.2 231.5C118.5 235.3 112.5 237.7 106 237.7Z" fill="#79BA3A"/>
<path id="XMLID_113_" d="M117 217.7C117 208.3 109.4 200.7 100 200.7" stroke="white" stroke-width="3" stroke-miterlimit="10" stroke-linecap="round" stroke-linejoin="round"/>
<path id="XMLID_17_" d="M100 244.7C114.912 244.7 127 232.612 127 217.7C127 202.788 114.912 190.7 100 190.7C85.0883 190.7 73 202.788 73 217.7C73 232.612 85.0883 244.7 100 244.7Z" stroke="#202B52" stroke-width="6" stroke-miterlimit="10" stroke-linecap="round" stroke-linejoin="round"/>
<path id="XMLID_30_" d="M170.3 244.7C185.212 244.7 197.3 232.612 197.3 217.7C197.3 202.788 185.212 190.7 170.3 190.7C155.388 190.7 143.3 202.788 143.3 217.7C143.3 232.612 155.388 244.7 170.3 244.7Z" fill="#78D698"/>
<path id="XMLID_89_" d="M170.3 244.7C185.212 244.7 197.3 232.612 197.3 217.7C197.3 202.788 185.212 190.7 170.3 190.7C155.388 190.7 143.3 202.788 143.3 217.7C143.3 232.612 155.388 244.7 170.3 244.7Z" fill="#78D698"/>
<path id="XMLID_98_" d="M176.3 237.7C161.4 237.7 149.3 225.6 149.3 210.7C149.3 205.7 150.7 200.9 153.1 196.9C147.1 201.9 143.3 209.3 143.3 217.7C143.3 232.6 155.4 244.7 170.3 244.7C180.2 244.7 188.8 239.4 193.5 231.5C188.9 235.3 182.9 237.7 176.3 237.7Z" fill="#5BC47B"/>
<path id="XMLID_67_" d="M187.3 217.7C187.3 208.3 179.7 200.7 170.3 200.7" stroke="white" stroke-width="3" stroke-miterlimit="10" stroke-linecap="round" stroke-linejoin="round"/>
<path id="XMLID_13_" d="M170.3 244.7C185.212 244.7 197.3 232.612 197.3 217.7C197.3 202.788 185.212 190.7 170.3 190.7C155.388 190.7 143.3 202.788 143.3 217.7C143.3 232.612 155.388 244.7 170.3 244.7Z" stroke="#202B52" stroke-width="6" stroke-miterlimit="10" stroke-linecap="round" stroke-linejoin="round"/>
<path id="XMLID_32_" d="M141.3 338.6C156.212 338.6 168.3 326.512 168.3 311.6C168.3 296.688 156.212 284.6 141.3 284.6C126.388 284.6 114.3 296.688 114.3 311.6C114.3 326.512 126.388 338.6 141.3 338.6Z" fill="#E17555"/>
<path id="XMLID_116_" d="M147.3 331.6C132.4 331.6 120.3 319.5 120.3 304.6C120.3 299.6 121.7 294.8 124.1 290.8C118.1 295.8 114.3 303.2 114.3 311.6C114.3 326.5 126.4 338.6 141.3 338.6C151.2 338.6 159.8 333.3 164.5 325.4C159.9 329.3 153.9 331.6 147.3 331.6Z" fill="#E45E5B"/>
<path id="XMLID_122_" d="M158.3 311.6C158.3 302.2 150.7 294.6 141.3 294.6" stroke="white" stroke-width="3" stroke-miterlimit="10" stroke-linecap="round" stroke-linejoin="round"/>
<path id="XMLID_20_" d="M141.3 338.6C156.212 338.6 168.3 326.512 168.3 311.6C168.3 296.688 156.212 284.6 141.3 284.6C126.388 284.6 114.3 296.688 114.3 311.6C114.3 326.512 126.388 338.6 141.3 338.6Z" stroke="#202B52" stroke-width="6" stroke-miterlimit="10" stroke-linecap="round" stroke-linejoin="round"/>
<path id="XMLID_34_" d="M202.7 338.6C217.612 338.6 229.7 326.512 229.7 311.6C229.7 296.688 217.612 284.6 202.7 284.6C187.788 284.6 175.7 296.688 175.7 311.6C175.7 326.512 187.788 338.6 202.7 338.6Z" fill="#9E3B53"/>
<path id="XMLID_96_" d="M208.7 331.6C193.8 331.6 181.7 319.5 181.7 304.6C181.7 299.6 183.1 294.8 185.5 290.8C179.5 295.8 175.7 303.2 175.7 311.6C175.7 326.5 187.8 338.6 202.7 338.6C212.6 338.6 221.2 333.3 225.9 325.4C221.2 329.3 215.2 331.6 208.7 331.6Z" fill="#883042"/>
<path id="XMLID_49_" d="M219.7 311.6C219.7 302.2 212.1 294.6 202.7 294.6" stroke="white" stroke-width="3" stroke-miterlimit="10" stroke-linecap="round" stroke-linejoin="round"/>
<path id="XMLID_19_" d="M202.7 338.6C217.612 338.6 229.7 326.512 229.7 311.6C229.7 296.688 217.612 284.6 202.7 284.6C187.788 284.6 175.7 296.688 175.7 311.6C175.7 326.512 187.788 338.6 202.7 338.6Z" stroke="#202B52" stroke-width="6" stroke-miterlimit="10" stroke-linecap="round" stroke-linejoin="round"/>
<path id="XMLID_37_" d="M313.5 338.6C328.412 338.6 340.5 326.512 340.5 311.6C340.5 296.688 328.412 284.6 313.5 284.6C298.588 284.6 286.5 296.688 286.5 311.6C286.5 326.512 298.588 338.6 313.5 338.6Z" fill="#53325A"/>
<path id="XMLID_60_" d="M319.5 331.6C304.6 331.6 292.5 319.5 292.5 304.6C292.5 299.6 293.9 294.8 296.3 290.8C290.3 295.8 286.5 303.2 286.5 311.6C286.5 326.5 298.6 338.6 313.5 338.6C323.4 338.6 332 333.3 336.7 325.4C332 329.3 326 331.6 319.5 331.6Z" fill="#4A2D51"/>
<path id="XMLID_35_" d="M330.5 311.6C330.5 302.2 322.9 294.6 313.5 294.6" stroke="white" stroke-width="3" stroke-miterlimit="10" stroke-linecap="round" stroke-linejoin="round"/>
<path id="XMLID_22_" d="M313.5 338.6C328.412 338.6 340.5 326.512 340.5 311.6C340.5 296.688 328.412 284.6 313.5 284.6C298.588 284.6 286.5 296.688 286.5 311.6C286.5 326.512 298.588 338.6 313.5 338.6Z" stroke="#202B52" stroke-width="6" stroke-miterlimit="10" stroke-linecap="round" stroke-linejoin="round"/>
<path id="XMLID_42_" d="M21.3 368.9C11.4 368.9 3.29999 360.8 3.29999 350.9V21.1C3.29999 11.2 11.4 3.10001 21.3 3.10001C31.2 3.10001 39.3 11.2 39.3 21.1V350.9C39.3 360.8 31.3 368.9 21.3 368.9Z" fill="#FDBA4F"/>
<path id="XMLID_65_" d="M18.3 350.9V21.1C18.3 13.8 22.6 7.59999 28.8 4.79999C26.5 3.69999 24 3.10001 21.3 3.10001C11.4 3.10001 3.29999 11.2 3.29999 21.1V350.9C3.29999 360.8 11.4 368.9 21.3 368.9C24 368.9 26.5 368.3 28.8 367.2C22.6 364.4 18.3 358.2 18.3 350.9Z" fill="#E89D3A"/>
<path id="XMLID_40_" d="M373.3 368.9C363.4 368.9 355.3 360.8 355.3 350.9V21.1C355.3 11.2 363.4 3.10001 373.3 3.10001C383.2 3.10001 391.3 11.2 391.3 21.1V350.9C391.3 360.8 383.3 368.9 373.3 368.9Z" fill="#FDBA4F"/>
<path id="XMLID_66_" d="M370.3 350.9V21.1C370.3 13.8 374.6 7.59999 380.8 4.79999C378.5 3.69999 376 3.10001 373.3 3.10001C363.4 3.10001 355.3 11.2 355.3 21.1V350.9C355.3 360.8 363.4 368.9 373.3 368.9C376 368.9 378.5 368.3 380.8 367.2C374.6 364.4 370.3 358.2 370.3 350.9Z" fill="#E89D3A"/>
<path id="XMLID_1_" d="M21.3 368.9C11.4 368.9 3.29999 360.8 3.29999 350.9V21.1C3.29999 11.2 11.4 3.10001 21.3 3.10001C31.2 3.10001 39.3 11.2 39.3 21.1V350.9C39.3 360.8 31.3 368.9 21.3 368.9Z" stroke="#202B52" stroke-width="6" stroke-miterlimit="10" stroke-linecap="round" stroke-linejoin="round"/>
<path id="XMLID_7_" d="M373.3 368.9C363.4 368.9 355.3 360.8 355.3 350.9V21.1C355.3 11.2 363.4 3.10001 373.3 3.10001C383.2 3.10001 391.3 11.2 391.3 21.1V350.9C391.3 360.8 383.3 368.9 373.3 368.9Z" stroke="#202B52" stroke-width="6" stroke-miterlimit="10" stroke-linecap="round" stroke-linejoin="round"/>
<path id="XMLID_111_" d="M117 57.6C117 48.2 109.4 40.6 100 40.6" stroke="white" stroke-width="3" stroke-miterlimit="10" stroke-linecap="round" stroke-linejoin="round"/>
<path id="XMLID_69_" d="M182 57.6C182 48.2 174.4 40.6 165 40.6" stroke="white" stroke-width="3" stroke-miterlimit="10" stroke-linecap="round" stroke-linejoin="round"/>
<path id="XMLID_39_" d="M246 57.6C246 48.2 238.4 40.6 229 40.6" stroke="white" stroke-width="3" stroke-miterlimit="10" stroke-linecap="round" stroke-linejoin="round"/>
<path id="XMLID_115_" d="M214.3 136.1C214.3 126.7 206.7 119.1 197.3 119.1" stroke="white" stroke-width="3" stroke-miterlimit="10" stroke-linecap="round" stroke-linejoin="round"/>
<path id="XMLID_36_" d="M315.1 136.1C315.1 126.7 307.5 119.1 298.1 119.1" stroke="white" stroke-width="3" stroke-miterlimit="10" stroke-linecap="round" stroke-linejoin="round"/>
</g>
</svg>
