<?xml version="1.0" encoding="utf-8"?>
<!-- Generator: Adobe Illustrator 23.0.3, SVG Export Plug-In . SVG Version: 6.00 Build 0)  -->
<svg version="1.1" xmlns="http://www.w3.org/2000/svg" xmlns:xlink="http://www.w3.org/1999/xlink" x="0px" y="0px"
	 viewBox="0 0 1600 1200" style="enable-background:new 0 0 1600 1200;" xml:space="preserve">
<style type="text/css">
	.st0{fill:#E8E8E8;}
	.st1{fill:#EC615B;}
	.st2{fill:#5222D0;}
	.st3{fill:#FFFFFF;}
	.st4{fill:#FFFFFF;stroke:#000000;stroke-width:3;stroke-miterlimit:10;}
	.st5{stroke:#000000;stroke-width:3;stroke-miterlimit:10;}
	.st6{opacity:0.31;fill:#A5A4A4;}
	.st7{fill:#161616;}
	.st8{fill:#070707;}
	.st9{opacity:0.23;fill:#A5A4A4;}
	.st10{opacity:0.11;fill:#A0A0A0;}
	.st11{opacity:0.33;fill:#A5A4A4;}
	.st12{opacity:0.14;fill:#A5A4A4;}
</style>
<g id="background">
	<g>
		<g>
			<path class="st0" d="M245.3,333.1c0.6-5.5,6.1-7.7,11-8c5.6-0.3,10.3,1.9,15.1,4.5c8,4.3,16.3,8.6,25.5,5.2
				c8.7-3.2,14.7-11.1,23.5-14.2c10.4-3.7,20.7,2.6,30.4,5.7c9,2.9,16.9,2.3,25.3-1.8c9.6-4.7,18.2-11.3,29.5-8.1
				c8.6,2.4,15.9,8.2,24.4,10.8c8.6,2.6,15.3,0.1,22.4-4.8c6.8-4.6,12.8-6.7,20.7-3.2c4.8,2.1,9,5.4,13.9,7.4
				c7.4,3.1,17,3.8,21.9-3.6c1.1-1.6-1.5-3.1-2.6-1.5c-7.4,10.9-22.3-0.4-30.3-4.3c-8.7-4.3-16-3.7-24,1.7c-4.5,3-8.8,6.3-14.4,6.4
				c-5.3,0.2-10.4-2.2-15-4.5c-7.5-3.7-15.1-8.5-23.8-8.4c-9.6,0.1-17.3,6.3-25.7,10.2c-11.5,5.3-21.3,0.9-32.4-3.1
				c-8.5-3.1-16.9-4.4-25.3,0c-8.4,4.4-15.5,13.5-25.6,13.7c-11.7,0.2-20.1-10.8-31.8-11c-7.3-0.2-14.9,3.1-15.8,11
				C242.1,335,245.1,335,245.3,333.1L245.3,333.1z"/>
		</g>
	</g>
	<g>
		<g>
			<path class="st0" d="M388.2,355.1c5-16.1,28.6-4.3,38.9-3.1c7.2,0.9,12.5-1.5,18.2-5.7c7.2-5.3,15.8-7.8,24.7-5.6
				c12.2,3,23.5,13.8,34.7,2.7c6.2-6.1,11.5-2.7,18.4,0.2c4.3,1.8,8.5,3,12.7,0.5c1.7-1,0.2-3.6-1.5-2.6c-5.7,3.3-12.3-2.2-17.7-4
				c-5-1.7-9.2-0.9-13.1,2.7c-4,3.8-7.3,6.2-13.1,4.9c-3.9-0.9-7.6-2.7-11.2-4.3c-6.7-2.9-13.3-4.8-20.7-3.6
				c-7.8,1.2-12.5,5.7-19,9.5c-8.8,5.2-18.6,0.6-27.5-1.7c-9.4-2.5-23.2-1.8-26.6,9.2C384.7,356.2,387.6,357,388.2,355.1
				L388.2,355.1z"/>
		</g>
	</g>
	<g>
		<g>
			<path class="st0" d="M414.7,1017.6c-10.9-4-16.4-17.5-11.2-27.9c0.2-0.5,0.3-1.1,0-1.5c-3-4.4-5.5-9-7.4-13.9
				c-0.8-2.1-1.5-4.3-2.1-6.5c-0.1-0.6-1.4-8.9,1.5-7.5c1.1,0.5,2.6-0.4,2.2-1.7c-15.1-46.5-26.2-94.1-33.1-142.5
				c-0.6,0.6-1.2,1.2-1.8,1.8c9.3,1.3,15.1,8.6,19.3,16.4c5.2,9.5,8.9,20,13.1,30c9,21.4,17.9,42.8,26.9,64.3
				c0.9-0.4,1.8-0.8,2.7-1.2c-2.6-5.9-1.8-12.2,2-17.3c-0.8,0.1-1.6,0.2-2.4,0.3c2.1,2.2,4.2,4.4,6.3,6.7c1,1,3.1,0,2.5-1.5
				c-1.2-2.9-3.2-8.2-1-11.1c4.7-5.9,9.8,4.1,11,7.2c3.4,8.9,6.3,18.1,9.5,27.1c6.4,18.4,12.9,36.7,19.3,55.1
				c0.6,1.8,3.3,1.1,2.9-0.8c-1-4.9,2.5-6.6,6.2-4.1c1.8,1.3,3.2,3.8,4.2,5.7c2.3,4.3,3.2,8.9,3,13.8c-0.1,1.9,2.9,1.9,3,0
				c0.4-8.9-3.2-18-10.3-23.6c-5.4-4.2-10,4.1-9,9c1-0.3,1.9-0.5,2.9-0.8c-9-25.8-18.1-51.6-27.1-77.4c-2-5.6-5.5-17.4-13.7-15.7
				c-7.6,1.6-5.8,11.3-3.7,16.4c0.8-0.5,1.7-1,2.5-1.5c-2.1-2.2-4.2-4.4-6.3-6.7c-0.7-0.8-1.8-0.4-2.4,0.3c-4.5,6-5.1,13.5-2,20.3
				c0.7,1.5,3.4,0.4,2.7-1.2c-10-23.8-20-47.7-29.9-71.5c-6.2-14.8-12.7-38.6-31.5-41.2c-1.2-0.2-2,0.6-1.8,1.8
				c7,48.4,18,96,33.1,142.5c0.7-0.6,1.5-1.1,2.2-1.7c-4.7-2.3-7,3.6-6.7,7.4c0.3,4.2,2.2,8.7,3.8,12.5c0.9,2.2,1.9,4.3,3.1,6.3
				c0.8,1.5,3,3.9,3,5.5c0,1.2-1.1,3-1.4,4.2c-0.3,1.5-0.5,3.1-0.4,4.6c0,3.1,0.7,6.2,1.9,9.1c2.5,6.2,7.3,10.8,13.5,13.1
				C415.8,1021.2,416.5,1018.3,414.7,1017.6L414.7,1017.6z"/>
		</g>
	</g>
	<g>
		<g>
			<path class="st0" d="M1065.4,1014.2c-0.5-4.7-0.8-9.4-0.6-14.1c0.1-2.2,0.3-4.4,0.5-6.6c0.1-1.4,0.4-2.8,0.7-4.1
				c0.4-2.8,2.1-3.4,5.2-1.6c-0.1,1.7,2.5,2,2.9,0.4c3.7-13,7.4-26.1,11-39.1c1.7-5.9,3.3-11.9,5-17.8c0.9-3.4,1.9-6.7,2.8-10.1
				c0.4-1.5,0.9-3.1,1.3-4.6c0.2-0.6,0.3-1.2,0.5-1.8c0.2-1.9,1.1-3.3,2.7-4.2c0.5,1.7,2.8,1.3,2.9-0.4
				c2.1-33.7,11.2-66.5,26.6-96.6c-0.9,0-1.7,0-2.6,0c4.8,6.8,6.7,14.8,5.1,23c-0.3,1.9,2.4,2.7,2.9,0.8c3.8-14.3,9.7-28,17.6-40.5
				c1.8-2.9,3.8-5.8,5.8-8.5c1-1.3,2.3-3.9,3.8-4.7c1,0,2-0.1,3-0.1c1.9-1,3-0.8,3.3,0.7c0.6,0.8,0.7,2.4,0.7,3.4
				c0.4,7.6-2.3,16.1-3.6,23.6c-5.6,33.1-11.3,66.3-16.9,99.4c-3.2,18.7-6.4,37.4-9.6,56.1c1,0,1.9,0,2.9,0c-1.6-4,2.9-7,6.5-6.3
				c2.8,0.6,4.5,2.8,5.7,5.3c2.3,4.8,2.2,10.6,1.5,15.7c-1.6,10.7-7,20.4-12.2,29.7c-0.9,1.7,1.6,3.2,2.6,1.5
				c7.5-13.4,17.8-31.6,11.3-47.3c-1.9-4.6-6.2-9.1-11.6-8c-4.7,0.9-8.5,5.5-6.7,10.2c0.5,1.2,2.6,1.6,2.9,0
				c6.7-39.1,13.3-78.1,20-117.2c3.3-19.5,7.4-39.1,10-58.7c0.5-3.8,0.6-9.5-3.1-11.9c-4.9-3.2-9.3,2-12,5.6
				c-11.5,15.3-19.8,32.7-24.7,51.2c1,0.3,1.9,0.5,2.9,0.8c1.7-9-0.1-17.9-5.4-25.4c-0.6-0.9-2-1.1-2.6,0
				c-15.6,30.5-24.8,63.9-27,98.1c1-0.1,2-0.3,2.9-0.4c-1.1-3.6-5-2.1-6.8,0.2c-2,2.5-2.5,6.5-3.3,9.6c-1.3,4.6-2.6,9.2-3.9,13.8
				c-5.1,18.1-10.2,36.1-15.3,54.2c1,0.1,2,0.3,2.9,0.4c0.4-5.5-6.7-6.2-9.5-2.5c-2.3,3-2.4,7.5-2.7,11c-0.5,6-0.3,11.9,0.4,17.8
				C1062.6,1016.1,1065.6,1016.1,1065.4,1014.2L1065.4,1014.2z"/>
		</g>
	</g>
	<g>
		<g>
			<path class="st0" d="M1153.8,965.8c1.7-2.1,2.4-4,2.8-6.7c0.2-1.3,0.3-2.8,0.6-4.1c0.4-1.4,3.8-7.8,6.3-4.2
				c1,1.4,3.1,0.6,2.7-1.2c-1.2-5.9,0-11.9,3.4-16.9c2.6-3.8,7.8-5.1,8.4-9.6c1.9-13.9,5.3-27.5,9.7-40.8
				c4.1-12.3,8.8-24.4,13.4-36.6c4.9-12.9,9.6-25.9,16.8-37.8c-0.9-0.1-1.8-0.2-2.7-0.4c4,28.4-4.5,57.1-10.4,84.7
				c-5.9,27.7-11.8,55.5-17.8,83.2c-0.3,1.3,1,2.3,2.2,1.7c4.1-2,7.8-4.4,11.3-7.3c-0.9-0.4-1.7-0.7-2.6-1.1
				c1.1,12.1-1.4,23.8-7.4,34.4c-1,1.7,1.6,3.2,2.6,1.5c6.3-11,9-23.3,7.8-35.9c-0.1-1.3-1.5-1.9-2.6-1.1c-3.3,2.7-6.8,5-10.7,6.8
				c0.7,0.6,1.5,1.1,2.2,1.7c6.2-29,12.4-58.1,18.6-87.1c5.8-27,13.4-54.7,9.6-82.4c-0.2-1.3-2.1-1.4-2.7-0.4
				c-7.3,12.1-12.1,25.3-17.1,38.5c-5.1,13.6-10.4,27.1-14.8,41c-2.2,7-4.1,14.1-5.6,21.3c-0.8,3.8-1.5,7.6-2.1,11.5
				c-0.6,3.6-0.7,4.9-3.5,7.1c-7.5,5.8-10.7,15.6-8.8,24.7c0.9-0.4,1.8-0.8,2.7-1.2c-2.1-3-5.4-2.8-8.3-0.8
				c-5.1,3.7-2.5,10.6-6.2,15.1C1150.5,965.1,1152.6,967.3,1153.8,965.8L1153.8,965.8z"/>
		</g>
	</g>
	<g>
		<g>
			<path class="st0" d="M360,1031.1c-4.7-3-8-7.4-9.6-12.7c-0.7-2.4-1-4.8-0.9-7.3c0.1-3.3,1.5-5.5,2.1-8.6c0.3-1.7-0.4-3.3-0.8-5
				c-0.8-3.2-1.7-6.4-2.5-9.5c-1.7-6.5-3.4-13.1-5.1-19.6c-6.6-25.4-12-51.1-15.7-77.1c-0.7,0.6-1.5,1.1-2.2,1.7
				c15.3,10.1,21.7,29.4,29,45.4c8.8,19.4,17.6,38.7,26.4,58.1c0.7,1.5,3.3,0.4,2.7-1.2c2.6-1.8,4.4-1.7,5.6,0.3
				c0.7,0.8,1.3,1.6,1.9,2.5c0.9,1.2,1.8,2.5,2.7,3.7c2,2.7,4,5.5,6,8.2c1.1,1.5,3.7,0,2.6-1.5c-2.9-4-5.8-8-8.7-12
				c-1.6-2.2-3.3-5-5.9-6.1c-3.8-1.6-8.6,1.3-7,5.7c0.9-0.4,1.8-0.8,2.7-1.2c-9.4-20.6-18.7-41.1-28.1-61.7
				c-7.1-15.5-13.5-33-28.4-42.8c-1.2-0.8-2.4,0.5-2.2,1.7c4,28.5,10.3,56.5,17.6,84.3c1.8,7,3.6,14,5.5,21c0.9,3.3,0.7,4.5-0.2,7.6
				c-0.6,2.2-1,4.5-1,6.8c0,8.9,4.5,17.2,12,22C360.1,1034.7,361.6,1032.1,360,1031.1L360,1031.1z"/>
		</g>
	</g>
	<g>
		<g>
			<path class="st0" d="M266.7,1037.9c72.4,0,144.8,0,217.2,0c1.9,0,1.9-3,0-3c-72.4,0-144.8,0-217.2,0
				C264.7,1034.9,264.7,1037.9,266.7,1037.9L266.7,1037.9z"/>
		</g>
	</g>
	<g>
		<g>
			<path class="st0" d="M1065.4,1029.1c72.4,0,144.8,0,217.2,0c1.9,0,1.9-3,0-3c-72.4,0-144.8,0-217.2,0
				C1063.5,1026.1,1063.5,1029.1,1065.4,1029.1L1065.4,1029.1z"/>
		</g>
	</g>
	<g>
		<g>
			<path class="st0" d="M399.8,1113.2c77.3,0,154.6,0,231.9,0c22,0,44,0,66,0c1.9,0,1.9-3,0-3c-77.3,0-154.6,0-231.9,0
				c-22,0-44,0-66,0C397.9,1110.2,397.9,1113.2,399.8,1113.2L399.8,1113.2z"/>
		</g>
	</g>
	<g>
		<g>
			<path class="st0" d="M777.4,1141.5c95.6,0,191.2,0,286.8,0c27,0,54,0,80.9,0c1.9,0,1.9-3,0-3c-95.6,0-191.2,0-286.8,0
				c-27,0-54,0-80.9,0C775.4,1138.5,775.4,1141.5,777.4,1141.5L777.4,1141.5z"/>
		</g>
	</g>
	<g>
		<g>
			<path class="st0" d="M417.9,571.2c1.4-4.7,7.2-4.6,11-3.2c3.8,1.4,6.7,4.6,9.8,7c5.4,4.2,11.1,5.9,17.6,3.1
				c7.4-3.2,13-9.4,20.2-12.9c4.8-2.3,10-3.7,15.3-2.5c4,0.9,7.6,3.1,11.4,4.7c5.5,2.3,11.1,3.3,16-0.8c3-2.5,4.7-6.4,8.2-8.4
				c2.7-1.6,5.7-1.5,8.7-0.7c9.8,2.5,19.5,12.3,30,7.2c1.7-0.9,0.2-3.4-1.5-2.6c-11.4,5.6-22.4-9.6-34.1-8c-7,1-8.8,7.5-14.1,11
				c-7.7,5.2-17.6-4.3-25.4-5.5c-7.9-1.2-15.6,2.4-22.1,6.7c-8.1,5.3-16.1,14.4-26.2,8c-5.7-3.6-9.6-9.3-16.8-9.9
				c-4.8-0.5-9.4,1.3-10.8,6.2C414.4,572.3,417.3,573.1,417.9,571.2L417.9,571.2z"/>
		</g>
	</g>
	<g>
		<g>
			<path class="st0" d="M1080,269.3c-0.1-3.1,1.2-4.7,4.1-4.8c2,0.4,3.7,1.3,5.1,2.8c1.5,1.4,2.7,3.1,4,4.6c2.2,2.4,4.8,4.8,8.1,5.3
				c2.6,0.4,4.6-0.4,6.6-1.9c3.7-2.7,5.9-6,10.8-6.9c5.3-1,9.5,0.9,13.8,3.8c2.4,1.7,4.9,3.3,7.9,3.6c5.4,0.5,9.5-3.6,13.6-6.5
				c3.1-2.2,6.2-3.9,10-2c2.9,1.4,4.8,4.3,7.5,6c1.5,0.9,3.1,1.6,4.8,1.4c3.4-0.4,4.3-3.4,6.5-5.4c4.1-3.8,10.2-1.4,14.8-0.3
				c3,0.7,5.9,1.1,9,1.1c8,0.1,17.7-2.2,24.1,3.9c1.4,1.3,3.5-0.8,2.1-2.1c-4.1-3.9-9.1-5-14.6-5.1c-7.3-0.1-14.1,0.6-21.3-1.1
				c-4.9-1.1-10.8-2.8-15.2,0.5c-0.9,0.7-1.5,1.5-2.2,2.4c-2.1,2.5-4.5,3.5-7.3,1.5c-2.2-1.6-4-3.6-6.3-5.1
				c-11.4-7-18,12.3-28.9,6.5c-5.7-3.1-9.6-6.9-16.5-6.4c-2.5,0.2-4.9,0.8-7.1,1.9c-1.2,0.6-2.3,1.3-3.4,2.2c-0.6,0.5-1.1,1-1.7,1.5
				c-2.2,2-2.8,2.8-5.9,2.7c-8.1-0.2-10-11.9-18.4-12c-4.4-0.1-8.8,4.2-7,8.6C1077.8,271.8,1080.7,271.1,1080,269.3L1080,269.3z"/>
		</g>
	</g>
	<g>
		<g>
			<path class="st0" d="M1156.6,310.4c5.7-6,14-6.1,20.4-1.2c3.7,2.8,7.2,5.2,11.9,3.2c5.5-2.4,8.4-8.7,15.2-6.6
				c4.8,1.5,8.6,5.3,13.6,6.5c4.5,1,8.1-1,11.7-3.5c2.9-2,5.8-4.5,9.5-2.5c2.5,1.3,3.9,3.9,6.1,5.5c3.6,2.5,6.4,1.2,9.5-1.3
				c6.2-5.1,13.7-6.4,20.5-1.3c1.5,1.2,3-1.4,1.5-2.6c-4.4-3.3-9.9-4.5-15.2-3.3c-2.5,0.6-4.8,1.6-6.8,3.2c-2.6,2-4.8,5.1-8.1,2.5
				c-0.9-0.7-1.6-1.7-2.5-2.5c-3.1-3.1-6.3-5.1-10.8-3.4c-7.1,2.7-10.2,8.9-18.6,4.7c-4.4-2.2-8.7-5.8-13.9-5.5
				c-6.2,0.3-9.2,7.5-15,7.7c-3.9,0.2-6.4-3.3-9.5-5.1c-2.1-1.3-4.5-2-6.9-2.2c-5.6-0.5-10.8,1.6-14.7,5.6
				C1153.2,309.6,1155.3,311.8,1156.6,310.4L1156.6,310.4z"/>
		</g>
	</g>
	<g>
		<g>
			<path class="st0" d="M936.2,588c1.4-8.1,11.3-9.4,18-7.8c7.5,1.8,13.8,7,21.3,8.9c7.6,1.9,14.1-0.7,21.1-3.4
				c3.3-1.3,6.9-2.7,10.5-2.6c5,0.1,7.9,3.5,12.1,5.6c12.9,6.4,23.1-10.4,35.7-10.2c12.3,0.2,25.6,10.4,37.2,2.5
				c1.6-1.1,0.1-3.7-1.5-2.6c-10.1,6.8-23-1.9-33.7-2.8c-5.1-0.4-9.6,0.7-14,3.1c-5.1,2.7-9.9,7.2-15.8,8.2
				c-6.8,1.2-10.7-5.2-16.9-6.5c-5.4-1.1-10.8,1-15.8,3c-6.8,2.6-13.1,4.6-20.4,2.1c-6.2-2.1-11.7-6-18-7.9
				c-8.4-2.5-21-0.6-22.8,9.6C933,589.1,935.9,589.9,936.2,588L936.2,588z"/>
		</g>
	</g>
	<circle class="st1" cx="449.4" cy="419.3" r="13.4"/>
	<circle class="st1" cx="1069.4" cy="139.3" r="6.2"/>
	<circle class="st1" cx="503.9" cy="712.1" r="13"/>
	<circle class="st2" cx="487.3" cy="198.9" r="3.5"/>
	<circle class="st2" cx="1035.8" cy="484" r="9.4"/>
	<circle class="st2" cx="1084.7" cy="671.9" r="6.7"/>
</g>
<g id="sand_clock">
	<path class="st3" d="M574.7,173.2c0.1,7.9,0.3,19.7,0.6,34c0.8,46,1.5,79.4,2.5,110c0.8,25.4,2.4,60.8,5.3,103.8
		c17.5,0.7,84.6,5.3,131.4,58.1c15,16.9,24.2,34.5,29.8,49c0.7,1.4,17.3,36,55.7,39.6c25.1,2.3,49.5-9.5,63.4-30.7
		c14.2-3.3,35-9.9,56.5-24.4c9.8-6.6,30.1-20.5,45.3-45.5c13.3-21.9,16.8-42.4,19.1-59c9.2-67,6.3-120.6,5.9-175.8
		c-0.2-21.6,0-54.4,1.8-95C962.2,121,875.7,78.7,761.7,93.4C666.7,105.8,601.9,151.4,574.7,173.2z"/>
	<path class="st4" d="M991.4,145.6c-0.4,33.3-1,74.7-1.9,122.2c-2.5,133.6-4.3,156.6-15.1,181.5c-8.8,20.4-34.5,67.2-111.1,87.7
		c0,27.2,0,54.4,0,81.6c15.1,9.3,36.3,23.2,60.3,41.9c38.9,30.3,66.1,58.3,72.2,65.1c67.7,74.8,32.4,273.4,29.9,287.3
		c-25.1,22.1-58.8,45.2-102,60c-161.8,55.7-314.2-52.5-335.2-67.9"/>
	<path class="st4" d="M574.7,173.2c0.5,32.1,1.3,72,2.4,117.8c3.1,128.7,5.4,150.9,19,174.9c11.2,19.7,43.6,64.7,140.4,84.5
		c0,26.2,0,52.4,0,78.6c-19.5,8.4-46.3,21.3-76.2,40.4c0,0-34.7,22.2-59.2,43.9c-46.1,40.9-68.2,158-56.2,300
		c26.1,16.2,65.1,37.2,115.4,53.5c49.8,16.2,124.7,40.5,214.4,20.3c29.9-6.7,83.8-23.4,140.2-69.9"/>
	<path class="st5" d="M574.7,173.2c10.5-7.1,26.9-17.2,48.1-26.9c92.5-42.3,181.9-32.6,241.6-25.3c31.5,3.8,75.6,11.6,127,29
		c0.4-8.7,0.7-17.3,1.1-26C930.7,104.4,877.8,97.7,841,95.3c-55.3-3.6-129.9-7.7-211.9,27.5c-23.9,10.3-42.4,21.3-54.3,29
		C574.7,158.9,574.7,166,574.7,173.2z"/>
	<path class="st5" d="M544.9,1013.3c-0.3,9.3-0.6,18.6-0.9,27.9c13.9,11.2,33.9,25.6,59.6,39.4c90.5,48.5,176,47.8,201.3,46.9
		c112.6-4.2,191-56,220-77.4c0.5-14,1.1-28.1,1.6-42.1c-18.9,17.4-38.1,30.7-56.5,41C799.7,1143.7,586.9,1035.6,544.9,1013.3z"/>
	<g>
		<g>
			<path d="M631.4,504.3c3-8.7,13.9-3,18.9-0.2c5.5,3,10.8,4.6,17,4.4c6.4-0.2,12.7-1.8,19.2-2.2c3.5-0.2,7.1-0.2,10.5,0.7
				c3.4,0.9,6.3,2.7,9.6,3.9c10.7,3.9,18.7-3.5,27.2-8.9c6.1-3.8,12.2-5.4,19.3-3.2c7.1,2.2,12.9,7,19.5,10.3c8,4.1,19,7.1,26.7,0.9
				c3.6-2.9,5.4-7.2,7.5-11.2c1.1-2.2,2.2-4.6,4-6.3c3.5-3.4,7.7-2.1,12-1.9c10.1,0.5,16.3-7.7,24.4-12.2c11-6.1,18.7,2.9,25.9,10.3
				c5.8,5.9,13,11.8,21.6,7.4c6.5-3.3,10.4-9.4,18.4-9.2c7.1,0.2,13.4,4.3,16.3,10.7c0.8,1.8,3.4,0.2,2.6-1.5
				c-3.9-8.8-14.1-13.8-23.5-11.8c-6,1.3-9.4,6-14.6,8.8c-5.7,3-10.7,0.8-15.1-3.2c-6.5-5.7-11.9-14.6-21-16.5
				c-10.4-2.2-17.5,7.2-25.6,11.8c-2.7,1.5-5.4,2.4-8.4,2.4c-3.5,0-6.9-1.1-10.3-0.1c-4,1.2-6.5,4.7-8.4,8.2
				c-3,5.5-5.1,12.2-11.8,14.2c-6.8,2-14.4-0.8-20.3-4c-10.6-5.8-21.6-14.6-34.3-9.7c-5.4,2.1-9.9,5.9-14.8,9
				c-2.4,1.5-5,2.9-7.8,3.6c-4.6,1.1-8.5-0.6-12.7-2.5c-6.8-3.1-13.4-3.5-20.8-2.5c-7.9,1-16.2,3.1-24,0.8c-6.7-2-12.1-7.8-19.3-7.8
				c-4.7,0-9,2.2-10.6,6.7C627.9,505.4,630.8,506.1,631.4,504.3L631.4,504.3z"/>
		</g>
	</g>
	<g>
		<g>
			<path d="M736.4,553.5c6.3,0.2,12.6,0.5,18.9,0.7c4.1,0.2,8.9-0.3,11.8,3.3c2,2.4,1.9,7.3,2.4,10.3c2,13.5,3.8,27,5.6,40.6
				c2.9,22.2,5.5,44.5,7.6,66.8c3,31.1,5.3,62.3,5.7,93.6c0.3,22.3-0.5,44.3-4.6,66.2c-0.3,1.8-0.3,3.6-0.4,5.5
				c-0.4,10.6-0.8,21.3-1,31.9c-0.6,27.2-0.5,54.4,0.2,81.6c0,1.9,3,1.9,3,0c-0.6-25.2-0.7-50.4-0.3-75.6
				c0.2-10.2,0.5-20.4,0.8-30.6c0.1-3.8-0.1-7.9,0.5-11.7c0.8-5.3,2.2-10.4,2.8-15.8c1.9-16.2,2.2-32.7,2-49
				c-0.3-31.6-2.6-63.2-5.6-94.6c-2.5-25.8-5.5-51.5-9-77.1c-0.9-6.9-1.9-13.9-2.9-20.8c-0.9-6.6-0.9-15.1-3.6-21.2
				c-2-4.5-5.8-5.7-10.5-6c-7.8-0.5-15.7-0.6-23.5-0.9C734.5,550.5,734.5,553.5,736.4,553.5L736.4,553.5z"/>
		</g>
	</g>
	<g>
		<g>
			<path d="M861.2,535.9c-7.4,3.8-14.8,7.7-22.2,11.5c-5.9,3-13.1,5.6-17.9,10.3c-4.7,4.6-4.6,10.7-5.8,16.7c-1,5-4.4,8.3-6.5,12.7
				c-2.6,5.5-3,12.3-3.7,18.2c-3.1,26.5-3.8,53.4-4.6,80.1c-1.1,34.8-1.7,69.6-2.1,104.3c-0.3,28.7-0.5,57.4-0.6,86.2
				c0,17.3,0.2,34.6,0.2,51.9c0,7.7-0.1,15.5-0.2,23.2c0,1.9,3,1.9,3,0c0.4-22.4,0-44.7,0-67.1c0-26.3,0.2-52.6,0.4-78.9
				c0.3-34.1,0.8-68.2,1.7-102.3c0.8-28.8,1.6-57.6,4.1-86.3c0.7-8.1,1.3-16.3,3.2-24.2c1.1-4.3,3.8-7.4,5.9-11.4
				c3-5.7,1.7-12.7,4.9-18.2c3.7-6.5,14-9.7,20.3-13c7.1-3.7,14.3-7.4,21.4-11.1C864.5,537.6,862.9,535,861.2,535.9L861.2,535.9z"/>
		</g>
	</g>
	<g>
		<g>
			<path d="M585,1033.4c5.3,1.9,9.7-1.2,13.7-4.4c6-4.6,12.1-7.5,19.5-9c12.6-2.5,25.8-1.6,38.3-4.8c13.2-3.4,21.7-12.4,31-21.7
				c11.5-11.5,24.8-16.7,40-21.3c19-5.6,38-11.3,57.1-16.9c1.8-0.5,1.1-3.4-0.8-2.9c-16.2,4.8-32.3,9.6-48.5,14.4
				c-13.7,4.1-28.4,7.4-40.2,16c-10.8,7.8-18.2,19.9-30.2,26.1c-12,6.2-26.1,5.5-39.1,6.9c-6.3,0.7-12.7,1.8-18.6,4.3
				c-2.8,1.2-5.4,2.8-7.9,4.6c-3.9,2.9-8.2,7.6-13.5,5.7C583.9,1029.9,583.1,1032.8,585,1033.4L585,1033.4z"/>
		</g>
	</g>
	<g>
		<g>
			<path d="M799.3,952.5c16.5-0.1,28.6,15.3,42.3,22.5c14.1,7.4,29.8,11.1,45.6,13.1c17.2,2.2,36.4,0.8,52,9.6
				c8.1,4.6,14.9,11.2,21.9,17.2c7.3,6.3,14.5,12.6,21.8,18.9c1.5,1.3,3.6-0.9,2.1-2.1c-7.8-6.7-15.5-13.4-23.3-20.1
				c-6.3-5.4-12.5-11.2-19.6-15.5c-15-9.1-33-8.5-49.8-10.3c-18.3-2-36.8-6-52.9-15.4c-12.9-7.6-24-20.9-40.1-20.8
				C797.4,949.5,797.4,952.5,799.3,952.5L799.3,952.5z"/>
		</g>
	</g>
</g>
<g id="Layer_10">
	<g id="leg_right">
		<path d="M611.9,468.7c1.3,1.9,3.4,4.7,6.2,7.6c4.9,5.1,9.3,7.8,18.6,13.5c3,1.8,8.7,5.3,17.5,10.8c3.2-1.8,6.5-3.9,9.9-6.3
			c9.4-6.6,16.7-13.7,22.3-20.2c-5.2-4.8-10.4-9.6-15.7-14.5c-1.7,3.6-5.7,10.9-13.8,14.2c-3.6,1.5-7.3,1.9-16.6,0.8
			C633.4,473.8,623.6,472.2,611.9,468.7z"/>
		<path class="st3" d="M666.2,449.8c1.6,2.7,3.5,5.4,5.6,8.2c8.1,10.5,17.2,17.7,24.8,22.6c9.5-4.4,17-8.3,22.1-11
			c23.5-12.4,35.2-18.6,37.1-19.8c6.1-3.9,11.4-7.6,19.2-7.7c6.1-0.1,10.6,2.1,13.2,3.3c12.2,5.9,24.8,11.1,37,17.2
			c15,7.6,24.8,12.4,38.9,15.5c16.2,3.6,23.6,1.7,25.7,1.1c12.6-3.5,20.1-12.7,23.3-17.2c-5.9-8-15.3-19.2-28.9-30.1
			c-7.8-6.2-8.5-5.6-35.7-22.3c-23.3-14.2-32.4-20.6-49.2-26.4c-11.9-4.1-17.9-4.6-23.6-3.9c-5,0.7-9.7,2.3-26.3,11.9
			c-9.1,5.3-13.8,8-22.2,13.5c-14.8,9.8-26,18.3-47.4,34.6C673.9,443.8,669.2,447.5,666.2,449.8z"/>
		<path class="st6" d="M684.9,475.6c6.4-5,16-12.3,28.2-20.3c29.1-19.2,43.7-28.9,60.6-29.4c5.6-0.2,20.4,5.8,49.8,17.6
			c25.3,10.2,36.5,15.8,55.2,18.1c11.3,1.4,20.7,1,26.7,0.5c2.3,6.7,0.4,10.5-0.2,11.5c-3.5,6-12.8,6.3-19.7,6.5
			c-7.2,0.2-12.7-1.1-13.5-1.3c-24.6-6-37.5-9.1-53.4-18.6c-12.8-7.6-19.9-14.8-34.8-16.7c-3.4-0.4-6.3-0.5-8.1-0.5
			c-4.7,1.3-11.6,3.4-19.7,6.8c-11,4.6-17.7,9-26.8,14.2c-7.5,4.3-18.5,10.2-32.4,16.6C692.7,478.9,688.8,477.3,684.9,475.6z"/>
		<g>
			<g>
				<path class="st7" d="M664.9,450.6c8.2,12.4,17.4,24.5,30.9,31.3c1.7,0.9,3.2-1.7,1.5-2.6c-13.1-6.6-22-18.2-29.9-30.3
					C666.4,447.5,663.8,449,664.9,450.6L664.9,450.6z"/>
			</g>
		</g>
		<g>
			<g>
				<path class="st7" d="M668.4,449.9c25.1-21.1,52-40.1,80.5-56.6c6.9-4,13.8-8.3,21.4-10.9c8.6-3,16.9-2.4,25.3,0.9
					c15.5,6.1,30.4,15.2,44.8,23.5c16.6,9.4,32.8,19.5,48.7,30c1.6,1.1,3.1-1.5,1.5-2.6c-14.8-9.8-30-19.2-45.4-28.1
					c-15.2-8.7-30.7-17.9-46.8-24.8c-6.8-2.9-13.9-4.7-21.4-3.6c-7.5,1.1-14.5,4.5-21.1,8.2c-15.1,8.3-29.7,17.5-43.9,27.2
					c-15.8,10.8-31.1,22.5-45.8,34.8C664.8,449,666.9,451.2,668.4,449.9L668.4,449.9z"/>
			</g>
		</g>
		<g>
			<g>
				<path class="st7" d="M699.1,482.4c13.9-8,27.9-15.8,42.1-23.3c7.1-3.8,14.2-7.5,21.3-11.1c3.5-1.8,7-3.7,11-4.2
					c5-0.7,9.6,1,14,3c15.3,6.8,30.3,14.2,45.5,21.2c12.7,5.9,25.8,11.7,39.8,13.2c13.6,1.5,27.5-1.3,38.1-10.2
					c1.5-1.2-0.6-3.3-2.1-2.1c-15.2,12.6-36.1,11.1-53.7,5.1c-19.4-6.6-37.9-16.7-56.5-25.3c-7.3-3.4-15.5-8.6-23.8-8.2
					c-8.2,0.4-16.2,6-23.3,9.7c-18.2,9.4-36.2,19.3-54,29.5C695.9,480.8,697.4,483.4,699.1,482.4L699.1,482.4z"/>
			</g>
		</g>
		<g>
			<g>
				<path class="st7" d="M671.4,458.4c-3.7,3.4-7.4,6.9-11.1,10.3c-3.1,2.9-5.3,5.8-10.2,5.8c-2.4,0-5.2-1-7.5-1.5
					c-10-1.9-20.1-3.9-30.1-5.8c-1.2-0.2-2.5,1-1.7,2.2c9,13.9,25.2,21.6,38.9,30c1.9,1.1,4.5,3.7,6.9,3.2c3.2-0.6,6.8-5.5,9.1-7.6
					c7.6-6.9,15.2-13.7,22.8-20.6c1.4-1.3-0.7-3.4-2.1-2.1c-6.2,5.6-12.3,11.2-18.5,16.7c-2.8,2.6-5.6,5.3-8.5,7.7
					c-1.1,1.3-2.5,2.1-4.2,2.6c-0.5-0.3-1.1-0.7-1.6-1c-1.9-0.6-3.9-2.4-5.6-3.4c-12.3-7.6-26.5-14.6-34.6-27
					c-0.6,0.7-1.1,1.5-1.7,2.2c12.5,2.4,25.1,5.1,37.7,7.3c4.3,0.7,6.6-0.5,9.7-3.3c4.9-4.5,9.7-9,14.6-13.5
					C674.9,459.2,672.8,457.1,671.4,458.4L671.4,458.4z"/>
			</g>
		</g>
	</g>
	<g id="leg_left">
		<path class="st3" d="M674.9,479.4c2.2,2.8,4.8,5.8,8,8.7c12.4,11.1,26.4,14.6,34.4,15.8c3.7-2.9,9.3-7.8,15.8-14.3
			c9.9-10.1,13.5-16.2,24.2-28.2c3.8-4.3,9.7-10.7,17.3-18.1c3.2,3.4,7.9,8.3,13.7,13.9c18.8,18.3,33.2,32.3,54.5,43.3
			c12.6,6.5,26.9,13.7,44.7,11.8c2.2-0.2,10.5-1.3,20.1-5.8c8-3.8,15.8-7.4,19.4-15.3c4.8-10.4-0.8-21.8-2.7-25.7
			c-10.5-21.6-36.7-26.4-40.9-27.1c-10.2-4.9-24.2-12.2-40.1-22.1c-9.1-5.7-10.9-7.2-22.7-14.5c0,0-19.2-11.7-42.7-20.3
			c-3.6-1.3-9.1-3.2-15.9-2.1c-1.7,0.3-6.3,1.2-12.6,5.5c-9.1,6.2-14,14-15.4,16.3c-10.6,16.9-10.9,10.4-38.4,48.3
			C690.3,457,683.1,467.1,674.9,479.4z"/>
		<path class="st8" d="M644.7,500.5c3,2.8,6.3,5.6,10,8.4c14.5,11,29.3,17.2,41.2,20.9c3.9-8.3,7.8-16.6,11.7-24.9
			c-5.9-3.3-11.8-6.7-17.6-10c-0.7,2.9-2.3,7-5.9,8.9c-5,2.6-10.4-1-19.9-2.8C659.8,500,653.2,499.3,644.7,500.5z"/>
		<g>
			<g>
				<path class="st7" d="M673.9,480.5c6.4,8.2,14.6,15,24.1,19.4c7,3.3,19.3,9.1,25.9,2.8c4.7-4.5,8.7-10,12.9-15
					c4.4-5.2,8.9-10.4,13.3-15.6c9.1-10.6,18.2-21.3,27.3-31.9c1.2-1.5-0.9-3.6-2.1-2.1c-15.4,18-30.9,36.1-46.3,54.1
					c-1.9,2.2-3.7,4.5-5.7,6.7c-2.9,3.2-6,3.8-10.3,2.9c-4.9-1-9.7-2.7-14.2-4.8c-9-4.4-16.7-10.7-22.8-18.6
					C674.8,476.9,672.7,479,673.9,480.5L673.9,480.5z"/>
			</g>
		</g>
		<g>
			<g>
				<path class="st7" d="M773.6,444.4c22,23,45.5,45.5,73.9,60.4c6.7,3.5,13.9,7.1,21.3,9.2c7.5,2.1,14.4,0.9,21.8-0.9
					c13.6-3.4,27.6-7.3,37.5-17.8c1.3-1.4-0.8-3.5-2.1-2.1c-9.9,10.5-24.4,14.2-38,17.5c-9,2.1-16.3,1.6-24.9-1.8
					c-6.9-2.8-13.6-6.1-20-9.8c-25.6-14.8-47.1-35.5-67.4-56.7C774.3,440.9,772.2,443.1,773.6,444.4L773.6,444.4z"/>
			</g>
		</g>
		<g>
			<g>
				<path class="st7" d="M676.6,479.2c10.9-16.1,22.3-31.9,34.3-47.2c11.3-14.4,22.6-29.7,35.8-42.5c7.9-7.7,16.7-10,27.4-7.4
					c8.2,2,16.3,5.3,23.9,8.9c14.8,7.1,28.4,16.2,42.2,25c15.2,9.8,30.7,19.3,47.7,25.7c1.8,0.7,2.6-2.2,0.8-2.9
					c-33.2-12.6-59.9-37.1-92.1-51.8c-13.6-6.2-31.7-14.2-45.7-5c-7.1,4.7-12.5,11.8-18,18.2c-6.7,7.8-13.2,15.7-19.6,23.7
					c-13.8,17.4-26.9,35.3-39.4,53.6C672.9,479.2,675.5,480.7,676.6,479.2L676.6,479.2z"/>
			</g>
		</g>
		<g>
			<g>
				<path class="st7" d="M688.6,494.4c-0.4,1.6-0.8,3.3-1.6,4.8c-1.6,3-4.6,2.8-7.6,2.5c-3.6-0.3-7.2-1.4-10.8-1.8
					c-7.9-1-15.9-1.3-23.9-0.9c-1,0-2,1.3-1.3,2.3c5.4,7.4,15.4,12.5,23.3,16.9c9.2,5.2,18.9,9.5,28.9,13.1c0.6,0.2,1.4-0.1,1.7-0.7
					c3.9-8.9,8-17.7,12.4-26.4c0.9-1.7-1.7-3.2-2.6-1.5c-4.4,8.7-8.5,17.5-12.4,26.4c0.6-0.2,1.1-0.5,1.7-0.7
					c-9.2-3.3-18.1-7.2-26.6-11.9c-4.1-2.2-8-4.7-11.9-7.2c-4.1-2.7-8.9-5.4-11.8-9.5c-0.4,0.8-0.9,1.5-1.3,2.3
					c11.8-0.5,23.1,0.7,34.6,2.8c7.3,1.3,10.5-2.8,12.1-9.5C691.9,493.3,689,492.5,688.6,494.4L688.6,494.4z"/>
			</g>
		</g>
		<path class="st9" d="M695.4,496.8c5.7-5.1,13.7-12.5,23.2-21.6c44.6-42.8,49.9-55.4,63.5-55.6c19.8-0.2,23.9,26.6,54.2,47.6
			c27.8,19.3,59.6,21.2,80.8,20.2c3.4,2.3,6.7,4.5,10.1,6.8c-2.8,2.7-7.2,6.4-13.3,9.7c-6.3,3.4-11.6,4.7-17.2,6.1
			c-8.4,2.1-15.7,3.9-23.5,3.4c-11.7-0.7-20.3-6.3-27.2-11.2c-29.2-20.5-65.5-53.8-71-58.8c-7.9,7.4-13.9,13.7-17.7,18
			c-9.4,10.4-13.3,16.2-24.2,28.2c-5.6,6.2-10.4,11.1-13.3,14C711.6,501.4,703.5,499.1,695.4,496.8z"/>
	</g>
	<g id="hand_right">
		<path class="st3" d="M941.3,341.7c-3.5-0.8-6.7,1.9-13.1,7.5c-2.5,2.2-4.5,4.1-12.9,13.1c-6.5,7-9.3,9.9-14,10.7
			c-1,0.2-3.5,0.6-6.4-0.3c-5.1-1.6-6.8-6-10.7-10.8c-3.7-4.5-3.7-2.6-13.2-11c-6-5.3-5.9-5.9-16.8-16.3c-5.7-5.4-7.6-7-9.3-8.3
			c-1.2-1-5.8-4.5-12.7-8.5c-9.6-5.5-14.8-6.7-17.2-7.1c-2.5-0.4-6.3-1.1-6.8,0.1c-0.8,1.8,6.5,7,12.8,11.1
			c-6.2,1.2-9.8,4.1-11.5,5.7c-1.7,1.6-5.3,5-4.3,8c0.7,2.3,3.7,3.1,4.3,3.3c5.3,1.5,10.1-3.2,10.5-3.6c-5.6,7.5-6.2,9.5-5.7,10
			c0.9,0.8,4.8-3.9,9.7-3.1c3.5,0.5,4.4,3.4,7.9,5.4c2.8,1.7,7.5,3,15.5,0.8c3.1,6.5,6.2,12.2,9.2,17.1c6.2,10,12.5,20.1,23.9,28.8
			c6.3,4.8,10,7.5,15.7,8.1c8.2,0.9,14.5-3.3,24.8-10.1c6.2-4.1,13.8-9.2,20.4-18.7c4.1-6,8.5-12.5,7.3-20.5
			C947.9,349.1,945.7,342.8,941.3,341.7z"/>
		<path class="st10" d="M814.1,345.3c2-1.6,5.3-3.9,9.8-5.1c1.9-0.5,3.5-0.7,5.2-0.8c3.5-0.3,9.7-0.4,18.5,0.8
			c2.4,4.4,5.9,10.7,10.9,17.7c7.9,11.3,12,17.1,19.7,22.1c3.9,2.5,13.5,8.7,25.3,7.2c3-0.4,8-1.5,21.7-11.7
			c6.5-4.9,15.5-12.1,25.3-22.1c-0.4,2.6-1.1,6.4-3,10.6c-1.2,2.8-3.3,6.6-8.7,12.6c-4.3,4.7-13.1,13.5-27.5,20.9
			c-6.2,3.2-9.4,4.8-13.1,4.9c-8.6,0.3-15-5.4-21.7-11.4c-9-8.1-14.2-16.6-21.3-28.5c-3.9-6.5-6.9-12.1-8.8-16.1
			c-1.7,1.3-4.9,3.1-8.8,2.9c-2.6-0.1-4.7-1.2-6.5-2.1c-4-2-4.5-3.6-6.8-4.4C822.3,342.3,819.1,342.1,814.1,345.3z"/>
		<g>
			<g>
				<path d="M941.3,340.2c-8.5,0.4-14.1,7.8-19.6,13.4c-5.9,6-18.9,24.1-28.4,16.2c-3.8-3.1-6.8-7.5-10.1-11.1
					c-3.5-3.7-7.1-7.3-10.8-10.7c-7.3-6.8-15-13-23.1-18.8c-1.6-1.1-3.1,1.5-1.5,2.6c9.1,6.5,17.7,13.6,25.8,21.4
					c3.8,3.7,7.6,7.6,11.1,11.6c2.8,3.2,5.5,7.4,9.5,9.2c7.4,3.3,14.6-3.2,19.4-8.1c4.1-4.1,8.1-8.2,12.2-12.3
					c4.3-4.4,8.8-10.2,15.4-10.5C943.2,343.2,943.2,340.2,941.3,340.2L941.3,340.2z"/>
			</g>
		</g>
		<g>
			<g>
				<path d="M841.3,327.9c-3.2-0.6-6.4-0.4-9.4,0.9c-2.4,1-6.1,3.1-7,5.8c-2.2,6.3,13.8,2.8,16.4,2.5c1.9-0.3,1.1-3.2-0.8-2.9
					c-2.3,0.3-4.7,0.6-7.1,0.8c-1.1,0.1-2.1,0.2-3.2,0.2c-1.2,0.1-2.5,0.7-1.6-0.7c2.3-3.4,8.2-4.3,11.9-3.7
					C842.4,331.1,843.2,328.3,841.3,327.9L841.3,327.9z"/>
			</g>
		</g>
		<g>
			<g>
				<path d="M850.3,330.1c-8.6-10.6-23.3-17.9-36.4-21.2c-3.6-0.9-8.9-0.1-6.8,4.8c2.3,5.3,11.2,6.9,15.9,8.7
					c1.8,0.7,2.6-2.2,0.8-2.9c-2.2-0.9-4.5-1.7-6.7-2.6c-1.1-0.4-2.9-0.8-3.8-1.6c-0.4-0.2-0.8-0.4-1.2-0.7c0.3-1,0.7-1.9,1-2.9
					c1-0.4,4.9,1.7,5.9,2.1c2.4,0.9,4.8,1.8,7.1,2.8c8.4,3.6,16.2,8.3,22.1,15.4C849.4,333.7,851.5,331.5,850.3,330.1L850.3,330.1z"
					/>
			</g>
		</g>
		<g>
			<g>
				<path d="M820.9,320.5c-4.2-0.1-7.9,1.6-10.9,4.4c-2.3,2.1-6.3,6.4-6.5,9.7c-0.2,2.6,2.5,3.9,4.7,3c2-0.8,3.4-2.8,5.2-3.9
					c2.1-1.4,4.5-2.3,6.9-3c1.9-0.5,1.1-3.4-0.8-2.9c-2.4,0.6-4.7,1.5-6.8,2.8c-1,0.6-1.9,1.2-2.8,1.9c-0.5,0.4-2.4,2.8-3,1.3
					c-0.2-0.4,1.9-2.9,2.2-3.3c0.9-1.2,1.9-2.4,3-3.4c2.5-2.3,5.4-3.6,8.8-3.5C822.8,323.6,822.8,320.6,820.9,320.5L820.9,320.5z"/>
			</g>
		</g>
		<g>
			<g>
				<path d="M807.1,336.7c-0.8,2,1.1,3.8,3,3.8c1.5-0.1,3-0.9,4.3-1.4c1.9-0.7,3.8-1.4,5.7-2.2c1.8-0.7,1-3.6-0.8-2.9
					c-1.6,0.6-3.2,1.2-4.9,1.9c-0.8,0.3-1.6,0.6-2.4,0.9c-0.3,0.1-2,0.5-2.1,0.7C810.7,335.7,807.8,334.9,807.1,336.7L807.1,336.7z"
					/>
			</g>
		</g>
		<g>
			<g>
				<path d="M818.7,335.1c-2.8,2-7.2,6.4-6.1,10.4c0.7,2.4,3.4,2.8,5.5,1.8c3.5-1.6,3.2-5.1,8.8-1.3c1.8,1.2,2.8,2.5,4.9,3.3
					c5,1.8,10.4,0.3,15.3-1.1c1.8-0.5,1.1-3.4-0.8-2.9c-3.6,1-7.3,2.1-11.1,1.6c-4.3-0.6-6-4-9.6-5.6c-1.4-0.6-3.1-0.8-4.5-0.2
					c-0.7,0.3-1.6,1.4-2.2,1.6c-0.9,1.5-1.6,1.2-2.2-1.1c0.9-1.6,2.1-2.9,3.6-3.8C821.8,336.6,820.3,334,818.7,335.1L818.7,335.1z"
					/>
			</g>
		</g>
		<g>
			<g>
				<path d="M845.9,349.1c5.4,11.8,12.4,22.8,20.7,32.8c6.8,8.1,16.5,20.6,27.8,21.8c5.6,0.6,11.1-1.9,16.1-4.1
					c5.6-2.5,10.8-5.7,15.7-9.3c9.2-6.9,16.8-15.6,22.6-25.5c1-1.7-1.6-3.2-2.6-1.5c-5.5,9.5-12.8,17.8-21.6,24.4
					c-4.1,3.1-8.4,5.8-13,8c-5.4,2.7-12.4,6.3-18.5,4.8c-6.2-1.5-11.1-6.5-15.4-10.8c-3.8-3.7-7.3-7.7-10.7-11.8
					c-7.5-9.3-13.7-19.5-18.6-30.3C847.7,345.9,845.1,347.4,845.9,349.1L845.9,349.1z"/>
			</g>
		</g>
	</g>
	<g id="torso">
		<path class="st1" d="M937.4,342.4c-3.3,4-6.7,9.6-13.5,20.9c-8.1,13.3-13.5,23.3-17.4,30.1c-5.2,9.4-12.8,22.5-22.5,38.6
			c1.2,6.7,3.4,15,7.6,23.7c10.3,21.4,26.5,33.5,35.2,39c9.5-6,24.3-17,37.3-35.2c21.6-30.3,23.8-60.8,24.6-74.1
			c1.2-21-0.6-63.9-16.2-67.9C960.1,314.3,942.3,336.4,937.4,342.4z"/>
	</g>
	<g id="head">
		<path class="st3" d="M913.7,258.2c-1.9,1.6-7.2,6.3-8.9,14.3c-1.4,6.6,0.4,12.1,1.3,14.4c-0.6,3.9-1.1,8.3-1.3,12.9
			c-0.5,10.3,0.5,19.4,1.8,26.9c1.7-2.2,3.3-4.4,5-6.6c1,2.1,2.3,4.3,3.8,6.5c5.9,8.7,13.2,14.1,18.7,17.4c2.7-1.1,5.9-2.8,9.3-5.2
			c2.6-1.9,4.7-3.7,6.4-5.5c2.4,2.5,4.7,5,7.1,7.6c3.1-3.2,7.1-7.9,10.8-14.1c2.3-3.9,6.6-11.1,8.6-20.7c1.4-6.6,4.6-22.2-4.8-36.3
			c-7.7-11.6-19.5-15.4-22.9-16.4C945.3,252.5,926.6,247.3,913.7,258.2z"/>
		<path class="st11" d="M942.6,277.4c-3.2,4.8,0.4,10.5,2.4,19.5c2.2,10.2,2.2,25.1-7.5,45.6c4.1-3,8.2-6.1,12.3-9.1
			c2.4,2.5,4.7,5,7.1,7.6c3.8-2.8,9.2-7.6,13-15.2c2.9-5.9,3.6-12.5,4.7-25.5c1.1-12.7,1.6-19.1-0.7-22.2
			C967.2,269.3,947.7,269.6,942.6,277.4z"/>
		<path class="st2" d="M904.8,299.8c-0.6-3-2.6-14.9,4.6-26.7c4.8-7.9,11.4-11.8,14.6-13.5c-0.2,1.6-1,11.1,6,19.2
			c7.6,8.6,18.1,8.5,19.6,8.4c0.6-1,2.4-4,5.7-4.9c4.9-1.2,9.5,3,11.5,6.6c0.4,0.8,2.3,4.5,1.1,9.1c-1.3,4.9-5.9,8.7-11.5,9.5
			c0.6,2.1,1.7,5.3,3.6,8.7c6,11.1,18.5,22.4,25.4,19.7c1.7-0.7,4.2-2.7,6.4-18.8c3.1-22.4,4.6-33.5-0.7-45.4
			c-6.4-14.4-18.1-21.8-24.1-25.6c-8.2-5.1-19.6-12.3-34.4-10.3c-16.8,2.3-26.5,14.7-30.9,20.2c-1.8,2.3-19,24.2-10.7,36.6
			C894,297.2,899.8,299.1,904.8,299.8z"/>
		<path class="st2" d="M915,329.5c-0.7,1.8-1.8,5.5-1.1,9.9c0.4,2.4,1.4,8.7,6.7,11.4c4.5,2.2,9.2,0.4,10.3,0c1-2.7,1.9-5.4,2.9-8.1
			c-2.8-1.8-5.7-3.7-8.6-5.7C921.7,334.5,918.3,332,915,329.5z"/>
		<g>
			<g>
				<path class="st7" d="M905.9,278.8c-3.1,16.2-3.6,32.6-1.5,49c0.2,1.4,2,2.1,2.8,0.8c2-3.3,4-6.5,5.9-9.8c1-1.7-1.6-3.2-2.6-1.5
					c-2,3.3-4,6.5-5.9,9.8c0.9,0.3,1.9,0.5,2.8,0.8c-2.1-16.1-1.6-32.3,1.4-48.2C909.2,277.7,906.3,276.9,905.9,278.8L905.9,278.8z"
					/>
			</g>
		</g>
		<g>
			<g>
				<path class="st7" d="M910.2,320.8c5,10,12.9,18,22.9,23.1c1.7,0.9,3.2-1.7,1.5-2.6c-9.6-4.9-17-12.4-21.8-22
					C912,317.6,909.4,319.1,910.2,320.8L910.2,320.8z"/>
			</g>
		</g>
		<g>
			<g>
				<path class="st7" d="M918.3,328.7c5.2-3.1,8.6-8.3,9.5-14.2c0.3-1.9-2.6-2.7-2.9-0.8c-0.7,5.2-3.5,9.7-8.1,12.4
					C915.2,327.1,916.7,329.7,918.3,328.7L918.3,328.7z"/>
			</g>
		</g>
		<g>
			<g>
				<path class="st7" d="M926.3,304.4c1.9,0,1.9-3,0-3C924.4,301.4,924.4,304.4,926.3,304.4L926.3,304.4z"/>
			</g>
		</g>
		<g>
			<g>
				<path class="st7" d="M931.5,301.6c1.9,0,1.9-3,0-3C929.6,298.6,929.6,301.6,931.5,301.6L931.5,301.6z"/>
			</g>
		</g>
		<g>
			<g>
				<path class="st7" d="M930.3,308c1.9,0,1.9-3,0-3C928.4,305,928.4,308,930.3,308L930.3,308z"/>
			</g>
		</g>
		<ellipse class="st7" cx="919.8" cy="294.5" rx="2.2" ry="5.6"/>
		<g>
			<g>
				<path class="st7" d="M915.8,281.9c2.9-3.4,8.3-3.1,10.2,1.3c0.7,1.8,3.6,1,2.9-0.8c-2.6-6.3-10.6-8-15.2-2.7
					C912.4,281.3,914.5,283.4,915.8,281.9L915.8,281.9z"/>
			</g>
		</g>
		<g>
			<g>
				<path class="st7" d="M950.8,288c3.3-7.6,12.3-3.9,14.8,2.2c2.8,7-0.8,16.1-9.2,15.9c-1.9-0.1-1.9,2.9,0,3
					c10.9,0.3,15.9-11.8,11.7-20.9c-3.7-7.8-15.7-11.1-19.8-1.7C947.4,288.2,950,289.7,950.8,288L950.8,288z"/>
			</g>
		</g>
		<g>
			<g>
				<path class="st7" d="M935.3,344.4c6.4-0.9,11.1-5.9,15.2-10.5c4.4-4.8,10-10.6,10.9-17.3c0.3-1.9-2.6-2.7-2.9-0.8
					c-0.9,6.1-6.1,11.5-10.2,16c-3.8,4.2-8,8.9-13.9,9.7C932.6,341.8,933.4,344.6,935.3,344.4L935.3,344.4z"/>
			</g>
		</g>
		<g>
			<g>
				<path class="st7" d="M948.7,334.4c2.1,2.1,4.2,4.1,6.3,6.2c1.4,1.4,3.5-0.8,2.1-2.1c-2.1-2.1-4.2-4.1-6.3-6.2
					C949.4,330.9,947.3,333.1,948.7,334.4L948.7,334.4z"/>
			</g>
		</g>
		<g>
			<g>
				<path class="st7" d="M956.6,309.6c1.8,5.7,4.1,11.2,6.7,16.6c0.8,1.7,3.4,0.2,2.6-1.5c-2.5-5.2-4.6-10.4-6.4-15.9
					C959,307,956.1,307.8,956.6,309.6L956.6,309.6z"/>
			</g>
		</g>
	</g>
	<g id="laptop">
		<path class="st4" d="M756,388.3c22.9,2.8,45.8,5.6,68.8,8.4c5.7-15.1,11.3-30.1,17-45.2c-18.1-0.9-36.1-1.7-54.2-2.6
			C777,362,766.5,375.2,756,388.3z"/>
		<path class="st4" d="M787.5,348.9C777,362,766.5,375.2,756,388.3c-10.8-23.8-21.7-47.6-32.5-71.3c14.1-9.4,28.2-18.7,42.2-28.1
			C773,308.9,780.3,328.9,787.5,348.9z"/>
		<g>
			<g>
				<path d="M730.7,320.1c8.3,18.5,16.6,37,24.9,55.5c0.8,1.8,3.4,0.2,2.6-1.5c-8.3-18.5-16.6-37-24.9-55.5
					C732.5,316.8,729.9,318.4,730.7,320.1L730.7,320.1z"/>
			</g>
		</g>
		<g>
			<g>
				<path d="M734.2,320.9c9.9-6.9,19.6-14.2,28.9-21.9c1.5-1.2-0.6-3.3-2.1-2.1c-9.1,7.5-18.6,14.7-28.3,21.4
					C731.2,319.4,732.7,322,734.2,320.9L734.2,320.9z"/>
			</g>
		</g>
		<g>
			<g>
				<path d="M761.8,298.5c5.9,16,11.9,32,18.2,47.9c0.7,1.8,3.6,1,2.9-0.8c-6.2-15.9-12.3-31.8-18.2-47.9
					C764.1,295.9,761.2,296.6,761.8,298.5L761.8,298.5z"/>
			</g>
		</g>
		<g>
			<g>
				<path d="M758.4,375.4c8.5-8.5,16.3-17.6,23.6-27.2c1.2-1.5-1.4-3-2.6-1.5c-7.1,9.4-14.8,18.2-23.1,26.6
					C754.9,374.6,757,376.7,758.4,375.4L758.4,375.4z"/>
			</g>
		</g>
		<g>
			<g>
				<path d="M744,331.1c2.5-1.7,5.1-3.4,7.6-5.1c1.6-1.1,0.1-3.7-1.5-2.6c-2.5,1.7-5.1,3.4-7.6,5.1
					C740.9,329.6,742.4,332.2,744,331.1L744,331.1z"/>
			</g>
		</g>
		<g>
			<g>
				<path d="M747,336.2c5.6-3.9,11.2-7.9,16.9-11.8c1.6-1.1,0.1-3.7-1.5-2.6c-5.6,3.9-11.2,7.9-16.9,11.8
					C743.9,334.7,745.4,337.3,747,336.2L747,336.2z"/>
			</g>
		</g>
		<g>
			<g>
				<path d="M754.8,341.4c2.8-2.3,5.6-4.5,8.4-6.8c1.5-1.2-0.6-3.3-2.1-2.1c-2.8,2.3-5.6,4.5-8.4,6.8
					C751.2,340.4,753.3,342.6,754.8,341.4L754.8,341.4z"/>
			</g>
		</g>
		<g>
			<g>
				<path d="M754.8,349c4.6-3.3,9.2-6.5,13.8-9.8c1.6-1.1,0.1-3.7-1.5-2.6c-4.6,3.3-9.2,6.5-13.8,9.8
					C751.8,347.6,753.3,350.2,754.8,349L754.8,349z"/>
			</g>
		</g>
		<g>
			<g>
				<path d="M791.2,357c-6.6,8.4-13,17-19.1,25.8c-1.1,1.6,1.5,3.1,2.6,1.5c5.9-8.6,12.1-17,18.6-25.1
					C794.5,357.6,792.4,355.5,791.2,357L791.2,357z"/>
			</g>
		</g>
		<g>
			<g>
				<path d="M803.1,357.3c-6.2,8.4-12.4,16.9-18.4,25.5c-1.1,1.6,1.5,3.1,2.6,1.5c6-8.5,12.2-17,18.4-25.5
					C806.8,357.2,804.2,355.7,803.1,357.3L803.1,357.3z"/>
			</g>
		</g>
		<g>
			<g>
				<path d="M815,357.3c-6.1,9-12.2,18-18.3,27c-1.1,1.6,1.5,3.1,2.6,1.5c6.1-9,12.2-18,18.3-27C818.6,357.2,816,355.7,815,357.3
					L815,357.3z"/>
			</g>
		</g>
		<g>
			<g>
				<path d="M776.1,380.7c8.2,1.1,16.3,1.8,24.5,2.3c1.9,0.1,1.9-2.9,0-3c-8.2-0.5-16.4-1.2-24.5-2.3
					C774.2,377.4,774.2,380.4,776.1,380.7L776.1,380.7z"/>
			</g>
		</g>
		<g>
			<g>
				<path d="M780.4,373.8c7.6,1.1,15.2,1.8,22.8,2.2c1.9,0.1,1.9-2.9,0-3c-7.4-0.4-14.7-1.1-22-2.1
					C779.3,370.6,778.5,373.5,780.4,373.8L780.4,373.8z"/>
			</g>
		</g>
		<g>
			<g>
				<path d="M786.3,366.7c2.8,1.2,5.8,1.1,8.7,1.4c4.3,0.3,8.6,0.7,12.8,1c1.9,0.2,1.9-2.8,0-3c-3.2-0.3-6.4-0.5-9.6-0.8
					c-3.1-0.3-7.5,0.1-10.4-1.2C786,363.4,784.5,365.9,786.3,366.7L786.3,366.7z"/>
			</g>
		</g>
		<g>
			<g>
				<path d="M793.1,362.1c6.5,0.6,12.9,1.2,19.4,1.7c1.9,0.2,1.9-2.8,0-3c-6.5-0.6-12.9-1.2-19.4-1.7
					C791.2,358.9,791.2,361.9,793.1,362.1L793.1,362.1z"/>
			</g>
		</g>
		<g>
			<g>
				<path d="M804.4,378.4c3.1,0.8,6.2,0.8,9.3-0.1c1.9-0.5,1.1-3.4-0.8-2.9c-2.6,0.7-5.1,0.8-7.7,0.1
					C803.3,375,802.5,377.9,804.4,378.4L804.4,378.4z"/>
			</g>
		</g>
		<g>
			<g>
				<path d="M813.8,364.7c2.1,0.4,4.2,0.6,6.3,0.4c1.9-0.2,1.9-3.2,0-3c-1.9,0.2-3.7,0.1-5.5-0.3
					C812.7,361.4,811.9,364.3,813.8,364.7L813.8,364.7z"/>
			</g>
		</g>
		<g>
			<g>
				<path d="M818.9,363.3c-2.9,4-5.2,8.4-7,13c-0.7,1.8,2.2,2.6,2.9,0.8c1.7-4.4,4-8.4,6.7-12.2C822.6,363.2,820,361.7,818.9,363.3
					L818.9,363.3z"/>
			</g>
		</g>
		<g>
			<g>
				<path d="M820.8,367.4c-1.1,3-2.2,6-3.2,9.1c-0.4,1,0.6,1.8,1.4,1.9c1.9,0.2,3.8,0.3,5.8,0.2c1.9-0.1,1.9-3.1,0-3
					c-1.9,0.1-3.8,0.1-5.8-0.2c0.5,0.6,1,1.3,1.4,1.9c1.1-3,2.2-6,3.2-9.1C824.3,366.4,821.4,365.6,820.8,367.4L820.8,367.4z"/>
			</g>
		</g>
		<g>
			<g>
				<path d="M822.2,368.6c1.2,0,2.5,0.1,3.7,0.3c0.4,0.1,1.2,0.1,1.5,0.4c0.4,0.3,0.2,0.1-0.3,0.9c-1,1.9-1.8,4-2.6,6
					c-0.8,1.8,1.8,3.3,2.6,1.5c0.8-1.8,1.6-3.5,2.3-5.3c0.5-1.2,1.6-2.8,1.2-4.1c-0.8-2.7-6.2-2.7-8.4-2.7
					C820.2,365.6,820.2,368.6,822.2,368.6L822.2,368.6z"/>
			</g>
		</g>
	</g>
	<g id="hand_left">
		<path class="st3" d="M918.1,386.4c1.7-4.9,4.1-11.7,7-19.8c6.7-18.7,8.9-23.8,12.8-29.6c4.4-6.5,9.2-13.4,17.8-16
			c1.8-0.5,8.9-2.6,13,1c3.7,3.3,3.1,9.6,2.3,14.9c-2.9,19.1-9.2,34.1-11,38.3c-9.3,21.6-14.1,32.6-23.1,43.4
			c-5.2,6.3-10.2,11-13.8,14.1c-3.4-0.6-7.8-1.8-12.9-3.9c-1.5-0.6-7.8-3.3-14.5-8.4c-10.8-8.2-17.3-18.5-23.4-27.3
			c-5.5-7.9-13.7-19-25-31.9c-5.3,1.8-8.3,0.9-10-0.1c-2.9-1.8-2.7-4.7-6.7-11.7c-2.8-4.8-4.2-7.1-6.4-7.6c-3.5-0.8-5.4,3.2-12.8,5
			c-1.4,0.3-6,1.5-6.7,0.2c-0.7-1.2,1.8-4.7,15.9-15.1c-1.6-0.4-4-0.8-6.8-0.2c-4,0.9-5.1,3.2-8.7,3.9c-2.6,0.5-6.9,0.1-7.8-2
			c-1.7-3.6,6.8-12.3,16.2-16.5c4-1.8,7.7-2.5,10.2-2.8c-15.6-5.3-19-7.8-18.7-9.1c0.4-1.8,7.6-2.3,13.6-1.2
			c7.7,1.5,12.8,5.7,17.3,9.5c3.6,3,8.7,8,13.4,15.6c-0.4-4.8,0.9-8.4,2.9-8.9c2.2-0.5,4.8,2.9,5.3,3.6c2.5,3.3,2.8,6.8,3,8.2
			c0.6,5.7,1.5,12.2,2.6,20.1c5.7,3.1,11.4,6.4,17.2,9.9C893.6,370.2,906.2,378.3,918.1,386.4z"/>
		<path class="st12" d="M963.2,319c-4,0.8-2.9,11.5-6.8,28.3c-4.7,20.5-13.2,34.4-18.4,42.9c-9.8,16-15.9,26-24.9,26.4
			c-5.8,0.3-9.4-3.7-28.4-26.1c-3.8-4.5-25.3-26.8-41-43.7c-6.3-6.8-11.5-12.4-18.8-12.3c-10.3,0.2-19.3,11.8-18.4,13.1
			c0.5,0.8,5.1-1.3,7.7-2.4c5.7-2.5,6.3-4,8.4-3.8c1.3,0.1,2.6,0.9,8.9,10.2c3.8,5.7,4.6,7.4,7,8.7c3,1.7,6.3,1.5,8.7,1.1
			c2.9,3.4,7.4,8.7,12.7,15.4c19.6,24.8,23.3,34.4,35.8,43.6c5.5,4.1,14.3,9.3,27.3,12.3c3.3-2.7,7.7-6.6,12.3-12
			c2.6-3.1,7.3-8.9,14.5-22.9c11.3-21.8,6.9-20.9,18.4-46c3.1-6.8,6.1-12.8,4.6-20.1C971.5,325.1,966.6,318.4,963.2,319z"/>
		<g>
			<g>
				<path class="st7" d="M921.3,384.7c4.2-16.5,9.5-34.3,19-48.7c4.3-6.6,12.5-16.3,21.4-15.7c11.8,0.9,10.1,15.6,7.7,23.4
					c-9.4,30.9-21.4,62.3-43.8,86.3c-1.3,1.4,0.8,3.5,2.1,2.1c20.7-22.2,32.3-50.4,41.7-78.8c3.4-10.3,10-26.3-1.8-34
					c-11.2-7.3-23.9,6.1-29.5,14.5c-9.9,14.7-15.4,33.1-19.7,50.1C917.9,385.8,920.8,386.6,921.3,384.7L921.3,384.7z"/>
			</g>
		</g>
		<g>
			<g>
				<path class="st7" d="M862.6,354c18.5,11.2,36.9,22.3,55.4,33.5c1.7,1,3.2-1.6,1.5-2.6c-18.5-11.2-36.9-22.3-55.4-33.5
					C862.4,350.4,860.9,353,862.6,354L862.6,354z"/>
			</g>
		</g>
		<g>
			<g>
				<path class="st7" d="M864.5,353c-0.5-5.7-1.3-11.3-2.4-16.8c-1-4.7-1.7-11.6-4.5-15.5c-1.5-2-4.4-3.6-6.7-1.8
					c-2.7,2.1-2.1,7.8-2.3,10.7c-0.2,1.9,2.8,1.9,3,0c0.1-1.4,0.2-2.7,0.4-4.1c0.1-0.8,0.1-1.6,0.2-2.4c1.3,0.5,2.6,0.9,3.9,1.4
					c1.4,1.3,2,7,2.4,8.9c1.5,6.5,2.5,13,3.1,19.7C861.7,354.9,864.7,354.9,864.5,353L864.5,353z"/>
			</g>
		</g>
		<g>
			<g>
				<path class="st7" d="M850.5,327.4c-5.4-9.2-12.4-17.8-22.4-22.1c-5.8-2.5-19.8-5.8-23.7,1.3c-0.5,0.8-0.1,2,0.9,2.2
					c6.7,1.8,13,4.3,19.1,7.6c1.7,0.9,3.2-1.7,1.5-2.6c-6.3-3.4-12.9-6-19.8-7.9c0.3,0.7,0.6,1.5,0.9,2.2c2.1-3.7,10.5-2.6,13.9-1.9
					c3.8,0.8,7.4,2.3,10.7,4.4c7.1,4.5,12.2,11.3,16.4,18.5C848.9,330.6,851.5,329.1,850.5,327.4L850.5,327.4z"/>
			</g>
		</g>
		<g>
			<g>
				<path class="st7" d="M823.6,313c-6.8,0.7-13,3.2-18.1,7.8c-4.1,3.7-9.2,10.3-8.9,16.3c0,0.7,0.5,1.2,1.1,1.4
					c3,1.3,6.3-0.5,9-1.9c5-2.7,9.8-5.1,15.7-4.6c1.9,0.2,1.9-2.8,0-3c-3.8-0.3-7.3,0.4-10.9,1.8c-3.4,1.4-9.3,6.3-13,4.8
					c0.4,0.5,0.7,1,1.1,1.4c-0.3-5.1,4.5-11,8-14.1c4.5-4,10-6.3,16-6.9C825.5,315.9,825.5,312.9,823.6,313L823.6,313z"/>
			</g>
		</g>
		<g>
			<g>
				<path class="st7" d="M801.8,335.5c5.5-6.8,13.2-10.8,21.9-11.4c1.9-0.1,1.9-3.1,0-3c-9.4,0.7-18,4.9-24,12.3
					C798.5,334.9,800.6,337,801.8,335.5L801.8,335.5z"/>
			</g>
		</g>
		<g>
			<g>
				<path class="st7" d="M820.2,330.6c-6.5,2.5-12.4,6.8-15.7,13c-2.1,3.9-1.3,8.1,3.9,6.4c3.8-1.2,7-3.8,10.6-5.5
					c7.9-3.8,9.6,4.8,12.2,9.8c3,5.7,8.1,9.7,14.8,8.7c1.9-0.3,1.1-3.2-0.8-2.9c-14.2,2.2-10.3-20.8-22.8-19.9
					c-1.7,0.1-3.4,1-4.9,1.7c-1.9,1-5.7,4.2-7.8,4.2c-5.5,0.1,0.8-5.9,2.3-7.2c2.7-2.4,5.7-4.2,9-5.5
					C822.8,332.8,822,329.9,820.2,330.6L820.2,330.6z"/>
			</g>
		</g>
		<g>
			<g>
				<path class="st7" d="M846.3,362.4c13.3,15.2,24.1,32.4,37.8,47.2c5.8,6.3,12.2,12.1,19.3,16.9c6.4,4.4,14.1,9.3,22.2,7.3
					c1.9-0.5,1.1-3.4-0.8-2.9c-9.1,2.3-19.8-6.4-26.3-11.8c-6.1-5-11.6-10.7-16.8-16.7c-11.7-13.6-21.5-28.6-33.3-42.1
					C847.1,358.8,845,360.9,846.3,362.4L846.3,362.4z"/>
			</g>
		</g>
	</g>
</g>
</svg>
